<svg width="247" height="529" fill="none" xmlns="http://www.w3.org/2000/svg"><path d="M73.5 58.44c2.631 37.16 58.742 37.41 76.1 14.95l.683.684c-1.071 2.43-.497 3.129 2.717 5.434v.683c-1.491-.784-3.354-3.54-5.092-3.4-.559.047-8.99 5.923-9.176 6.459-.715 2.111 8.989 36.012 9.509 43.488 1.304 18.615-2.259 24.368-5.434 40.429l-1.358.683c5.519-7.367 6.117-32.596 5.434-41.788-1.048-14.136-6.591-27.48-8.835-41.446l-1.016-1.017-5.093 2.717a39.893 39.893 0 0 0-7.476 2.042c-.559.21-.815.613-1.358.683-.668-.008-1.374-.047-2.042 0-3.447.256-7.033 1.273-10.534 1.359 1.32 1.125 4.797.822 6.459.683v.683c-5.962.473-12.227-1.444-16.986.683a9.776 9.776 0 0 0 0-1.359c-.17-1.964.163-3.415-3.734-3.4-1.777.008-.59 1.856-1.358 2.042-.769.186-.932-2.6-2.042-3.4-5.845-4.231-6.45 1.265-11.551 2.717-4.41 1.257-13.508 2.694-17.668.683-1.421 1.778.877 2.43 1.016 2.717.093.186-.108.543 0 .683-3.695-1.405-3.524 4.736-6.792 6.459l22.086 15.968c-7.422-5.17-18.702-9.665-24.803-16.31-.132-.14-.52-1.14-.683-1.358 3.586-1.165 5.45-2.85 6.117-5.434 2.46-9.588-.761-3.105-1.359-2.717.078-.614-.186-.59-.683-.683.047-.668-.085-1.382 0-2.042.124-.955.916-1.35 1.359-2.042.908.916 4.89 4.541 5.775 4.759 2.997.73 15.231-1.801 18.01-3.4.707-.404 3.734-2.019 3.4-3.059-6.505-2.903-10.728-7.825-12.91-14.61-.884-2.763-1.839-7.375-2.04-10.192H73.5v-.031Z" fill="#030404"/><path d="M100.004 91.052c-4.223 11.769-5.8 24.531-5.434 37.029.334 11.528 2.119 30.493 10.868 38.388.109.155-.109.528 0 .683 2.111 2.973 2.989 4.526 6.792 5.776-9.323 2.507-12.669-8.819-15.968-15.969-2.251.412 3.726 11.21 5.093 11.893-7.98-1.871-7.631-9.944-10.535-15.968.389 8.167 3.649 14.346 9.851 19.368-9.812-3.904-8.81 9.89-13.25 11.21-3.005.893-8.525-1.164-12.235-.683-8.61 1.126-6.063 2.655-17.669 2.042-1.11-.062-4.425 2.321-6.458.341 2.818-.877 5.713-3.346 3.4-6.459.108-.031-.07-1.808 1.017-2.041.302-.062 4.502.667 6.117.683.124 0 1.917-1.366 2.041-1.359.482.047 5.303 4.161 6.793 4.076-4.456 3.85 3.004 1.343 3.4 1.359 3.571.116 12.142 2.057 13.927-.342.893-1.188 1.53-5.271 2.717-7.476.714-1.327 3.812-2.367 4.076-3.4.31-1.226-2.228-5.193-2.717-7.134-5.403-21.309-7.523-40.639-5.434-62.849-3.013 6.692-1.04 14.307-1.359 21.061-.023.559-1.359.272-1.359.342h-.683c-7.972-9.052-22.24-12.483-29.22-22.42h1.36c6.1 6.645 17.38 11.14 24.802 16.31L57.85 99.545c3.268-1.724 3.098-7.856 6.793-6.459.38.481 1.102 2.251 2.041 1.7l-2.041-2.375c-.148-.288-2.438-.94-1.017-2.717 4.16 2.01 13.251.582 17.668-.684 5.1-1.451 5.706-6.947 11.551-2.717 1.103.8 1.297 3.571 2.042 3.4.745-.17-.42-2.025 1.359-2.041 3.897-.023 3.57 1.436 3.734 3.4h.023Z" fill="#64C4CB"/><path d="M91.852 163.076c-1.552 1.033-.97.342-2.041-.683l-6.118-28.536c.932-1.452-.023-1.297 0-1.359 2.554-7.266-.17-6.684 0-10.868 0-.07 1.336.217 1.359-.342.318-6.753-1.654-14.377 1.358-21.06-2.088 22.209.031 41.547 5.434 62.848h.008ZM100.003 92.41c-1.483 24.407-10.426 50.576 5.434 74.067-8.757-7.903-10.535-26.86-10.868-38.388-.365-12.499 1.21-25.261 5.434-37.03.038.443.023.917 0 1.36v-.009Z" fill="#203638"/><path d="M81.991 107.362c.512.077.97 9.276-.683 10.192-.916-1.032-.14-10.324.683-10.192Z" fill="#004541"/><path d="m62.29 180.062 7.133 3.733c-2.437 1.274-6.303-1.273-7.134-3.733Z" fill="#0A3126"/><path d="m58.214 180.745 3.059 2.376c-.443 1.443-4.192-1.864-3.059-2.376Z" fill="#06606B"/><path d="M64.666 93.093c-.109-.132.093-.489 0-.683l2.042 2.376c-.932.55-1.662-1.22-2.042-1.7v.007Z" fill="#0B7E97"/><path d="M89.81 162.393c-2.74-2.616-2.6-4.875-3.733-8.151-1.475 4.145 2.313 7.196 2.717 10.868-5.683-5.263-7.561-16.069-15.627-18.344 1.328 2.453 4.681 4.022 6.459 6.459 2.631 3.602 4.044 8.33 6.792 11.893l-.683.683-18.344-16.644c-.652-2.468 14.711-12.785 16.31-15.285l6.118 28.537-.008-.016Z" fill="#0FCDD0"/><path d="M83.692 133.857c-1.6 2.507-16.954 12.824-16.31 15.285l18.344 16.644c.466 1.684 2.445 0 .683-.684-2.756-3.563-4.169-8.29-6.793-11.892-1.77-2.43-5.123-3.998-6.458-6.459 8.065 2.282 9.944 13.08 15.626 18.344-.403-3.672-4.192-6.731-2.717-10.868 1.134 3.283.994 5.535 3.734 8.151 1.064 1.017.49 1.708 2.042.683.489 1.941 3.028 5.907 2.717 7.134-.264 1.032-3.361 2.073-4.076 3.4-1.195 2.205-1.824 6.28-2.717 7.476-1.793 2.391-10.355.458-13.926.341-.396-.015-7.856 2.492-3.4-1.358-1.499.085-6.312-4.037-6.793-4.076-.124-.007-1.918 1.359-2.042 1.359-1.614-.016-5.814-.745-6.117-.683-1.094.233-.908 2.003-1.017 2.041-1.583.482.435 1.273-2.041.683 2.282-2.313-1.056-4.323-3.4-4.075-.412-1.102-1.29-.334-1.36-1.359 3.417-1.203 7.92 2.283 10.535 2.042 7.763-.722 2.973-14.788 3.734-20.044 1.343-9.246 14.719-18.15 21.744-23.444-.023.062.932-.093 0 1.359h.008Z" fill="#030404"/><path d="M52.44 179.387c-3.548-.854-2.477-1.614-3.4-4.075 2.336-.249 5.674 1.762 3.4 4.075Z" fill="#E2E2E2"/><path d="M85.053 173.945h-.683c-5.365-2.407-10.07-6.203-15.969-7.476l5.093 3.059c-21.426-5.582 6.97 4.021 10.192 6.117-.303.901-17.288-3.338-18.01-4.417 3.812 5.597 12.39 4.891 18.01 7.134-3.82 1.203-8.95-1.001-12.91-1.7-.256-.047-4.316-1.421-1.358 0l6.117 2.375c-1.125 3.199-11.178-3.12-11.551-4.075-1.809-21.542-.714-35.244 16.985-11.551l-13.593-6.118 11.893 8.493-3.734-1.017c3.035 3.191 6.312 6.156 9.51 9.176h.008Z" fill="#0FCDD0"/><path d="M80.633 166.477c1.39.543 4.658 2.934 4.075 4.758-1.156-1.545-3.633-2.794-4.075-4.758Z" fill="#0FCDD0"/><path d="M84.375 173.945h.683c.078.078 2.33-.039 1.7 1.359-.854.287-2.072-1.219-2.375-1.359h-.008Z" fill="#0C4F68"/><path d="M70.784 176.67h-1.358c-2.958-1.42 1.102-.046 1.358 0Z" fill="#3C595C"/><path d="m85.734 165.794.683-.683c1.763.683-.21 2.36-.683.683Z" fill="#0D688B"/><path d="M60.589 92.41c-1.568 3.618-5.318-.683-6.793-.683l-1.017-3.4c.839-.458 3.066 3.532 6.459 1.359.598-.389 3.82-6.87 1.358 2.717l-.007.007Z" fill="#DCBDB7"/><path d="M60.59 92.41c-.66 2.586-2.53 4.27-6.117 5.434-.574-.784-2.554-1.032-2.041-3.058h3.4l-2.717-3.059c.17-.054.473 0 .683 0 1.475 0 5.224 4.293 6.792.683Z" fill="#5F1015"/><path d="M59.914 84.934c-.442.691-1.242 1.08-1.358 2.042l-4.076-.341c1.498 1.84 1.809 1.979 4.076 2.375.489.085.753.062.683.683-3.393 2.174-5.613-1.816-6.459-1.358l1.017 3.4c-.21 0-.512-.055-.683 0-4.363 1.467-.505 5.79.683 7.475 6.97 9.937 21.247 13.368 29.22 22.42-7.313-5.908-18.632-9.766-25.478-15.627-4.69-4.013-7.119-9.13-11.552-13.593-.147-.147-2.43-.14-3.734-1.7-5.022-6.016 3.455-4.611 3.4-5.434L42.938 81.2h4.758l.342-5.775 3.4 4.758c6.451-7.017 3.059-.753 5.092 2.376.986 1.522 2.655 1.63 3.4 2.375h-.015Z" fill="#030404"/><path d="M54.472 97.845c.163.217.55 1.219.683 1.358h-1.359c-1.18-1.684-5.045-6.008-.683-7.475l2.717 3.058h-3.4c-.512 2.026 1.46 2.275 2.042 3.059ZM58.556 86.976c-.085.66.047 1.374 0 2.042-2.274-.404-2.577-.543-4.075-2.375l4.075.341v-.008Z" fill="#E2E2E2"/><path d="M54.138 80.86c.574-.024 1.677 2.173.683 2.717-2.469 1.35-1.32-2.686-.683-2.717Z" fill="#B5A6A8"/><path d="M51.422 84.935c1.7-.233.737 1.343-.684 1.358-.69-.35.56-1.343.684-1.358Z" fill="#7B7A81"/><path d="m46.662 82.901 1.017.334-.341 1.025-.334-.342-.342-1.017Z" fill="#A4AEB9"/><path d="M121.064 89.01c1.653 1.87-2.531 1.902-4.076 2.041-1.661.148-5.139.443-6.459-.683 3.501-.085 7.088-1.102 10.535-1.358ZM123.104 89.01c.543-.07.799-.466 1.358-.683-.171 2.748-1.227.683-1.358.683Z" fill="#92D2DE"/><path d="M141.448 167.835c-.567.761-6.498 4.394-7.476 4.759l-7.475.683c-8.819 0-13.826-.792-21.061-6.117-.109-.148.108-.528 0-.683-15.86-23.491-6.917-49.652-5.434-74.067 4.766-2.119 11.023-.201 16.985-.683 5.962-.481 14.998-2.142 18.685-6.117-1.203.807-2.585.49-3.734.683l5.093-2.717 1.017 1.017c2.243 13.966 7.786 27.31 8.834 41.446.683 9.192.086 34.421-5.434 41.788v.008Z" fill="#C5C5C6"/><path d="M133.972 172.585c-3.416 1.258-4.13.675-7.476.683l7.476-.683Z" fill="#5F1015"/><path d="M116.986 91.734v-.683c1.545-.14 5.729-.17 4.076-2.041.667-.047 1.366-.008 2.041 0 .132 0 1.188 2.064 1.359-.684a40.467 40.467 0 0 1 7.476-2.041c1.149-.194 2.531.132 3.734-.683-3.688 3.974-12.91 5.651-18.686 6.117v.015Z" fill="#5B9498"/><path d="M101.701 154.241c3.284 12.475 15.394 17.925 27.52 14.61-10.209 6.032-27.481-2.298-27.52-14.61Z" fill="#62575C"/><path d="m143.147 152.883-3.058 11.21-5.093 4.417c4.378-4.573 6.249-9.673 8.151-15.627Z" fill="#6A6D74"/><path d="M105.093 155.6c.427.504 1.677 3.206.683 3.4-.66.132-1.646-2.57-.683-3.4Z" fill="#817D71"/><path d="M134.314 154.925c1.7-.233.737 1.343-.683 1.358-.691-.349.559-1.343.683-1.358Z" fill="#B8B7B0"/><path d="M152.998 80.184c8.826 4.626 20.401 3.734 29.22-2.042.761-.132 1.475.264 2.041.683.66.49.031.94 2.042 1.359v1.358l-2.042 1.017 2.717.342h.684c-1.297 1.42-4.053 4.541.341 4.075 2.484-.264 3.121-6.691 5.776-5.775-6.576 16.597-22.202 22.318-34.312 33.636-2.454.202-6.84-11.007-8.152-12.909 5.101 14.672 13.477 27.612 5.093 43.829l5.092-13.251c6.157 4.238 20.176 12.91 21.403 20.727 1.094 6.948-6.863 16.17 3.734 18.685 6.49 1.537 8.368-3.555 9.851 6.459-2.857 4.409-7.918.054-12.234 3.4.846 1.126 4.184.652 5.434 1.017l-.683 1.359c-6.048.388-10.527-1.685-15.286-2.042-3.345-.248-7.638 1.855-10.868 1.359-4.828-.746-5.675-5.931-8.834-8.835-.885-.815-12.103-3.439-1.359-4.758l-.683 3.4c5.178-2.096 7.911-7.328 12.235-10.868.566-.466 1.304.729 1.358.683 4.363-3.664 8.4-8.004 12.568-11.893-2.367-.171-8.671 7.367-6.458 1.7l-3.734 1.7 6.458-7.134-15.968 15.285 14.61-18.01c-9.409 5.745-13.818 14.315-19.702 23.103l2.375-6.117 1.017-1.359c-1.459-.295-.877 1.203-1.017 1.359-.287.302-3.128 4.378-3.4 2.375l4.758-10.193-3.058 3.059c.916-8.174-2.29 2.243-2.717 2.042.466-10.969 8.003-20.929 5.434-32.613l-9.176 42.472h-2.041l5.775-28.879c-1.793 4.037-4.766 29.701-8.151 29.895-1.312-.815-.551-1.645-.342-2.717 3.176-16.061 6.746-21.813 5.435-40.429-.528-7.476-10.232-41.376-9.51-43.488.178-.528 8.617-6.412 9.176-6.459 1.739-.14 3.602 2.616 5.092 3.4l.008-.007Z" fill="#0FCDD0"/><path d="m189.012 184.138.683-1.359c.784.233 2.212-.613 2.042 1.017-.691.629-1.825.28-2.718.342h-.007Z" fill="#607676"/><path d="M174.402 162.393c.504-.124 2.142-.147 2.375.342-14.649 6.063-25.905 22.171 0 12.909-7.546 5.194-14.99 6.863-21.061-1.358-.272-1.11 17.086-11.497 18.686-11.893Z" fill="#011C1D"/><path d="M185.954 88.335c.489 3.082-3.695 6.133-5.434 8.151-6.831 4.883-15.821 7.553-20.727 14.61l-3.059-16.644 4.076 13.593 19.702-12.91 5.434-6.792.008-.008Z" fill="#004541"/><path d="m192.752 173.27 2.042 5.434-5.093-1.017c1.467-1.646 1.576-1.561 3.4-.683l-.341-3.734h-.008Z" fill="#203638"/><path d="M179.835 169.869c-5.162 5.302 2.073.862 2.376 2.376l-5.776 1.7c-1.421-2.702 2.104-2.81 3.4-4.076Z" fill="#298084"/><path d="M178.477 164.435c3.043.807-4.751 3.625-5.092 3.058l5.092-3.058ZM179.837 154.926c2.135 1.211-3.796 3.439-4.417 3.734l4.417-3.734Z" fill="#056663"/><path d="M159.457 155.601c.575 1.156-1.467 4.029-2.717 4.075.295-1.506 1.63-3.051 2.717-4.075Z" fill="#011F11"/><path d="M155.717 161.718c.147-.155-.443-1.653 1.017-1.358l-1.017 1.358Z" fill="#0A3126"/><path d="M152.321 72.025c-.062.132-1.816 1.537-2.041 2.041l-.683-.683c16.837-21.79-3.525-69.595-33.971-72.024-.148-.8 1.273-1.25 1.358-1.359 13.042 4.138 25.998 10.364 31.937 23.444 6.552 14.424 10.472 33.955 3.4 48.58ZM105.434 2.042c.676-.023 1.367.015 2.042 0-27.178 4.875-35.717 31.781-33.97 56.398h-1.359c-1.428-20.541 7.7-55.575 33.295-56.398h-.008Z" fill="#203638"/><path d="M115.628 1.359c30.454 2.43 50.816 50.234 33.971 72.024-16.846 21.791-73.469 22.21-76.1-14.951-1.747-24.616 6.8-51.523 33.97-56.398 2.065-.372 6.141-.838 8.151-.683l.008.008Z" fill="#0FCDD0"/><path d="M113.25 19.71c20.882-.45 31.292-3.19 35.671 20.044 3.074 16.287 4.067 32.387-13.252 39.746-37.658 16-64.075-3.951-58.773-44.505 2.12-16.224 22.994-14.998 36.354-15.285Z" fill="#1C1213"/><path d="M105.089 21.07c3.245-.234 38.272-1.095 37.03 3.733l-47.222 1.7c-1.972-7.336-5.007.443-5.434.683-2.283 1.242-6.832.21-9.51 1.359 4.402-6.117 17.645-6.94 25.144-7.476h-.008Z" fill="#0FCDD0"/><path d="M118.001 25.82c4.138-.077 17.785-1.894 16.986 3.4l-42.471-.34c7.941-2.182 17.078-2.896 25.478-3.06h.007Z" fill="#0FCDD0"/><path d="M145.186 31.938c1.754.73 4.922 20.183 3.4 22.419-.07.1-1.84-.544-2.375-.342 3.501-1.77-8.314-25.113-1.017-22.085l-.008.008Z" fill="#A8BCBD"/><path d="M80.971 35.337c-1.04 3.758 2.717 5.76 2.717 7.135 0 .76-3.423 9.711-3.4 13.926h-.683c-.745-5.581-2.205-16.488-1.359-21.744l2.717.683h.008Z" fill="#C6CDC8"/><path d="M119.36 30.578c2.709-.093 5.441.07 8.151 0-13.492 4.27-30.392-1.257-41.788 9.176 4.735-9.067 23.809-8.818 33.637-9.176ZM130.236 35.338c4.122-1.964 6.35 4.829 6.793 4.759 1.094-.187-.458-2.5 0-2.717 3.113-1.46 2.624 14.415.683 16.31-1.39-6.87.326-15.27-7.476-18.344v-.008Z" fill="#E2E2E2"/><path d="m80.97 35.338-2.716-.683c.21-1.297.668-4.03 1.7-4.76 1.638-1.156 14.82-2.444 10.193 1.36-1.654 1.358-7.67-1.344-9.176 4.075v.008Z" fill="#0FCDD0"/><path d="M123.442 43.489c1.048-.35 3.633-.226 4.417 1.017-5.884 1.436-5.403 4.308.683 4.758-5.612 6.995-10.782-3.873-5.092-5.776h-.008Z" fill="#E2E2E2"/><path d="M144.845 29.896c-.451.016-.909-.023-1.359 0-19.625-3.773 3.144-7.025 1.359 0Z" fill="#0FCDD0"/><path d="M83.013 68.633h-.683c-2.709-3.812-2.135-7.872-2.717-12.235h.683c.016 3.548 1.413 8.835 2.717 12.235Z" fill="#607676"/><path d="m95.582 56.398 7.134.342c-1.071 1.428-6.955 1.925-7.134-.342Z" fill="#484847"/><path d="M133.636 55.04c.73-.07 5.085-.163 5.092.342-3.485.186-6.295 2.189-9.509.683 1.265.046 3.679-.947 4.417-1.017v-.008Z" fill="#818180"/><path d="M132.953 72.709c.559-.078 1.327-.171 1.7.341.093.326-4.378 2.57-5.434 2.042.582-.551 3.307-2.314 3.734-2.376v-.007Z" fill="#6A6D74"/><path d="M143.486 29.896c.45-.023.908.016 1.358 0-.535 2.104-3.314 1.204-5.092 1.359.256-1.134 2.857-1.304 3.734-1.359Z" fill="#9B7A6C"/><path d="M84.713 56.399c.171-.085 3.129.388 3.735.342l-4.418 1.017c-.652-.35.396-1.22.683-1.359Z" fill="#5A524E"/><path d="M144.502 70.667c2.143.342-2.337 3.703-2.717 3.4-.132-1.358 2.026-2.352 2.717-3.4Z" fill="#298084"/><path d="M86.072 33.979h.683c1.344-.109 1.344.784 0 .683l-.683-.683Z" fill="#5D606D"/><path d="M96.94 41.447c12.452-2.453 7.74 15.262-1.359 10.868-4.564-2.204-4.036-9.804 1.359-10.868Z" fill="#E2E2E2"/><path d="M96.256 42.806c6.49-1.887 8.477 7.607 3.4 8.834-5.419 1.304-8.345-7.398-3.4-8.834Z" fill="#1C1213"/><path d="M128.533 67.95a19.834 19.834 0 0 0-1.358 0c-1.848.046-3.633.054-5.434-.342.31 2.771 4.168 1.017 5.434 1.017.652 0 .745.738 1.358.683-.062.707-6.497 11.916-7.134 12.235-7.15 3.532-22.194-.04-25.478-8.493l4.417-4.417c-2.771 1.273-6.04 1.63-8.834 2.717-2.795 1.087-3.548 5.07-5.776 1.7l15.969-7.134c-5.939-.155-13.57.807-18.344 4.758-1.095-.434-.885-1.847-1.017-2.041h.683c6.886-2.267 13.927-6.606 21.403-4.076-.738-5.015-5.644-1.335-6.118-1.358-1.32-.078-1.777-1.359-2.041-1.359-4.3 0-9.758 2.088-13.252.342 8.742-1.693 12.996-.745 20.727-5.093 1.041-.582 1.949.738 2.042.684 1.273-.746-1.071-2.26-1.017-2.376 1.118-2.764 9.355-4.355 11.893-3.734 1.165.28 7.064 5.55 10.193 6.117 5.729 1.04 14.315-.768 20.385 0-1.102 3.167-18.67-.147-18.685 2.376 5.791 1.475 13.888 5.783 18.685 1.017.924.419-.302 3.213-.683 3.4-3.679 1.77-18.941-2.981-24.119 1.017 7.32-.28 14.423.458 21.402 3.058-5.139.427-10.193-.512-15.285-.683l-.016-.015Z" fill="#E2E2E2"/><path d="M128.534 67.95c-.015.45.039.915 0 1.358-.613.054-.706-.676-1.358-.684v-.683c.559-.015.784-.015 1.358 0v.008Z" fill="#999"/><path d="M108.832 57.757v1.017l1.017.341v-.683l-1.017-.683c2.631-6.715 8.314-2.306 8.151-.342-.039.505-5.807 5.14-4.417 8.493-1.599-.117.24-2.663-.342-3.734-.908-1.677-4.51-2.46-4.759-3.4-.372-1.405 1.328-.94 1.359-1.017l.008.008Z" fill="#030404"/><path d="M117.998 67.95c.761-.28 3.586 3.477 3.734 3.733.179.303-1.754.117-1.359 1.359.055.163 2.718 1.296 2.718 2.042.015 2.926-8.92 4.494-11.21 2.375 2.096-2.826 7.041 1.623 9.176-1.7-3.75.458-5.015-.536-7.476-3.4l5.776.341c-2.026-2.22-.427-1.98-1.359-4.758v.007Z" fill="#1C1213"/><path d="M111.206 71.35c2.228-.14 2.174 2.096 1.7 3.058-1.289 2.616-7.623-1.009-5.092 5.093-.544-1.437-9.626-4.837-6.793-6.118 2.313 5.31 9.595-2.002 10.193-2.041l-.008.008Z" fill="#1C1213"/><path d="M122.759 57.757c.768-.093 3.904-.528 2.717 1.358l-9.176 2.376c-.582-1.289 6.063-3.688 6.459-3.734ZM123.439 60.474c.683-.186 2.399-.124 3.058.341l-6.458 3.734c-.924-1.024 3.144-4.005 3.4-4.075ZM127.174 67.95v.683c-1.265 0-5.123 1.755-5.434-1.017 1.809.388 3.587.388 5.434.342v-.008Z" fill="#21201C"/><path d="M117.323 63.874c1.793-.055 2.965 2.725 1.358 2.717-.155 0-2.429-1.91-1.358-2.717Z" fill="#1C1213"/><path d="M112.564 66.59c.528.505.582 2.384 0 2.718-.357.21-1.855-1.918 0-2.717Z" fill="#030404"/><path d="M111.206 78.817c.077-.007 1.374.994.683 1.359-1.747.924-1.964-1.211-.683-1.359Z" fill="#5A4948"/><path d="M103.055 59.115c.078-.008 1.374.994.683 1.359-1.746.924-1.964-1.211-.683-1.359Z" fill="#030404"/><path d="M106.447 62.515h.684c1.342-.109 1.342.784 0 .683l-.684-.683Z" fill="#A4AEB9"/><path d="m107.13 67.267.342 1.024-1.025.342-.334-.342 1.017-1.024Z" fill="#484847"/><path d="m110.531 67.267.333 1.024-1.016.342-.342-.342 1.025-1.024Z" fill="#6A6D74"/><path d="m108.83 57.757 1.017.683v.675l-1.017-.341v-1.017Z" fill="#7A887C"/><path d="M47.68 173.945c.07 1.024.947.256 1.358 1.358.916 2.461-.155 3.222 3.4 4.076 2.476.598.45-.194 2.042-.683 2.313 3.105-.575 5.581-3.4 6.458 2.026 1.98 5.348-.395 6.458-.341 11.606.613 9.06-.916 17.669-2.042 3.71-.481 9.222 1.576 12.234.683 4.44-1.327 3.44-15.122 13.252-11.209-6.203-5.023-9.463-11.202-9.852-19.369 2.896 6.024 2.554 14.098 10.535 15.969-1.374-.684-7.344-11.474-5.093-11.893 3.3 7.149 6.645 18.468 15.969 15.968-3.804-1.25-4.682-2.802-6.793-5.776 7.243 5.326 12.25 6.118 21.061 6.118 3.346 0 4.06.574 7.476-.683.978-.358 6.901-3.998 7.475-4.759l1.359-.683c-.21 1.079-.971 1.909.341 2.717 3.385-.194 6.358-25.859 8.151-29.895l-5.775 28.878h2.041l9.176-42.471c2.562 11.691-4.968 21.643-5.434 32.612.427.209 3.633-10.216 2.717-2.042l3.059-3.058-4.759 10.192c.264 2.003 3.113-2.072 3.4-2.375l-2.375 6.117c5.884-8.788 10.294-17.358 19.702-23.102l-14.61 18.01 15.969-15.286-6.459 7.135 3.734-1.701c-2.22 5.667 4.091-1.87 6.459-1.7-4.177 3.89-8.214 8.229-12.569 11.893-.054.047-.791-1.141-1.358-.683-4.324 3.54-7.057 8.772-12.234 10.868l.683-3.4c-10.744 1.32.473 3.944 1.358 4.759 3.16 2.903 4.006 8.089 8.834 8.834 3.23.497 7.523-1.607 10.869-1.359 4.758.35 9.245 2.422 15.285 2.042.893-.054 2.026.295 2.717-.342.171-1.63-1.258-.784-2.042-1.017-1.25-.372-4.588.101-5.434-1.016 4.316-3.339 9.378 1.016 12.235-3.401-1.483-10.014-3.37-4.914-9.852-6.458-10.604-2.516-2.639-11.738-3.734-18.686-1.234-7.817-15.246-16.481-21.402-20.727l-5.092 13.252c8.384-16.21-.001-29.158-5.093-43.83 1.32 1.902 5.698 13.112 8.151 12.91 12.118-11.311 27.737-17.032 34.312-33.637-2.655-.916-3.291 5.511-5.775 5.775-4.394.466-1.63-2.654-.342-4.075.086-.093 2.267.264 1.017-1.359l-1.7 1.359-2.717-.342 2.042-1.017 2.717-1.7c-1.281-2.111-1.84.52-2.717.342-2.011-.42-1.382-.87-2.042-1.359 4.145-1.086 5.535-.931 9.51.342.916-1.863-3.37-6.288-3.401-6.793-.108-2.243 4.115-2.197 1.7-3.734-.698.055-8.399 8.563-9.851 9.51-8.818 5.768-20.385 6.668-29.219 2.042v-.683c3.997 2.872 3.749 1.824 7.475 2.041 11.552.668 21.457-2.329 28.537-11.893 1.389-1.87 1.521-11.326 5.092-3.734l3.401-3.4-.684 4.759 3.734-1.7c-.621 1.746 2.182 7.755 2.042 8.15-.14.397-5.139 2.36-6.793 4.76-2.499 3.61-3.889 10.115-7.475 14.951-4.65 6.272-28.607 22.031-29.22 24.461-.14.567 1.785 11.023 2.042 11.551 1.793 3.796 17.901 11.226 21.744 19.027 4.719 9.58-1.219 12.281-.683 16.986.978 8.469 19.158-.575 21.06 7.475 1.336 5.628-4.735 5.776-2.375 7.134.722.42 14.796 4.666 15.627 4.759 5.752.621 20.82-4.759 24.119 3.059 1.685 3.998 1.871 43.402 2.042 50.963 1.056 48.138 1.017 96.579 1.358 144.733.311 44.171.062 88.358-.683 132.498 13.966 4.766-31.937-.916-20.044 8.492-19.013 12.569-22.578-9.082-29.34-8.492-67.576 5.9-47.499 8.492-115 0-18.196-4.635-63.536 5.387-48.499 0 11.31-4.052-39.032 3.12-27.644-.683L.814 189.905c4.472-9.835 15.433-3.71 22.086-4.417.59-.062 4.82-2.445 6.117-2.717 2.29-.481 10.488-.66 11.552-1.358.838-.551.884-2.966 1.017-3.059 2.344-1.607 2.934-.248 3.058-.341 1.452-1.025 1.281-3.455 3.059-4.076l-.024.008Z" fill="#030404"/><path d="M221.625 375.75c.566 33.971.209 67.957 0 101.92-.062 10.1 1.079 21.317-.684 31.254-4.89-1.188-9.983-.357-14.951-.683-2.003-3.214-5.814 1.001-2.717-6.118 4.619.179 9.3-.132 13.927 0l-3.059-1.7c-.256-1.156.66-.962.683-1.017 1.887.187 1.669-.706 2.042-2.041.862-3.067.054-4.138 3.4-6.459-7.289 1.56-2.717-2.958-2.717-3.4-.015-5.675-1.257-12.972-1.358-17.669-.42-19.376 1.871-39.156 1.358-58.431-.062-2.391-.404-16.186-.683-16.986-.241-.706-3.975-2.492-4.076-2.717-1.117-2.398 2.88-28.66 1.359-33.295l-4.759-86.293-1.358-65.566c1.226-1.288 3.284-8.438 0-9.509l7.817-2.042c1.04 60.07 4.774 120.535 5.776 180.745v.007Z" fill="#A73C3F"/><path d="M208.715 527.275c-21.224 1.079-41.99.707-63.19.684L31.029 526.6l-.683-7.476 176.661-.683c1.017-1.723-.388-1.18-1.358-1.358-3.587-.652-9.106-.52-12.91-.683-51.725-2.159-105.763.698-157.642 1.358-.24 0-2.042 2.127-3.734-.342 26.596-1.94 53.735-2.134 80.517-2.375 32.03-.287 66.466-.776 97.844 1.359 1.514.1.318-1.615 2.717-1.359.256.031.606 1.933 1.359 2.042 1.055.147 2.375-2.065 4.758-1.359 4.72 1.397 3.944 9.137 0 10.193-2.507.667-8.283-1.568-9.851 1.358h.008Z" fill="#818180"/><path d="M29.336 197.048v311.2c-1.165.125-3.043 1.266-4.759.684 2.383-103.581-4.23-208.451 0-311.877 1.568.094 3.198-.132 4.759 0v-.007Z" fill="#A2080B"/><path d="M208.715 527.275c1.568-2.927 7.351-.691 9.851-1.358 3.943-1.056 4.72-8.796 0-10.193-2.383-.707-3.703 1.506-4.759 1.358-.753-.101-1.102-2.01-1.358-2.041-2.399-.257-1.204 1.459-2.717 1.358-31.378-2.142-65.815-1.646-97.845-1.358-26.782.24-53.92.442-80.517 2.375 1.693 2.461 3.494.342 3.734.342 51.872-.66 105.91-3.517 157.642-1.359 3.804.155 9.324.031 12.91.683.97.179 2.376-.365 1.359 1.359l-176.662.683.683 7.476 114.496 1.358c-39.273-.054-78.592-1.389-117.888 0-2.717-.031-3.47-12.032-3.058-12.568 1.808-2.36 51.747-2.934 58.773-3.059 23.242-.411 46.74-.364 69.983 0 13.344.21 59.06-.69 68.624 2.042 2.632.753.598 12.002-1.358 12.91-.536.248-10.193-.086-11.893 0v-.008Z" fill="#B8B7B0"/><path d="m20.502 513.69-2.041-3.059c.403-56.995 1.07-114.193.683-171.227-.319-46.989-4.767-97.898-2.042-144.391.24-4.153-1.615-9.401 4.759-5.775-3.92 102.245 3.353 204.91 0 307.125-.187 5.667-1.002 11.652-1.359 17.327Z" fill="#C5C5C6"/><path d="M194.447 190.938c-13.057-.233-26.014 3.664-39.071 4.758-32.829 2.741-65.403-1.405-98.186-2.041-9.835-1.506-19.764-2.453-29.22-5.776 9.852-1.607 18.88 2.787 29.22 2.375l38.054-1.358c12.716.21 23.592.994 36.696.683 7.902 1.467 17.086 2.872 24.461-.683 16.046-.675 31.688-1.483 47.905-2.042.73-.023 8.252-3.866 6.117 1.359-5.287 1.009-10.697 1.708-15.968 2.717l-.008.008Z" fill="#818180"/><path d="M222.991 477.678h-1.358c.209-33.971.566-67.957 0-101.92-.256-20.254.341-40.554 0-60.815-.342-20.261-.963-42.704-1.359-63.874-.279-15.184-4.782-47.454-2.042-60.473.311-1.467 1.421-3.625 3.401-3.4 1.257 96.726 3.431 193.717 1.358 290.474v.008Z" fill="#D0C8BF"/><path d="M205.998 508.248c4.961.326 10.061-.512 14.951.683-.131.761-1.117 1.436-.683 2.717-27.356.808-56.312-3.105-83.917-3.4-37.192-.396-74.431-.186-111.437 3.4l-.342-2.717c1.716.59 3.595-.551 4.76-.683 6.28-.683 12.715-.908 19.026-1.358 54.302-3.89 103.534-2.159 157.642 1.358Z" fill="#978D94"/><path d="M205.322 195.013c-45.833 12.297-118.587 10.146-165.452 2.042-4.627-.8-11.264-2.267-15.285-4.759.132-.186-.287-1.118.341-1.358 45.81 7.561 92.706 12.319 139.291 7.475 12.809-1.335 39.055-9.075 48.922-8.834 1.32.031 2.182-.295 3.059 1.017.419 1.708-8.912 3.889-10.868 4.417h-.008Z" fill="#D0C8BF"/><path d="M205.322 195.013v2.042c-.489.031-3.198 1.327-3.4 1.358-31.805 4.611-68.019 9.657-100.22 8.151-23.972-1.118-48.976-7.499-72.366-9.509-1.56-.132-3.19.093-4.759 0 .086-2.151-1.46-2.663 0-4.759 4.021 2.492 10.667 3.959 15.285 4.759 46.865 8.104 119.62 10.254 165.452-2.042h.008Z" fill="#0E1319"/><path d="M229.782 513.69c4.511 12.289 12.592-3.121 2.042-2.717 4.821-4.495 8.927 2.818 6.117 6.459-4.262 5.511-9.556-1.266-10.193 0-.76 9.276.598 5.542 6.793 7.817-1.592.442-7.297 1.591-8.151-.341.698-90.245-.404-180.536-1.359-270.772 1.087-.683 1.134-2.632 1.359.342 5.768 75.859-1.467 157.937 1.358 234.417.256 7.041-.007 19.213 2.042 24.803l-.008-.008ZM194.446 190.938c-45.894 8.764-91.013 9.781-137.256 2.717 32.782.636 65.356 4.774 98.185 2.041 13.057-1.086 26.014-4.991 39.071-4.758Z" fill="#B8B7B0"/><path d="M208.041 197.047c3.284 1.079 1.226 8.221 0 9.509-1.227 1.289-4.86-.085-5.093 0-.287.101-1.187 5.007-4.417 2.376 4.006-3.765 4.953-4.844 3.4-10.535.194-.031 2.912-1.327 3.401-1.358.722-.039 2.228-.163 2.717 0l-.008.008Z" fill="#EB4950"/><path d="m95.243 188.896-38.053 1.358c12.94-.512 24.53-1.583 38.053-1.358Z" fill="#C5C5C6"/><path d="M222.992 477.678c-.241 11.194.178 22.435 0 33.637-.365.605-1.995.318-2.717.341-.435-1.281.543-1.956.683-2.717 1.762-9.944.621-21.154.683-31.254h1.358l-.007-.007Z" fill="#B8B7B0"/><path d="M156.4 188.896c-7.374 3.548-16.558 2.151-24.461.684 8.128-.194 16.38-.334 24.461-.684Z" fill="#C5C5C6"/><path d="M43.263 178.703c.295-.179 2.539-.124 3.059.341-1.134 2.073-4.798.699-3.059-.341Z" fill="#6A6D74"/><path d="M184.253 78.818c-.559-.412-1.281-.815-2.042-.683 1.452-.948 9.152-9.456 9.851-9.51 2.414 1.545-1.809 1.498-1.7 3.734.023.505 4.308 4.93 3.4 6.793-3.975-1.274-5.364-1.421-9.509-.342v.008Z" fill="#E6D2D4"/><path d="M199.546 174.628c3.307-1.157.59 3.447-.683 2.717-.893-.512-.171-2.422.683-2.717Z" fill="#EAF4F5"/><path d="M186.295 81.542v-1.358c.877.178 1.436-2.453 2.717-.342l-2.717 1.7ZM198.188 171.228c2.484-.078 1.218 2.065 0 2.041-1.002-.023-1.025-2.01 0-2.041Z" fill="#E2E2E2"/><path d="M187.654 82.901h-.683l1.7-1.358c1.25 1.622-.939 1.265-1.017 1.358Z" fill="#B39493"/><path d="M50.739 181.421c1.032-.373 1.498 1.001.683 1.358-.994.435-1.499-1.063-.683-1.358Z" fill="#A4AEB9"/><path d="m48.705 180.062 1.017.341-1.017 1.017-.342-.342.342-1.016Z" fill="#B5A6A8"/><path d="M236.576 268.396c7.833 11.233-11.97 7.608-2.717 0 .637-.116 2.057-.109 2.717 0Z" fill="#030404"/><path d="M203.28 502.139c-3.097 7.111.715 2.903 2.717 6.117-54.1-3.524-103.332-5.248-157.642-1.358-.271-2.221 3.618-1.134 4.076-2.376.342-.931-1.42-1.832-1.359-2.041.66-2.306 35.834-2.912 40.43-3.059 37.021-1.18 73.872 1.234 111.771 2.717h.007Z" fill="#D0172A"/><path d="M15.07 190.255c-4.13-1.204-10.643-.435-9.176 4.758.552-.45.924-1.242 1.7-1.358-5.457 8.795 8.486 9.618 4.76.683 3.446 2.026 2.515 5.349-.342 7.476-4.448.59-7.01-1.716-7.476-6.117-2.841.194 1.126 52.159.342 56.739 12.265-10.138 13.25 14.338.683 4.075l-1.359.684c1.25 4.137-1.265 13.398 0 16.985.24.683 1.894.171 2.042.341 5.372 6.374 9.331.233 4.075-4.075 6.879-1.133 3.758 15.277-6.117 5.092l-.683 39.747c-.217-41.346-.605-82.676-.683-124.006.737-1.863 10.154-3.524 11.893-3.058 1.63.435.256 1.855.341 2.041v-.007Z" fill="#C5C5C6"/><path d="M9.295 250.728c6.195-.69 4.992 9.999-1.358 6.793-3.563-1.801-1.537-6.466 1.358-6.793Z" fill="#1C1213"/><path d="M241.335 368.958c.645 22.419.598 44.893.684 67.266-2.593.271-.621-3.331-1.701-4.076-.411-.287-6.435 2.834-8.492-3.058-.272-.769-.419-3.16 1.358-1.7 2.477 12.552 14.385-4.845.684-2.042.147-.87.364-1.801.341-2.717 4.681.411 6.404 4.689 5.776-2.376-.187-.434-5.24 4.355-6.793-1.017 3.889 4.045 9.153-2.538 4.076-5.434 2.476-.155 1.405.396 3.4 1.017-1.335-5.892 1.762-29.553 0-33.295-.629-1.335-2.042-.295-4.076-2.375 8.113 1.832 1.693-8.819-1.358-2.717-.148-.412-.97 1.102-1.359.341.249-1.816.94-3.121.683-5.092 4.433.302 5.155-2.787 3.401-6.118 1.808.466 1.777 2.803 3.4 3.401l-.024-.008Z" fill="#B8B7B0"/><path d="M236.577 379.151c-.877-.901-.993-1.677-1.358-2.717 3.051-6.102 9.471 4.549 1.358 2.717Z" fill="#030404"/><path d="M237.593 372.358c.497-.357 2.189.054 1.7 1.017-.536 1.055-3.16.039-1.7-1.017Z" fill="#484847"/><path d="M239.976 249.369c.038 1.576-.039 3.183 0 4.759-3.3 1.219-3.626 2.927-7.476 1.359 3.998 1.863 4.759-3.113 5.434-4.759.148-.365 1.219-1.731 2.042-1.359Z" fill="#C5C5C6"/><path d="M236.575 248.011c.583.831 1.491 1.576 1.359 2.717-.676 1.638-1.436 6.614-5.434 4.759-3.276-1.522-1.351-10.379 4.075-7.476Z" fill="#1C1213"/><path d="M236.575 248.011c-5.426-2.903-7.352 5.954-4.076 7.476-7.235-2.958.451-12.646 4.076-7.476Z" fill="#C5C5C6"/><path d="m234.199 250.053 1.017.334-.342 1.024-.341-.341-.334-1.017Z" fill="#C5C5C6"/><path d="M229.784 513.69c-.218-1.568 1.094-1.84 2.041-2.717 10.55-.404 2.469 15.005-2.041 2.717Z" fill="#030404"/><path d="M232.842 513.689c1.033-.372 1.498 1.002.683 1.359-.994.435-1.498-1.064-.683-1.359Z" fill="#C9BCBC"/><path d="M233.176 427.39c-.233-1.172.551-1.304.683-2.042 13.702-2.802 1.801 14.594-.683 2.042Z" fill="#030404"/><path d="M235.558 426.031c.839-.582.893 2.601 0 2.042-.52-.326-.582-1.638 0-2.042Z" fill="#CEE3E6"/><path d="m238.619 192.297-2.041 1.7c-1.343-4.596-6.521-3.393-8.151.341-3.16 7.204 5.682 9.789 10.192 4.076.443 9.455.381 19.066.684 28.536-14.967-10.2-11.101 16.248 0 4.076.186 6.117.52 12.211.683 18.344-.816-.373-1.887.993-2.042 1.358.132-1.141-.776-1.886-1.359-2.717-3.625-5.178-11.318 4.518-4.075 7.476 3.85 1.568 4.169-.148 7.476-1.359.124 5.194-.101 10.434 0 15.627-1.243-1.211-1.825-1.102-3.401-1.358-.659-.109-2.08-.117-2.717 0-2.01.38-3.089.039-4.075 3.734 1.032 1.677 3.198 4.541 5.092 5.092 1.491.435 3.672-2.344 4.418-.341 1.832 4.921-2.454 18.662 1.358 24.119.078 4.743-.062 9.525 0 14.268l-.683 8.493c-8.439-5.822-12.095 6.707-5.093 7.817 1.925.303 4.448-1.863 5.093-1.017.644.847 1.219 18.569 1.358 21.403.28 5.644-.163 11.318 0 16.985-1.614-.598-1.591-2.926-3.4-3.4-7.996-2.065-3.516 5.201-3.4 6.117.256 1.972-.435 3.276-.683 5.093.388.761 1.219-.746 1.358-.342.365 1.048.482 1.817 1.359 2.717 2.034 2.081 3.447 1.048 4.075 2.376 1.763 3.741-1.335 27.403 0 33.295-1.987-.629-.916-1.172-3.4-1.017-4.572.287-5.488.567-4.075 5.434 1.552 5.372 6.606.582 6.792 1.017.629 7.064-1.094 2.787-5.775 2.375.031.916-.194 1.848-.342 2.717-.124.738-.908.87-.683 2.042-1.778-1.467-1.63.932-1.359 1.7 2.065 5.884 8.082 2.772 8.493 3.059 1.079.745-.893 4.347 1.7 4.075.047 13.554.528 27.256-.683 40.771-2.453-5.837-10.845-3.485-9.51 3.059 1.18 5.822 8.493 1.382 10.193 5.776.14 5.977-.396 33.598-2.717 37.029-1.18 1.746-2.942 1.878-4.759 2.375-6.194-2.266-7.553 1.46-6.792-7.817.636-1.265 5.931 5.512 10.193 0 2.81-3.633-1.297-10.954-6.118-6.459-.947.877-2.259 1.149-2.041 2.717-2.05-5.581-1.778-17.761-2.042-24.802-2.826-76.481 4.409-158.559-1.358-234.418-.226-2.973-.272-1.025-1.359-.342-.233-21.875-1.126-43.689-1.358-65.565 5.938-1.483 13.864-3.323 14.951 3.734l.023.031Z" fill="#818180"/><path d="M233.861 268.396c-9.254 7.608 10.55 11.233 2.717 0 1.576.257 2.15.148 3.4 1.359.194 10.395.52 20.836.683 31.254-3.812-5.465.474-19.198-1.358-24.12-.746-2.003-2.927.776-4.418.342-1.902-.559-4.067-3.424-5.092-5.093.986-3.695 2.065-3.361 4.076-3.734l-.008-.008ZM238.62 192.297c.271 1.778-.094 4.184 0 6.117-4.511 5.714-13.353 3.129-10.193-4.075-2.407 5.612 8.974 9.206 7.476 1.016-.839-4.587-6.855-2.46-7.476-1.016 1.638-3.734 6.816-4.938 8.151-.342l2.042-1.7Z" fill="#C5C5C6"/><path d="M234.877 464.085c7.165-2.321 6.466 9.184 0 7.476-2.974-.784-2.896-6.537 0-7.476Z" fill="#030404"/><path d="m236.234 466.803 1.025.341-1.025 1.017-.334-.341.334-1.017Z" fill="#978D94"/><path d="M233.519 303.725c5.465-.745 5.302 6.87 2.041 7.476-3.136.582-7.871-6.676-2.041-7.476Z" fill="#030404"/><path d="m234.202 305.767.334 1.017-1.017.341-.341-.341 1.024-1.017Z" fill="#E6D2D4"/><path d="M237.26 413.804c5.069 2.895-.187 9.478-4.076 5.434-1.413-4.868-.497-5.147 4.076-5.434Z" fill="#1C1213"/><path d="m235.56 415.846 1.017.333-1.017 1.025-.341-.341.341-1.017Z" fill="#C5C5C6"/><path d="M237.937 365.557c1.754 3.33 1.032 6.42-3.401 6.117-.116-.916-4.595-8.182 3.401-6.117Z" fill="#1C1213"/><path d="M235.561 366.916c1.032-.373 1.498 1.001.683 1.359-.994.434-1.498-1.064-.683-1.359Z" fill="#B5A6A8"/><path d="M13.71 513.69c.396-.078.94-.031 1.359 0 9.99 16.038-15.192 2.787-1.359 0Z" fill="#030404"/><path d="M12.693 515.723c.249-.023 3.408.707 3.059 1.7l-4.417-.341c-.715-.342 1.265-1.351 1.358-1.359Z" fill="#C5C5C6"/><path d="M15.07 470.877c0 7.383-4.58 8.827-7.476 1.359 2.476-1.925 4.51-4.239 7.475-1.359Z" fill="#030404"/><path d="M12.012 472.919c2.36-.295 1.637 2.569-.684 1.358-.675-.349.536-1.343.684-1.358Z" fill="#C5C5C6"/><path d="M12.352 194.33c3.726 8.943-10.208 8.12-4.759-.683 1.157-.179 1.84-.707 3.059-.683.109 0 1.017.962 1.7 1.358v.008Z" fill="#1C1213"/><path d="m8.611 195.688 1.025.342-.341 1.017-.342-.334-.342-1.025Z" fill="#B8B7B0"/><path d="M10.312 270.431c5.247 4.316 1.296 10.449-4.076 4.075-.124-3.035 1.863-3.71 4.076-4.075Z" fill="#030404"/><path d="M8.612 271.797c1.032-.373 1.498 1.001.683 1.358-.994.435-1.499-1.063-.683-1.358Z" fill="#978D94"/><path d="M15.069 190.255c.76 1.723.512 3.548 2.041 4.759-2.724 46.492 1.716 97.394 2.042 144.39.388 57.035-.28 114.232-.683 171.228l2.041 3.058c-.03.443.031.916 0 1.359-3.004.528-2.336-1.118-5.434-1.359-.419-.031-.962-.077-1.358 0-1.025-3.897-5.706 1.514-5.434 3.734.629 5.232 7.623 4.441 9.176 5.093 4.556 1.917-2.78 4.036-6.793 2.041-5.34-2.662-4.658-29.475-4.417-35.67.35-8.85 1.715-2.151 6.459-3.059 6.637-1.273 1.692-7.972 1.7-8.493.015-.885 4.293-2.942.683-6.458-2.966-2.88-5-.559-7.476 1.358-5.201-13.437-.28-37.262-2.042-51.981 1.755-.419 2.485 2.679 4.418 3.059 5.488 1.071 8.205-6.288 3.733-7.476-2.515-.667-5.744.396-6.117 3.401-.302-.381-1.948-.699-2.041-1.017-.598-2.12.473-37.006 1.358-38.73.49-.955 3.37 3.478 6.117-1.017.784-1.288.42-1.933.684-2.717.784-2.36-.754-1.925-.684-2.375.031-.186 2.383-.947 2.717-2.717 1.436-7.491-11.535-5.737-7.134 2.375-3.959 1.149-1.172-31.37-4.417-33.97 0-2.484.008-4.992 0-7.476 2.453-2.135 3.944 2.888 7.817 2.042 7.344-1.615-.48-16.341-6.458-7.135l-1.359-.683-.683-9.851v-.683l.683-39.746c9.875 10.185 12.988-6.234 6.117-5.093-2.212.365-4.2 1.04-4.075 4.076-.148-.171-1.801.341-2.042-.342-1.265-3.586 1.25-12.847 0-16.985l1.359-.683c12.576 10.262 11.59-14.214-.683-4.076.784-4.58-3.183-56.545-.342-56.739.466 4.401 3.028 6.707 7.476 6.117 2.849-2.127 3.788-5.45.341-7.476-.683-.396-1.591-1.358-1.7-1.358-1.219-.031-1.894.504-3.058.683-.777.116-1.15.908-1.7 1.358-1.476-5.193 5.045-5.954 9.175-4.758l-.008-.008Z" fill="#818180"/><path d="M7.592 310.526c7.142 8.089 11.97-6.964 1.358-3.401.179-.248-.675-3.702 4.417-2.041 9.743 3.183-5.115 15.681-5.775 5.434v.008Z" fill="#D0C8BF"/><path d="M7.591 310.526c-.116-1.785.45-2.135 1.359-3.4 10.612-3.563 5.783 11.489-1.359 3.4Z" fill="#1C1213"/><path d="M11.325 307.809c.947.124-.24 2.096-.683 2.041-.947-.124.24-2.096.683-2.041Z" fill="#999"/><path d="M13.026 425.356c6.901 4.643-2.857 10.962-5.434 3.401.722-1.374 3.796-3.137 5.434-3.401Z" fill="#030404"/><path d="M7.593 428.756c2.577 7.561 12.335 1.242 5.434-3.4.318-.047.931-1.056 2.375 0 3.99 7.111-3.633 11.365-8.493 5.092-.426-1.552.637-1.614.684-1.7v.008Z" fill="#D0C8BF"/><path d="M11.328 427.39c1.149-.062 1.778-.256 1.7 1.017-.023.435-2.406-.396-1.7-1.017Z" fill="#6A6D74"/><path d="M8.609 226.95c7.282-1.94 7.514 9.58 2.717 10.193-5.387.683-8.795-8.57-2.717-10.193Z" fill="#C5C5C6"/><path d="M9.29 227.626c4.13-.699 5.474 7.623 1.36 8.151-4.542.59-5.683-7.429-1.36-8.151Z" fill="#1C1213"/><path d="M13.71 415.846c2.097 6.109-1.862 8.733-6.116 3.4.372-3.004 3.602-4.068 6.117-3.4Z" fill="#030404"/><path d="M12.693 417.204c1.8-.015.652 3.874-1.359 2.717-.528-.303.97-2.717 1.359-2.717Z" fill="#E2E2E2"/><path d="M13.709 375.75c-.264.784.109 1.429-.683 2.717-9.06 2.974-6.8-9.587.683-2.717Z" fill="#030404"/><path d="M9.967 375.075c1.032-.372 1.498 1.002.683 1.359-.993.434-1.498-1.064-.683-1.359Z" fill="#C9BCBC"/><path d="M13.71 375.75c-7.484-6.87-9.743 5.69-.683 2.717-2.74 4.495-5.628.062-6.118 1.017-.885 1.723-1.956 36.61-1.358 38.729.093.319 1.731.637 2.042 1.017 4.254 5.341 8.213 2.717 6.117-3.4 4.463 1.188 1.746 8.547-3.734 7.476-1.933-.38-2.663-3.478-4.417-3.059 1.754 14.719-3.16 38.543 2.041 51.981 2.888 7.468 7.476 6.024 7.476-1.358 3.618 3.508-.66 5.573-.683 6.458-.008.52 4.937 7.22-1.7 8.493-4.743.908-6.11-5.791-6.459 3.059-.24 6.194-.924 33.015 4.417 35.67 4.014 1.995 11.35-.116 6.793-2.041-1.553-.652-8.54.132-9.176-5.093-.272-2.22 4.41-7.631 5.434-3.734-13.834 2.787 11.35 16.038 1.358 0 3.106.241 2.43 1.886 5.435 1.359-.28 3.687.201 7.499 0 11.209-10.31 2.842-14.998-3.54-16.31-12.909-7.274-52.012 5.286-120.567 0-174.286 3.245 2.608.45 35.127 4.417 33.97-4.402-8.12 8.57-9.874 7.134-2.375-.342 1.77-2.686 2.531-2.717 2.717-.078.45 1.46.023.683 2.375l.008.008Z" fill="#C5C5C6"/><path d="M11.327 366.916c3.696-.295 3.89 4.673 1.359 5.434-3.983 1.203-5.947-5.069-1.359-5.434Z" fill="#1C1213"/><path d="M9.969 477.678c6.078-.994 6.583 7.964 0 6.792-3.96-.706-3.61-6.202 0-6.792Z" fill="#030404"/><path d="M10.652 479.712c1.607.194.427 3.043-.683 1.358-.45-.683.605-1.366.683-1.358Z" fill="#EAF4F5"/><path d="M241.334 351.972c-.14-2.834-.706-20.556-1.358-21.403-.652-.846-3.168 1.328-5.093 1.017-6.994-1.11-3.338-13.631 5.093-7.817l.683-8.493c.155 12.173 1.211 24.454.683 36.696h-.008Z" fill="#C5C5C6"/><path d="M234.198 323.435c5.07-1.304 6.521 5.815 2.717 6.793-5.216 1.351-6.637-5.783-2.717-6.793Z" fill="#1C1213"/><path d="M235.556 325.469c.947.124-.241 2.096-.683 2.042-.948-.125.24-2.096.683-2.042Z" fill="#B8B7B0"/><path d="M4.193 331.587c-.023-4.751-.652-10.131-.683-15.627l.683 9.851 1.358.683c5.978-9.207 13.803 5.52 6.46 7.134-3.875.854-5.357-4.168-7.818-2.041Z" fill="#C5C5C6"/><path d="M8.609 324.794c6.932-1.669 6.427 10.729-.683 6.793-3.26-1.809-2.019-6.148.683-6.793Z" fill="#030404"/><path d="M9.293 326.828c1.033-.372 1.498 1.002.683 1.359-.993.434-1.498-1.064-.683-1.359Z" fill="#978D94"/><path d="M228.427 194.33c.621-1.444 6.638-3.563 7.476 1.017 1.498 8.19-9.882 4.596-7.476-1.017Z" fill="#030404"/><path d="m232.162 195.688 1.017.342-1.017 1.017-.342-.334.342-1.025Z" fill="#757C72"/><path d="M241.335 476.995c1.187 2.825.613 5.884.683 8.834-1.7-4.394-9.013.046-10.193-5.776-1.327-6.544 7.057-8.896 9.51-3.058Z" fill="#C5C5C6"/><path d="M236.235 474.277c3.447-.24 6.203 7.057 2.042 8.151-6.669 1.755-7.235-7.786-2.042-8.151Z" fill="#030404"/><path d="M236.235 476.994c.077-.008 1.374.994.683 1.359-1.747.923-1.964-1.211-.683-1.359Z" fill="#B5A6A8"/><path d="M239.295 226.95c.047 1.351-.038 2.725 0 4.076-11.101 12.164-14.966-14.276 0-4.076Z" fill="#E2E2E2"/><path d="M234.203 224.908c3.936 0 4.883 9.82-1.359 8.151-4.153-1.11-1.956-8.151 1.359-8.151Z" fill="#1C1213"/><path d="M233.52 227.626c1.032-.373 1.498 1.001.683 1.359-.994.434-1.498-1.064-.683-1.359Z" fill="#999"/><path d="M201.923 198.405c1.561 5.683.614 6.77-3.4 10.535 3.23 2.631 4.13-2.275 4.417-2.376.241-.085 3.859 1.304 5.093 0l1.359 65.566 4.758 86.293c1.522 4.634-2.476 30.896-1.358 33.295.101.225 3.834 2.011 4.075 2.717.28.808.614 14.602.683 16.986.505 19.283-1.777 39.055-1.358 58.431.101 4.697 1.343 11.994 1.358 17.669 0 .442-4.572 4.96 2.717 3.4-3.345 2.313-2.538 3.385-3.4 6.459-.831.264-1.777 1.226-2.041 2.041-.016.062-.94-.139-.684 1.017l3.059 1.7c-4.634-.132-9.308.179-13.927 0-37.898-1.482-74.749-3.897-111.77-2.717-4.596.148-39.77.746-40.43 3.059-.062.21 1.7 1.11 1.359 2.042-.458 1.242-4.348.163-4.076 2.375-6.311.45-12.747.675-19.027 1.359V197.055c23.39 2.01 48.394 8.391 72.366 9.509 32.201 1.506 68.415-3.547 100.22-8.151l.007-.008Z" fill="#EB4950"/><path d="M214.834 499.414c.256-.815 1.203-1.77 2.042-2.042-.373 1.328-.156 2.22-2.042 2.042Z" fill="#ECAB84"/><path d="M51.424 247.327c.831 12.118-.077 24.236-.341 36.354-.256 11.621-.621 23.398-1.017 34.995-2.08-23.746.116-47.641 1.358-71.341v-.008ZM192.756 227.625c3.462 22.792 3.524 46.275 3.4 69.308-1.739-23.056-1.964-46.275-3.4-69.308ZM36.472 253.444l-3.4 55.723 1.7-51.981 1.7-3.742ZM203.624 239.859c1.84 15.744 2.942 31.712 2.042 47.564-1.266-12.297-.986-24.702-1.7-37.029-.031-.52-1.336-.163-1.359-.683-.132-3.121.924-6.638 1.017-9.852Z" fill="#D0172A"/><path d="M137.376 305.767c-12.785 5.364-19.392 5.535-31.937-.683 10.38 3.454 21.434 3.85 31.937.683Z" fill="#D0A89F"/><path d="M36.474 342.455c1.188 10.992 1.21 22.233 1.358 33.295-3.268-10.449-1.35-22.52-1.358-33.295ZM185.955 303.05c3.54 12.04 2.989 26.409 1.359 38.729-.031-12.925.287-25.874-1.359-38.729Z" fill="#D0172A"/><path d="M31.714 501.455c1.079-.388 10.612 1.025 9.851 3.734-3.214 4.006-16.558-1.335-9.851-3.734Z" fill="#EB4950"/><path d="M181.881 240.535c1.739 11.792 1.296 24.12 1.358 36.012l-1.017-16.643-.341-19.369Z" fill="#D0172A"/><path d="M35.113 443.699c.132 9.805 1.452 20.215-.683 29.895-.777-9.952-.45-20.005.683-29.895Z" fill="#D04B50"/><path d="M65.692 222.19c.443 9.168.226 18.81-1.358 27.862l.341-13.252 1.017-14.61Z" fill="#D0172A"/><path d="M84.036 213.356c1.475 2.453 1.545 21.706.683 22.42-1.343 1.11-1.576-.59-1.7-1.7-.56-5.038 1.552-15.029 1.017-20.727v.007Z" fill="#D04B50"/><path d="M211.1 452.533c1.801 1.956 1.258 25.144 0 25.144-.667-8.337-.419-16.83 0-25.144Z" fill="#D0172A"/><path d="m166.928 209.282-2.041 21.061c.147-2.353.535-21.465 2.041-21.061Z" fill="#D04B50"/><path d="M194.114 207.922c8.315-.838-1.808 5.97-5.775 4.418-.699-.948 5.411-4.379 5.775-4.418Z" fill="#D0172A"/><path d="M65.01 326.827c2.12 4.13.823 10.472.683 14.952-2.119-4.115-.822-10.473-.683-14.952Z" fill="#D04B50"/><path d="M200.224 326.152c.699 7.049 1.552 14.051 0 21.061a130.596 130.596 0 0 1 0-21.061ZM65.693 284.022c.59 5.629-.202 11.497-1.358 16.986-.427-5.263-.233-11.932 1.358-16.986Z" fill="#D0172A"/><path d="m177.121 207.239-1.359 16.31c-.885 0-.015-14.889 1.359-16.31Z" fill="#D04B50"/><path d="M211.775 341.779a166.7 166.7 0 0 1 0 23.778 166.407 166.407 0 0 1 0-23.778ZM69.085 207.923c1.762 2.717 1.584 9.447 0 12.234a44.23 44.23 0 0 1 0-12.234Z" fill="#D0172A"/><path d="M36.474 205.881c4.44 3.307.155 8.337-1.017 5.092l1.017-5.092Z" fill="#EB4950"/><path d="M154.702 214.715c.373 1.49.955 19.027 0 19.027a106.816 106.816 0 0 1 0-19.027Z" fill="#D0172A"/><path d="M185.956 209.957c3.695 5.023-.559 4.052-4.417 3.734l4.417-3.734Z" fill="#D04B50"/><path d="M31.714 492.621c.109-.109 3.004.194 3.059.341 1.987 5.45-6.01 2.578-3.06-.341ZM38.515 497.379c1.995-.497 2.321 3.742.683 4.076-1.46.295-2.694-3.579-.683-4.076Z" fill="#EB4950"/><path d="M35.114 217.433c.559.085.504 9.501 0 9.509-.474-3.237-1.74-6.412 0-9.509Z" fill="#D0172A"/><path d="M45.982 203.164c.94 2.678-.512 5.465-.683 8.151-.411 0-1.009-7.351.683-8.151Z" fill="#D04B50"/><path d="M207.7 443.699c.621.016.637 6.513-.683 7.476-.994-2.523.108-5.046.683-7.476Z" fill="#A73C3F"/><path d="m43.95 496.696.683 4.076c-.986.605-2.391-3.664-.683-4.076Z" fill="#D0172A"/><path d="M33.756 487.87c2.018 1.428-1.266 3.741-1.7 1.7-.163-.769 1.599-1.77 1.7-1.7Z" fill="#D04B50"/><path d="M157.078 244.611c-1.265-2.367-2.119-4.471-4.417-6.117-.031 2.174 2.95 4.798 4.417 6.117.644 1.196 5.224 15.076 6.117 12.568l-2.717-8.834c16.163 28.009-14.307 63.982-45.188 58.098l.342-1.358 10.868-.342c-3.548-.831-7.336-.085-10.868-.342-.94-.069-3.587-1.917-5.093-1.358l3.734 2.375c-26.161-3.679-40.647-33.799-29.895-57.756.885-1.972 4.79-5.946 6.117-7.817-.59.823-2.476 4.254-2.375 5.434 6.885-11.031 16.317-16.714 28.878-19.369-9.021-.45-21.17 6.56-26.503 13.927 1.374-1.925 2.337-5.015 4.759-6.793.132-.108.543.109.683 0 .908-.753 2.399-2.499 2.717-2.717 23.7-11.349 49.07-7.6 61.49 16.986-1.063-.699-2.034-1.801-3.058-2.717l-.008.015Z" fill="#999"/><path d="M137.376 305.768c-10.503 3.167-21.557 2.779-31.936-.684-29.6-14.664-35.415-50.257-10.193-72.024-2.414 1.778-3.385 4.867-4.759 6.792-1.374 1.926-5.232 5.838-6.117 7.818-10.752 23.956 3.734 54.076 29.895 57.756l-3.734-2.376c1.514-.558 4.161 1.289 5.093 1.359v.683l-.342 1.359c30.873 5.892 61.351-30.089 45.188-58.098l2.717 8.834c-.893 2.507-5.473-11.373-6.117-12.568 1.025.916 1.987 2.018 3.059 2.717-12.421-24.585-37.791-28.335-61.49-16.985 51.724-34.825 100.592 49.465 38.729 75.424l.007-.007Z" fill="#1C1213"/><path d="M98.647 230.343c-.318.217-1.809 1.964-2.717 2.717-.17-2.127 1.521-2.143 2.717-2.717Z" fill="#290405"/><path d="M90.489 239.86c5.333-7.374 17.482-14.377 26.502-13.926-12.56 2.647-21.992 8.337-28.878 19.368-.1-1.18 1.786-4.611 2.376-5.434v-.008Z" fill="#484847"/><path d="M115.633 305.084v-.683c3.532.256 7.32-.489 10.868.342l-10.868.341Z" fill="#50544A"/><path d="m142.135 230.343-11.551-3.734c3.454-.559 9.036 1.203 11.551 3.734Z" fill="#1C1213"/><path d="M162.855 266.355c1.537 2.221-.59 7.181-1.358 9.51-.621-3.128.139-6.629 1.358-9.51ZM160.137 276.548c2.554 1.84-2.15 6.28-2.717 8.151l2.717-8.151ZM136.36 301.692c.629-.023 1.327-.202 1.7.342.179.605-5.721 2.46-6.793 2.717-.559-1.235 4.798-3.043 5.093-3.059ZM162.18 258.204c1.265 1.297 1.801 5.046 1.358 6.793-1.653-.815-1.273-5.17-1.358-6.793Z" fill="#484847"/><path d="M157.077 244.611c-1.467-1.319-4.448-3.943-4.417-6.117 2.298 1.646 3.152 3.75 4.417 6.117ZM145.527 232.385c.769.535 2.71.854 3.4 2.375-1.638 1.072-2.724-1.886-3.4-2.375Z" fill="#1C1213"/><path d="M141.794 298.975c.458-.101 1.498-.14 1.7.341l-3.058 1.7c-.598-.497 1.242-2.01 1.358-2.041ZM155.045 288.1c-.699 1.273-1.103 2.499-2.376 3.4-1.133-1.739 1.972-2.989 2.376-3.4Z" fill="#484847"/><path d="M145.527 232.384c-.504-.349-3.058-.908-3.4-2.042 2.267-.675 2.5 1.382 3.4 2.042Z" fill="#1C1213"/><path d="M128.884 303.726c2.468.139.163 2.429-1.7 1.017.613-.109 1.599-1.025 1.7-1.017Z" fill="#21201C"/><path d="M155.045 288.099c.233-.241-.652-2.306 1.017-2.042 1.258 1.165-.939 1.887-1.017 2.042Z" fill="#484847"/><path d="M115.29 228.984c57.414-7.779 57.531 78.84 1.358 72.708-42.393-4.635-39.358-67.553-1.358-72.708Z" fill="#030404"/><path d="M120.729 252.769c15.759-1.11 15.946 21.395 2.717 23.103-17.218 2.22-18.033-22.024-2.717-23.103Z" fill="#D0C8BF"/><path d="M129.898 269.754c7.01-13.787-16.519-20.672-17.668-6.117-.202 2.531.403 4.813 2.041 6.793 3.626 4.386 13.306 3.897 15.627-.683-7.173 11.955-24.942.465-16.985-11.21 6.668-9.781 24.577-1.444 16.985 11.21v.007Z" fill="#323333"/><path d="M129.897 269.754c-2.329 4.573-12.001 5.07-15.627.684.311-2.748 2.414-7.794-2.041-6.793 1.148-14.555 24.678-7.67 17.668 6.117v-.008Z" fill="#818180"/><path d="M114.27 270.43c-1.638-1.98-2.235-4.262-2.041-6.793 4.456-1.001 2.352 4.045 2.041 6.793Z" fill="#AAAAAB"/><path d="M117.332 330.228c83.289-4.363 127.421 102.704 56.398 153.559-38.877 27.846-101.508 14.843-125.364-26.837-30.772-53.766 7.336-123.493 68.966-126.722Z" fill="#030404"/><path d="M44.968 411.762c4.285 3.657 2.88-4.859 0-.683 3.02-93.838 143.963-103.232 156.958-1.7.249 1.917-1.381 2.492-1.358 2.717.054.629 2.003.054 2.042.683.287 4.844-1.072 17.901-2.717 22.419-.326.893-2.663 1.312-2.717 2.042-.132 1.832 1.902.14 2.041 2.042.093 1.327-9.276 18.15-11.209 20.044-.28.271-1.801-.412-2.376.341-.504.66 1.421 1.933 1.359 2.042-1.204 2.057-12.918 12.91-15.286 14.61-12.669 9.051-31.533 14.198-46.88 14.951-.186.008-.761-2.088-1.358-2.041-.241.023-.653 1.987-1.359 2.041-5.675.404-16.225-1.141-21.744-2.717-2.57-.73-2.407-3.252-2.717-3.4-1.133-.52-.776 2.088-2.717 1.359-15.836-5.962-31.572-17.715-40.43-32.954-.846-1.452-7.367-14.765-7.475-15.627-.078-.613 1.809-.023 2.041-.683-5.348-5.652-4.223-17.762-4.075-25.478l-.023-.008Z" fill="#999"/><path d="M189.699 385.268c.83 1.933 2.135 5.465 2.717 7.475 27.527 95.252-110.832 127.173-137.932 45.188-29.204-88.342 99.792-134.927 135.215-52.656v-.007Z" fill="#323333"/><path d="M118.009 332.27c57.826-3.043 99.94 51.103 85.951 106.337-6.319 2.631-.87-10.861-.683-13.593.341-4.976-.365-9.409-.683-13.593-.024-.28 1.49-.862 1.358-2.042-4.642-41.617-41.71-76.34-84.593-75.083-74.974 2.197-106.104 106.694-40.77 145.408 3.05 1.809 18.724 8.524 18.685 10.534.07 1.048-.699 1.654-1.7 1.7-1.141.047-18.523-8.943-20.386-10.193-64.083-42.929-34.987-145.392 42.805-149.483l.016.008Z" fill="#C5C5C6"/><path d="M200.226 439.625c.792-.288 2.057.248 2.376 1.016 1.055 2.57-9.308 20.122-11.552 23.103-20.447 27.155-60.908 38.722-93.085 28.537 1.358-1.336 1.584-2.205 3.734-2.376 5.193-.427 18.049 3.804 25.144 3.4 6.397-.365 15.13-3.889 21.744-4.758 1.933-.257 2.461 1.366 2.717 1.358.994-.039-.978-1.723.683-2.717 3.455-2.073 11.311-4.658 15.627-6.792 1.149-.567 5.1-4.099 5.434-4.076 1.762.116.706 2.205 1.359 2.042.776-.202.046-2.562.341-3.059 1.956-3.291 11.963-10.891 15.627-16.31 4.076-6.024 6.435-12.995 9.851-19.368Z" fill="#AAAAAB"/><path d="M44.967 411.763v-.683c2.88-4.176 4.285 4.34 0 .683ZM192.416 392.743c-.582-2.003-1.886-5.542-2.717-7.475 1.172-6.219 6.987 7.305 2.717 7.475Z" fill="#B8B7B0"/><path d="M121.408 388.66c32.146-3.454 33.916 40.499 6.117 43.488-32.154 3.455-33.932-40.499-6.117-43.488Z" fill="#C2B4AB"/><path d="M122.091 392.06c29.018-2.5 27.908 41.392-.683 38.054-21.488-2.508-21.55-36.137.683-38.054Z" fill="#030404"/><path d="M140.093 403.611c3.486 8.314 2.174 17.552-6.459 22.42-16.279 9.175-35.298-9.269-24.119-25.145 11.264-9.323 20.463-6.427 30.578 2.718v.007Z" fill="#818180"/><path d="M140.094 403.611c-10.115-9.144-19.307-12.04-30.578-2.717 7.623-10.821 25.237-10.014 30.578 2.717Z" fill="#B8B7B0"/><path d="M111.215 417.88c5.092 6.303 9.54 6.924 17.327 5.092-5.737 4.767-14.82 2.027-17.327-5.092Z" fill="#C5C5C6"/><path d="M126.167 403.611c2.981.66 6.653 4.868 1.7 3.734l1.7 5.093c-4.215-.21-.947-2.166-1.017-2.376-.318-.908-3.462-4.401-2.375-6.458l-.008.007Z" fill="#B8B7B0"/><path d="M136.359 413.804c.994 2.515-1.397 5.55-2.717 7.475-1.203-.395 2.174-6.893 2.717-7.475Z" fill="#999"/></svg>