<svg width="1364" height="600" fill="none" xmlns="http://www.w3.org/2000/svg"><g clip-path="url(#a)" fill="#000"><path d="m166.999 33 3.6 11h11.7l-9.5 6.9 3.6 11.1-9.4-6.9-9.4 6.9 3.6-11.1-9.5-6.9h11.7l3.6-11ZM219.999 147.1l.4 1.3h1.4l-1.1.8.4 1.3-1.1-.8-1.1.8.4-1.3-1.1-.8h1.4l.4-1.3ZM1245 192.3l1.1 3.2h3.4l-2.8 2.1 1.1 3.2-2.8-2-2.8 2 1.1-3.2-2.8-2.1h3.4l1.1-3.2ZM963.999 16.7l2.5 7.8h8.3l-6.7 4.8 2.6 7.9-6.7-4.9-6.7 4.9 2.6-7.9-6.7-4.8h8.3l2.5-7.8ZM794.999 1.1l.4 1.3h1.4l-1.1.8.4 1.3-1.1-.8-1.1.8.4-1.3-1.1-.8h1.4l.4-1.3ZM1289 73.7l2.8 8.5h8.9l-7.2 5.2 2.7 8.5-7.2-5.2-7.2 5.2 2.7-8.5-7.2-5.2h8.9l2.8-8.5ZM678 593.3l1.3 4h4.1l-3.3 2.4 1.2 3.9-3.3-2.4-3.3 2.4 1.2-3.9-3.3-2.4h4.1l1.3-4ZM909 333.6l2.1 6.5h6.9l-5.6 4 2.1 6.5-5.5-4-5.5 4 2.1-6.5-5.6-4h6.9l2.1-6.5ZM128.999 289.7l2.8 8.5h8.9l-7.2 5.2 2.7 8.5-7.2-5.2-7.2 5.2 2.7-8.5-7.2-5.2h8.9l2.8-8.5ZM16 350.6l2.3 7.2h7.6l-6.1 4.4 2.3 7.2L16 365l-6.1 4.4 2.3-7.2-6.1-4.4h7.6l2.3-7.2ZM1291 396.5l1.9 5.9h6.2l-5 3.6 1.9 5.9-5-3.7-5 3.7 1.9-5.9-5-3.6h6.2l1.9-5.9ZM1054 359.2l.6 1.9h2.1l-1.7 1.2.7 2-1.7-1.2-1.7 1.2.7-2-1.7-1.2h2.1l.6-1.9ZM459.999 348.7l2.5 7.8h8.3l-6.7 4.8 2.6 7.9-6.7-4.9-6.7 4.9 2.6-7.9-6.7-4.8h8.3l2.5-7.8ZM766.999 408.1l.4 1.3h1.4l-1.1.8.4 1.3-1.1-.8-1.1.8.4-1.3-1.1-.8h1.4l.4-1.3ZM1125 107.1l.4 1.3h1.4l-1.1.8.4 1.3-1.1-.8-1.1.8.4-1.3-1.1-.8h1.4l.4-1.3ZM948.999 544.399l1.7 5.3h5.5l-4.5 3.2 1.7 5.2-4.4-3.2-4.4 3.2 1.7-5.2-4.5-3.2h5.5l1.7-5.3ZM66.999 168.2l.6 1.9h2.1l-1.7 1.2.7 2-1.7-1.2-1.7 1.2.7-2-1.7-1.2h2.1l.6-1.9ZM728-7.2l3.2 9.8h10.3l-8.4 6.1 3.2 9.8-8.3-6.1-8.3 6.1 3.2-9.8-8.4-6.1h10.3l3.2-9.8ZM1012 517.3l1.3 4h4.1l-3.3 2.4 1.2 3.9-3.3-2.4-3.3 2.4 1.2-3.9-3.3-2.4h4.1l1.3-4ZM1021 399.8l3.2 9.8h10.3l-8.4 6.1 3.2 9.8-8.3-6.1-8.3 6.1 3.2-9.8-8.4-6.1h10.3l3.2-9.8ZM709 574.6l2.3 7.2h7.6l-6.1 4.4 2.3 7.2-6.1-4.4-6.1 4.4 2.3-7.2-6.1-4.4h7.6l2.3-7.2ZM832 466.3l1.3 4h4.1l-3.3 2.4 1.2 3.9-3.3-2.4-3.3 2.4 1.2-3.9-3.3-2.4h4.1l1.3-4ZM669 186.3l1.1 3.2h3.4l-2.8 2.1 1.1 3.2-2.8-2-2.8 2 1.1-3.2-2.8-2.1h3.4l1.1-3.2ZM391 240.3l1.1 3.2h3.4l-2.8 2.1 1.1 3.2-2.8-2-2.8 2 1.1-3.2-2.8-2.1h3.4l1.1-3.2Z"/></g><defs><clipPath id="a"><path fill="#fff" d="M0 0h1440v600H0z"/></clipPath></defs></svg>