<svg width="81" height="67" fill="none" xmlns="http://www.w3.org/2000/svg"><path d="M64.1474 4.7343c1.3516 2.2786 2.9293 4.3912 4.5274 6.4941.4741.8586 1.1002 1.6709 1.6972 2.4518l-6.2663 3.6479c-.247-.4347-.7913-.98-1.1404-1.3567-.1649-.1779-.2706-.3235-.4558-.4918-.1267-.1157-.2357-.1597-.343-.2545-3.0241-2.3695-8.2483-2.7599-10.7811.5216-.7641.9945-.1614.6565-.3911 1.2499-.055.1509-.8487 2.0703-.9957 1.6488l.0851-.7808c-.3078.2146-.2422.6744-.3212.9467-.1462.4941-.3681 1.159-.4044 1.6666-.6731.0307-.2524 1.3048-.2848 1.3751-.0666.2015-.2883-.0799-.2887-.0697-.2005.3094-.5209.605-.68.8749-.3823.66-.769 2.7137-1.3407 3.0222-.2655.1446-1.815-.0239-2.245-.0672-.0401-.0013-.0989-.3591-.2292-.363-.3799-.0419-.9131.3186-1.0737.3239-.0301-.0009-.0281-.3772-.5836-.2616-.2121.0445-2.6504 1.6298-2.7154 1.7805-.1077.2308.1438.5232.1011.6033-.0741.1198-.5028.3512-.6105.5819-.1077.2308-.7698 1.7981-.7731 1.8997-.0256.4876.3378.4171.3355.4882.0164.4278-.0648 1.0867-.0462 1.4433.0207.2957.3563.4685.3356.4882-.0845.1298-.3612-.0006-.4129.0487-.3913.3139-1.5214 1.4602-.9434 1.8946-.5302-.3618-1.2919-.3846-1.8865-.3006-1.0181.1526-1.4168.7002-2.167 1.2577-.5238.3811-.9704.856-1.4655 1.2787-1.6607 1.4254-3.1961 3.0073-4.7599 4.5374-.2797.2765-.5791.5422-.8588.8187l-3.5492-3.8299c1.9855-4.3661 4.8061-8.1782 7.7175-12.0079.4452-.1189 5.5002-5.7259 6.5427-6.6409 7.6387-6.7199 17.1584-12.0305 26.691-14.9192l-.02-.0006Z" fill="#F6F8F9"/><path d="M70.3808 13.6799c1.4441 1.8948 2.928 3.801 4.5578 5.5385-4.5423 6.8328-10.0682 13.0562-16.6643 17.925-.2307.6238 1.2737.0076 1.4251-.0184l-2.518.942c4.273-.2994 8.4251-1.8333 12.5166-3.0435.0174.0819.0747.1752.1125.2475-2.6502.6837-5.2694 1.6531-7.938 2.2853-1.0107.2343-4.8567.6685-5.3562.918-.0511.029-.3396.2646-.252.3486 4.7002-.1645 9.2049-1.7489 13.8062-2.5878-4.5962 1.307-9.4526 2.596-14.2847 2.8074l-.1316.3521c2.3914.1937 4.7742-.2843 7.1226-.6311l-.128.2403-7.714.6135c-.4922.6465.7448.2359.9343.2721 1.3976.2148 3.0994.3268 4.7265.2636.7937-.0373 2.6227-.4505 3.2605-.3195.1995.0365.2205.0066.0543.1848-2.0009.1435-4.0358.4081-6.0525.419-.8529.005-2.9235-.4945-3.54-.3502-.3537.081-.3393.5697-.37.5892-.4077.2014-1.2305.2073-1.6221.8466l.8146.5636c-.3388-.0712-1.1602-.4213-1.3516-.3965-.2015.0245-2.9663 1.7831-3.4965 2.052-.7954.4035-3.6675 1.4366-3.9075 2.0398-.2627-.252-.75.242-.9534.3275-3.4178 1.4745-7.0076 2.3641-10.5256 3.5202l-.3917-.6119c.4304-.2822 1.2409-.2172 1.5448-.3099.517-.1676 1.5371-.6966 2.1552-.8917.2635-.0837.515.2087.7077.1432.4362-.1497 1.9355-1.234 2.0567-1.2609.303-.0621.4332.2571.4633.258.5868-.1553 1.1931-.9205 1.8122-1.1462.4769-.1688.9408.0689 1.0624.0318.2535-.0839.8569-.7576.9691-.8153.1322-.0571.5893.0787.7115.0213.2548-.1246 2.147-1.5736 2.2986-1.6098.3036-.0825.4836.2485 1.0624.0318.3757-.1413 1.7612-1.4326 2.1822-1.7353.0718-.0487.5195.0664.5913.0177 1.3257-.9878 2.2998-2.5864 3.5502-3.7291 3.5141-3.2316 7.6957-5.3751 11.2274-8.8402.1866-.1877.0198-.6199.3192-.8857.2167-.1868.9344-.3586 1.5058-.9722 1.2776-1.3657 3.5616-5.9668 1.3546-7.2232-1.005-.5693-2.6374-.3435-3.1717-.5731-.2079-.0876-.6611-1.9121-.813-2.1811L70.3701 13.7l.0107-.0201Z" fill="#CDD9DF"/><path d="M66.9547 5.9274c-.1346 1.0742-.8855-.8505-.9751-.8735-.0598-.012-.9685.4898-1.2559.3795 1.1813 1.3272 1.9684 3.0597 3.1707 4.357.2812.3034.3299.9762.8239.2688.648.7518 1.1505 1.662 1.9433 2.2757-.6964-1.1194-1.5127-2.568-2.374-3.55-.1063-.1252-1.2124-.6669-1.1519-.9906.0017-.0508.5454-.1159.209-.8889l1.6522 1.972c.8244 1.1945 1.7218 2.2996 2.6083 3.4349 1.1751 1.5203 2.2464 3.1494 3.5861 4.5424.1603.0048 1.3392-3.2963 1.6794-2.6453.0526.5509-1.5237 2.7924-1.5188 2.9553-.001.0305.2824.2628.3413.3052l.1124.2475c-.2658.4702-.4353 1.0652-.8779 1.4182-2.0622-2.6353-4.2369-5.2028-6.2581-7.8674-1.5878-2.1023-3.1652-4.2144-4.5267-6.493.2024-.055 1.1231-.6175 1.8007-.7904.3005.6396.6388 1.3516 1.0008 1.9524l.0103-.0098Z" fill="#AAB3B4"/><path d="m74.9415 19.1152-.0039.122c-1.6295-1.7374-3.1132-3.6432-4.5571-5.5378-.5969-.7807-1.2229-1.5929-1.6969-2.4514 2.0111 2.6643 4.1958 5.232 6.2579 7.8672Z" fill="#676E6C"/><path d="M62.1623 15.2328c.1173.0951.2163.1387.343.2544-.6214.2968.8325 1.5713.4557.4918.3491.3767.8937.9118 1.1403 1.3566.1519.2691.6152 2.0937.813 2.181.544.2401 2.1764.0143 3.1717.5731 2.2071 1.2462-.0771 5.8574-1.3546 7.223-.5714.6136-1.2991.7851-1.5057.9722-.3098.2756-.133.7081-.3193.8856-3.5315 3.465-7.713 5.6084-11.227 8.8399-1.2507 1.1528-2.2247 2.7513-3.55 3.7289-.0718.0487-.5195-.0664-.5913-.0177-.421.3028-1.8065 1.5939-2.1822 1.7353-.5787.2166-.7587-.1143-1.0623-.0318-.1516.0361-2.0438 1.4851-2.2985 1.6097-.1222.0574-.5793-.0784-.7116-.0213-.1118.0475-.7256.7311-.969.8153-.1216.0371-.5854-.2006-1.0623-.0318-.6192.2256-1.2255.9908-1.8122 1.1462-.0301-.0009-.1603-.3202-.4633-.258-.1212.0268-1.6105 1.1115-2.0566 1.2609-.1927.0654-.4341-.2267-.7077-.1433-.6285.205-1.6382.7241-2.1551.8917-.3143.1025-1.1244.0274-1.5448.3098l.3918.612c-.2939.0929-.926.0943-1.1904.2085-.0078-.0715.0269-.2129.0078-.2439 1.2764-.3891-1.4521-2.5868-1.7907-3.2887l.0039-.1219c-.1143-1.1326.5519-.6346 1.281-1.1621.873-.6351 1.6972-1.6277 2.5622-2.3241l2.4694-1.3096c.1624-.3715.5453-1.0518.0443-1.3822 1.2257-1.0009 2.1265-1.564 2.3521-3.2866.0411-.3447.0676-.232.0192-.5996 1.2695.1397 1.9657-.6126 1.9556-1.8642 1.5279 1.47 3.9105 1.6227 5.6609.5256 1.4537-.9128 2.0653-2.4713 1.9082-4.1443-.0152-.1531.0411-.3447.0153-.4777.2877-.2152.4301.9793.4385 1.0304.0829.857-.5858 1.6915 1.1984 1.4194 1.9055-.299.7949-3.2112.6674-4.2424-.0623-.5614.2279-1.4785.1778-1.7953-.008-.0613-.3461-.4682-.4424-.9085.2059.4639.5472.7692.9076 1.1055 3.3008 3.1202 8.9596 3.0862 11.963-.4862.3544-.4166 1.2077-1.6932 1.4998-2.3559.0753-.1605.772-1.869.0497-1.555.0352-1.4129-.2115-4.6757-1.3551-5.6153-1.0263-.8446.6197 1.9514.757 2.3624l-.055 3.5996c-.0085-1.3024-.0485-3.5009-.7343-4.6405-.2097-.342-1.1937-.9411-1.4969-1.1842-3.1299-2.5047-7.5718-2.8818-10.0863.7764-.7568-.1753-1.0035 1.5772-1.2496 2.0582-.6655-.8338-.2228 2.2619-.7977 2.6719l.1151-3.5978c.0789-.2723.0234-.7317.3212-.9466l-.0852.7808c.147.4215.9407-1.4978.9957-1.6488.2297-.5933-.373-.2553.3911-1.2497.9848-.3673 1.8355-1.2472 2.8297-1.5938 1.8671-.6664 4.9984-.3997 6.7115.9232l1.2388.1592-.0006.0203Z" fill="#AAB3B4"/><path d="M66.9517 5.9282c.1813.2903.4702.6651.6809.9766.4298.674.901 1.3087 1.3615 1.9633l-1.6521-1.972c.3464.7733-.1973.8384-.209.8889-.0705.3234 1.0456.8654 1.1519.9907.8513.9816 1.6676 2.4302 2.374 3.5499-.7828-.6134-1.2953-1.5239-1.9433-2.2757-.2417-.2819-.5447-1.471-.8239-.2688-1.2026-1.2872-1.9994-3.0301-3.1707-4.357.2874.1103 1.1864-.402 1.2559-.3795.0896.023.8405 1.9477.9751.8735l-.0003.0101Z" fill="#CDD9DF"/><path d="m79.8234 3.1891-9.46 7.1641c-.7001-.988-1.492-1.9278-2.151-2.945.1737-.0968.233-.3801.4264-.466.8342-.3624 3.4279-.5506 4.1733-.9562.4491-.2413.2329-.6856.3781-.834.5392-.5441 4.5624-.8938 5.3306-2.0013.34.0304 1.0544-.0402 1.3026.0384Z" fill="#F78984"/><path d="M78.5195 3.1494c-.7683 1.1085-4.7929 1.4687-5.332 2.003-.1452.1486.0714.583-.3782.8347-.7455.406-3.34.5944-4.1744.957-.1934.086-.2527.3696-.4264.4664-.105-.1662-.24-.3332-.3353-.4889-.2958-.4673-.6809-.9678-.8952-1.4735.5538-.371 4.3207-1.1361 4.4769-1.315.1453-.1485-.0692-.3383-.1047-.482-.3137.0825-.5746.085-.8859.0961l3.0363-.5116c1.6838.0497 3.3384-.2377 5.0292-.096l-.0103.0098Z" fill="#F8BFBA"/><path d="M71.6097 12.189c-.4216-.6027-.8218-1.2456-1.2437-1.8382l9.457-7.161c.2876.1002.5308.6366.4418.9088l-8.6551 8.0904Z" fill="#E5655B"/><path d="M70.4514 3.7447c.3211-.0007.5723-.0137.886-.0961.0354.1437.25.3335.1047.482-.166.1684-3.9228.9339-4.4769 1.315-.0562-.124-.3944-.5212-.3294-.6722.5913-.2883 1.5735-1.1866 2.2104-.7194-.0318-.2557 1.1939-.3113 1.6052-.3093Z" fill="#F8BFBA"/><path d="M75.928 17.5975c-.0794-.0227-.1675-.0863-.2362-.1291-.0587-.0424-.3414-.2848-.3407-.3051-.0147-.1634 1.5725-2.4079 1.5205-2.9592-.3493-.6516-1.5204 2.6537-1.6806 2.6491-1.337-1.3931-2.3956-3.0223-3.578-4.5432l.004-.1221 8.6544-8.0966c.0894-.2825-.1634-.8193-.4411-.9088-.2479-.0785-.9617-.0076-1.3014-.0379-1.6889-.1408-3.3415.1369-5.0237.0981l-3.0332.5124c-.4111.0084-1.6355.0644-1.6035.3096-.6456-.477-1.6175.4315-2.2083.7197-.0647.1407.2726.5476.3286.6714.2239.5053.5982 1.005.8935 1.4717l-.2403-.007c-.2098-.3217-.4984-.6865-.6793-.9768-.371-.6013-.6985-1.3032-.9978-1.9533 2.6781-.6856 5.4887-1.1332 8.2568-1.2054.9628-.0228 4.8515-.042 5.5463.1615 1.0421.3052.6821 1.8016.5655 2.6025-.6143 4.0444-2.435 8.5119-4.4158 12.0584l.0103-.0099Z" fill="#C52826"/><path d="M75.9413 17.591c-.0851.1502-.1138.1086-.1241.1185l-.1121-.2476c.0587.0424.1568.1064.2362.1291Z" fill="#956774"/><path d="M79.1595 7.6091c.179.636-.176 1.7039-.3664 2.329-.1452.4637-1.5217 4.0247-1.7238 4.09-.02-.0006-.2749-.1504-.2799-.3032-.0189-.3362 1.2117-2.8028 1.4085-3.3159.0869-.2111-.2536-.1905-.2317-.2509.3167-.8147.9249-1.682 1.2033-2.5487l-.01-.0003Z" fill="#E5655B"/><path d="M67.8751 6.9133c.0952.1555.2298.3324.335.4882.6686 1.0169 1.45 1.9557 2.1496 2.943.4218.5925.8219 1.2351 1.2433 1.8377l-.0039.122c-.885-1.1454-1.7813-2.2504-2.6048-3.4347-.4498-.6543-.9204-1.2889-1.3595-1.9633l.2403.0071Z" fill="#7E4C45"/><path d="m24.0002 42.9942-1.0966 1.0453c-.171-.3001-.495-1.1438-.7933-1.224-.2353-.4851.1999-.9196.5132-1.3069.6726.2947.9527.944 1.3767 1.4856Z" fill="#CDD9DF"/><path d="M24.6031 42.6562c.2023.2604.3419.6003.5643.8612.2507.628-.3243.4175-.366.4672-.1991-.362-.5504-.6675-.8012-.9802-.4143-.5312-.6942-1.1906-1.3768-1.4857.0313-.0398.1404-.6265.6104-.5819.2599.0281 1.1282 1.4172 1.3693 1.7194Z" fill="#9A2A1F"/><path d="M68.7169 10.058c-.494.7074-.5427.0347-.8239-.2687.2692-1.2024.5822-.0131.8239.2687Z" fill="#C9CBCF"/><path d="M24.7928 43.9726c-.3647.4265-.5338.6961-.9803 1.171-.5538.0648-.7178-.7641-.9075-1.1054l1.0967-1.0455c.2407.3124.6021.6182.8011.9802l-.01-.0003Z" fill="#F6F8F9"/><path d="M37.8767 34.5258c.4709.3193.7082 1.0388.7809 1.5804.0482.3678.0218.2551-.0195.5999-.6458 1.0497-1.3187 1.7017-2.2658 2.4575-4.6945 3.7598-11.5838 7.7908-16.7507 11.2721-.2563.1757-.441.3025-.7267.457l-.1163-.1256c.2076-.2178.4033-.3749.6106-.5825 2.9004-2.8561 5.7934-5.7937 8.6731-8.63.6319-.6226 4.4855-3.8067 4.6303-4.2503.1-.3024-.4375-.1147-.3331-.5493.485-.4234.9416-.8985 1.4654-1.28l.2671.7306 2.2363-1.5524-.337-.4273c.5946-.0944 1.3456-.0621 1.8854.2999Z" fill="#E32D1B"/><path d="M28.0708 41.5593c-2.8791 2.8358-5.7716 5.7729-8.6714 8.6283 1.1119-1.514 2.3923-2.9722 3.6895-4.3281.2283-.2375.496-.4535.7346-.7009.4565-.475.6157-.745.9804-1.1719.0417-.0496.6164.1607.3661-.4675l.1763.1273c.3808-.3042.6848-.7125 1.0366-1.0481.1448-.1382.2312-.329.3661-.4675.2696-.277.579-.5426.8587-.8193l.4628.2579.0003-.0102Z" fill="#C52826"/><path d="m28.0707 41.5708-.4629-.2579c1.5637-1.5314 3.099-3.1145 4.7596-4.5412-.1044.4345.4432.2472.3331.5492-.1548.4433-3.998 3.6274-4.6298 4.2499Z" fill="#E5655B"/><path d="m35.9888 34.2496.3371.4273-2.2365 1.5525-.2671-.7306c.7602-.5578 1.1487-1.096 2.1668-1.2594l-.0003.0102Z" fill="#F8BFBA"/><path d="M36.2778 40.0035c-2.122 1.7291-4.9621 3.3352-7.2608 4.9471-.1643.1173-.3182.2248-.4825.3421-.3903.2837-1.1984.4634-1.4557.975.0175.3874 2.1434 1.9364 1.8097 2.6392-.0301-.0009-.3974.1919-.4788.2302-.1361-.4418-.4298-.6642-.6803-.977-.4237-.5419-.837-1.0936-1.312-1.5963-.4725.3424-.9937.6426-1.5039.9126-.7759.425-1.5245.9323-2.2911 1.3779a50.3987 50.3987 0 0 1-3.0101 1.5909c5.1574-3.4821 12.0576-7.5134 16.7527-11.2739.9472-.7559 1.6202-1.4079 2.2661-2.4578-.2369 1.7338-1.1274 2.2878-2.3533 3.29Z" fill="#C52826"/><path d="M28.7673 45.661c.5571.7694 1.2574 1.4515 1.8249 2.211.3557.4785.771.9792.8921 1.5829-.8957.0952-.2284 1.1832-1.3026-.039-.232-.2714-1.0027-1.2608-1.1345-1.5292.0003-.0101.2476-.2163.2483-.2366-.1684-.3814-1.3449-1.8508-.5278-1.9993l-.0004.0102Z" fill="#7F8486"/><path d="M28.5459 45.2877c.0562.1238.1422.2586.2291.3629-.8168.1383.3598 1.6077.5278 1.9993-.0006.0203-.2476.2163-.2483.2366.1315.2786.9023 1.268 1.1346 1.5293-.5085.2187-1.0074-.4879-1.2873-.5167.3334-.702-1.7939-2.2406-1.8113-2.6378.2574-.5212 1.0552-.6906 1.4554-.9736Z" fill="#5B5C5D"/><path d="M27.7401 48.1397c.2505.323.5447.5353.6811.9769-.6826.3255-1.1177 1.3808-2.1402.4141.0382-.5686-.1076-.4-.2214-.6069-.0663-.1241-.1425-.2485-.2292-.363.2201-1.2348 1.1616.6961 1.9097-.4211Z" fill="#7F8486"/><path d="M31.7219 49.5849s-.1965-.1279-.2365-.1291c-.1312-.604-.5464-1.1047-.8921-1.5829l-.6617-1.576c.3383.7119 3.0564 2.8987 1.7903 3.288Z" fill="#676E6C"/><path d="M30.9244 26.2775c-2.9116 3.8321-5.7423 7.6463-7.7189 12.0148-.011.0302-.3677.5183-.4862.464-1.3655-.8646-6.0953 2.466-7.2682 3.388-1.0597.8338-2.1572 2.216-3.1121 2.9103l2.6668-5.5592c-.7373 1.403-1.4308 3.0007-1.9808 4.5008 3.6145-4.1778 6.5946-9.5038 10.4319-13.4409.7879-.8011 1.9267-1.9073 2.8582-2.5006 1.1976-.7584 2.6007-1.0529 3.7883-1.8116.2417-.0336.629.0796.8313.0245l-.0103.0099Z" fill="#C73011"/><path d="M30.0909 26.255c-1.1876.7587-2.5806 1.0534-3.7882 1.8116-.9315.5932-2.0699 1.6892-2.8581 2.5004-3.8372 3.937-6.8172 9.263-10.4316 13.4406.55-1.5 1.2435-3.0976 1.9808-4.5006 1.8913-3.5975 7.1718-11.8475 11.1148-12.8709 1.2434-.3195 2.703-.195 3.9716-.3611l.0107-.02Z" fill="#E5655B"/><path d="M44.395 45.7403c-.5893 1.4502-.3578 3.5561-1.3542 5.188-2.703 4.4355-16.0378 6.829-20.9391 7.3792 1.2136-.6169 4.6473-3.1866 5.6923-4.165l-3.529 3.0255c-.4682.2106-.9083.4831-1.3862.6832 3.9423-.6597 8.4066-1.6403 12.282-3.005 3.8753-1.3647 8.7872-3.1476 8.3672-8.051-.0137-.194-.1259-.4418-.0964-.7263.2033-.0858.6913-.5913.9534-.3289l.01.0003Z" fill="#C73011"/><path d="M43.4408 46.0812c-.0395.2842.0827.5323.0964.7263-.4312.9147-.6368 1.9786-1.275 2.7854-1.9678 2.5105-14.3755 5.9906-17.9877 7.5871l3.5289-3.0255c1.2513-1.1557 2.7437-3.8431 3.9228-4.3284.2641-.1044.8959-.1064 1.1901-.2099 3.5176-1.1611 7.1067-2.0551 10.5245-3.535Z" fill="#C73011"/><path d="M24.2642 57.1773c3.6124-1.5967 16.021-5.0774 17.9889-7.5883.6386-.8171.8442-1.8812 1.2751-2.7858.42 4.904-4.6441 6.7336-8.3676 8.0519-3.7236 1.3183-8.3401 2.3457-12.2826 3.0054.4775-.1899.908-.4729 1.3862-.6832Z" fill="#DC5147"/><path d="m29.9322 46.1774-.9037-1.2275c2.299-1.62 5.1391-3.2237 7.2606-4.9406.5014.3203.1182 1.0108-.0442 1.3823l-2.4696 1.3097c-.8649.6964-1.6792 1.6894-2.5622 2.3242-.7292.5275-1.3954.0294-1.2812 1.1621l.0003-.0102Z" fill="#7F8486"/><path d="m29.9317 46.1739-.0039.122.6616 1.576c-.5574-.7592-1.2677-1.4416-1.8248-2.211-.0769-.104-.1729-.2391-.2291-.3629.1642-.1171.3184-.2345.4823-.3415l.9035 1.2273.0104-.0099Z" fill="#4B4F52"/><path d="M64.6029 23.9657c-.0839-.511.0331-1.0363.0496-1.5544.7209-.3038.0256 1.3939-.0496 1.5544Z" fill="#93736B"/><path d="M49.3314 20.4894c-.1658 2.0201.3444 2.3607.7028 3.9791.0959.4404.0964.7355.2014 1.2066.1049.4712.4332.8574.4416.9085.0498.317-.2406 1.2344-.1786 1.7959.1268 1.0314 1.2351 3.9439-.6692 4.2438-1.7834.2832-1.1144-.562-1.1968-1.4192.0016-.0508-.15-1.2459-.4377-1.0305-.0428-.2251-.1838-.5142-.267-.7303-.3669-.1228.0296.6317.0367.7235l-.2483.2369s-.0346-.7845-.6836-.8647c-1.5563-3.9331-6.3647-2.7928-6.9198 1.953-.0283.2536.0032.5191-.0254.7828l-.2364-.1291-.3502-1.8725c-.2882 1.467.034 2.6569 1.0008 3.7538.0193.021.1029.2269.1122.2476.0198 1.242-.6866 2.0047-1.9551 1.8655-.0723-.5516-.2995-1.2707-.7807-1.5799-.5776-.4241.5523-1.5711.9437-1.8954.0517-.0493.3282.0809.4126-.0489.021-.0299-.3246-.1927-.335-.4881-.0185-.3567.0631-1.0157.0469-1.4436.0023-.0711-.3705-.0109-.335-.4881.0033-.1017.6654-1.6594.7734-1.9004.1081-.241.5363-.4624.6104-.5823.0423-.07-.2088-.3623-.1007-.6034.065-.1507 2.5123-1.7371 2.7142-1.782.5551-.1159.5529.2605.5829.2614.1609-.0156.6935-.3662 1.0731-.3245.1202.0036.1787.3614.2288.3629.4296.0432 1.9779.211 2.2432.0662.5714-.3088.9488-2.3633 1.3412-3.0233.1591-.27.4794-.5659.68-.8754.0003-.0101.2217.2711.2884.0696.0223-.0706-.3877-1.3343.2852-1.3755Z" fill="#CDD9DF"/><path d="M49.6186 22.4205c.1595.6251.1706.9.5418 1.4601l-.1391.5959c-.357-1.6173-.8548-1.9677-.6999-3.9766.0364-.5074.2576-1.172.4034-1.666l-.1165 3.5965.0103-.0099Z" fill="#9A2A1F"/><path d="M39.8853 29.0898c.345.1628-.1963.8079-.1549 1.0736-.2293-.3323-.0149-.7735.1549-1.0736Z" fill="#E5655B"/><path d="m47.7128 30.407.2482-.2368-.0096.2947c-.1868.198-.1799-.0154-.2383-.068l-.0003.0101Z" fill="#F1E2D8"/><path d="M40.1332 28.4984c.1822-.0557.2548.1805.1122.2476-.1729.0763-.2544-.1907-.1122-.2476Z" fill="#D78880"/><path d="M26.3733 42.5895c-.3518.3353-.6557.7433-1.0365 1.0472l-.1765-.1274c-.2223-.2609-.3622-.5906-.5642-.8611.2484-.552.5345-.7164.6936-1.3016.3042-.1027 1.1344.9088 1.0839 1.2328l-.0003.0101Z" fill="#CDD9DF"/><path d="M26.7446 42.1231c-.1348.1385-.2212.3293-.3661.4676.0506-.3242-.7787-1.3359-1.0828-1.2329-.1594.5856-.4455.7501-.694 1.3025-.2408-.3022-1.108-1.6915-1.3678-1.7195.0379-.5485-.1673-1.9487-.5209-2.1729.1189.0442.4753-.4338.4863-.464l3.545 3.8294.0003-.0102Z" fill="#AAB3B4"/><path d="M24.1264 40.7219c.2626-.0635.5279.7176.0967.7252-.3107.0011-.4101-.6429-.0967-.7252Z" fill="#F6F8F9"/><path d="M22.1107 42.797c.2982.08.6217.9241.7924 1.2243.1894.3414.3526 1.1808.9065 1.1055-.2386.2474-.5063.4634-.7346.7009-.441.3025-.3527-.2546-.6917-.6208-.1937-.2093-.2385-.3735-.5754-.4954.3771-2.35-3.2131-.4713-3.7958.4885-.2326.0644-2.8907 1.9502-2.9066 2.1329-.0846.7506.9395.0888 1.1839-.0261-.7921.6178-1.7915 1.1378-2.4283 1.9129-.0107.02.3126.2535.2288.3629-.2923.3578-1.1215.8829-1.5173 1.3394-.1562.1786-.3915.3243.0485.3576-.9405.8679-1.092 1.2094-1.6005 2.0493-.2223.3599-.8006.2614-.624.9994-1.5238 1.2272-1.9638 1.1938-3.0543 2.9732-.1375.2199-.5725.3393-.6065.4605-.2808.928 1.046.2038 1.3602.1012.1015-.0378-.064.4255.655-.1028l.5831.2614c-1.1822 1.2068-.2398.5934.271.6085.1102.0032-.0015.3561.1086.3594.0902.0027.743-.6498.8549-.6974.0507-.0188.0392.337.2324.2511.2751-.1343.6693-.54.9049-.6958.3479-.2137.7337-.6705.9495-.2163-.9987.8051-2.307 2.1913-3.2866 3.0275-.2887.2459-.5778.502-.905.6959l-.1046-.4815c-.4926.6572-.923.6343-1.6801.7952-.03-.0009-.2025-.2502-.2325-.2511-.2224.0545-.465.4239-.6065.4604-.2734.0835.0423-.3753-.2325-.2511-.8455.4127-1.9926 1.7731-3.0929 2.3106-.1014-.5831.4127-.975.7561-1.3618l-1.1879.1481c.477-.4846.7745-.3842.2658-.7758.9164-.4309.5608-1.5202-.3096-1.2711l-.4612-.3088c.7685-.2012.5806-.8988.622-.9383.0932-.0888 2.186-.9329 1.7538-1.2102l-.5328.0453c.2409-.3186 1.1633-.6272 1.3332-.9173.0316-.05.0133-1.0275.035-1.0778.1297-.2913 1.2724-.8988.688-1.1196-1.6431.5826 2.0232-1.477 2.3061-1.8554.4146.5109-1.45 2.0435-.661 2.1381.0702.002 1.129-.8013 1.151-.8617.0113-.0403-.3403-.0202-.2289-.3629.0774-.2217 1.7502-1.0984 2.0678-1.6183.583-.97.0291-.8947.0311-.9557.0036-.1119 1.4603-1.1273 1.4653-1.2799.0056-.1728-.502-.2896-.3272-.7322.1859-.4728 2.6654-1.8042 3.0329-2.3124.0106-.02-.1157-.4512-.0426-.5406.0831-.0892.2261.139.2364.1291.2904-.2968 1.6539-1.2234 1.3491-1.4054-.3398.275-.6987.5188-1.1414.5668 1.1585-1.0955 3.8418-2.5226 5.4202-2.9645.2631-.0737 1.8462-.3526 2.0249-.2965l-.0501-.0014Z" fill="#F1901E"/><path d="M30.1941 49.4092c1.0733 1.2225.4068.1341 1.3022.0384.0301.0009.2268.1187.2365.1291.019.0311-.0153.1624-.0079.2441-1.1789.4843-2.6798 3.1676-3.9205 4.3218-1.0544.9765-4.4863 3.5317-5.6898 4.1577-.2954.144-.9709.2564-.9356-.2108.0039-.122 1.1122-1.8297 1.2484-2.0089.9331-1.2549 3.0806-2.5452 2.9808-4.4107.1381-.2401.407-.8022.5058-1.0639.1097-.2919.367-.8034.3856-1.0675 1.0214.9665 1.4668-.089 2.1391-.4152.0815-.0383.4587-.2307.4788-.2301.2798.0286.7682.7351 1.2866.5163l-.01-.0003Z" fill="#F6F8F9"/><path d="M25.8895 50.5983c-.0987.2617-.3677.8238-.5058 1.064-1.2661 2.2427-3.9982 4.5439-6.1655 5.8235-.0408.0192-.0392-.337-.2325-.2511-.3773.1924-.9363 1.0411-1.3453 1.2835-.1532.0871-.4238-.2262-.5871-.1394-.3058.1538-.7373.7823-.9767 1.0501l-.2249-.4851c-.7396.8536-1.0631.3147-.2789-.3644.5425-.3403 2.5121-1.7072 2.905-2.0722.8582-.1783 1.4144-.3247 1.9885-1.0203.4389.3794-.5247.412.3351.4883l5.0781-5.3772.01.0003Z" fill="#F3D8C1"/><path d="M18.475 56.501c-.3932.3752-2.3625 1.7319-2.905 2.0722-.2457.1556-1.3618.8657-1.5037.9124-.0811.0281-.8583-.4325-1.3178.4395l.2038-.7167c.8666-.748 1.5874-1.9481 2.8082-2.7976.821-.5764 2.034-.8765 2.8295-1.596l.2845.1916c-.6058.7455.6253.507-.3991 1.4845l-.0004.0101Z" fill="#F3AE4A"/><path d="M15.7601 56.4158c-1.221.8496-1.952 2.0497-2.8087 2.7981-.0514.0392-.9742.6635-1.0253.6925-.0407.0192-.1321-.5638-.7193.2231l.0156-.478c-.4375.1907-1.4355 1.5865-1.8685 1.024.9896-.826 2.2882-2.2129 3.2874-3.0283.2678-.2161 1.4357-.9757 1.7522-1.1496.2858-.1544.29.3343.463.258.1018-.0479.5355-.4321.7909-.5773l.1123.2476.0004-.0101Z" fill="#F3AE4A"/><path d="M2.0604 62.7152c-.3937.3954-.8461.7483-1.2204 1.1646-.6862-.1627-.189-.3515.033-1.0165.0007-.0203-.233-.2307-.2324-.251.0867-.2009.5557-.1362.7264-.4568.0857-.1704-.3925-1.1816.6393-1.4768.87-.249 1.2254.84.3095 1.2708.5184.3918.211.2911-.2658.7756l.0104-.0099Z" fill="#E4B892"/><path d="M2.5086 63.9273c-.7232.3452-1.0085.1739-1.6125.5531-.3707-.011.0794-.2827.0697-.2932-.1446-.1773-.6204.2667-.1106-.2985.3745-.4165.8273-.7696 1.2212-1.1652l1.1882-.1482c-.3432.3767-.8574.7688-.7563 1.3622l.0003-.0102Z" fill="#E4B892"/><path d="M22.3896 45.2162c.339.3662.2507.9233.6916.6208-1.2872 1.3563-2.5677 2.8145-3.6896 4.3283-.2073.2076-.4026.3545-.6105.5824-.1248.1388-.3785.2331-.4843.403.2438.2107.5291-.2388.6006-.2774.2757-.1547.4603-.2816.7266-.4569a50.4263 50.4263 0 0 0 3.0092-1.5904c.2964-.1744 1.6262.8621 1.6196 1.0655-.0056.1728-2.1446 2.1349-2.4437 2.3907-.1788-.6668-.6386.2152-.8929.3298-.9774.4597-1.569.4626-2.5831 1.1247-.2587-.9847-3.1352 1.149-3.3343.7971.4364-.7809.5915-2.1604.9248-2.8527.6239-1.3046 2.0972-2.2178 2.2423-3.5975 1.3093-1.1114 2.476-2.461 4.234-2.8773l-.0103.0099Z" fill="#F6F8F9"/><path d="M17.9514 47.0037c-.141.637-1.0057 1.6394-1.4923 2.1135-1.5133 1.5226-3.6798 3.4025-5.3583 4.7676-.2163.1768-.5104.2801-.7267.4569-.1765-.738.4018-.6395.624-.9993.5085-.8399.66-1.1814 1.6005-2.0492 1.5921-1.4796 3.72-2.7908 5.3425-4.2796l.0103-.0099Z" fill="#FBD270"/><path d="M10.4461 55.8916c-.313.3775-1.4067 1.6377-1.715 1.8729-.7087.5184-.5436.0653-.6551.1028-.3141.1026-1.641.8268-1.3602-.1012.034-.1212.469-.2406.6065-.4605 1.0904-1.7793 1.5305-1.746 3.0542-2.9731.2162-.1769.5103-.2801.7266-.4569.3849.8051-1.333 1.2226-.0449 1.3827-.2269.1969-.4145.4152-.6124.6435l.0003-.0102Z" fill="#F3AE4A"/><path d="m16.8637 55.1276.2326.2514c-.521.2902-.7856.4047-1.4505.8028-.2455.1455-.6793.5301-.7912.5777-.1831.0761-.1772-.4127-.4631-.2582-.3167.1741-1.485.9343-1.7528 1.1505-.2157-.4648-.6017-.0076-.95.2165-.3012-.61-1.4215.8342-1.4116-.3983.2461-.1659.5283-.5142.8553-.6981.2451-.1354 2.0498-1.0296 2.3441-1.133.2131-.0752.1087.3598.4631.2582.2839-.0935 1.36-.7953 1.4505-.8028.3712.0007.4015.6129 1.4733.0434l.0003-.0101Z" fill="#FBD270"/><path d="M21.8107 44.7232c.337.1219.3818.2861.5755.4954-1.7482.4166-2.9252 1.7662-4.2347 2.8777-.4951.4231-1.2439.9404-1.6998 1.3952l.0115-.3559c.477-.4847 1.3415-1.477 1.4926-2.1138.3925-.3549.6837-.3666.6184-.8266.426-.1503 2.7829-1.7093 2.9536-1.7144.02.0006.144.1976.2826.2526l.0003-.0102Z" fill="#FDFADE"/><path d="M18.5696 46.1808c.0656.4497-.2256.4615-.6184.8265-1.623 1.4992-3.7508 2.8003-5.343 4.28-.4401-.0334-.2047-.1791-.0485-.3577.3958-.4565 1.225-.9816 1.5174-1.3394.0938-.1092-.2392-.3531-.2288-.363.6368-.7751 1.6363-1.2952 2.4284-1.9131.5451-.4215 1.6909-1.1206 2.064-1.4963.1233.2174.1793.0358.2289.363Z" fill="#FBD270"/><path d="M21.8077 44.7256c-.1487-.0553-.2626-.2521-.2827-.2527-.1706.0052-2.528 1.5646-2.9541 1.7149-.0492-.3374-.1052-.1558-.2289-.3631.5399-.5644.468-.821-.3312-.6104.5928-.9599 4.1841-2.8393 3.7969-.4887Z" fill="#FDF1BD"/><path d="M18.3424 45.8209c-.3636.3864-1.5192 1.0751-2.0644 1.4967-.2444.115-1.2688.777-1.1842.0262.0159-.1828 2.675-2.0793 2.9074-2.1336.7991-.2105.881.0464.3312.6105l.01.0002Z" fill="#FBD270"/><path d="M10.2864 57.4533c-.0102 1.2423 1.11-.2015 1.4115.3981-.2458.1557-.6402.5617-.9054.6964-.1937.0962-.1818-.2701-.2325-.2513-.1019.048-.755.7009-.8553.6979-.1102-.0032.0016-.3564-.1087-.3596-.511-.0151-1.4638.5984-.271-.609.3529-.3664.7256-.4165.9614-.5725Z" fill="#F3AE4A"/><path d="M11.1451 56.3899c.0164.1124-.0079.244-.0115.3559-.3269.1837-.6089.5316-.8549.6974-.2461.1658-.6083.206-.9612.5722l-.583-.2615c.308-.225 1.4022-1.4956 1.7152-1.8731l.1648.4832.1282-.2405c.1113.2781.136.4417.4028.2562l-.0004.0102Z" fill="#FBDD94"/><path d="M26.2746 49.5326c-.0186.2642-.2763.786-.3857 1.0678l-5.0787 5.3781c-.87-.0766.0938-.1092-.3352-.4884-.5741.6957-1.1305.8422-1.9887 1.0205 1.0246-.9777-.2063-.7493.3992-1.4848l-.2846-.1916c-.7956.7197-2.0091 1.03-2.8298 1.5962l-.1123-.2476c.6548-.3981.9189-.5023 1.4502-.8022.9396-.522 2.1456-1.2194 3.018-1.835.528 1.0336 2.1546-1.4941 2.4752-1.4846.2204.0065.4016.6023.4514.614.2391.0478 3.1579-3.0526 3.02-3.7489.1036.2066.2595.0382.221.6071l-.02-.0006Z" fill="#F3AE4A"/><path d="M18.8938 50.8729c-.0715.0386-.3568.4883-.6007.2775.1061-.1801.3599-.2744.4844-.4031l.1163.1256Z" fill="#F3D8C1"/><path d="M18.3262 53.731c-.1535.0972-.2412.3287-.4261.4657-.1438.1077-.3362-.1422-.3465-.1324-.0611.0288-.2067.808-.6859 1.0584-1.081.5684-1.1012-.0427-1.4721-.0434-.0801-.0024-1.1657.7084-1.4494.8017-.3544.1117-.2498-.3329-.4627-.2578-.294.1032-2.0972.9963-2.3422 1.1316.004-.122.028-.2434.0116-.3558-.1149-1.0922 2.013-2.108 2.4627-2.9902.0106-.02-.2718-.2725.1356-.4742l-.2363-.1291c.8801-1.1747 1.8891-2.3049 2.9449-3.332.4555-.4445 1.2043-.9719 1.6992-1.3948-.1451 1.3796-1.6281 2.2923-2.2419 3.597-.3332.6923-.4882 2.0716-.9246 2.8524.1991.3518 3.075-1.7816 3.3337-.7971Z" fill="#FDFADE"/><path d="M25.8312 48.5674c.0765.1142.1627.2388.2288.3629.1378.6961-2.7799 3.7952-3.0189 3.7474-.0501-.0015-.2306-.6174-.4513-.6137-.3205-.0095-1.9464 2.5172-2.4742 1.484.6975-.4883 1.0253-.7025 1.6955-1.2729.299-.2558 2.4379-2.2178 2.4435-2.3906.0066-.2033-1.3331-1.2402-1.6195-1.0654.766-.4354 1.5146-.9526 2.2903-1.3775.0042.4886.7344.846.9064 1.1054l-.0006.0204Z" fill="#FBD270"/><path d="M21.8124 52.2794c-.6704.5707-.9983.785-1.6962 1.2735-.8721.6055-2.0785 1.3131-3.0181 1.8351l-.2326-.2512c.4795-.2505.6252-1.0302.6863-1.0589.0201.0006.2028.2401.3467.1324.195-.1368.2828-.3684.4264-.4659 1.0043-.6627 1.6061-.6653 2.5839-1.1251.2547-.1249.7147-1.0072.8932-.33l.0104-.0099Z" fill="#FDFADE"/><path d="M16.4498 49.4811c-1.0558 1.0271-2.0647 2.1572-2.9448 3.3319l.2364.1291c-.4079.2118-.1251.4542-.1357.4743-.4497.8821-2.5775 1.8979-2.4626 2.99-.2666.1855-.2914.0219-.4026-.2561l-.1281.2404-.1647-.483c.1878-.2285.3853-.4466.6122-.6434-1.2878-.1601.4297-.5774.0449-1.3825 1.6781-1.3648 3.844-3.2443 5.3568-4.7667l-.0115.3558-.0003.0102Z" fill="#FDF1BD"/><path d="M27.7438 48.1411c-.748 1.1172-1.6895-.8136-1.9096.4211-.1823-.2599-.9033-.6172-.9077-1.1057.5105-.2798 1.0318-.5796 1.5039-.9114.4655.5023.8893 1.0543 1.3134 1.596Z" fill="#AAB3B4"/><path d="m40.1045 31.4853.4475.7363c-.0027.0814-.0153.1625-.0079.2442.3967 2.6088 4.3646 3.3573 6.0052 1.0225.1683-.2394.0961-.1804.1282-.2406.0748-.1404.0887-.2622.1318-.3526.0547-.141.0751-.1505.1282-.2406.0748-.1404.2521-.3491.3662-.4679-.0182.2541-.106.4857-.0835.7206.8616-.5856.4484-1.4533.9558-2.2531.1563 1.6749-.4561 3.2354-1.9102 4.1499-2.2049.8719-3.8702.5681-5.7726-.7713-.9678-1.0878-1.2899-2.2889-1.0014-3.7571l.3503 1.8741.2366.1292c.0283-.2538-.0029-.5297.0254-.7835l.0004-.0101Z" fill="#C35140"/><path d="M48.1913 30.1733c.0257.133-.0306.3246-.0155.4776-.5063.7987-.1041 1.665-.9537 2.2501-.0228-.2244.0651-.4659.0834-.7197.0972-1.1464.1697-1.5308-.2646-2.6421.6379.0799.6342.8121.6825.8644.0484.0523.0414.2657.238.068l.0096-.2946c.0029-.0915-.4029-.846-.0366-.7233.093.2164.2238.505.2665.7301l-.0096-.0105Z" fill="#E3A29E"/><path d="M46.2687 34.7913c-1.7515 1.1014-4.1347.9493-5.6622-.5245-.0097-.0105-.093-.2273-.1124-.2482 1.8931 1.3417 3.5689 1.6463 5.7746.7727ZM47.0264 29.535c.4352 1.1123.3625 1.497.2651 2.6446-.1242.1185-.2915.3273-.3662.4676.3346-1.0387.3238-1.3241.074-2.2782-.6073-2.2984-2.7671-3.4209-4.8931-2.1907-1.574.9105-1.6473 2.242-1.5512 3.9145l-.004.122-.4474-.736c.5654-4.7478 5.3761-5.8886 6.9231-1.954l-.0003.0102Z" fill="#6D0E16"/><path d="M46.9285 32.6562c-.0427.0802-.0634.1-.1281.2406-1.2638 1.5508-3.8544 2.2684-5.0991.4501 1.6792 1.0982 4.1991.7042 5.0063-1.2978.2182-.5433.1966-1.114.2949-1.6711.2498.9542.2606 1.2395-.074 2.2782Z" fill="#25838F"/><path d="M46.5512 33.4764c-1.6412 2.3465-5.5998 1.5978-6.0063-1.0233.9099 2.2588 4.5186 2.9667 6.0063 1.0233Z" fill="#E4CBC0"/><path d="M41.6989 33.3349c1.2551 1.8206 3.8367 1.1019 5.101-.4507-.043.0905-.057.2124-.1318.3528-.1901-.0158-.0968.201-.1282.2408-1.4877 1.9435-5.0864 1.2359-6.0063-1.0232-.0077-.0716.0053-.1629.0079-.2444l.004-.1222c.3437.8459.5639.8626 1.1437 1.2364l.0097.0105Z" fill="#621929"/><path d="M46.5516 33.4799s-.0619-.2561.128-.2403c-.032.0601.04.0011-.128.2403Z" fill="#E4CBC0"/><path d="M46.7158 32.0498c-.8067 1.9915-3.3365 2.3952-5.0055 1.2976-.5794-.3733-.7995-.39-1.143-1.2347-.1058-1.6826-.0228-3.0033 1.5509-3.9136-2.5969 4.3204.9718.334 2.6312.8003.2781.0794 1.2073.799 1.3293 1.057.394.8361-.3019 1.8843.6468 2.0039l-.0097-.0105Z" fill="#29ADC4"/><path d="M46.9987 30.3801c-.0984.557-.0768 1.1278-.295 1.6711-.9489-.1196-.2429-1.1678-.6469-2.0043-.122-.2582-1.0414-.9776-1.3296-1.0573-1.6597-.4664-5.2291 3.5209-2.6316-.8005 2.1262-1.2404 4.2958-.1074 4.893 2.1907l.0101.0003Z" fill="#2699B5"/><path d="m62.1538 15.2423-1.2391-.1591c-1.7229-1.3266-4.8453-1.5822-6.7129-.923-.9949.3584-1.846 1.2312-2.8313 1.6001 2.535-3.2927 7.7601-2.9035 10.7836-.5282l-.0003.0102Z" fill="#D5A58A"/><path d="M62.9693 15.9941c.3762 1.0693-1.0762-.1946-.4551-.4917.195.1686.2905.3139.4551.4917Z" fill="#F1E2D8"/><path d="M64.6494 22.3931c-.0172.5288-.1342 1.0445-.0506 1.5559-.2923.6632-1.1357 1.9311-1.5005 2.358-.0055-.448-.1634-.2185-.3487-.0713-.864.6667-1.7947 1.535-2.8394 1.9011-2.9306 1.0027-6.7384.3-8.9218-1.9428l.1608.6053c-.3601-.3363-.7011-.6416-.9066-1.1057-.0951-.4711-.0958-.7561-.2015-1.2071l.1397-.5965c.3157.4674.609.7 1.1587.757-.1133.7092 1.5549 2.1428 2.106 2.4644 2.2842 1.2991 5.6796 1.1142 7.8176-.4921.6887-.5191 1.6283-1.662 1.5582-2.5904.1466-.1891.2274-.207.3622-.3456-.0013.0407.1511.2895-.0135.417.6013.6285.702-.6206.8665-1.0535.4695.9809.4824-2.1946.4362-2.6235-.0215-.2653-.3293-.9767-.4299-1.2749-.1371-.4112-1.781-3.2081-.7555-2.3635 1.1524.9501 1.3873 4.2144 1.3517 5.6181l.0104-.0099Z" fill="#C52826"/><path d="M63.1165 26.3091c-3.0159 3.5834-8.6658 3.6103-11.9661.4931l-.1609-.6067c2.1947 2.248 6.0047 2.9523 8.927 1.9471 1.045-.3568 1.9766-1.2372 2.8411-1.9053.1854-.1476.3434-.3775.3489.0715l.01.0003Z" fill="#9A2A1F"/><path d="M64.0503 19.1478c.1004.298.4077 1.0089.4292 1.274.0458.4387.0232 3.6014-.4355 2.6216-.1642.4325-.2648 1.6806-.8651 1.0526.1643-.1274.0125-.3861.0135-.4166-.0025-.5392.2687-.877.277-1.1311.0729-2.2457-.2944-3.884-1.7096-5.6245.3124.2432 1.2942.8418 1.4933 1.1833.6939 1.1394.7326 3.3376.7304 4.6395l.0568-3.599.01.0002ZM51.6596 17.6923c-1.3229 1.934-1.4261 4.8091-.2214 6.828-.0996-.0131-.1109.0272-.1239.1184-.5482-.0569-.8407-.2893-1.1556-.7563-.3719-.5602-.3833-.825-.5427-1.4602.5633-.4105.1336-3.5049.7967-2.6716.2456-.481.4928-2.2433 1.2469-2.0583Z" fill="#D78880"/><path d="M51.328 24.6403c.013-.0914.0143-.1321.1242-.1187 2.8543 4.7936 8.3978 3.3876 11.3736-.5101.0698.9398-.87 2.0741-1.559 2.594-2.139 1.6085-5.5361 1.7936-7.8214.4927-.5514-.322-2.2204-1.7576-2.1071-2.4678l-.0103.0099Z" fill="#E5BAA9"/><path d="M61.7553 16.899c1.4154 1.7517 1.7823 3.3915 1.7085 5.6294-.0084.2543-.2801.5925-.2778 1.1322-.1452.1485-.226.1666-.3622.3459-2.9745 3.8945-8.5123 5.2911-11.3613.5143-1.2061-2.0206-1.1012-4.899.2253-6.8356 2.5059-3.6638 6.9432-3.2903 10.0775-.7859l-.01-.0003Z" fill="#6D0E16"/><path d="M62.9213 20.7808c.0201 1.8231-.8015 3.3367-1.8102 4.7531-5.2987 4.7839-13.1307-1.4412-9.0916-7.5344 3.037-4.5749 10.351-2.7023 10.9018 2.7813Z" fill="#25838F"/><path d="M61.1214 25.5372c1.0059-1.405 1.8258-2.9274 1.8058-4.7489.2247 2.2853-.1677 3.2708-1.8058 4.7489Z" fill="#CDD9DF"/><path d="M57.4386 26.0259c-1.3829-.3465-2.0426-.1106-3.3392-.9443-.2161-.1389-.88-1.301-1.2228-.6376-.4643-.5237-.7933-.8904-1.0109-1.5906.2689-.2472-.0411-.2767.4226-.3448 1.2804-.1974 3.0096.5979 4.1189.7221.6397.0696 4.6118-.233 4.6561.554-.7164 1.3464-2.1743 2.059-3.6247 2.2412Z" fill="#29ADC4"/><path d="M57.4379 26.0229c-.9066.1164-1.9692.0956-2.8319-.205-.7439-.2563-1.2372-.8114-1.7301-1.3767.3328-.6637 1.0067.4986 1.2228.6375 1.2966.8336 1.9566.5876 3.3392.9442Z" fill="#30C8D1"/><path d="M62.1363 19.431c-.5292.2496-.05 1.4958-.0541 1.6179.0113.5605-.104 1.0155-.1721 1.5533-.0268.203-.1081.5368.2303.302-.093.3844-.3238.3981-.3683.5293-.0772.2116.2541.1906.232.2511-.0655.1611-1.4237 2.1387-1.5451 2.1759-.02-.0006-.3221-.2537-.3421-.2543-1.5938.6366-2.2954 1.2479-4.2889.9563-.0897-.0127-.0125-.2244-.1119-.2476-.5676-.0978-1.801.2436-1.1047-.5105.8617.2896 1.9327.3102 2.8278.2035 1.4484-.1824 2.9045-.8942 3.6206-2.2384-.0439-.7856-4.0105-.482-4.6492-.5513-1.1077-.1235-2.824-.9164-4.1127-.7192-.4734.078-.1635.0971-.4222.3443-2.1706-6.9781 8.2639-9.6012 10.2713-3.4324l-.0107.0201Z" fill="#2699B5"/><path d="M62.1473 19.4441c.4327 1.3246.336 2.1456.0037 3.4785-.3256.2347-.245-.0986-.2283-.3015.0675-.5371.1818-.9915.1706-1.5512.0041-.1219-.4711-1.3664.0536-1.6156l.0004-.0102Z" fill="#29ADC4"/><path d="M58.72 17.3048c.3924-.0498 1.9694 1.3301 1.7074 1.9746-.0307-.5816-3.2473-1.7642-1.7074-1.9746Z" fill="#30C8D1"/></svg>