<svg width='100%' height='auto' viewbox="0 0 2000 2000" fill="none" xmlns="http://www.w3.org/2000/svg"><g clip-path="url(#a)"><path d="m1411.11 13.1011-25.7 29.2862-83.5 271.1287 132.75 66.156c-.05.431 4.42.308 0 8.672l-154.17-65.077c30.98-81.641 55.37-213.645 92.08-285.2367 11.14-21.7231 22.15-17.9211 38.55-24.9395l-.01.0103ZM160.595 327.615c-.325.072 1.521 3.237-2.141 4.336.304-5.816-2.719-6.381-7.497-6.504-18.614-.483-122.6742 46.077-141.3295 58.562-2.465 1.654-5.9547 5.189-5.3562 8.672L2.1309 381.84l49.2504-29.286c-13.7759-2.291-30.585-10.43-31.0516-27.118 5.204 9.999 19.4973 26.461 32.1168 23.861.8216-.165 9.495-9.505 12.8528-10.841 10.1341-4.069 68.1697-26.512 69.5897-33.623 1.309-6.515-14.821-38.195-10.702-48.8 11.341 23.85 28.475 45.779 36.397 71.582h.011Z" fill="#436777"/><path d="M158.453 331.951c-47.018 14.098-97.0701 47.279-145.6105 60.73H4.2808c-.5986-3.483 2.891-7.028 5.3561-8.673 18.6554-12.495 122.7151-59.055 141.3301-58.562 4.778.124 7.801.689 7.497 6.505h-.011ZM1434.66 388.345c-1.53 2.908 1.62 5.579-6.42 4.336l-149.89-65.077c.21-1.737 1.47-2.569 2.14-4.336l154.17 65.077ZM563.159 329.782c-14.638 19.586-32.38 36.11-52.466 49.89H351.999C346.499 368.5 357.5 363.5 357.5 356s-.878-19.23 23.64-24.049c46.897-9.218 130.77-1.727 182.009-2.169h.01Z" fill="#23383A"/><path d="M465.733 360.148c4.017-.976 46.137 1.099 46.035 5.425-15.379 13.945-39.005 5.272-58.887 7.594-2.192-3.473 11.96-12.803 12.852-13.019Z" fill="#DEF0F0"/><path d="M485.008 344.971c9.292-1.552 34.643 6.402 46.035 5.426-14.527 21.476-39.127 1.346-61.028 7.593-.812-3.863 13.867-12.824 14.993-13.019Z" fill="#E2E2E2"/><path d="M504.271 334.12c5.731-1.038 46.724.205 48.175 3.257-18.483 15.599-38.822 7.06-61.028 5.426-1.126-3.915 11.25-8.385 12.853-8.673v-.01Z" fill="#DEF0F0"/><path d="M416.482 360.148c3.48-.658 37.707-1.315 37.473 3.257-15.561 11.458-34.186 6.772-52.466 7.594-.73-3.432 14.08-10.676 14.993-10.841v-.01Z" fill="#E2E2E2"/><path d="M435.756 344.971c8.826-1.963 27.187 4.1 37.473 3.257-13.745 15.866-31.102 4.419-48.175 9.762-3.49-4.018 9.891-12.834 10.702-13.019Z" fill="#DEF0F0"/><path d="M452.881 334.119c3.997-.852 38.579-.626 39.613 1.09-13.593 12.732-33.273 5.991-50.315 7.594-1.532-2.929 10.032-8.529 10.702-8.673v-.011Z" fill="#E2E2E2"/><path d="M401.49 344.971c2.343-.514 25.949 0 26.771 1.089-11.707 15.65-27.826 6.32-43.895 11.93-1.734-5.148 14.973-12.546 17.134-13.019h-.01Z" fill="#DEF0F0"/><path d="M380.075 360.148c3.307-.689 25.898-.339 26.771 1.089-11.981 11.283-23.971 10.45-39.614 9.762-1.146-3.966 11.332-10.533 12.853-10.841l-.01-.01ZM412.201 334.119c3.257-.801 28.688-1.12 28.912 3.258-9.688 9.618-24.935 3.987-37.473 5.425-1.522-3.134 7.243-8.354 8.561-8.672v-.011Z" fill="#E2E2E2"/><path d="M1057.79 331.951c34.69 6.464 74.21 43.426 113.49 44.464l-3.22 3.257-233.397 2.169c-21.333-14.13-42.332-30.407-56.747-52.058 51.624.493 132.084-6.741 179.864 2.168h.01Z" fill="#23383A"/><path d="M1069.57 351.476c4.82-1.418 29.32-1.799 29.98 6.504l-23.56 4.337c20.43-.493 38.23-2.364 54.61 11.93-13.54 1.223-30.82 3.001-43.89-1.089-5.5-1.716-30.3-17.829-17.14-21.693v.011ZM956.089 360.149c13.106-.247 24.569-.124 33.192 11.93-4.747 3.124-67.916 2.158-58.888-7.594 7.081-.545 19.467-4.223 25.696-4.336ZM928.252 347.14c14.131-1.573 31.335-2.179 41.753 7.g-19.74 2.127-47.404 14.941-59.952-4.336 5.752-.072 13.441-2.723 18.199-3.257Z" fill="#E2E2E2"/><path d="M906.838 334.12c14.465-1.716 36.134-2.24 46.034 9.762-21.029-3.206-45.781 12.464-62.093-6.505 5.001-.02 12.234-2.805 16.059-3.257ZM986.064 360.149c18.886 1.243 39.786-5.107 54.606 9.762-16.9.031-44.745 7.768-54.606-9.762ZM1001.06 344.971c2.56.329 21.58 8.817 14.99 13.02-19.457-5.19-34.186 5.662-50.316-9.762 8.035.904 29.774-3.967 35.336-3.258h-.01ZM1039.6 336.288c15.56-1.665 30.05 2.805 43.89 9.762-14.16 6.936-36.42 7.84-43.89-9.762ZM949.666 334.12c16.424 1.418 35.15-4.83 48.175 7.594-1.339 2.209-46.887 4.367-48.175-7.594Z" fill="#E2E2E2"/><path d="M1018.18 344.971c15-.534 30.03 2.199 41.75 11.93-12.58-2.702-45.58 5.6-41.75-11.93ZM996.776 334.12c14.714 1.151 30.884-4.47 41.754 7.594-1.19 1.952-42.129 4.706-41.754-7.594Z" fill="#E2E2E2"/><path d="M1035.31 360.148c15.49-.287 28.07-2.312 39.62 9.762-14.66 2.775-29.93 2.95-39.62-9.762Z" fill="#DEF0F0"/><path d="M124.196 256.033c-4.118 10.615 12.011 42.295 10.703 48.8-1.431 7.111-59.4662 29.553-69.5902 33.623-3.3476 1.346-12.0311 10.676-12.8528 10.841-12.6194 2.599-26.9127-13.863-32.1167-23.861.4666 16.688 17.2757 24.826 31.0516 27.118L2.1404 381.84 0 5.5076c5.0214-12.701 53.3285 36.0272 55.6718 41.2165 7.243 16.0097 12.3658 61.3879 19.2741 82.4229 13.9991 42.634 30.0071 86.409 49.2501 126.886Z" fill="#000"/><path d="M56.7473 269.052c.4261 6.618-7.2633 15.034-7.4966 22.772-.3348 11.087 27.7649 54.975 1.0753 50.968-9.282-1.387-21.4146-37.302-20.3393-46.632 2.0187-17.603 16.6163-14.499 26.7707-27.118l-.0101.01ZM47.1102 175.778c.4159.37 2.0795 2.035 2.1404 2.169 5.4373 11.693-.1116 37.095 10.7022 49.889-4.2403-1.233-4.078 2.045-4.2809 2.168-25.5027 15.075-34.9774-39.901-17.1336-52.057.6289-.422 6.8981-1.86 8.5617-2.169h.0102ZM55.6726 99.8603c1.0043 5.7857 2.9216 11.6217 4.2809 17.3557v13.02c0 1.387.2739 3.113 0 4.336-27.5518 4.953-35.7585-35.616-19.2741-52.0574 9.8704.0206 9.9313 12.7935 14.9932 17.356v-.0103Z" fill="#D1494F"/><path d="M69.59 273.388c17.6104-7.152 12.6194 16.658 16.0584 24.94 3.9258 9.464 23.7076 30.17-3.2158 27.118-15.8859-1.798-25.0056-47.125-12.8528-52.058h.0102Z" fill="#D65F65"/><path d="M101.707 271.22c6.888-2.25 26.72 29.287 26.771 31.455.081 3.874-11.362 10.327-16.059 9.762-12.4266-1.501-22.4593-37.384-10.702-41.217h-.01Z" fill="#D1494F"/><path d="M59.9534 134.572c.2739-1.223 0-2.949 0-4.336 1.8564.226 1.9477-.545 2.1404-2.169l4.2809 2.169c-5.5793 33.52-60.2164 20.942-51.3909-33.6229 3.9969-24.7032 30.6459-35.4003 42.8291-10.841-50.0112-42.5729-55.3573 70.2769-5.346 59.6409 3.094-.658 6.7054-7.357 7.4966-10.841h-.0101Z" fill="#808184"/><path d="M47.1104 175.779c-1.6738.308-7.9429 1.746-8.5617 2.168 2.0998-6.68-9.1603-2.466-9.6371-2.168-11.4529 7.193-11.6558 17.993-11.7775 30.365-.0811 8.303.3043 14.232 4.2809 21.692 7.3343 13.749 29.2561 20.952 34.2572 2.168.2029-.123.0406-3.401 4.2809-2.168.2029.247 2.0187 2.076 2.1404 2.168-23.3724 37.055-53.3081-1.171-49.2504-33.622 2.181-17.418 19.6292-33.674 34.2572-20.603h.0101Z" fill="#6F676B"/><path d="M55.6732 93.3559c.213 2.1066-.3551 4.4597 0 6.5046-5.062-4.5522-5.1229-17.3353-14.9933-17.3559-17.1945-.0308-12.5586 36.7054-9.637 47.7214-11.1486 1.407-7.872-84.3959 24.6201-36.8701h.0102Z" fill="#A28791"/><path d="m66.3845 130.225-4.2808-2.168c.6898-5.867-1.3391-7.471-2.1405-10.841-1.3593-5.724-3.2766-11.571-4.2809-17.3559-.355-2.0552.2131-4.4084 0-6.5046 7.8213 11.4365 13.0861 22.5765 10.7022 36.8695Z" fill="#323333"/><path d="m26.7716 288.576 6.4213 43.385c-4.3418 1.562-15.0845-37.98-6.4213-43.385Z" fill="#847381"/><path d="M35.3329 275.557c-15.399 13.944-17.3061 16.934-17.1337 39.048-5.7011-19.452-2.7998-31.979 17.1337-39.048Z" fill="#808184"/><path d="m65.31 271.221-5.3562 9.762-1.0753 29.286c.9029-13.708-6.8068-30.16 6.4214-39.048h.0101Z" fill="#916B72"/><path d="M97.4258 264.716c6.2082-.309 16.2002-.781 18.1992 7.594l-18.1992-7.594Z" fill="#839798"/><path d="M63.168 266.884c5.1127.298 10.6109-1.746 13.9179 3.258-.4768 1.963-13.9281-.452-13.9179-3.258Z" fill="#A6999F"/><path d="m52.4659 136.74 3.2056 1.079-3.2056 3.258-1.0753-1.09 1.0753-3.247Z" fill="#745D64"/><path d="m66.3837 171.442-5.3562 10.841c9.3835-13.236 15.7946-2.251 24.6202 4.336 16.8493 28.187 2.5766 62.611-23.555 43.385-.1218-.093-1.9376-1.922-2.1405-2.169-10.8138-12.793-5.2649-38.195-10.7022-49.889 1.4303-.349 3.094-1.387 4.2809-2.168l4.2809-2.168c5.5286-2.96 1.8158-3.309 8.5617-2.168h.0102Z" fill="#2C1E20"/><path d="M85.6475 186.63c-8.8255-6.587-15.2367-17.572-24.6202-4.337l5.3562-10.841c14.7904 2.497 12.792 4.347 19.2741 15.188l-.0101-.01Z" fill="#E6D2D4"/><path d="m57.8121 173.609-4.2809 2.169c2.4854-1.634 2.9926-1.48 4.2809-2.169Z" fill="#8E807F"/><path d="M67.4495 180.114c13.1369-6.094 32.9585 42.943 12.8528 43.385-11.2906.246-24.0926-38.175-12.8528-43.385Z" fill="#EC4950"/><path d="M38.549 177.947c-17.8438 12.156-8.3792 67.132 17.1336 52.057-5.0011 18.785-26.9229 11.581-34.2572-2.168 5.1635-3.144 2.2723-9.063 2.1405-13.019l8.5617-33.623c-12.1934-.853-8.3284 18.116-8.5617 24.94h-6.4214c.1218-12.383.3246-23.173 11.7775-30.366.4768-.298 11.737-4.511 9.6371 2.169l-.0101.01Z" fill="#200D0E"/><path d="M62.0936 128.057c-.1928 1.624-.2841 2.405-2.1405 2.169v-13.02c.8014 3.371 2.8303 4.974 2.1405 10.841v.01Z" fill="#8B292C"/><path d="M23.5554 206.144c-.1014 2.846-.0913 5.826 0 8.672.1319 3.946 3.023 9.865-2.1404 13.02-3.9766-7.46-4.362-13.39-4.2809-21.692h6.4213Z" fill="#000"/><path d="M23.5553 214.826c-.0913-2.856-.1014-5.826 0-8.672.2435-6.824-3.6316-25.803 8.5618-24.94l-8.5618 33.623v-.011Z" fill="#847381"/><path d="m1434.66 379.672-132.75-66.156 83.5-271.1283 25.7-29.2862c3.23-1.3769 22.49-17.5203 25.69-11.9302-8.67 120.7927 12.53 259.8357-2.14 378.5007Z" fill="#000"/><path d="M1378.99 269.053c-8.41 6.042-.07 3.853 0 4.336.1.699-.06 1.449 0 2.169-5.93 14.17-6.66 46.354-26.77 45.552-21.93-.873-2.21-16.39 1.08-24.939 1.86-4.871 3.74-21.754 4.28-22.771 1.54-2.919 5.06-4.501 7.49-6.505 4.66-2.035 11.59 1.922 13.92 2.168v-.01Z" fill="#D1494F"/><path d="M1393.99 180.115c27.93 5.354 13.74 69.187-12.86 47.721-.51-2.23-2.24-2.61-2.14-4.336.37-6.597 15.06-30.324 8.56-43.385 1.95.401 4.72-.503 6.43 0h.01Z" fill="#EC4950"/><path d="M1376.85 175.779c8.91 10.81-.06 20.634 3.22 32.533l5.35-28.197c.69.124 1.46-.144 2.14 0 6.5 13.061-8.19 36.788-8.56 43.385-5.68-5.672-12.2 6.823-22.48 4.336-19.01-4.593-2.99-35.184 3.22-45.553 5.26-.924 2.9-.092 4.28 0-7.58 12.773-22.52 33.12-3.22 41.217 12.64-9.618 17.74-25.001 16.06-41.217-.37-3.617-4.14-3.997-6.42-5.425l6.42-1.089-.01.01Z" fill="#231F20"/><path d="M1357.58 180.115c-.24 1.603.55 2.446 2.14 2.168-6.21 10.358-22.23 40.96-3.22 45.553 10.28 2.487 16.8-10.019 22.48-4.336-.1 1.726 1.63 2.106 2.14 4.336 8.15 35.236 53.91-4.357 38.55-37.959-5.59-12.218-18.56-7.656-25.69-9.762 45.66-19.237 36.74 69.722-1.08 65.077-13.33-1.644-15.58-18.969-17.13-19.524-.96-.339-11.41 7.84-19.28 6.504-20.88-3.535-8.6-41.781 1.08-52.057h.01Z" fill="#A6999F"/><path d="m1385.41 180.115-5.35 28.197c-3.28-11.9 5.7-21.723-3.22-32.533v-2.169c3.33.452 5.14 5.919 8.56 6.505h.01Z" fill="#847381"/><path d="M1376.85 173.61v2.168l-6.42 1.089c2.28 1.429 6.06 1.809 6.42 5.426-4.56-2.045-9.42.226-12.85 0-1.38-.092.98-.925-4.28 0-1.59.277-2.38-.565-2.14-2.168 6.25-6.638 9.77-7.8 19.27-6.505v-.01Z" fill="#BBBCBF"/><path d="M1349.02 269.052c3.36 1.131 4.28 5.261 8.56 4.337-.54 1.017-2.42 17.9-4.28 22.771-3.29 8.56-23 24.066-1.08 24.939 20.1.802 20.84-31.382 26.77-45.552.92 11.231-4.56 25.258-4.28 29.286.8 11.468 16.61-30.037 4.28-31.455-.07-.493-8.41 1.706 0-4.336 4.24.452 12.64 2.918 17.14 4.336 41.16 11.53 29.04 56.189-2.14 71.582-16 1.798-60.42-31.701-80.31-32.533-6.22-5.128-1.39-5.447-1.07-8.673h2.14l5.35 6.504c42.72-5.97 25.36-77.212-1.07-15.187 6.94-16.452 8.94-33.109 29.98-26.029l.01.01Z" fill="#2C1E20"/><path d="M1393.99 344.97c31.18-15.393 43.3-60.052 2.14-71.581 2.82.894 12.38 1.418 13.91 2.168 28.46 13.975 13.98 66.022-16.05 69.413Z" fill="#929497"/><path d="M1349.02 269.052c-21.04-7.08-23.04 9.577-29.98 26.029-1.26 2.959-1.43 5.683-4.28 8.673h-2.14c1.34-13.307 20.7-55.572 36.4-34.702Z" fill="#8E807F"/><path d="M1388.63 273.389c31.77 3.411 16.03 67.646-4.28 65.077-26.44-3.35-1.07-22.751 1.08-29.287 1.78-5.446.33-35.595 3.21-35.79h-.01Z" fill="#D1494F"/><path d="M1314.76 303.754c2.85-3.001 3.02-5.714 4.28-8.673 26.42-62.025 43.79 9.207 1.08 15.188l-5.36-6.505v-.01Z" fill="#D65F65"/><path d="M1412.18 284.229c6.81 13.482.44 36.983-8.56 47.722l8.56-47.722Z" fill="#A28791"/><path d="M1378.99 275.557c-.06-.719.1-1.47 0-2.168 12.33 1.407-3.49 42.922-4.28 31.454-.28-4.028 5.2-18.055 4.28-29.286Z" fill="#B2787F"/><path d="M1376.85 134.572c-4.32-12.67-2.09-18.897 2.14-30.365 1.59-4.3053 13.95-24.0658 18.2-26.0285 42.89-19.7912 26.99 99.1825-20.34 56.3935Z" fill="#000"/><path d="M1376.85 134.572c47.33 42.789 63.24-76.1847 20.34-56.3935-4.25 1.9627-16.62 21.7232-18.2 26.0285 9.66-46.4157 54.16-41.2264 47.11 9.762-3.57 25.793-39.41 49.448-49.25 20.603Z" fill="#A6999F"/><path d="M1399.33 80.3465c23.11-6.0833 21.7 43.1275 5.36 50.9685 1.39-6.885 12.78-20.48 5.35-27.118-2.61 11.94-8.15 33.961-23.55 30.365-17.04-3.987 4.42-52.0062 12.85-54.2258l-.01.0103ZM1376.85 182.283c1.68 16.216-3.42 31.599-16.06 41.217-19.3-8.087-4.37-28.433 3.22-41.217 3.43.227 8.29-2.044 12.85 0h-.01Z" fill="#EC4950"/><path d="M1381.13 227.836c26.59 21.467 40.78-42.357 12.86-47.721 7.13 2.107 20.1-2.456 25.69 9.762 15.36 33.602-30.4 73.195-38.55 37.959Z" fill="#2C1E20"/><path d="M1410.04 184.461c4.98-.565 8.95 27.807 2.15 32.534l-2.15-32.534Z" fill="#847381"/><path d="M381.152 331.951c-21.894 7.742-31.721 47.302-28.652 47.721-31.5 7.828-75.479-10.872-85.908 0h244.112c20.086-13.78 37.818-30.303 52.466-49.889 104.689-.904 210.078-.997 314.767 0 14.415 21.661 35.414 37.928 56.747 52.057l233.396-2.168 3.22-3.257c-39.28-1.038-78.81-38-113.48-44.464 73.06-8.015 147.06-2.908 220.55-4.336l149.89 65.077H12.8535c48.5404-13.451 98.5925-46.632 145.6105-60.731 3.663-1.099 1.816-4.264 2.141-4.336 27.623-6.289 175.902-2.651 210.92 0 3.479.267 7.79.74 9.637 4.336l-.01-.01Z" fill="#388AA2"/><path d="M613.487 334.12c28.394-4.183 44.371 7.563 64.244 8.673 16.89.945 36.296-8.673 59.952-6.505 3.683.339 15.44 8.508 17.134 8.673 9.972.986 20.106-9.547 29.976-10.841 35.262-4.624 78.75 4.038 101.707 33.622-46.268 15.085-96.817 2.549-142.395 3.258-64.315.997-123.527 11.293-188.43 0-13.168-7.759 51.472-35.935 57.812-36.87v-.01Z" fill="#323333"/><path d="M837.249 344.971c-9.465 3.258 7.05 1.521-2.141 15.188 1.248-6.731-51.512-5.497-53.531-1.089-.71 1.541 12.954 18.877-14.993 1.089-5.6-27.241 55.59-30.036 70.665-15.188Z" fill="#3C595C"/><path d="M837.249 344.972c33.649 33.15-66.242 36.654-70.665 15.187 27.947 17.788 14.283.463 14.993-1.089 2.019-4.408 54.779-5.652 53.532 1.089-13.442 7.06-31.052-6.381-47.11 3.258-1.806 5.939 36.833 12.012 47.11-3.258 9.19-13.656-7.314-11.92 2.14-15.187Z" fill="#DEF0F0"/><path d="M751.591 353.644c.132 1.778-.091 3.617 0 5.426-5.894 13.965-56.169 13.482-62.093 5.425 1.826.226 2.009-.513 2.14-2.168 10.084 9.063 7.913.421 8.562 0 .315-.205-.314-2.004 0-2.168 10.611-2.107 28.932 1.089 38.548 0 3.216-.36 4.322-.195 6.422-3.258-1.207-.955-6.026-5.312-6.422-5.425l4.281-2.168c2.892 1.736 4.738 4.86 8.562 4.336Z" fill="#516265"/><path d="M751.591 353.644c-3.835.524-5.671-2.6-8.562-4.336-14.445-8.652-49.605-9.577-51.391 13.019-.132 1.655-.324 2.395-2.14 2.169-12.904-31.054 60.581-31.147 62.093-10.841v-.011Z" fill="#DEF0F0"/><path d="m646.669 338.466-2.14 4.337c-16.373-2.24-37.95-2.343-47.11 13.019-.325.545-3.226 4.213-4.281 4.337-4.18-24.395 38.568-23.696 53.531-21.693Z" fill="#C1E7E9"/><path d="M593.137 360.148c1.055-.123 3.956-3.791 4.281-4.336l52.466-4.336c7.253 3.945 14.171.38 17.133 10.841 9.506-11.561-14.851-18.476-22.479-19.525l2.14-4.336c7.578 1.017 25.919 5.734 27.836 14.099 6.949 30.344-78.121 26.542-81.367 7.593h-.01Z" fill="#DEF0F0"/><path d="M644.528 342.803c7.629 1.038 31.985 7.963 22.48 19.524-2.952-10.471-9.88-6.906-17.134-10.841l-52.466 4.336c9.16-15.362 30.737-15.249 47.11-13.019h.01Z" fill="#23383A"/><path d="M609.196 357.98c18.229 1.727 38.69-4.634 54.606 5.426.67 6.412-49.859 13.492-50.315-3.258l-4.281 8.673c-6.178-5.384-6.178-5.456 0-10.841h-.01Z" fill="#23383A"/><path d="m743.03 349.308-4.281 2.168c-4.159-1.171-54.658-2.939-38.549 10.841-.649.421 1.512 9.063-8.561 0 1.785-22.596 36.945-21.672 51.391-13.019v.01Z" fill="#000"/><path d="M738.748 351.476c.406.113 5.214 4.46 6.421 5.426-2.11 3.052-3.215 2.887-6.421 3.257-8.623-9.227-30.341-4.429-38.548 0-.315.165.314 1.963 0 2.169-16.109-13.791 34.389-12.013 38.548-10.842v-.01Z" fill="#E2E2E2"/><path d="M738.749 360.149c-9.616 1.089-27.927-2.107-38.548 0 8.207-4.429 29.916-9.228 38.548 0Z" fill="#000"/><path d="M835.11 360.149c-10.266 15.26-48.906 9.187-47.11 3.258 16.058-9.639 33.669 3.812 47.11-3.258Z" fill="#23383A"/><path d="M814.76 364.496h2.14c4.23-.339 4.23 2.507 0 2.168l-2.14-2.168Z" fill="#808184"/><path d="M1195.5 333.001s98.92-4.83 79 3.999c-17.45 7.737-119.61 7.372-144.5 5-3.51-.335-18-4.5-20-6 0 0-37-7.5-36-11.5 1.01-3.999 121.5 8.501 121.5 8.501Z" fill="#000" fill-opacity=".5" stroke="#000" stroke-opacity=".5"/></g><defs><clipPath id="a"><path fill="#fff" d="M0 0h1440v393H0z"/></clipPath></defs></svg>