<svg width="658" height="654" fill="none" xmlns="http://www.w3.org/2000/svg"><path d="M619.489 645.055c2.372-1.263 4.896.013 7.381-.411.464 1.326 2.31 3.494 2.69 4.312.254.545-.364 1.133 1.057 1.884-.531.152-1.036.488-1.485-.079-.609-.775-1.649-4.826-2.388-5.265-1.889.614-3.728-.5-5.571-.222-1.157.172-.707.387-.424 1.214-.704-.38-.41.713-1.272-1.43l.012-.003Z" fill="#231F20"/><path d="m543.548 520.625.822-.861c.035.569 5.13 3.272 5.393 3.182l-5.965-2.577 1.323-1.075c.379-.682 9.44 7.283 13.067 10.791.56 1.148 1.387 1.615 1.971 2.602 2.778 4.698 3.106 8.289 4.835 13.063.282 5.964 31.73 34.071 34.374 39.518 4.18 8.6 13.512 14.849 16.31 24.336.314 1.059.168 2.695.558 3.566.389.871 1.657 1.297 2.247 2.308.589 1.011.712 2.335 1.303 3.139.475.646 3.014 1.31 4.137 2.4.857.832 3.042 4.115 3.417 5.133l1.815 5.009c.175.481 1.275 2.37 1.636 3.021.238.43.514.953.991 1.124.437 1.302 1.13 2.72 1.454 4.005.242.967.417 2.265.045 3.206-.507 1.277-2.536 2.179-2.661 2.629-.454 1.664 2.431 2.948 1.224 4.87l-.607-1.67-1.664.609 1.547-.941c-.724-1.252-1.256-2.533-1.787-3.882 7.069-.971 1.12-8.944-.725-12.399-.888-1.663-.61-2.784-2.302-4.258.196-1.439-1.351-3.901-2.218-5.032-3.375-4.39-8.926-2.654-12.781.07-4.699 3.322-2.466 6.5-2.187 10.885.229 3.561-1.396 6.474 1.858 9.485.427.393.286.816 1.071.343-1.041-1.612-1.986-3.602-1.268-5.58-.169 3.432 2.547 7.006 6.023 7.258.367 1.05.694 1.614 1.092 3.007-.815-.34-.645-1.411-1.433-1.968-1.101-.777-3.794-.148-6.093-2.358-3.417-3.298-1.778-6.129-2.082-10.017-.282-3.641-1.907-6.173.53-9.726.895-1.307 3.222-2.548 3.589-3.58.368-1.032-.063-2.758.007-3.876.046-.733.621-1.393.619-2.205-.036-8.353-12.59-18.427-16.399-25.993-5.307-10.535-32.722-42.581-39.487-53.188-2.642-4.149-6.364-7.899-8.963-12.222-.69-1.142-4.819-.804-4.63-2.15l-.006-.001Zm8.711 5.566c2.229 3.859 5.596 6.96 7.419 11.075 3.916 8.824 33.383 35.451 35.453 43.568 2.753 10.813 10.653 15.67 15.863 24.598 1.623 2.783 2.628 5.488 3.468 8.582 1.206-4.306-1.444-8.138-3.778-11.47-4.693-6.704-12.49-13.653-14.787-21.71-2.551-8.96-30.957-40.621-37.584-48.345l-6.048-6.297-.006-.001Zm66.63 92.26c-2.043-6.543-7.172-4.376-5.327 1.933l5.327-1.933Z" fill="#231F20"/><path d="M617.886 647.9c-.392-1.391-.721-1.95-1.092-3.006-.37-1.056-2.43-5.696-.101-5.46 1.303.134 2.275 4.319 2.796 5.621.857 2.141.562 1.048 1.272 1.429.109.056.113.527.24.665l-2.877 1.422c-.066-.224-.179-.443-.24-.665l.002-.006Z" fill="#58585A"/><path d="m618.13 648.572 2.876-1.421c1.554 1.663 2.14 3.02-.743 3.712-.804.194-.629-.472-.738-.528l2.001-.725-.606-1.675-2.001.725.607 1.67c-.055-.025-.512.363-.754.016-.242-.346-.496-1.289-.635-1.778l-.007.004Z" fill="#231F20"/><path d="M629.327 644.128c.531 1.349 1.063 2.631 1.787 3.882l-1.547.941c-.38-.818-2.231-2.987-2.691-4.312-.459-1.325-.562-4.412 1.529-2.971.986.68.583 1.608.922 2.46ZM629.568 648.951l1.664-.609.607 1.67c-.046.072-.25.038-.333.123l-.211.456a3.665 3.665 0 0 1-.664.24c-1.427-.752-.804-1.333-1.057-1.884l-.006.004Z" fill="#58585A"/><path d="M631.503 650.141s.069.303-.21.456l.21-.456Z" fill="#231F20"/><path d="M610.777 637.636c.068-1.42 2.364-5.082 3.418-6.153 3.535-1.725 6.664-4.543 10.741-4.654.587.199.819.168 1.359.641 1.692 1.474 1.414 2.595 2.302 4.258 1.845 3.455 7.789 11.426.725 12.399-.337-.857.065-1.785-.922-2.46-2.093-1.436-2.013 1.589-1.529 2.971-2.489.422-5.014-.854-7.38.411-.523-1.296-1.494-5.486-2.797-5.62-2.328-.236-.285 4.36.102 5.459-3.471-.25-6.192-3.826-6.023-7.258l.004.006Zm13.366-6.721c-.772.113-2.731 1.005-2.613 1.908 1.04 1.595 1.596 3.442 2.227 5.219.246.706.279 2.057.51 2.384.836 1.185 4.168-.183 3.648-2.083-.149-.541-.911-.845-1.174-1.421-.909-1.976-1.315-4.177-2.591-6.011l-.007.004Z" fill="#808184"/><path d="M626.302 627.471c-.541-.472-.774-.436-1.36-.64-.464-.157-.504-.441-1.324-.402-2.519.118-7.589 3.201-9.417 5.056-1.054 1.071-3.35 4.732-3.418 6.153-.718 1.978.227 3.969 1.268 5.581-.785.473-.644.049-1.071-.344-3.256-3.006-1.63-5.918-1.858-9.485-.279-4.384-2.511-7.568 2.187-10.885 3.854-2.724 9.407-4.465 12.781-.07.872 1.133 2.419 3.595 2.218 5.032l-.006.004Z" fill="#BBBCBF"/><path d="m556.576 530.684 1.724 1.79s.018.016.021.027C564.932 540.222 590.172 572.38 596 581c2.292 8.055 9.98 14.837 14.678 21.542 1.919 2.741 4.055 5.821 4.083 9.225.004.538-.758.653-.919.142-.723-2.253-1.6-4.338-2.848-6.478C605.789 596.505 598 590.5 592.5 578.5c-5-7.5-28.906-32.41-32.822-41.235-.969-2.186-2.377-4.093-3.815-5.972-8.367-10.862.303-1.043.715-.614l-.002.005Z" fill="#58585A"/><path d="m618.888 618.451-5.327 1.933c-1.845-6.309 3.284-8.476 5.327-1.933Z" fill="#929497"/><path d="m620.875 647.991-1.998.727.608 1.672 1.998-.727-.608-1.672Z" fill="#58585A"/><path d="M624.145 630.916c1.277 1.828 1.682 4.029 2.591 6.01.263.576 1.025.881 1.173 1.422.521 1.9-2.812 3.268-3.647 2.083-.231-.327-.259-1.677-.511-2.385-.629-1.781-1.18-3.627-2.226-5.218-.119-.903 1.841-1.796 2.613-1.908l.007-.004Zm3.03 8.321c-1.045-1.177-2.542-7.067-3.367-7.298-.826-.231-1.587.371-1.437 1.304.081.496 1.941 4.732 2.242 5.178.227.343.706-.18.816.134.037.098-1.056.706-.121 1.743l1.867-1.061ZM624.942 626.831c-4.078.11-7.207 2.929-10.741 4.654 1.826-1.849 6.897-4.938 9.416-5.056.821-.039.862.24 1.325.402Z" fill="#231F20"/><path d="m627.175 639.236-1.867 1.061c-.93-1.035.159-1.649.122-1.743-.111-.313-.59.209-.817-.133-.295-.45-2.16-4.687-2.242-5.178-.15-.933.596-1.539 1.437-1.304.841.235 2.323 6.121 3.367 7.297Z" fill="#58585A"/><path fill-rule="evenodd" clip-rule="evenodd" d="M217.007 1.357h1.079A485.544 485.544 0 0 1 244.755 5.4a158.702 158.702 0 0 1 27.747 8.219c11.68 4.948 20.969 12.722 27.883 23.312 5.471 8.864 7.58 18.478 6.328 28.834-.26.402-.624.538-1.079.407a2453.2 2453.2 0 0 0-19.126-9.027c-.179-.39-.363-.749-.536-1.08a30.614 30.614 0 0 0-5.521-11.859c-5.238-5.865-11.571-10.134-18.989-12.803a114.788 114.788 0 0 0-17.51-4.715 184.086 184.086 0 0 0-18.588-3.505h-.537a99.617 99.617 0 0 0-18.318-1.616 91.737 91.737 0 0 0-19.933.944 9.426 9.426 0 0 0-2.153.672h-.808c-8.285 1.444-16.007 4.319-23.165 8.627-11.664 6.46-19.478 16.074-23.436 28.834a1352.56 1352.56 0 0 0-16.165 15.494 116.303 116.303 0 0 1-5.39 4.449c-1.627-11.138-.325-21.918 3.904-32.34 7.532-17.327 19.879-29.952 37.042-37.867 11.799-5.42 24.19-8.566 37.171-9.434 7.825-.26 15.634-.125 23.437.407l-.006.005Zm-11.04 20.209c.022.336.201.559.537.672 1.318.006 2.576.234 3.769.673.97-.418 2-.597 3.096-.537 3.769.532 7.586.798 11.447.809h.537c.081.173.173.352.271.537 4.354.84 8.757 1.562 13.198 2.153a.994.994 0 0 0 .271.407c1.611.26 3.227.396 4.848.407a.767.767 0 0 0 .271.673c4.349.906 8.66 1.899 12.933 2.962 1.367.906 2.896 1.443 4.582 1.617a11.833 11.833 0 0 0 5.39 2.29.825.825 0 0 0 .271.807c8.893 4.096 14.912 10.791 18.047 20.079a1.78 1.78 0 0 1-.673.944 4.423 4.423 0 0 0-1.48-.944 2.286 2.286 0 0 0-1.079-.136 39.872 39.872 0 0 0-1.345-1.215 6.62 6.62 0 0 1-2.961-1.617 5.187 5.187 0 0 1-2.695-1.08c-1.605-.298-3.134-.119-4.582.538-.905.727-1.263 1.67-1.079 2.832-.564.016-.965.287-1.214.808a17.308 17.308 0 0 1-1.888 4.584 5.163 5.163 0 0 0-.406 2.154 8.104 8.104 0 0 1-2.153 1.08c-.483-.055-.84-.277-1.079-.673a404.994 404.994 0 0 0-32.058 0c-.342.114-.515.336-.537.673h-.537c-6.914-.044-13.827 0-20.741.135-4.311.272-8.622.538-12.933.809-6.838 0-13.659.266-20.47.808a.778.778 0 0 0-.271.673h-1.079c-3.059.032-6.112.076-9.159.135a106.672 106.672 0 0 1-7.272-7.41.834.834 0 0 0-.808-.272c-.141-.884-.683-1.242-1.616-1.08v-.807a20.733 20.733 0 0 0-5.39-1.889.974.974 0 0 0-.271-.406 15.264 15.264 0 0 0-4.04 0 79.019 79.019 0 0 1-4.311 2.023 2.392 2.392 0 0 0-1.079 1.215 4.061 4.061 0 0 0-1.214.407l-.407-.407a91.413 91.413 0 0 1 5.927-10.644A90.012 90.012 0 0 1 152.349 38a35.974 35.974 0 0 1 4.311-2.963.838.838 0 0 0 .271-.808 31.03 31.03 0 0 0 3.503-1.617v-.808a9.152 9.152 0 0 0 2.153-.407 59.104 59.104 0 0 1 8.887-4.448 127.015 127.015 0 0 1 11.854-3.098.78.78 0 0 0 .271-.673h.808c7.217-.559 14.402-1.096 21.549-1.617l.011.006Z" fill="#5B9498"/><path opacity=".12" fill-rule="evenodd" clip-rule="evenodd" d="M217.006 1.357A231.284 231.284 0 0 0 193.57.95c-12.981.868-25.372 4.01-37.171 9.434-17.163 7.916-29.505 20.535-37.042 37.868-4.23 10.422-5.531 21.202-3.904 32.34-2.083 2.023-4.192 4.09-6.328 6.2-1.291 1.785-1.242 3.537.135 5.257a892.288 892.288 0 0 0 14.278 11.995 7.668 7.668 0 0 0 .808 3.505 23.713 23.713 0 0 0-.537 3.505c-1.594.537-2.76 1.567-3.503 3.097a.612.612 0 0 1 .271.407c-.651-.054-.916-.412-.808-1.079h.808c-.043-.456 0-.906.136-1.346a256.05 256.05 0 0 0 2.424-1.888c.406-2.202.092-4.269-.944-6.201a1059.24 1059.24 0 0 1-14.413-12.396 4.314 4.314 0 0 0-.673-2.024 5.675 5.675 0 0 0 .673-2.56 95.892 95.892 0 0 0 4.712-4.986l.808-.407c.483-.743.933-1.508 1.345-2.29a2.796 2.796 0 0 0-.673-1.215c-1.046-21.787 6.269-40.2 21.956-55.25a244.436 244.436 0 0 1 6.464-5.256 50.726 50.726 0 0 1 6.464-3.906c.629-.96 1.523-1.411 2.695-1.346V11.6c.482.076.932-.011 1.345-.271a36.403 36.403 0 0 0 3.768-2.024 5.797 5.797 0 0 1 2.424-.407V8.09a25.067 25.067 0 0 1 5.927-1.617v-.808a83.883 83.883 0 0 1 3.503-.272v-.808a42.735 42.735 0 0 0 9.159-2.29c3.21-.531 6.442-.938 9.695-1.215a.983.983 0 0 1 .271-.407 77.43 77.43 0 0 0 8.622-.537c6.843-.293 13.67-.114 20.47.537a.778.778 0 0 1 .271.673v.011Z" fill="#DDFAFB"/><path opacity=".09" fill-rule="evenodd" clip-rule="evenodd" d="M183.605 23.183a.765.765 0 0 1-.272.672 129.234 129.234 0 0 0-11.853 3.098 58.6 58.6 0 0 0-8.888 4.449 9.147 9.147 0 0 1-2.153.407c7.158-4.303 14.88-7.178 23.166-8.626Z" fill="#DDF9FA"/><path opacity=".05" fill-rule="evenodd" clip-rule="evenodd" d="M225.357 23.183a182.588 182.588 0 0 1 18.589 3.504 31.534 31.534 0 0 1-4.848-.407.998.998 0 0 1-.271-.407 233.138 233.138 0 0 1-13.198-2.153c-.098-.185-.19-.364-.272-.537Z" fill="#DCFAFB"/><path opacity=".13" fill-rule="evenodd" clip-rule="evenodd" d="M160.439 31.809v.808a30.647 30.647 0 0 1-3.503 1.617.837.837 0 0 1-.271.808 36.614 36.614 0 0 0-4.311 2.962 90.012 90.012 0 0 0-7.814 8.355 91.414 91.414 0 0 0-5.927 10.644l.407.407c.374-.195.78-.331 1.214-.407a2.386 2.386 0 0 1 1.079-1.215 82.773 82.773 0 0 0 4.311-2.024c1.345-.179 2.695-.179 4.04 0a.986.986 0 0 1 .271.407 20.885 20.885 0 0 1 5.39 1.888v.808c.933-.162 1.475.196 1.616 1.08a.834.834 0 0 1 .808.271 108.979 108.979 0 0 0 7.272 7.411c3.047-.06 6.1-.103 9.158-.136-3.204.51-6.436 1.047-9.695 1.617a52.185 52.185 0 0 0-10.238-10.644c-5.119-3.049-9.874-2.599-14.277 1.345a45.675 45.675 0 0 1-2.961 2.832c3.958-12.76 11.767-22.373 23.436-28.834h-.005Z" fill="#DEF9FA"/><path opacity=".05" fill-rule="evenodd" clip-rule="evenodd" d="M243.945 26.688a114.776 114.776 0 0 1 17.51 4.714c7.423 2.67 13.751 6.933 18.989 12.803a30.543 30.543 0 0 1 5.521 11.86c.038.282 0 .553-.136.808a23.32 23.32 0 0 1-3.639-1.888c.369-.043.733 0 1.08.136a4.423 4.423 0 0 1 1.48.944c.336-.244.558-.56.672-.944-3.134-9.288-9.153-15.983-18.046-20.079a.833.833 0 0 1-.271-.808c-2.006-.326-3.801-1.085-5.39-2.29-1.681-.173-3.21-.71-4.582-1.616a334.083 334.083 0 0 0-12.933-2.962.777.777 0 0 1-.271-.673l.016-.006Z" fill="#DFFBFB"/><path fill-rule="evenodd" clip-rule="evenodd" d="M282.196 54.985a23.33 23.33 0 0 0 3.639 1.888c.13-.255.174-.526.136-.809.179.331.357.69.536 1.08a2453.2 2453.2 0 0 1 19.126 9.027c.455.13.819 0 1.079-.406a1.18 1.18 0 0 0 .271.944 35.586 35.586 0 0 0 5.656 2.153c5.52 2.284 7.358 6.283 5.52 11.995a305.346 305.346 0 0 0-6.87 15.901c-1.318-3.548-3.829-5.886-7.543-7.009-.618-1.638-1.833-2.354-3.639-2.154-10.726.26-21.457.348-32.188.272h-.537v-.272c10.146.044 20.291 0 30.442-.135a1312.132 1312.132 0 0 0-36.635-13.878c.217-.417.304-.862.272-1.345a7.594 7.594 0 0 0 1.616-3.234 127.524 127.524 0 0 0 2.423-4.985.884.884 0 0 1-.536-.407h.808a78.703 78.703 0 0 1 4.983-11.051c.987-1.042 2.196-1.357 3.638-.944 2.614 1.128 5.217 2.251 7.814 3.369h-.011ZM164.478 67.115v.537c-.835.022-1.73.065-2.695.136a335.183 335.183 0 0 0-36.234 31.666 11.37 11.37 0 0 0-2.022 4.585 838.088 838.088 0 0 1-14.278-11.995c-1.377-1.715-1.421-3.467-.136-5.257 2.137-2.11 4.246-4.172 6.329-6.201a119.261 119.261 0 0 0 5.39-4.449 1233.895 1233.895 0 0 1 16.164-15.494 42.759 42.759 0 0 0 2.961-2.832c4.403-3.944 9.159-4.394 14.278-1.345a52.457 52.457 0 0 1 10.237 10.644l.006.005Z" fill="#84AFB2"/><path opacity=".04" fill-rule="evenodd" clip-rule="evenodd" d="M282.196 54.985c-2.592-1.118-5.2-2.24-7.814-3.369-1.437-.412-2.651-.098-3.638.944a78.824 78.824 0 0 0-4.984 11.051h-2.695a31.03 31.03 0 0 0-6.198-.673 441.481 441.481 0 0 0-22.899.136h-3.769c.022-.337.201-.559.537-.673a404.899 404.899 0 0 1 32.058 0c.239.396.597.619 1.079.673a7.776 7.776 0 0 0 2.153-1.08 5.055 5.055 0 0 1 .407-2.154 17.263 17.263 0 0 0 1.887-4.584c.244-.52.651-.792 1.214-.808-.189-1.161.169-2.105 1.08-2.832 1.447-.662 2.971-.84 4.582-.537a5.163 5.163 0 0 0 2.695 1.08 6.636 6.636 0 0 0 2.96 1.616 33.3 33.3 0 0 1 1.345 1.215v-.005Z" fill="#DDF2F3"/><path opacity=".94" fill-rule="evenodd" clip-rule="evenodd" d="M263.071 63.61a912.47 912.47 0 0 0-29.092-.271v-.271a441.33 441.33 0 0 1 22.899-.136 31.11 31.11 0 0 1 6.198.673l-.005.005Z" fill="#1B0508"/><path fill-rule="evenodd" clip-rule="evenodd" d="M233.98 63.34c9.701-.066 19.396.027 29.092.27h1.887a.902.902 0 0 0 .537.408 128.977 128.977 0 0 1-2.424 4.985h-.808a23.036 23.036 0 0 0-6.198-.537h-14.549c-3.02-.06-5.981.12-8.887.537-3.194-.086-6.334 0-9.43.272-11.491.401-22.987.76-34.482 1.08a62.79 62.79 0 0 0-8.622.536 44.202 44.202 0 0 0-8.08.809 26.344 26.344 0 0 0-5.656.808c.033-1.519-.417-2.864-1.344-4.042v-1.08a241.973 241.973 0 0 1 34.075-2.696c2.549.066 5.065.152 7.543.272.488-.158.981-.293 1.48-.407 3.65 0 7.239-.223 10.775-.673 5.081.06 10.107-.12 15.085-.537l.006-.005Z" fill="#280202"/><path opacity=".94" fill-rule="evenodd" clip-rule="evenodd" d="M229.668 63.073h4.311v.271c-4.978.424-10.004.603-15.085.538h-3.769c4.853-.196 9.701-.467 14.549-.809h-.006Z" fill="#2A1F20"/><path opacity=".1" fill-rule="evenodd" clip-rule="evenodd" d="M229.669 63.074c-4.848.342-9.696.613-14.549.808a930.4 930.4 0 0 0-39.867 1.617.767.767 0 0 1 .271-.673 257.78 257.78 0 0 1 20.471-.808c4.31-.272 8.621-.537 12.932-.809a801.26 801.26 0 0 1 20.742-.135Z" fill="#DEF0F0"/><path opacity=".74" fill-rule="evenodd" clip-rule="evenodd" d="M215.126 63.882h3.768c-3.535.45-7.125.673-10.774.673-.499.113-.993.25-1.481.406a370.188 370.188 0 0 0-7.542-.27 241.11 241.11 0 0 0-34.076 2.695v1.08l-.537-.808v-.537a657.07 657.07 0 0 1 9.696-1.617h1.079a930.497 930.497 0 0 1 39.867-1.617v-.005Z" fill="#1E1415"/><path fill-rule="evenodd" clip-rule="evenodd" d="M164.479 67.653c.179.27.358.536.537.808.933 1.177 1.377 2.523 1.345 4.041a18.173 18.173 0 0 1-.537 3.505c-.629 1.253-1.258 2.512-1.887 3.77-.315.272-.494.635-.537 1.08a2.036 2.036 0 0 0-1.079 1.346l-9.696 10.508c-.179.092-.358.18-.537.272-4.592.336-9.174.835-13.74 1.48a10.11 10.11 0 0 0-4.848 1.617 2.64 2.64 0 0 0-.808 1.888 333.469 333.469 0 0 0 2.153 8.219 40.114 40.114 0 0 1-4.04 1.617c-1.54.759-3.156.939-4.848.537a3.425 3.425 0 0 0-1.616-.808 7.696 7.696 0 0 1-.808-3.505 11.368 11.368 0 0 1 2.023-4.584 335.173 335.173 0 0 1 36.233-31.667c.96-.07 1.86-.114 2.695-.135l-.005.01Z" fill="#1A3C40"/><path fill-rule="evenodd" clip-rule="evenodd" d="M241.523 68.46h14.549c2.017.316 4.077.495 6.198.538h.808a7.63 7.63 0 0 1-1.616 3.233 1.823 1.823 0 0 0-.271-1.08c.222-.433.58-.612 1.079-.536v-1.346c-4.17-.314-8.346-.493-12.526-.537-8.839.423-17.683.602-26.533.537a83.542 83.542 0 0 1 9.43-.271 70.632 70.632 0 0 0 8.887-.537h-.005Z" fill="#DA5157"/><path fill-rule="evenodd" clip-rule="evenodd" d="M256.07 68.46a23.076 23.076 0 0 1 6.198.538 46.346 46.346 0 0 1-6.198-.538Z" fill="#590C12"/><path fill-rule="evenodd" clip-rule="evenodd" d="M241.522 68.461a68.641 68.641 0 0 1-8.887.537 54.145 54.145 0 0 1 8.887-.537Z" fill="#983135"/><path fill-rule="evenodd" clip-rule="evenodd" d="M261.455 72.237c.033.483-.054.933-.271 1.346-.813-.044-1.621 0-2.424.135-2.917 1.736-3.41 4.031-1.48 6.874a43.433 43.433 0 0 0 8.757 6.2c-14.456.494-28.999.717-43.64.674-.342.113-.515.336-.537.672-.347.152-.57.418-.673.808-.043.63-.092 1.26-.135 1.889.45 2.967.943 5.935 1.48 8.891.136 1.433.179 2.87.136 4.313.108 1.525.2 3.055.271 4.585-.906-.033-1.8-.12-2.695-.272a82.4 82.4 0 0 1-4.582-.808 54.343 54.343 0 0 0-6.735-.271c.358-1.411.537-2.849.537-4.313v-1.346c.347-1.389.613-2.826.808-4.313.407-.814.591-1.714.537-2.696a6.41 6.41 0 0 0-.271-1.888c-.066-.586-.337-1.036-.808-1.345-.559-1.189-1.454-1.997-2.695-2.425a.768.768 0 0 0-.272-.673 21.83 21.83 0 0 0-5.926.135c-1.34.201-2.685.293-4.04.272h-2.153a30.848 30.848 0 0 1-4.848-.272c-1.41.152-1.41.375 0 .673-2.63.44-5.233.754-7.814.944-3.888.418-7.749.863-11.582 1.346-2.012.162-3.986.341-5.927.537-3.953.27-7.901.537-11.854.808 3.232-3.505 6.469-7.01 9.696-10.508a2.036 2.036 0 0 0 1.079-1.346c.043-.445.222-.803.537-1.08.33.06.602.24.808.538.254-.277.254-.592 0-.944a16.87 16.87 0 0 0 1.079-3.37c.688-1.074 1.095-.895 1.214.538a179.73 179.73 0 0 0-.135-3.77 147.41 147.41 0 0 0 5.119-1.08 44.244 44.244 0 0 1 8.079-.809c2.923 0 5.797-.184 8.622-.537 11.496-.32 22.986-.678 34.482-1.08 8.85.066 17.694-.113 26.533-.537 4.181.044 8.356.223 12.526.537v1.346c-.499-.076-.857.103-1.079.537.2.331.293.695.271 1.08l.005.005Z" fill="#ED4950"/><path fill-rule="evenodd" clip-rule="evenodd" d="M188.723 70.348a68.354 68.354 0 0 1-8.621.537 61.119 61.119 0 0 1 8.621-.537Z" fill="#8B292C"/><path fill-rule="evenodd" clip-rule="evenodd" d="M261.184 73.582a1313.322 1313.322 0 0 1 36.635 13.878 1725.71 1725.71 0 0 1-30.443.135 3.308 3.308 0 0 0-1.344-.808 43.726 43.726 0 0 1-8.758-6.2c-1.93-2.844-1.437-5.133 1.481-6.875.802-.135 1.61-.179 2.423-.135l.006.005Z" fill="#1A3C40"/><path fill-rule="evenodd" clip-rule="evenodd" d="M172.022 71.694c-1.67.385-3.378.744-5.119 1.08.055 1.264.103 2.523.136 3.77-.119-1.437-.521-1.616-1.215-.537.293-1.15.472-2.316.537-3.504a26.389 26.389 0 0 1 5.656-.809h.005Z" fill="#D04B50"/><path fill-rule="evenodd" clip-rule="evenodd" d="M165.828 76.007a16.738 16.738 0 0 1-1.079 3.369c.255.352.255.667 0 .944a1.221 1.221 0 0 0-.808-.537c.629-1.259 1.258-2.517 1.887-3.77v-.006Z" fill="#C95154"/><path fill-rule="evenodd" clip-rule="evenodd" d="M201.921 78.432c.445-.06.846.032 1.215.27a29.88 29.88 0 0 1 0 5.66 2.442 2.442 0 0 1-1.48.27c-.082-2.088.01-4.155.271-6.2h-.006Z" fill="#A1070A"/><path fill-rule="evenodd" clip-rule="evenodd" d="M163.405 80.857c-.157.608-.515 1.053-1.079 1.346.157-.608.515-1.053 1.079-1.346Z" fill="#A54F58"/><path fill-rule="evenodd" clip-rule="evenodd" d="M266.037 86.787a3.24 3.24 0 0 1 1.345.808v.272c-14.148.081-28.29-.011-42.426-.272a6.935 6.935 0 0 0-3.097.537c.022-.336.201-.558.537-.672 14.636.043 29.184-.18 43.641-.673Z" fill="#D45E62"/><path fill-rule="evenodd" clip-rule="evenodd" d="M200.848 88.404a22.05 22.05 0 0 1 5.927-.136c.2.18.292.407.271.673a20.092 20.092 0 0 0-6.198-.537Z" fill="#D65F65"/><path fill-rule="evenodd" clip-rule="evenodd" d="m194.65 88.675-1.616.537c-3.666.472-7.348.737-11.046.808a85.399 85.399 0 0 0 7.814-.944c-1.41-.298-1.41-.52 0-.673 1.611.217 3.227.31 4.848.272Z" fill="#DA5357"/><path fill-rule="evenodd" clip-rule="evenodd" d="M194.649 88.675h2.153l-1.616.537h-2.153c.537-.18 1.079-.358 1.616-.537Z" fill="#D49A9D"/><path fill-rule="evenodd" clip-rule="evenodd" d="M193.035 89.212h2.152c.662.374 1.383.689 2.153.944a5.25 5.25 0 0 0-1.48.407 497.51 497.51 0 0 0-4.984-.136 10.9 10.9 0 0 1 2.961-.537 10.613 10.613 0 0 0-4.582.271c.358.093.716.18 1.079.272a35.052 35.052 0 0 1-3.769-.136c-3.237.326-6.469.64-9.695.944a77.848 77.848 0 0 1-6.464.135c3.834-.482 7.695-.933 11.583-1.345 3.698-.07 7.38-.336 11.046-.808v-.011Z" fill="#CEE3E6"/><path fill-rule="evenodd" clip-rule="evenodd" d="M303.747 89.754c3.714 1.123 6.225 3.461 7.543 7.01.309 2.864-.684 5.11-2.961 6.737-.992.044-1.979 0-2.961-.135a49.633 49.633 0 0 0-3.503-.944 156.538 156.538 0 0 1 1.887-12.668h-.005Z" fill="#193C40"/><path fill-rule="evenodd" clip-rule="evenodd" d="M267.383 87.866h.536c-15.036.223-30.122.358-45.256.407.217.082.396.217.537.407l-.808.808a67.521 67.521 0 0 0-.537 3.906c.119.467.347.869.672 1.216.716-.32 1.031-.055.944.808a.83.83 0 0 0-.808.271 31.214 31.214 0 0 0 1.079 8.626 26.886 26.886 0 0 0 0 5.122c-.428.07-.792-.017-1.079-.272h.808a16.956 16.956 0 0 0-.808-5.121c.043-1.438 0-2.875-.136-4.313a312.392 312.392 0 0 1-1.48-8.892c.043-.629.092-1.258.135-1.888.103-.39.326-.656.673-.808a6.796 6.796 0 0 1 3.096-.537c14.142.26 28.284.347 42.426.271l.006-.01Z" fill="#D3E7EB"/><path fill-rule="evenodd" clip-rule="evenodd" d="M164.478 91.908c-3.709.64-7.477 1.09-11.311 1.345-.418 0-.775-.092-1.079-.271.179-.092.358-.18.537-.271 3.953-.272 7.9-.537 11.853-.809v.006Z" fill="#E6D2D4"/><path opacity=".08" fill-rule="evenodd" clip-rule="evenodd" d="M244.754 5.398a49.22 49.22 0 0 1 5.927.407c.124.114.211.244.271.407 2.896.678 5.769 1.351 8.622 2.024.124.114.211.244.271.407 1.247.265 2.505.493 3.769.672.124.114.211.245.271.407 2.093.603 4.164 1.232 6.198 1.888v.809c1.561-.082 2.906.363 4.04 1.345a19.073 19.073 0 0 1 4.847 2.024 72.703 72.703 0 0 1 6.464 4.041c.521.244.792.651.808 1.216 1.437.45 2.603 1.307 3.503 2.56.857.494 1.665 1.031 2.424 1.617.228.271.314.586.271.944.775.407 1.491.95 2.153 1.617a58.59 58.59 0 0 1 10.102 15.9 26.847 26.847 0 0 1 1.345 4.85l.537.538a52.11 52.11 0 0 0 1.079 8.083 45.812 45.812 0 0 1 0 7.01c-.12.423-.342.786-.673 1.08.629.45 1.166.987 1.616 1.616 9.999 1.855 13.096 7.514 9.294 16.98a19.671 19.671 0 0 1-2.152 3.771 11.504 11.504 0 0 0-.537 2.425 29.128 29.128 0 0 0-2.961 5.659c-.152 1.98-.331 3.955-.537 5.929-1.551 1.319-1.551 2.664 0 4.042a35.87 35.87 0 0 1 0 6.201 27.586 27.586 0 0 0-3.638 4.313c-.993.542-1.98 1.085-2.961 1.617h-.808a29.394 29.394 0 0 0 6.87-7.275c.917-2.876.022-4.943-2.695-6.201-.124-.337.011-.559.407-.673a.663.663 0 0 0-.537-.136c2.283-1.627 3.27-3.873 2.961-6.738a306.204 306.204 0 0 1 6.87-15.9c1.839-5.714 0-9.712-5.52-11.996a36.173 36.173 0 0 1-5.656-2.154 1.187 1.187 0 0 1-.271-.944c1.253-10.356-.856-19.97-6.328-28.834-6.908-10.59-16.202-18.364-27.883-23.312a158.685 158.685 0 0 0-27.747-8.22l-.016-.016Z" fill="#DEFBFB"/><path fill-rule="evenodd" clip-rule="evenodd" d="M303.747 89.754a155.305 155.305 0 0 0-1.887 12.668c1.176.271 2.342.586 3.503.944.981.136 1.973.179 2.96.136.201-.038.38.01.537.135-.396.114-.526.336-.407.673 2.717 1.258 3.612 3.325 2.695 6.201a29.394 29.394 0 0 1-6.87 7.275 7.266 7.266 0 0 0-1.887 1.345 83.064 83.064 0 0 1-5.656 2.697c-.504-.071-.862.108-1.079.537-.412 0-.721.184-.943.537-.147.987-.282 1.975-.407 2.962v.271a203.896 203.896 0 0 1-1.616 5.93c-.694 3.304-2.31 6.044-4.848 8.219a27.291 27.291 0 0 0-3.232 1.752 5.256 5.256 0 0 1-1.615.272c-8.433.26-16.875.352-25.324.271h-25.589a10.76 10.76 0 0 1-2.023-4.042c-1.133-4.893-2.255-9.743-3.367-14.556a21.824 21.824 0 0 0-1.887-8.354c-.792-1.058-1.871-1.644-3.232-1.753a65.452 65.452 0 0 0-5.927-.135 10.84 10.84 0 0 0-3.768.537c-.429-.071-.792.016-1.079.271-1.437-.07-2.647.374-3.639 1.346a49.618 49.618 0 0 0-1.215 6.466v.537a40.34 40.34 0 0 0-1.079 6.467 189.406 189.406 0 0 0-1.751 9.7l-.537.537c.163 1.574-.51 2.474-2.023 2.697a38.719 38.719 0 0 0-5.39 1.079h-.537a10.84 10.84 0 0 0-3.768.537h-.537a17.628 17.628 0 0 0-4.311.537 38.75 38.75 0 0 0-6.735.809 17.948 17.948 0 0 0-4.04.271c-4.137.201-8.269.515-12.39.944-3.682.136-7.364.179-11.046.136-2.424-.25-4.267-1.416-5.52-3.505a90.913 90.913 0 0 1-4.983-16.172c-.537-.093-1.08-.179-1.616-.272-.434-.423-.971-.602-1.616-.537l-2.695-.537a146.232 146.232 0 0 0-6.735-2.962c0-.179-.092-.271-.271-.271a18.745 18.745 0 0 1-5.119-4.042c-.721-.456-1.437-.9-2.153-1.345.06-.451-.119-.722-.537-.809v-1.616a.62.62 0 0 0-.271-.407c.738-1.53 1.909-2.566 3.503-3.098 1.632.933 3.427 1.562 5.39 1.888.092.228.271.315.537.271a43.47 43.47 0 0 0 5.656 1.617c.629.418 1.35.597 2.152.537-.059-1.367-.417-2.626-1.079-3.77a16.506 16.506 0 0 0-1.616-5.393 316.094 316.094 0 0 1-2.152-8.22 2.67 2.67 0 0 1 .808-1.887 10.11 10.11 0 0 1 4.847-1.617 201.407 201.407 0 0 1 13.741-1.48c.304.178.662.265 1.079.27 3.834-.255 7.603-.705 11.312-1.345 1.941-.195 3.915-.374 5.927-.537 2.158.043 4.311 0 6.463-.136 3.232-.304 6.464-.618 9.696-.944 1.263.114 2.521.158 3.769.136-.358-.092-.716-.18-1.08-.271a10.612 10.612 0 0 1 4.583-.272c-1.02.044-2.007.223-2.961.537 1.768.038 3.427.087 4.983.136.466-.2.96-.336 1.48-.407a11.89 11.89 0 0 1-2.152-.944l1.616-.537a23.92 23.92 0 0 0 4.039-.271 20.11 20.11 0 0 1 6.198.537c1.242.434 2.137 1.242 2.695 2.425.163 1.156.255 2.322.272 3.505-.407 2.018-.586 4.264-.537 6.738v.271c-.369.77-.683 1.579-.944 2.425a26.525 26.525 0 0 0-.135 3.77c4.267-.2 8.486.071 12.661.809.553 0 1.096.092 1.616.271.288.25.646.342 1.079.271a27.04 27.04 0 0 1 0-5.121 31.297 31.297 0 0 1-1.079-8.626.83.83 0 0 1 .808-.271c.087-.863-.228-1.129-.943-.809a2.718 2.718 0 0 1-.673-1.215c.141-1.307.326-2.61.537-3.906l.808-.808a1.247 1.247 0 0 0-.537-.407c15.129-.044 30.215-.18 45.257-.407 10.731.081 21.462-.01 32.188-.271 1.806-.201 3.015.52 3.639 2.154l.011.021Z" fill="#C1E7E9"/><path fill-rule="evenodd" clip-rule="evenodd" d="M233.98 114.547a20.821 20.821 0 0 1-4.582-.271 15.487 15.487 0 0 0-.537-3.234 4846.633 4846.633 0 0 1 65.727-4.85 52.236 52.236 0 0 1-1.48 6.201c-.054.483-.277.841-.673 1.08a5.447 5.447 0 0 0-2.695-.537 8366.616 8366.616 0 0 1-55.76 1.617v-.006Z" fill="#030505"/><path fill-rule="evenodd" clip-rule="evenodd" d="M209.464 102.959c0 1.465-.184 2.902-.537 4.313a54.343 54.343 0 0 1 6.735.271 98.11 98.11 0 0 0-7.006.271 11.84 11.84 0 0 1 .808-4.85v-.005Z" fill="#CB5357"/><path fill-rule="evenodd" clip-rule="evenodd" d="M204.351 98.646c.396-.07.759.022 1.079.271a211.07 211.07 0 0 0-1.345 7.275 3518.322 3518.322 0 0 0-62.359 4.042c-.358-.07-.629-.249-.808-.537a165.369 165.369 0 0 1-1.48-5.121c17.78.13 35.468-1.085 53.065-3.641a126.22 126.22 0 0 0 11.853-2.289h-.005Z" fill="#030405"/><path fill-rule="evenodd" clip-rule="evenodd" d="M276.004 96.758c7.006.054 14.006.19 21.012.407a23.493 23.493 0 0 0-1.079 4.448c-22.628 1.471-45.257 3-67.885 4.585a68.495 68.495 0 0 1-.808-6.738c16.295-.841 32.546-1.742 48.76-2.697v-.005Z" fill="#020303"/><path fill-rule="evenodd" clip-rule="evenodd" d="M210.543 92.717c.179.575.271 1.204.271 1.888.049.982-.13 1.877-.537 2.696a28.64 28.64 0 0 0 .271-4.584h-.005Z" fill="#C26D72"/><path fill-rule="evenodd" clip-rule="evenodd" d="M209.736 91.371c.472.315.743.76.808 1.346a28.108 28.108 0 0 1-.271 4.584 38.381 38.381 0 0 1-.808 4.313c-.049-2.474.13-4.72.537-6.738a28.11 28.11 0 0 0-.271-3.505h.005Z" fill="#DCDBE0"/><path fill-rule="evenodd" clip-rule="evenodd" d="M209.465 101.88v1.079a11.87 11.87 0 0 0-.808 4.851 97.393 97.393 0 0 1 7.006-.272c1.518.315 3.047.581 4.582.809l.808.537a57.12 57.12 0 0 0-12.662-.809c-.043-1.258 0-2.517.136-3.77.255-.846.569-1.655.943-2.425h-.005Z" fill="#E1D5D7"/><path fill-rule="evenodd" clip-rule="evenodd" d="M222.668 104.039c.526 1.633.797 3.337.808 5.121h-.808a5.297 5.297 0 0 0-1.616-.271l-.808-.537a21.1 21.1 0 0 0 2.695.271c-.07-1.53-.157-3.054-.271-4.584Z" fill="#CF5F63"/><path fill-rule="evenodd" clip-rule="evenodd" d="M130.81 107.81c-.168.303-.39.575-.672.808a18.607 18.607 0 0 0-.407 4.584c-.265.049-.444-.043-.537-.271.044-.722 0-1.443-.135-2.154a5.377 5.377 0 0 1-.407 1.617c-1.345-.402-2.689-.809-4.04-1.215a4.597 4.597 0 0 1 0-2.832h1.345c1.692.401 3.308.217 4.848-.537h.005Z" fill="#290405"/><path opacity=".88" fill-rule="evenodd" clip-rule="evenodd" d="M124.342 107.538c.623.13 1.165.402 1.615.808h-1.344a4.583 4.583 0 0 0 0 2.832c1.35.407 2.695.809 4.039 1.216a5.57 5.57 0 0 0 .407-1.617c.136.711.179 1.432.136 2.154-1.958-.326-3.758-.955-5.39-1.888.092-1.183.271-2.355.537-3.505Z" fill="#1F1818"/><path fill-rule="evenodd" clip-rule="evenodd" d="M200.305 110.771h2.96c-.39 2.241-.748 4.487-1.079 6.738-18.501.922-36.998 1.91-55.494 2.962-.9-.092-1.795-.179-2.695-.271a112.213 112.213 0 0 0-1.616-5.121 20.663 20.663 0 0 1 4.582-.673 5848.156 5848.156 0 0 0 53.336-3.64l.006.005Z" fill="#030405"/><path fill-rule="evenodd" clip-rule="evenodd" d="M134.849 106.192a16.433 16.433 0 0 1 1.616 5.393c.141 1.204.412 2.371.808 3.505a14.51 14.51 0 0 0-1.887-.272 44.243 44.243 0 0 1-5.656-1.616 18.122 18.122 0 0 1 .407-4.585c.282-.233.504-.504.673-.808a39.77 39.77 0 0 0 4.039-1.617Z" fill="#E94B51"/><path fill-rule="evenodd" clip-rule="evenodd" d="M136.466 111.585a8.135 8.135 0 0 1 1.079 3.77c-.808.055-1.523-.124-2.152-.537.634.049 1.263.136 1.887.272a16.372 16.372 0 0 1-.808-3.505h-.006Z" fill="#CC5B5F"/><path fill-rule="evenodd" clip-rule="evenodd" d="M215.661 113.739a10.86 10.86 0 0 1-3.768.537 10.86 10.86 0 0 1 3.768-.537Z" fill="#CA7276"/><path fill-rule="evenodd" clip-rule="evenodd" d="M229.402 114.276c1.502.255 3.026.348 4.582.272a9.378 9.378 0 0 1-2.288.271c-.873 0-1.638-.185-2.288-.537l-.006-.006Z" fill="#607676"/><path fill-rule="evenodd" clip-rule="evenodd" d="M215.662 113.739a65.46 65.46 0 0 1 5.927.135c1.361.109 2.44.695 3.232 1.753a325.868 325.868 0 0 0 1.887 8.355l3.367 14.555a10.688 10.688 0 0 0 2.023 4.042c8.481.358 17.059.537 25.725.537 8.573-.092 17.151-.179 25.724-.271.494-.152.852-.418 1.079-.809a27.953 27.953 0 0 1 3.232-1.752c2.538-2.175 4.159-4.921 4.848-8.219a4.65 4.65 0 0 0 .944-1.345 17.78 17.78 0 0 0 .672-4.585v-.271c.412-.819.634-1.714.672-2.696.282-.234.505-.505.673-.809.211-.434.569-.613 1.079-.537v.272c.108 5.479.195 10.958.271 16.438-.087 4.367.092 8.68.537 12.939.358 7.899.537 15.803.537 23.718.043 9.391.314 18.734.808 28.027.048 6.559.184 13.118.406 19.671a16.05 16.05 0 0 0 .407 2.963c.32 7.269.499 14.55.537 21.83.038 10.742.309 21.478.808 32.204a9.1 9.1 0 0 1-.673 2.832c-.314-.402-.537-.358-.672.136.087.271.179.537.271.808a2.441 2.441 0 0 0-.537 1.752 22.264 22.264 0 0 1-1.345 2.962.488.488 0 0 0-.536.272 3.838 3.838 0 0 0-.808 1.616c-7.272-.043-14.549 0-21.821.136-5.249.287-10.454.51-15.622.673a189.643 189.643 0 0 0-16.702.537h-10.774a168.434 168.434 0 0 0-17.239.537h-15.085c-7.407.065-14.771.244-22.092.537-7.857.054-15.671.233-23.436.537h-10.238a114.818 114.818 0 0 1-9.294-14.013 13.579 13.579 0 0 1-.136-2.696 75.937 75.937 0 0 0-.406-6.467 7.444 7.444 0 0 0-.673-2.962c-.336-4.406-.694-8.805-1.079-13.205v-2.154a9291.634 9291.634 0 0 1-2.96-50.665 170.01 170.01 0 0 0-.537-15.093c-.044-20.301 0-40.607.135-60.908a7.095 7.095 0 0 1 .407-1.888c.179.45.358.9.537 1.345 1.762-.266 3.335.185 4.712 1.346.271-.228.586-.315.943-.272l2.696.537c.433.424.97.603 1.615.538.537.092 1.08.179 1.616.271a91.566 91.566 0 0 0 4.984 16.172c1.258 2.089 3.096 3.255 5.52 3.505 7.852.564 15.66.206 23.436-1.08a18.244 18.244 0 0 1 4.04-.271 60.312 60.312 0 0 0 4.848-.271c.748-.006 1.377-.19 1.887-.537a12.666 12.666 0 0 0 4.311-.537h.537a10.864 10.864 0 0 0 3.768-.538h.537a14.698 14.698 0 0 0 5.39-1.079c1.508-.223 2.18-1.123 2.023-2.696l.537-.538a188.323 188.323 0 0 1 1.751-9.7 24.468 24.468 0 0 0 1.079-6.467v-.537a69.404 69.404 0 0 0 1.616-5.929c.271-.358.537-.358.808 0 .298-.304.206-.532-.271-.673a32.62 32.62 0 0 1 2.695-1.215c.287-.25.645-.342 1.079-.271a10.873 10.873 0 0 0 3.769-.538l-.006.006Z" fill="#ED4950"/><path fill-rule="evenodd" clip-rule="evenodd" d="M210.815 114.548c-.901.352-1.795.759-2.695 1.215.477.146.569.369.271.673-.271-.358-.537-.358-.808 0a71.832 71.832 0 0 1-1.616 5.929c.26-2.181.661-4.334 1.214-6.466.987-.972 2.202-1.422 3.639-1.346l-.005-.005Z" fill="#D7595E"/><path fill-rule="evenodd" clip-rule="evenodd" d="M224.82 115.627a21.899 21.899 0 0 1 1.887 8.355 352.306 352.306 0 0 1-1.887-8.355Z" fill="#CD6062"/><path fill-rule="evenodd" clip-rule="evenodd" d="M287.853 117.781c1.22-.353 2.473-.353 3.769 0-.033.163-.125.255-.271.271a11.71 11.71 0 0 0-3.503-.271h.005Z" fill="#687C7E"/><path fill-rule="evenodd" clip-rule="evenodd" d="M287.853 117.78c1.22-.086 2.391 0 3.503.272a390.16 390.16 0 0 1-2.289 7.546 1.239 1.239 0 0 1-.672.673 309.859 309.859 0 0 1-56.303 1.215 168.387 168.387 0 0 0-1.615-8.355c19.125-.423 38.25-.873 57.376-1.345v-.006Z" fill="#030404"/><path fill-rule="evenodd" clip-rule="evenodd" d="M123.267 118.318a18.764 18.764 0 0 0 5.119 4.042c-1.41-.011-2.532-.548-3.368-1.617a.968.968 0 0 0-.536.537c-.201-.309-.423-.309-.673 0l-.271-.271c.239-.201.504-.337.808-.407-.716-.179-.716-.358 0-.537-.374-.445-.781-.581-1.215-.407a1219.05 1219.05 0 0 0-.943 38.811v7.276a625.99 625.99 0 0 1 .537-45.545c.005-.748.189-1.378.537-1.888l.005.006Z" fill="#2C1E20"/><path fill-rule="evenodd" clip-rule="evenodd" d="M128.386 122.365c.179 0 .271.092.271.271a48.59 48.59 0 0 0-.407 5.121c-.043 8.263-.092 16.531-.135 24.793-.06 11.187.119 22.33.536 33.419-.043 5.083.136 10.113.537 15.093.06 6.743.282 13.481.673 20.214.569 9.255 1.155 18.505 1.751 27.76a14.697 14.697 0 0 0 .537 4.85c.379 4.4.743 8.8 1.079 13.205.13 3.212.493 6.353 1.079 9.435-.043.9 0 1.801.136 2.696a114.664 114.664 0 0 0 9.294 14.013c-.049.266.043.445.271.537a277.381 277.381 0 0 0 12.391 15.901c.444.581.938 1.118 1.48 1.617 3.687-1.177 7.326-1.042 10.91.407 2.836 1.622 3.416 3.825 1.752 6.602-1.567 1.639-3.498 2.355-5.792 2.154.228 2.42.32 4.845.271 7.275a10.945 10.945 0 0 1-1.887 3.505c-4.126 2.371-7.13 1.291-9.023-3.234a17.493 17.493 0 0 1-4.446 5.257c-2.674 1.362-4.783.776-6.328-1.752a19.629 19.629 0 0 1-.808-8.355c.173-1.991.396-3.965.672-5.929.244-.337.293-.695.136-1.08-7.098-6.684-13.161-14.143-18.182-22.368a1.894 1.894 0 0 0-.808-1.079 44.932 44.932 0 0 0-2.961-5.122c-1.833-3.488-3.671-6.993-5.52-10.508a1.87 1.87 0 0 0-.672-.537 8.856 8.856 0 0 0-.808-1.888c.477-.217.612-.581.406-1.08-.179.358-.358.358-.537 0a130.814 130.814 0 0 1-7.542-17.789c-4.257-15.614-3.585-31.021 2.022-46.222a82.683 82.683 0 0 1 2.695-7.009 7.985 7.985 0 0 0 .271-1.753 82.86 82.86 0 0 1 6.198-12.668 61.65 61.65 0 0 0 3.905-6.738 10.698 10.698 0 0 1 1.751-.271 2.18 2.18 0 0 0-.672-1.345 2405.08 2405.08 0 0 0-.673-21.289c.109-12.939.423-25.878.944-38.811.434-.174.835-.038 1.215.407-.716.179-.716.358 0 .537a1.758 1.758 0 0 0-.808.407l.271.271c.249-.309.471-.309.672 0a.964.964 0 0 1 .537-.537c.835 1.069 1.957 1.606 3.367 1.617h-.021ZM303.48 168.717c.086 3.749 0 7.476-.272 11.187a18.653 18.653 0 0 0 2.961 3.906 218.485 218.485 0 0 1 7.543 12.397 26.293 26.293 0 0 0 3.639 6.738c.298.51.347 1.003.135 1.481 1.264.906 1.714 2.029 1.345 3.369.363.493.857.944 1.48 1.345.689 1.373 1.361 2.724 2.023 4.042 1.263 4.063 2.521 8.105 3.769 12.125v.537c1.659 12.95.444 25.618-3.639 37.998a27.019 27.019 0 0 0-.271-.537c-.401.759-.803 1.524-1.215 2.289.542.309.586.624.136.944-.087.895-.179 1.796-.271 2.696-.537 1.433-1.079 2.87-1.616 4.313a1.973 1.973 0 0 1-.944 1.216c.179.754-.043 1.427-.672 2.023-.12-.656-.347-.7-.673-.135.141.152.234.331.272.537a4.866 4.866 0 0 0-1.345 2.023 2.952 2.952 0 0 1-1.215-1.345c-.065.656.065 1.28.407 1.888a4.921 4.921 0 0 0-1.079 1.617c.499.727.943.678 1.344-.136l-.271-.271c.163-.527.391-1.02.673-1.481.276.227.499.499.672.808a100.86 100.86 0 0 1-4.582 9.434c-.309-.906-.759-.906-1.345 0 .412.391.857.613 1.345.673a3.054 3.054 0 0 0-.271 1.215 9.738 9.738 0 0 1-1.345 2.696c-.889 1.601-1.789 3.218-2.695 4.851a5.52 5.52 0 0 0-.271 1.345 359.318 359.318 0 0 0-5.119 12.125 55.692 55.692 0 0 0-2.153 4.986c1.985 2.626 3.064 5.588 3.232 8.892-.065 3.754-1.952 5.55-5.656 5.392-2.017-.895-3.448-2.376-4.31-4.448a19.577 19.577 0 0 1-3.769 2.154c-5.005 1.095-7.158-.879-6.464-5.93a22.23 22.23 0 0 1 2.695-5.93 12.628 12.628 0 0 1-4.311-1.079c-2.543-1.422-4.387-3.489-5.52-6.201a12.147 12.147 0 0 0-.271-3.771c.417-1.096.775-1.188 1.079-.271.174-.483.483-.846.944-1.08a1.251 1.251 0 0 0-.537-.407c.434-.065.705-.287.808-.672 3.579-.646 6.903.076 9.966 2.153a205.918 205.918 0 0 0 8.888-15.629c.179 0 .271-.087.271-.272.358-.721.721-1.437 1.079-2.153a21.99 21.99 0 0 0 1.345-2.963c1.735-2.441 2.364-5.175 1.887-8.219-.222-9.884-.58-19.72-1.079-29.512a563.323 563.323 0 0 0-.537-21.831c-.249-7.547-.423-15.093-.537-22.639-.303-9.386-.667-18.733-1.079-28.027 0-7.91-.179-15.819-.537-23.718 0-4.362-.179-8.675-.537-12.939-.07-5.48-.162-10.959-.271-16.439a63.648 63.648 0 0 0 5.119-1.888 361.44 361.44 0 0 1 .271 25.2c.396 3.635.483 7.275.272 10.916.558 4.155.921 8.284 1.079 12.396v.016Zm1.881 51.474c.201.467.559.738 1.079.808a25.349 25.349 0 0 0 2.424 7.818c.542 2.317.949 4.65 1.215 7.009.298 6.679.114 13.325-.537 19.943a14.28 14.28 0 0 1-1.079 3.234 195.793 195.793 0 0 0-.407 4.313c-.45.227-.764.586-.943 1.079a1617.37 1617.37 0 0 1-.537-32.073 2.708 2.708 0 0 0-.537-1.346c-.087-2.783-.179-5.571-.271-8.354a.617.617 0 0 0-.407-.272v-2.159Z" fill="#280203"/><path fill-rule="evenodd" clip-rule="evenodd" d="M194.113 122.365c2.424-.044 4.848 0 7.272.135a56.718 56.718 0 0 0-1.079 5.393 88901.424 88901.424 0 0 0-51.319 4.714c-.494-.092-.987-.179-1.481-.271a157.771 157.771 0 0 0-2.152-7.009c16.289-1.02 32.54-2.007 48.759-2.962Z" fill="#020304"/><path fill-rule="evenodd" clip-rule="evenodd" d="M205.966 122.902a24.468 24.468 0 0 1-1.079 6.467 40.1 40.1 0 0 1 1.079-6.467Z" fill="#CF6566"/><path fill-rule="evenodd" clip-rule="evenodd" d="M295.667 122.365a2.908 2.908 0 0 1-.672.809 6.571 6.571 0 0 1-.673 2.696c.12-.988.255-1.975.407-2.962.222-.358.531-.537.944-.537l-.006-.006Z" fill="#C76364"/><path fill-rule="evenodd" clip-rule="evenodd" d="M138.082 126.135c.645-.065 1.182.114 1.616.537-.645.065-1.182-.114-1.616-.537Z" fill="#D58F92"/><path fill-rule="evenodd" clip-rule="evenodd" d="M294.321 126.136a17.76 17.76 0 0 1-.672 4.584 4.54 4.54 0 0 1-.944 1.345 198.766 198.766 0 0 0 1.616-5.929Z" fill="#CE5F62"/><path fill-rule="evenodd" clip-rule="evenodd" d="M285.701 130.985h1.344a12.826 12.826 0 0 1-2.96 6.066 5.496 5.496 0 0 1-2.153.808c-15.715.136-31.429.179-47.144.136a72.086 72.086 0 0 1-1.345-5.93 296.533 296.533 0 0 0 44.178-.136 61.313 61.313 0 0 0 8.08-.944Z" fill="#020303"/><path opacity=".24" fill-rule="evenodd" clip-rule="evenodd" d="M120.573 116.164c.417.087.596.358.537.808.716.445 1.431.896 2.153 1.346-.353.51-.532 1.139-.537 1.888a625.99 625.99 0 0 0-.537 45.544c.043 4.85 0 9.706-.136 14.556a81.258 81.258 0 0 0-4.175 7.817 82.675 82.675 0 0 0-6.198 12.668c-6.008 13.075-8.66 26.816-7.944 41.236a73.092 73.092 0 0 0 5.39 21.56 153.555 153.555 0 0 0 5.254 11.051c.342.597.613 1.226.808 1.888a47.682 47.682 0 0 0 6.198 11.051 44.492 44.492 0 0 1 2.961 5.121 3.217 3.217 0 0 0-1.079-.808 20.136 20.136 0 0 1-2.961-4.584 4.055 4.055 0 0 1-.943-.809c-.684-1.909-1.627-3.618-2.831-5.121a41.093 41.093 0 0 0-2.83-5.658 121.838 121.838 0 0 1-1.752-4.313 3.04 3.04 0 0 0-.672-.537 30.726 30.726 0 0 1-1.752-5.122h-.808c-.146-.89-.238-1.79-.271-2.696h-.808a883.865 883.865 0 0 0-1.751-6.201l-.537-.537a26.451 26.451 0 0 0-1.616-6.738 68.1 68.1 0 0 1-1.079-17.789c.369-3.065.726-6.12 1.079-9.163a109.792 109.792 0 0 0 2.424-11.051l.808-.537a31.79 31.79 0 0 1 1.887-6.201 2.78 2.78 0 0 0 .943-1.346c.862-2.262 1.719-4.508 2.56-6.738a60.02 60.02 0 0 1 3.232-6.201c-.017-1.063.433-1.871 1.344-2.425a268.9 268.9 0 0 0 4.311-8.354 4950.34 4950.34 0 0 1-.406-28.434c.292-10.449.564-20.914.808-31.395.016-1.383-.342-2.642-1.079-3.771l.005-.005Z" fill="#E4F5F5"/><path fill-rule="evenodd" clip-rule="evenodd" d="M198.424 132.603h1.079a60.139 60.139 0 0 0-.808 5.658 516.766 516.766 0 0 1-44.178 4.042 6.076 6.076 0 0 1-3.769-.944 11.38 11.38 0 0 1-1.887-3.906 6887.722 6887.722 0 0 1 49.568-4.85h-.005Z" fill="#030405"/><path fill-rule="evenodd" clip-rule="evenodd" d="M222.397 136.378c.743-.157 1.193.114 1.345.809a4.219 4.219 0 0 0 0 2.962c-.857 1.085-1.443.906-1.752-.537-.249-1.14-.114-2.219.407-3.234Z" fill="#A00408"/><path fill-rule="evenodd" clip-rule="evenodd" d="M283.005 142.308a.9.9 0 0 1-.536.407c-8.308.222-16.566.179-24.781-.136 8.448.081 16.885-.006 25.323-.271h-.006Z" fill="#C77A7E"/><path fill-rule="evenodd" clip-rule="evenodd" d="M200.576 142.308a14.661 14.661 0 0 1-5.39 1.079 38.371 38.371 0 0 1 5.39-1.079Z" fill="#D27A7D"/><path fill-rule="evenodd" clip-rule="evenodd" d="M284.62 142.036c-.228.391-.586.657-1.079.809-8.573.092-17.152.179-25.725.271a610.04 610.04 0 0 1-25.724-.537h25.589a380.95 380.95 0 0 0 24.781.135.886.886 0 0 0 .537-.407c.553 0 1.095-.092 1.616-.271h.005Z" fill="#D24C52"/><path fill-rule="evenodd" clip-rule="evenodd" d="M194.65 143.382a10.866 10.866 0 0 1-3.769.537 10.863 10.863 0 0 1 3.769-.537Z" fill="#C36467"/><path fill-rule="evenodd" clip-rule="evenodd" d="M190.338 143.925a12.525 12.525 0 0 1-4.311.537 17.544 17.544 0 0 1 4.311-.537Z" fill="#CB777C"/><path fill-rule="evenodd" clip-rule="evenodd" d="M186.028 144.462c-.51.353-1.139.532-1.887.537a60.571 60.571 0 0 1-4.848.271 38.75 38.75 0 0 1 6.735-.808Z" fill="#CD5D60"/><path fill-rule="evenodd" clip-rule="evenodd" d="M297.011 138.532c.358 4.264.537 8.577.537 12.939a103.618 103.618 0 0 1-.537-12.939Z" fill="#A73C3F"/><path fill-rule="evenodd" clip-rule="evenodd" d="M128.652 122.631c2.288.938 4.533 1.931 6.734 2.962a1.181 1.181 0 0 0-.943.271c-1.383-1.166-2.955-1.616-4.712-1.345-.179-.45-.358-.901-.537-1.346a7.518 7.518 0 0 0-.407 1.888 6908.521 6908.521 0 0 0-.135 60.908 776.63 776.63 0 0 1-.537-33.418c.043-8.263.092-16.531.135-24.793a47.29 47.29 0 0 1 .407-5.122l-.005-.005Z" fill="#D54E53"/><path fill-rule="evenodd" clip-rule="evenodd" d="M175.253 145.541a99.434 99.434 0 0 1-23.437 1.08c3.682.043 7.364 0 11.046-.136a225.19 225.19 0 0 1 12.391-.944Z" fill="#D36569"/><path opacity=".98" fill-rule="evenodd" clip-rule="evenodd" d="M302.401 119.126c.277 15.093.635 30.186 1.079 45.278v4.313a128.535 128.535 0 0 0-1.079-12.396c.217-3.64.125-7.281-.271-10.916.201-8.398.114-16.796-.271-25.199a65.682 65.682 0 0 1-5.119 1.888v-.272a80.743 80.743 0 0 0 5.656-2.696h.005Z" fill="#200D0E"/><path fill-rule="evenodd" clip-rule="evenodd" d="M293.244 152.816c.357-.043.672.044.943.272a16.195 16.195 0 0 1-.271 4.85c-.927.499-1.421.228-1.48-.809.173-1.253.309-2.511.406-3.77.195-.146.331-.326.407-.537l-.005-.006Z" fill="#9F0408"/><path fill-rule="evenodd" clip-rule="evenodd" d="M140.506 154.167c.445-.06.846.033 1.215.271.45 2.328.715 4.66.808 7.01-1.226.488-1.763.038-1.616-1.346-.19-1.665-.418-3.331-.673-4.986a2.92 2.92 0 0 1 .271-.944l-.005-.005Z" fill="#9E0407"/><path fill-rule="evenodd" clip-rule="evenodd" d="M208.39 174.11a129.61 129.61 0 0 1-4.447-5.392c-1.42-1.937-2.049-4.091-1.887-6.467a8.394 8.394 0 0 1 2.289-3.233 37.245 37.245 0 0 1 2.96-.944 95.894 95.894 0 0 1 20.205-1.346c5.368.337 7.835 3.163 7.407 8.491-1.627 5.045-4.365 9.401-8.215 13.069a13.74 13.74 0 0 1-7.006 3.098c-2.31-.255-4.376-1.113-6.198-2.561a130.943 130.943 0 0 1-5.119-4.715h.011Z" fill="#280102"/><path fill-rule="evenodd" clip-rule="evenodd" d="M260.111 156.05c.803-.071 1.296.287 1.481 1.079.406 1.617.808 3.234 1.214 4.85-.303.744-.797.923-1.48.537a20.575 20.575 0 0 1-1.215-6.466Z" fill="#9F0508"/><path fill-rule="evenodd" clip-rule="evenodd" d="M134.579 165.755a1.73 1.73 0 0 1 1.214.271 94.778 94.778 0 0 1-.271 7.547 2.442 2.442 0 0 1-1.48.271 34.63 34.63 0 0 1 .537-8.084v-.005Z" fill="#A00509"/><path fill-rule="evenodd" clip-rule="evenodd" d="M204.351 159.018a8.395 8.395 0 0 0-2.288 3.233c-.163 2.376.466 4.53 1.887 6.467a128.895 128.895 0 0 0 4.446 5.392.64.64 0 0 1-.536-.135c-.629-1.123-1.524-1.888-2.695-2.29.097-.678-.125-1.22-.673-1.616-.157.705-.515.884-1.079.537.043-.624.043-1.254 0-1.888a1.955 1.955 0 0 1-.537-.809c-.092.179-.179.358-.271.537a8.012 8.012 0 0 0-.808-3.233 1.165 1.165 0 0 1-.407.537 1.526 1.526 0 0 1-.536-1.215 16.11 16.11 0 0 1 2.152-4.715c-.092-.179-.179-.358-.271-.537a2.657 2.657 0 0 1 1.616-.271v.006Z" fill="#DE4C53"/><path fill-rule="evenodd" clip-rule="evenodd" d="M281.123 169.797c.439-.06.846.032 1.214.271a56.977 56.977 0 0 1 0 7.818c-.45.358-.894.358-1.344 0a41.473 41.473 0 0 1 .135-8.084l-.005-.005Z" fill="#9E0206"/><path fill-rule="evenodd" clip-rule="evenodd" d="M151.816 173.03c1.182-.119 1.632.418 1.345 1.617-.184 2.419-.32 4.85-.407 7.275-.249.683-.743.955-1.48.808a56.61 56.61 0 0 1 .537-9.7h.005Z" fill="#9E0408"/><path fill-rule="evenodd" clip-rule="evenodd" d="M122.188 158.474c.255 7.053.482 14.149.672 21.288a2.2 2.2 0 0 1 .673 1.346c-.678.054-1.258.141-1.752.271a61.481 61.481 0 0 1-3.904 6.738 81.975 81.975 0 0 1 4.175-7.817c.136-4.851.179-9.701.136-14.556v-7.275.005Z" fill="#1E0C0D"/><path fill-rule="evenodd" clip-rule="evenodd" d="M164.478 179.768c.797.233 1.29.77 1.48 1.617.439 1.031.483 2.061.136 3.098-.434.195-.841.151-1.215-.136a8.517 8.517 0 0 0-.943-3.64c.13-.353.309-.668.536-.944l.006.005Z" fill="#9F0508"/><path opacity=".87" fill-rule="evenodd" clip-rule="evenodd" d="M303.481 164.404c.206 5.349.428 10.737.672 16.173a38.014 38.014 0 0 1 2.023 3.233 18.619 18.619 0 0 1-2.961-3.906c.266-3.705.358-7.433.271-11.187v-4.313h-.005Z" fill="#292021"/><path fill-rule="evenodd" clip-rule="evenodd" d="M190.074 183.273a2.435 2.435 0 0 1 1.48.271c.7 1.064.922 2.187.673 3.369-.434.196-.841.152-1.215-.135a15.241 15.241 0 0 1-.944-3.505h.006Z" fill="#A00408"/><path opacity=".04" fill-rule="evenodd" clip-rule="evenodd" d="M304.287 117.78h.808a10.339 10.339 0 0 0-1.616 1.753 81.63 81.63 0 0 0-.271 6.201c.185 10.107.32 20.214.407 30.321l.537.537c.065 7.931.336 15.836.808 23.719a313.529 313.529 0 0 0 6.735 10.508c.303.499.439 1.036.406 1.617.32-.06.586.032.808.271a254.214 254.214 0 0 1 10.911 20.751 35.614 35.614 0 0 1 1.887 7.275c.244.223.423.494.536.809a57.53 57.53 0 0 0 1.616 8.354c.179 5.301.179 10.601 0 15.901a116.273 116.273 0 0 1-1.079 4.042 81.342 81.342 0 0 1-.537 5.393 173.72 173.72 0 0 1-11.989 32.61 1.926 1.926 0 0 0-.271 1.346 6.027 6.027 0 0 0-1.616.808 157.296 157.296 0 0 0 13.334-36.652 90.66 90.66 0 0 0 1.079-24.793 8.45 8.45 0 0 0-.672-2.696v-.537a47.728 47.728 0 0 0-3.769-12.126 83.681 83.681 0 0 0-8.622-16.98 216.942 216.942 0 0 0-7.542-12.397 35.429 35.429 0 0 0-2.023-3.233c-.244-5.431-.466-10.823-.673-16.173-.439-15.092-.802-30.18-1.079-45.278a7.242 7.242 0 0 1 1.887-1.345v-.006Z" fill="#E2F3F3"/><path fill-rule="evenodd" clip-rule="evenodd" d="M122.725 196.749v2.154c-.265-3.549-.493-7.14-.672-10.78-.201.488-.515.852-.944 1.079.337-.83.738-1.638 1.215-2.425.179 3.321.315 6.646.407 9.972h-.006Z" fill="#DB585D"/><path fill-rule="evenodd" clip-rule="evenodd" d="M143.466 191.894c.927.021 1.291.515 1.079 1.481a459.601 459.601 0 0 1-.672 5.522c-1.134.847-1.627.532-1.481-.944.212-1.844.44-3.683.673-5.522a1.19 1.19 0 0 0 .406-.537h-.005Z" fill="#9F0508"/><path fill-rule="evenodd" clip-rule="evenodd" d="M128.651 185.964c.401 4.98.58 10.009.537 15.093a169.28 169.28 0 0 1-.537-15.093Z" fill="#DD575C"/><path fill-rule="evenodd" clip-rule="evenodd" d="M271.693 194.861c.509-.054.911.125 1.214.537.299 2.024.613 4.047.944 6.065.038 1.368-.45 1.682-1.48.944a29.114 29.114 0 0 1-.673-7.546h-.005Z" fill="#9F0408"/><path fill-rule="evenodd" clip-rule="evenodd" d="M226.437 212.645c-2.126-3.364-5.178-4.666-9.159-3.906a26.217 26.217 0 0 0-6.463 2.962 9.401 9.401 0 0 0-1.752 2.024c-.076-.25-.211-.429-.407-.538-.433-6.179 1.898-10.986 7.006-14.42 5.065-2.056 8.704-.569 10.911 4.449.423 2.951.515 5.913.271 8.892-.076.249-.212.428-.407.537Z" fill="#280202"/><path fill-rule="evenodd" clip-rule="evenodd" d="M298.09 175.184c.412 9.298.775 18.64 1.079 28.026h-.271a577.717 577.717 0 0 1-.808-28.026Z" fill="#C34B4F"/><path fill-rule="evenodd" clip-rule="evenodd" d="M286.237 202.407a2.435 2.435 0 0 1 1.48.271 59.68 59.68 0 0 1 .136 5.659c-.613.097-1.106-.082-1.481-.537a54.512 54.512 0 0 1-.135-5.393Z" fill="#A00509"/><path fill-rule="evenodd" clip-rule="evenodd" d="M305.362 189.203a1.94 1.94 0 0 1-.672-.537c.178 7.54.314 15.087.406 22.639a420.487 420.487 0 0 1-.672-23.719c.39.51.705 1.047.943 1.617h-.005Z" fill="#D45358"/><path fill-rule="evenodd" clip-rule="evenodd" d="M170.948 203.753c.445-.06.846.033 1.215.271.136 2.783.179 5.566.136 8.355a2.411 2.411 0 0 1-1.345-.271 33.09 33.09 0 0 1 0-8.355h-.006Z" fill="#A0070A"/><path opacity=".94" fill-rule="evenodd" clip-rule="evenodd" d="M313.713 196.207a84.176 84.176 0 0 1 8.622 16.981c-.662-1.319-1.334-2.669-2.023-4.042-.623-.407-1.117-.852-1.48-1.345.369-1.34-.082-2.463-1.345-3.369.211-.478.163-.972-.136-1.482a26.473 26.473 0 0 1-3.638-6.738v-.005Z" fill="#1D0E0F"/><path fill-rule="evenodd" clip-rule="evenodd" d="M226.436 212.644c.505 2.572-.569 4.01-3.232 4.313a82.835 82.835 0 0 1-12.932 0 6.494 6.494 0 0 0-1.345-1.888 3.554 3.554 0 0 1-.271-1.887c.195.113.33.292.406.537a9.453 9.453 0 0 1 1.752-2.024 26.3 26.3 0 0 1 6.463-2.962c3.981-.76 7.034.548 9.159 3.906v.005Z" fill="#C4676A"/><path fill-rule="evenodd" clip-rule="evenodd" d="M298.898 203.216h.271c.114 7.546.293 15.093.537 22.639a16.171 16.171 0 0 1-.407-2.962 741.862 741.862 0 0 1-.406-19.672l.005-.005Z" fill="#D05154"/><path fill-rule="evenodd" clip-rule="evenodd" d="M122.725 196.749c.173 5.219.444 10.476.808 15.765-.044.852-.093 1.709-.136 2.561-.163.423-.39.781-.672 1.08.216-1.243.309-2.501.271-3.771v-1.079a235.085 235.085 0 0 1-.271-12.397v-2.159Z" fill="#C1474B"/><path fill-rule="evenodd" clip-rule="evenodd" d="M122.996 211.299v1.08a182.356 182.356 0 0 1-3.503 5.257c-.65.265-1.101.086-1.345-.537a27.96 27.96 0 0 1 4.04-6.066c.25.168.515.261.808.271v-.005Z" fill="#9E0609"/><path opacity=".9" fill-rule="evenodd" clip-rule="evenodd" d="M322.334 213.188a47.624 47.624 0 0 1 3.769 12.125c-1.253-4.026-2.506-8.067-3.769-12.125Z" fill="#1E1515"/><path fill-rule="evenodd" clip-rule="evenodd" d="M252.298 212.916c.358-.043.672.043.943.271a15.312 15.312 0 0 0 1.752 7.818c-.445.966-1.031 1.052-1.752.271-1.431-2.696-1.746-5.479-.943-8.354v-.006Z" fill="#9F0407"/><path fill-rule="evenodd" clip-rule="evenodd" d="M143.201 216.957c.743-.157 1.193.114 1.345.809a70.215 70.215 0 0 0-.672 7.009c-.375.548-.825.635-1.345.271-.054-2.425.038-4.85.271-7.275.135-.276.271-.548.407-.808l-.006-.006Z" fill="#9E0408"/><path opacity=".13" fill-rule="evenodd" clip-rule="evenodd" d="M305.634 219.117c.341.597.612 1.226.808 1.888-.521-.071-.879-.342-1.079-.808a12.445 12.445 0 0 1-.136-1.888c.136.276.271.548.407.808Z" fill="#EBEEF0"/><path fill-rule="evenodd" clip-rule="evenodd" d="M268.19 222.888c.651-.098 1.052.173 1.215.808.331 1.785.418 3.586.271 5.393-.52.368-.97.276-1.345-.272a21.53 21.53 0 0 1-.135-5.929h-.006ZM235.059 222.887c.509-.054.911.125 1.214.538.179 1.887.179 3.77 0 5.658-.379.548-.824.635-1.345.271a26.878 26.878 0 0 1 .136-6.467h-.005Z" fill="#9F0508"/><path fill-rule="evenodd" clip-rule="evenodd" d="M189.801 223.967c.445-.055.846.032 1.215.271.048 1.514.271 2.995.672 4.449-.309.992-.803 1.128-1.48.406a8.216 8.216 0 0 1-.407-5.121v-.005Z" fill="#9F0308"/><path fill-rule="evenodd" clip-rule="evenodd" d="M305.363 189.203a132.017 132.017 0 0 1 15.758 29.914 55.613 55.613 0 0 1 2.022 9.163c.065 1.351.158 2.696.271 4.042a261.81 261.81 0 0 1-.271 14.013 75.644 75.644 0 0 1-1.751 10.78 198.194 198.194 0 0 1-8.888 24.527 768.328 768.328 0 0 0-15.893 35.035c-.445 1.525-.087 2.784 1.079 3.771a18.718 18.718 0 0 1 1.887 3.77 13.308 13.308 0 0 1 0 3.771c-.976.765-1.784.58-2.424-.537a14.115 14.115 0 0 1-1.079-5.122c-.624-.699-1.388-.922-2.288-.672-1.41 2.132-3.297 3.662-5.656 4.584-1.773.429-2.354-.244-1.752-2.024a31.015 31.015 0 0 1 4.04-7.546c.179-.45.179-.895 0-1.345a5.011 5.011 0 0 1-.943-1.08c-.347-.38-.792-.553-1.345-.537a12.716 12.716 0 0 1-5.119 0c-2.809-1.129-4.289-3.196-4.447-6.201.467-.168.96-.26 1.481-.271a14.874 14.874 0 0 1 7.271 3.097c1.6.386 2.723-.2 3.368-1.752a273.738 273.738 0 0 0 15.893-29.914 119.225 119.225 0 0 0 7.137-24.527c.325-1.487.639-3.017.943-4.584a87.254 87.254 0 0 0-.136-11.86c-.916-9.597-4.061-18.397-9.429-26.409-.087-7.552-.223-15.099-.407-22.64.19.239.417.418.672.537l.006.017Z" fill="#EB4950"/><path fill-rule="evenodd" clip-rule="evenodd" d="M313.447 216.958c.906-.19 1.399.168 1.481 1.079.672 2.203 1.345 4.4 2.022 6.603-.227.851-.721 1.079-1.48.672a332.413 332.413 0 0 1-2.288-7.546 2.61 2.61 0 0 1 .271-.808h-.006Z" fill="#9F0408"/><path fill-rule="evenodd" clip-rule="evenodd" d="M312.638 205.641c.483-.076.927.011 1.345.271a21.126 21.126 0 0 1 2.153 6.201c-.597.087-1.096-.092-1.481-.537a21.085 21.085 0 0 1-2.022-5.93l.005-.005Z" fill="#9E0408"/><path fill-rule="evenodd" clip-rule="evenodd" d="M305.632 204.833c.597-.087 1.096.092 1.481.537a46.612 46.612 0 0 1 3.096 4.986c-.483.846-1.068.895-1.751.135a46.782 46.782 0 0 1-3.097-4.986 2.99 2.99 0 0 1 .271-.672Z" fill="#9F0408"/><path fill-rule="evenodd" clip-rule="evenodd" d="M152.631 226.93c.445-.055.846.032 1.215.271a16.188 16.188 0 0 1 1.214 4.85c-.613.098-1.106-.081-1.48-.537a95.538 95.538 0 0 1-1.215-3.771c.049-.293.141-.558.271-.808l-.005-.005Z" fill="#9E0407"/><path fill-rule="evenodd" clip-rule="evenodd" d="M123.266 225.855c-1.697 9.955-1.334 19.84 1.079 29.643a5.151 5.151 0 0 1-.943-1.888 68.015 68.015 0 0 1-1.345-22.102 21.137 21.137 0 0 1 1.214-5.658l-.005.005Z" fill="#1C1011"/><path opacity=".94" fill-rule="evenodd" clip-rule="evenodd" d="M305.362 225.584c.228 8.805.499 17.61.808 26.41h-.271a367.953 367.953 0 0 1-.537-26.41Z" fill="#1F1617"/><path opacity=".82" fill-rule="evenodd" clip-rule="evenodd" d="M305.633 219.117c.645.195 1.046.64 1.214 1.346 4.789 11.539 5.911 23.442 3.368 35.708.097.662.276 1.286.537 1.888-.83.266-1.237.846-1.215 1.752-.173.83-.038 1.59.407 2.29-.087.222-.179.45-.271.672-.109-.206-.158-.472-.136-.808a64.839 64.839 0 0 1-1.48 1.888v-.537c2.527-8.409 3.47-17.035 2.83-25.873a48.52 48.52 0 0 0-4.446-16.438 8.827 8.827 0 0 0-.808-1.888Z" fill="#1E1111"/><path fill-rule="evenodd" clip-rule="evenodd" d="M323.142 228.28c.374 1.286.553 2.631.537 4.042h-.271a123.486 123.486 0 0 1-.271-4.042h.005Z" fill="#9B3339"/><path fill-rule="evenodd" clip-rule="evenodd" d="M320.719 232.322a2.386 2.386 0 0 1 1.48.271 32.81 32.81 0 0 1 0 5.93 2.435 2.435 0 0 1-1.48.271V232.322Z" fill="#A1070A"/><path opacity=".99" fill-rule="evenodd" clip-rule="evenodd" d="M124.341 255.498c-2.413-9.809-2.771-19.688-1.079-29.643.206-.602.428-1.232.672-1.888.83 12.95 1.73 25.883 2.695 38.811a73.748 73.748 0 0 1-2.288-7.275v-.005Z" fill="#D8EFF1"/><path fill-rule="evenodd" clip-rule="evenodd" d="M323.414 232.322h.271a51.34 51.34 0 0 1-.537 14.013c.217-4.665.304-9.336.272-14.013h-.006Z" fill="#C84A4F"/><path fill-rule="evenodd" clip-rule="evenodd" d="M289.202 236.092a2.4 2.4 0 0 1 1.48.271 25.305 25.305 0 0 0 1.215 7.547c-.239.813-.732.993-1.48.537a18.83 18.83 0 0 1-1.215-8.355Z" fill="#A00508"/><path fill-rule="evenodd" clip-rule="evenodd" d="M129.193 201.056a9822.798 9822.798 0 0 0 2.961 50.666l-.537-2.697a9438.34 9438.34 0 0 1-1.751-27.76 411.818 411.818 0 0 1-.673-20.214v.005Z" fill="#D65156"/><path fill-rule="evenodd" clip-rule="evenodd" d="M316.408 236.901a2.396 2.396 0 0 1 1.481.271 27.28 27.28 0 0 1 .271 5.393c-.45.358-.895.358-1.345 0a52.06 52.06 0 0 1-.407-5.659v-.005Z" fill="#9E0408"/><path fill-rule="evenodd" clip-rule="evenodd" d="M145.353 241.485c.51-.054.911.125 1.215.537.347 1.969.433 3.944.271 5.93-.521.369-.971.277-1.345-.271a22.443 22.443 0 0 1-.136-6.201l-.005.005Z" fill="#A00509"/><path fill-rule="evenodd" clip-rule="evenodd" d="M314.527 237.709c.314 3.906.358 7.861.135 11.859a198.135 198.135 0 0 1-.943 4.585 101.56 101.56 0 0 0 .808-16.439v-.005Z" fill="#C14D51"/><path opacity=".14" fill-rule="evenodd" clip-rule="evenodd" d="M305.361 222.351a.612.612 0 0 1 .407.271c.087 2.783.179 5.571.271 8.355.304.39.477.84.537 1.345.076 10.693.255 21.381.537 32.073.179-.488.493-.851.943-1.079v.537a69.523 69.523 0 0 0-1.079 4.042l-.537-1.346c.006-4.855-.081-9.705-.271-14.555-.309-8.8-.58-17.605-.808-26.41v-3.233Z" fill="#E4F4F5"/><path fill-rule="evenodd" clip-rule="evenodd" d="M199.769 243.91c.51-.054.911.125 1.215.537a39.008 39.008 0 0 1 0 6.467c-.353.58-.803.672-1.345.271a33.603 33.603 0 0 1 .136-7.275h-.006Z" fill="#9F0508"/><path fill-rule="evenodd" clip-rule="evenodd" d="M167.71 247.414c.911.098 1.404.64 1.48 1.617a18.59 18.59 0 0 1 .537 4.85c-.358.358-.716.358-1.079 0a16.152 16.152 0 0 1-.944-6.467h.006Z" fill="#9E0407"/><path opacity=".86" fill-rule="evenodd" clip-rule="evenodd" d="M111.684 200.791a7.627 7.627 0 0 1-.271 1.752 82.057 82.057 0 0 0-2.695 7.01c-5.601 15.195-6.274 30.603-2.022 46.222a130.814 130.814 0 0 0 7.542 17.789c.179.358.358.358.537 0 .206.499.076.857-.406 1.08a157.543 157.543 0 0 1-5.255-11.051 73.161 73.161 0 0 1-5.39-21.56c-.71-14.415 1.936-28.162 7.944-41.237l.016-.005Z" fill="#1B0E0F"/><path fill-rule="evenodd" clip-rule="evenodd" d="M236.939 246.607a1.18 1.18 0 0 1 .944.271c.602 2.3.873 4.633.808 7.009-.521.369-.971.277-1.345-.271a21.219 21.219 0 0 1-.407-7.009Z" fill="#9E0407"/><path fill-rule="evenodd" clip-rule="evenodd" d="M267.111 250.11c.358-.043.672.044.944.272a16.69 16.69 0 0 1 .536 5.121c-.52.369-.97.277-1.344-.271a60.74 60.74 0 0 0-.673-4.178c.13-.352.309-.667.537-.944Z" fill="#9F0307"/><path fill-rule="evenodd" clip-rule="evenodd" d="m131.617 249.031.537 2.697v2.153a14.712 14.712 0 0 1-.537-4.85Z" fill="#5F1015"/><path fill-rule="evenodd" clip-rule="evenodd" d="M135.658 254.152c.445-.054.846.033 1.215.272a13.375 13.375 0 0 1 0 3.77c-.353.581-.803.673-1.345.271a12.123 12.123 0 0 1 .135-4.313h-.005Z" fill="#A00408"/><path fill-rule="evenodd" clip-rule="evenodd" d="M218.358 252.802c.444-.055.845.032 1.214.271.293 2.327.429 4.66.407 7.009a2.396 2.396 0 0 1-1.481-.271 102.713 102.713 0 0 0-.406-5.794c.027-.429.119-.836.271-1.215h-.005Z" fill="#9F0408"/><path fill-rule="evenodd" clip-rule="evenodd" d="M158.551 253.344c.444-.055.846.032 1.214.271a35.87 35.87 0 0 1 0 6.201c-.52.369-.97.277-1.344-.271a24.718 24.718 0 0 1 .135-6.201h-.005Z" fill="#9F0307"/><path opacity=".73" fill-rule="evenodd" clip-rule="evenodd" d="M305.904 251.993h.271c.184 4.85.277 9.7.271 14.556v1.888a174.13 174.13 0 0 1-.537-16.438l-.005-.006Z" fill="#1C1213"/><path fill-rule="evenodd" clip-rule="evenodd" d="M118.957 245.526a86.943 86.943 0 0 0 6.198 22.911.764.764 0 0 1-.672-.272 130.267 130.267 0 0 0-3.639-9.7c-.342.25-.699.293-1.079.136.77-.732.954-1.584.537-2.561-.391.711-.57.624-.537-.271.114-.624.201-1.253.271-1.888a48.57 48.57 0 0 1-1.079-8.355Z" fill="#D1494F"/><path opacity=".12" fill-rule="evenodd" clip-rule="evenodd" d="M306.441 221c2.441 5.186 3.921 10.665 4.447 16.438.64 8.837-.304 17.463-2.831 25.872.114-1.437.25-2.875.407-4.313a14.507 14.507 0 0 0 1.079-3.233c.656-6.619.835-13.265.537-19.943a59.373 59.373 0 0 0-1.215-7.009 25.082 25.082 0 0 1-2.424-7.818V221Z" fill="#EAF4F5"/><path fill-rule="evenodd" clip-rule="evenodd" d="M316.68 257.923c.661-.13 1.111.092 1.344.672-.672 2.203-1.344 4.4-2.022 6.603-.835.477-1.329.255-1.481-.673a97.112 97.112 0 0 1 2.153-6.602h.006Z" fill="#9F0408"/><path fill-rule="evenodd" clip-rule="evenodd" d="M181.451 262.507c.738-.146 1.231.125 1.481.809a87.91 87.91 0 0 1 .406 6.201c-.612.097-1.106-.082-1.48-.537a90.268 90.268 0 0 0-.672-5.795c.065-.244.157-.466.271-.672l-.006-.006Z" fill="#9E0408"/><path opacity=".98" fill-rule="evenodd" clip-rule="evenodd" d="M326.109 225.855c.368.83.591 1.725.672 2.696a90.452 90.452 0 0 1-1.079 24.793 157.214 157.214 0 0 1-13.334 36.652v.271a7.257 7.257 0 0 1-.808 1.346c0-.418.092-.825.271-1.215-.488-.06-.933-.288-1.345-.673.586-.906 1.036-.906 1.345 0a101.758 101.758 0 0 0 4.582-9.434 2.91 2.91 0 0 0-.672-.809c-.288.461-.51.955-.673 1.481l.272.271c-.402.814-.846.858-1.345.136a4.942 4.942 0 0 1 1.079-1.617 3.156 3.156 0 0 1-.407-1.888c.26.576.667 1.026 1.215 1.346a4.87 4.87 0 0 1 1.345-2.024 1.041 1.041 0 0 0-.272-.537c.331-.564.554-.521.673.136.629-.597.851-1.27.672-2.024.472-.271.792-.678.944-1.215.537-1.443 1.079-2.881 1.616-4.313.086-.895.179-1.796.271-2.696.45-.32.407-.635-.136-.944.412-.765.814-1.53 1.215-2.29.087.179.179.358.271.537 4.083-12.38 5.298-25.047 3.639-37.997l-.011.011Z" fill="#1E090A"/><path fill-rule="evenodd" clip-rule="evenodd" d="M122.724 198.903c-.016 4.134.07 8.268.271 12.397a1.517 1.517 0 0 1-.808-.271 27.75 27.75 0 0 0-4.04 6.065c.244.624.694.803 1.345.537a180.981 180.981 0 0 0 3.503-5.257 18.286 18.286 0 0 1-.271 3.771c-3.612 9.466-4.87 19.259-3.769 29.377a48.06 48.06 0 0 0 1.079 8.354 24.58 24.58 0 0 1-.271 1.888c-.032.89.147.982.537.272.412.976.233 1.828-.537 2.56.374.158.738.114 1.079-.135a132.35 132.35 0 0 1 3.639 9.7.776.776 0 0 0 .672.271 152.206 152.206 0 0 0 11.181 20.48 306.037 306.037 0 0 0 16.165 21.288c.271.413.407.857.407 1.346.976.434 1.692 1.155 2.153 2.154v.808c.889.249 1.784.515 2.695.808 3.015-.944 6.067-1.031 9.158-.271v1.345a40.756 40.756 0 0 0-4.04.538 6.955 6.955 0 0 0-2.022 1.345c.287 2.099.602 4.21.943 6.331.038 1.601-.412 3.038-1.344 4.313-.933.304-1.692.076-2.289-.673a14.418 14.418 0 0 1-1.887-6.738c-.808-1.188-1.8-1.367-2.96-.537a23.414 23.414 0 0 1-4.984 9.028.668.668 0 0 1-.537.135c-.878.017-1.285-.428-1.214-1.345a73.687 73.687 0 0 1 0-8.892c.591-2.002.818-4.069.672-6.201h.808c.651.071 1.101-.201 1.345-.808a23.815 23.815 0 0 0-3.503-4.85c-.537 0-.808.271-.808.808a24.519 24.519 0 0 0 2.153 3.77c-.179.245-.358.51-.537.809a2.393 2.393 0 0 0-1.345-.673 18.496 18.496 0 0 0-3.503-3.098 84.352 84.352 0 0 1-10.102-12.125 235.378 235.378 0 0 1-21.278-39.885c-4.132-12.202-4.761-24.598-1.887-37.19a121.321 121.321 0 0 1 12.526-31.265c.428-.228.743-.586.943-1.08.185 3.641.407 7.232.673 10.78l-.011.016Z" fill="#EC4950"/><path fill-rule="evenodd" clip-rule="evenodd" d="M118.42 260.89c.596-.086 1.09.093 1.48.537a13.684 13.684 0 0 1 1.215 4.314 2.393 2.393 0 0 1-1.48-.272 70.6 70.6 0 0 0-1.481-3.906c.065-.244.158-.466.271-.673h-.005ZM111.413 244.99c.51-.054.911.125 1.215.537a19.512 19.512 0 0 0 2.288 8.083c-.314.749-.808.928-1.48.538-1.665-2.87-2.337-5.919-2.023-9.163v.005Z" fill="#9F0408"/><path fill-rule="evenodd" clip-rule="evenodd" d="M115.182 235.018h1.345a16.93 16.93 0 0 1-.407 4.85c-1.117.537-1.611.179-1.48-1.08a53.76 53.76 0 0 1 .536-3.77h.006Z" fill="#A0060A"/><path fill-rule="evenodd" clip-rule="evenodd" d="M111.684 224.238c.743-.157 1.193.109 1.345.808a203.85 203.85 0 0 0-.672 4.042c-.071.977-.521 1.248-1.345.809-.125-1.932.098-3.82.672-5.659Z" fill="#9E0307"/><path fill-rule="evenodd" clip-rule="evenodd" d="M120.573 200.52c1.128-.179 1.529.271 1.214 1.345a25.847 25.847 0 0 1-2.83 4.584c-.7-.331-.922-.868-.673-1.616a49.977 49.977 0 0 0 2.289-4.313Z" fill="#9E0408"/><path opacity=".98" fill-rule="evenodd" clip-rule="evenodd" d="m306.441 266.549.537 1.346c0 .358-.179.537-.537.537v-1.888.005Z" fill="#817D78"/><path fill-rule="evenodd" clip-rule="evenodd" d="M141.85 269.245a2.396 2.396 0 0 1 1.481.272c.178 1.888.178 3.77 0 5.658-.451.358-.901.358-1.345 0a65.519 65.519 0 0 1-.136-5.93Z" fill="#A1060A"/><path fill-rule="evenodd" clip-rule="evenodd" d="M288.124 268.703h1.345c.043 2.604 0 5.214-.135 7.818-.38.548-.825.635-1.345.271a41.455 41.455 0 0 1 .135-8.083v-.006Z" fill="#9F0409"/><path fill-rule="evenodd" clip-rule="evenodd" d="M133.234 267.086c.418.906.646 1.894.673 2.963.222 2.148.358 4.307.406 6.466a65.202 65.202 0 0 1-1.079-9.434v.005Z" fill="#C94F50"/><path fill-rule="evenodd" clip-rule="evenodd" d="M204.351 273.824c.51-.054.911.125 1.215.537a39.008 39.008 0 0 1 0 6.467c-.374.548-.824.635-1.345.271a33.603 33.603 0 0 1 .136-7.275h-.006Z" fill="#A2080B"/><path fill-rule="evenodd" clip-rule="evenodd" d="M300.248 247.681c.499 9.787.857 19.622 1.079 29.512.477 3.044-.146 5.784-1.887 8.22a2.5 2.5 0 0 1 .537-1.753c-.087-.271-.179-.537-.271-.808.135-.494.363-.537.672-.136.38-.9.602-1.844.672-2.832a750.228 750.228 0 0 1-.807-32.203h.005Z" fill="#DA4F55"/><path fill-rule="evenodd" clip-rule="evenodd" d="M156.67 273.558a.823.823 0 0 1 .808.271 18.27 18.27 0 0 1 .407 6.467c-.45.358-.9.358-1.345 0a128.133 128.133 0 0 0-.407-4.986c-.043-.672.136-1.258.537-1.752Z" fill="#9E0508"/><path fill-rule="evenodd" clip-rule="evenodd" d="M258.494 274.095c.51-.054.911.125 1.215.537.499 2.046.678 4.113.537 6.201-.662.407-1.112.228-1.345-.537a45.502 45.502 0 0 0-.672-4.85c.021-.472.113-.922.271-1.345l-.006-.006Z" fill="#9F0508"/><path fill-rule="evenodd" clip-rule="evenodd" d="M147.777 275.983c.992.055 1.491.592 1.48 1.617.222 1.725.13 3.434-.271 5.121-.358.359-.716.359-1.079 0-.092-1.616-.179-3.233-.271-4.85-.542-.699-.499-1.329.135-1.888h.006Z" fill="#9D0407"/><path fill-rule="evenodd" clip-rule="evenodd" d="M309.674 275.175c.651-.071 1.101.201 1.345.808a175.339 175.339 0 0 0-3.368 8.626c-1.252.82-1.702.456-1.345-1.079a453.457 453.457 0 0 1 3.368-8.355Z" fill="#9D0408"/><path fill-rule="evenodd" clip-rule="evenodd" d="M225.358 275.713c.509-.055.911.124 1.214.537.385 1.785.564 3.58.537 5.392-1.225.483-1.762.038-1.616-1.345a14.036 14.036 0 0 1-.135-4.584Z" fill="#9E0508"/><path fill-rule="evenodd" clip-rule="evenodd" d="M245.291 281.1a1.18 1.18 0 0 1 .944.271 30.362 30.362 0 0 1-.271 6.467c-.358.358-.722.358-1.08 0-.292-2.317-.157-4.563.407-6.738Z" fill="#9E0408"/><path opacity=".81" fill-rule="evenodd" clip-rule="evenodd" d="M115.181 276.521c.26.119.483.304.673.537 1.849 3.521 3.687 7.026 5.52 10.509a47.725 47.725 0 0 1-6.198-11.051l.005.005Z" fill="#B65255"/><path fill-rule="evenodd" clip-rule="evenodd" d="M276.27 281.908c.439-.054.846.033 1.214.271a34.76 34.76 0 0 1 .272 4.851c-.38.547-.825.634-1.345.271a13.602 13.602 0 0 1-.136-5.393h-.005Z" fill="#A00609"/><path fill-rule="evenodd" clip-rule="evenodd" d="M123.533 278.945c1.491.635 2.608 1.709 3.368 3.234.536 1.079 1.079 2.153 1.615 3.233.407 1.389-.043 1.839-1.344 1.346a18.03 18.03 0 0 0-3.769-6.467 1.474 1.474 0 0 1 .136-1.346h-.006Z" fill="#9E0508"/><path fill-rule="evenodd" clip-rule="evenodd" d="M174.179 281.642c1.041-.168 1.54.282 1.481 1.345.461 2.051.64 4.112.537 6.201-.955.396-1.405.038-1.345-1.079a62 62 0 0 0-.944-5.659c.168-.249.26-.515.271-.808Z" fill="#9E0306"/><path fill-rule="evenodd" clip-rule="evenodd" d="M159.902 287.029c.835-.179 1.279.136 1.345.944-.19 1.21-.369 2.425-.537 3.64-.7 1.454-1.237 1.362-1.616-.271a30.67 30.67 0 0 1 .808-4.313Z" fill="#A00508"/><path fill-rule="evenodd" clip-rule="evenodd" d="M298.09 288.38c-.358.721-.721 1.437-1.079 2.153h-9.159c-3.953-.043-7.906 0-11.854.136-.856.049-1.664.185-2.424.407h-14.277a704.652 704.652 0 0 0 15.622-.673 886.781 886.781 0 0 1 21.821-.135 3.841 3.841 0 0 1 .808-1.617c.124-.217.303-.304.536-.271h.006Z" fill="#DB4C53"/><path fill-rule="evenodd" clip-rule="evenodd" d="m287.852 290.533-8.622.537h-5.656a10.752 10.752 0 0 1 2.424-.406c3.948-.136 7.901-.179 11.854-.136v.005Z" fill="#B76369"/><path fill-rule="evenodd" clip-rule="evenodd" d="M427.933 366.264a55.266 55.266 0 0 1-15.086-1.753c-9.028-1.877-17.829-1.161-26.397 2.154a562.845 562.845 0 0 0-21.012 9.7 81.222 81.222 0 0 1-10.504 3.64c-8.741 1.552-17.449 1.373-26.131-.537a210.347 210.347 0 0 1-13.063-4.313 12.423 12.423 0 0 1 1.345-3.233 22.32 22.32 0 0 0 3.232-4.85c.417-1.682-.168-2.854-1.752-3.505a2706.6 2706.6 0 0 0-51.449 0 333.153 333.153 0 0 0-18.046-.537v-.271c-12.163-.418-26.663-.597-43.505-.537-12.803-.125-19.852-.033-21.148.271-2.826.266-5.7.358-8.622.271a866.293 866.293 0 0 0-30.708.673 15.906 15.906 0 0 0-4.176 3.098c-3.237 3.694-5.574 7.92-7.006 12.667-.32 2.865.89 4.661 3.639 5.393 17 1.123 34.059 1.752 51.183 1.888 20.113.293 40.225.293 60.343 0 12.119-.418 24.239-.776 36.363-1.08a116.41 116.41 0 0 0 18.855-.406c3.801-1.368 6.946-3.657 9.43-6.874a98.458 98.458 0 0 0 24.515 6.331c8.627.792 16.978-.374 25.052-3.505a585.639 585.639 0 0 0 21.549-9.971 61.786 61.786 0 0 1 12.391-3.771 97.662 97.662 0 0 1 10.238 0c4.842.841 9.69 1.655 14.549 2.426 2.689.135 5.384.179 8.079.135a95.712 95.712 0 0 0 3.639 8.355c.309.879.531 1.779.672 2.696a18.099 18.099 0 0 0-4.311-1.752 42.783 42.783 0 0 0-8.079-.271 169.21 169.21 0 0 0-12.933 3.233 210.355 210.355 0 0 1-11.312 1.888 2205.011 2205.011 0 0 1-176.71 10.78 1213.45 1213.45 0 0 1-118.527-3.505 4163.048 4163.048 0 0 1-66.269-6.467 125.783 125.783 0 0 1-26.397-6.738c-2.093-.564-3.844-.07-5.254 1.481a106.085 106.085 0 0 0-1.48 4.042c-.044-8.279 2.516-15.641 7.678-22.102a366.111 366.111 0 0 1 42.426-42.718 296.232 296.232 0 0 1 18.046-18.863 17.212 17.212 0 0 1 6.464-2.696 159.889 159.889 0 0 1 24.781-2.962 920.236 920.236 0 0 0 22.628-.407c5.022 8.23 11.084 15.684 18.182 22.368.157.385.109.743-.135 1.079-5.651 4.476-8.389 10.314-8.216 17.518.955 6.185 4.143 10.807 9.566 13.878 6.746 3.504 13.93 5.484 21.549 5.929a108.805 108.805 0 0 0 36.098-4.85c6.713-2.403 11.518-6.852 14.413-13.34 2.186-6.375 1.199-12.212-2.96-17.518-3.634-4.259-8.167-7.091-13.606-8.49a124.758 124.758 0 0 0-32.866-2.697 134.04 134.04 0 0 0-10.774 2.024 277.381 277.381 0 0 1-12.391-15.901l8.888-.537h1.079a651.847 651.847 0 0 0 32.595-.537h8.622c5.704-.103 11.36-.282 16.972-.537h13.199a193.86 193.86 0 0 0 16.972-.537h11.046c6.334.048 12.618-.131 18.854-.538h7.006c5.84-.038 11.675-.124 17.51-.271a208.358 208.358 0 0 1-8.888 15.63c-3.064-2.083-6.388-2.799-9.967-2.154-1.502.293-2.445 1.188-2.83 2.697a6.97 6.97 0 0 0 .407 3.77 329.41 329.41 0 0 0-16.702 3.098c-5.656 1.345-10.775 3.77-15.357 7.275-6.675 5.935-8.697 13.167-6.062 21.695 2.581 5.273 6.757 8.556 12.526 9.836 10.731 1.796 21.414 1.53 32.058-.808 4.859-1.313 9.707-2.659 14.549-4.042 4.967-1.964 9.05-5.062 12.255-9.299 4.452-7.129 4.452-14.225 0-21.288-1.784-2.17-3.98-3.695-6.599-4.584 1.632-4.08 3.34-8.122 5.119-12.126a32.532 32.532 0 0 0 2.96-6.201 9.355 9.355 0 0 0 1.345-2.696 7.25 7.25 0 0 0 .808-1.345c-.016.119.027.206.136.271 9.912-.743 19.835-.7 29.764.136 10.075 1.405 18.963 5.354 26.668 11.859a429.4 429.4 0 0 0 19.126 16.981 266.597 266.597 0 0 1 29.498 30.858 124.51 124.51 0 0 1 10.374 15.901l-.011-.005Z" fill="#64C4CB"/><path fill-rule="evenodd" clip-rule="evenodd" d="M287.852 290.533h9.159c0 .179-.087.271-.271.271-5.835.142-11.675.234-17.51.272l8.622-.537v-.006Z" fill="#A49CA3"/><path fill-rule="evenodd" clip-rule="evenodd" d="M259.303 291.076h.537l-6.464.538h-10.774a189.221 189.221 0 0 1 16.701-.538Z" fill="#B3767C"/><path fill-rule="evenodd" clip-rule="evenodd" d="M259.839 291.076h12.39c-6.236.412-12.52.592-18.854.537l6.464-.537Z" fill="#9BABB3"/><path fill-rule="evenodd" clip-rule="evenodd" d="m231.826 291.613-6.463.537h-10.775a168.468 168.468 0 0 1 17.238-.537Z" fill="#B2787F"/><path fill-rule="evenodd" clip-rule="evenodd" d="M231.827 291.613h10.503a191.19 191.19 0 0 1-16.973.537l6.464-.537h.006Z" fill="#9AACB3"/><path fill-rule="evenodd" clip-rule="evenodd" d="M199.496 292.15h12.662c-5.612.255-11.268.434-16.972.537l4.31-.537Z" fill="#9F959C"/><path fill-rule="evenodd" clip-rule="evenodd" d="m199.498 292.15-4.311.537h-17.781a709.898 709.898 0 0 1 22.092-.537Z" fill="#B86C72"/><path fill-rule="evenodd" clip-rule="evenodd" d="M177.411 292.693h9.159c-10.818.451-21.68.63-32.595.537a732.63 732.63 0 0 1 23.436-.537Z" fill="#A6999F"/><path fill-rule="evenodd" clip-rule="evenodd" d="M143.737 293.23h9.159l-8.888.538c-.227-.093-.314-.272-.271-.538Z" fill="#978D94"/><path fill-rule="evenodd" clip-rule="evenodd" d="M135.929 296.192c.884-.06 1.557.298 2.023 1.08 1.345 1.703 2.695 3.412 4.04 5.121.184.347.141.662-.136.944-.911.217-1.583-.098-2.022-.944-1.345-1.704-2.695-3.412-4.04-5.121-.158-.386-.109-.744.135-1.08Z" fill="#9F0408"/><path fill-rule="evenodd" clip-rule="evenodd" d="M310.215 294.31a33.005 33.005 0 0 1-2.961 6.201c.032-.456.119-.906.271-1.346.906-1.633 1.8-3.25 2.695-4.85l-.005-.005Z" fill="#151416"/><path fill-rule="evenodd" clip-rule="evenodd" d="M303.747 293.767c.981-.206 1.382.152 1.214 1.08a110.29 110.29 0 0 1-2.559 4.449c-.971.336-1.377.021-1.215-.944l2.56-4.585ZM297.553 304.281c.96-.022 1.275.423.944 1.345a18.464 18.464 0 0 0-3.503 6.739c-.683.385-1.177.206-1.48-.538.791-2.837 2.136-5.354 4.039-7.546Z" fill="#9E0408"/><path fill-rule="evenodd" clip-rule="evenodd" d="M143.201 317.214a112.676 112.676 0 0 0-.673 5.93 19.632 19.632 0 0 0 .808 8.355c1.546 2.528 3.655 3.114 6.328 1.752a17.507 17.507 0 0 0 4.447-5.257c1.892 4.53 4.896 5.604 9.023 3.233.428 1.465 1.328 2.588 2.695 3.369 6.599 3.673 13.242 3.76 19.933.272 2.977-2.198 3.829-5.03 2.56-8.491-1.307-1.622-2.966-2.653-4.984-3.098-4.739-.509-9.316.114-13.74 1.888a14.74 14.74 0 0 0-4.582 2.561 63.915 63.915 0 0 0-.272-7.275c2.294.201 4.225-.521 5.792-2.154 1.664-2.777 1.084-4.98-1.752-6.602-3.584-1.449-7.223-1.584-10.91-.407a12.571 12.571 0 0 1-1.48-1.617 135.82 135.82 0 0 1 10.774-2.023 124.753 124.753 0 0 1 32.866 2.696c5.434 1.4 9.973 4.226 13.606 8.49 4.159 5.306 5.146 11.144 2.96 17.518-2.895 6.489-7.7 10.937-14.413 13.341a108.723 108.723 0 0 1-36.098 4.85c-7.618-.445-14.803-2.425-21.549-5.93-5.423-3.071-8.606-7.698-9.565-13.878-.174-7.204 2.564-13.042 8.215-17.517l.011-.006Z" fill="#323333"/><path fill-rule="evenodd" clip-rule="evenodd" d="M148.049 313.71c-.272-.369-.543-.727-.808-1.079a24.4 24.4 0 0 1-2.153-3.771c0-.537.271-.808.808-.808a23.815 23.815 0 0 1 3.503 4.85c-.25.607-.7.879-1.345.808h-.005Z" fill="#9F0509"/><path fill-rule="evenodd" clip-rule="evenodd" d="M277.886 304.281c-.103.385-.374.608-.808.673.217.081.396.217.537.407-.455.233-.77.591-.943 1.079-.304-.916-.662-.83-1.079.272.287 1.258.379 2.517.271 3.77 1.138 2.707 2.977 4.774 5.52 6.201-2.793-1.177-4.767-3.152-5.927-5.93a7.097 7.097 0 0 1-.407-3.77c.385-1.508 1.323-2.403 2.831-2.696l.005-.006Z" fill="#1F0E0F"/><path fill-rule="evenodd" clip-rule="evenodd" d="M275.462 310.748c1.161 2.778 3.134 4.752 5.927 5.93 1.334.607 2.776.965 4.311 1.079a22.097 22.097 0 0 0-2.695 5.93c-5.9-.537-11.29.857-16.165 4.177a18.944 18.944 0 0 0-2.559 2.832c-1.02 3.749.369 6.125 4.175 7.14 6.561.944 12.667-.315 18.318-3.771 1.42-1.182 2.32-2.663 2.695-4.448a19.804 19.804 0 0 0 3.768-2.154c.857 2.072 2.294 3.553 4.311 4.449 3.704.157 5.591-1.639 5.656-5.393-.168-3.304-1.247-6.266-3.232-8.892a57.44 57.44 0 0 1 2.153-4.986c2.619.885 4.815 2.415 6.599 4.585 4.452 7.063 4.452 14.159 0 21.288-3.21 4.232-7.293 7.335-12.255 9.299a1004.84 1004.84 0 0 1-14.549 4.041c-10.639 2.339-21.321 2.604-32.058.809-5.769-1.281-9.945-4.563-12.526-9.836-2.635-8.528-.618-15.76 6.063-21.695 4.582-3.505 9.695-5.93 15.356-7.275a329.615 329.615 0 0 1 16.702-3.098l.005-.011Z" fill="#323333"/><path fill-rule="evenodd" clip-rule="evenodd" d="M283.004 313.71c1.703.347 3.411.347 5.119 0 .553-.016 1.003.163 1.345.537-.412 0-.722.185-.944.537-.168-.255-.119-.477.136-.673a28.687 28.687 0 0 0-2.961.136c-.982.049-1.876-.13-2.695-.537Z" fill="#4E0A11"/><path fill-rule="evenodd" clip-rule="evenodd" d="M155.055 313.71a9.187 9.187 0 0 0 2.559 1.08c3.08-1.01 6.182-1.053 9.294-.136.342.667.342 1.34 0 2.024a16.541 16.541 0 0 1-4.039.271 39.27 39.27 0 0 1 4.039-.537v-1.346c-3.09-.765-6.143-.672-9.158.272a72.713 72.713 0 0 0-2.695-.809V313.71Z" fill="#D94D53"/><path fill-rule="evenodd" clip-rule="evenodd" d="M93.097 374.081c-4.306.266-8.617.266-12.933 0a1349.803 1349.803 0 0 1-30.98-2.832c-4.045-1.264-5.796-4.004-5.254-8.219a20.512 20.512 0 0 1 2.424-3.771l34.618-38.404a23.606 23.606 0 0 0 2.96-1.617c1.03-.043 2.066-.087 3.097-.135a3115.768 3115.768 0 0 0 39.465 3.369c2.006.705 3.172 2.094 3.503 4.177-4.072 13.362-10.406 25.493-18.99 36.381-3.394 4.503-7.662 7.872-12.797 10.107-1.67.532-3.373.841-5.119.944h.006Z" fill="#4C4C4C"/><path fill-rule="evenodd" clip-rule="evenodd" d="M163.133 331.228a11.02 11.02 0 0 0 1.887-3.505 14.662 14.662 0 0 1 4.582-2.56c4.425-1.769 9.001-2.398 13.741-1.888 2.017.445 3.676 1.481 4.983 3.097 1.269 3.462.418 6.288-2.559 8.491-6.692 3.494-13.334 3.401-19.934-.271-1.366-.782-2.261-1.905-2.695-3.369l-.005.005Z" fill="#E2E2E2"/><path fill-rule="evenodd" clip-rule="evenodd" d="M141.85 309.668a18.893 18.893 0 0 1 3.503 3.098c.52.081.97.309 1.344.672.185-.298.364-.564.537-.808.266.353.537.711.808 1.08h-.808a17.637 17.637 0 0 1-.672 6.201 73.67 73.67 0 0 0 0 8.891c-.071.917.331 1.368 1.214 1.346-.672.423-1.165.244-1.48-.537a92.656 92.656 0 0 1 0-9.972c.472-1.681.651-3.385.537-5.121a42.054 42.054 0 0 1-4.983-4.85Z" fill="#DE5159"/><path fill-rule="evenodd" clip-rule="evenodd" d="M283.005 323.681c-.694 5.046 1.464 7.026 6.463 5.93-.374 1.78-1.274 3.266-2.695 4.449-5.65 3.455-11.756 4.714-18.317 3.77-3.807-1.014-5.195-3.396-4.175-7.139a18.792 18.792 0 0 1 2.559-2.832c4.875-3.32 10.26-4.715 16.165-4.178Z" fill="#E2E2E2"/><path fill-rule="evenodd" clip-rule="evenodd" d="M84.746 326.649a18.13 18.13 0 0 1 4.848.407c1.095.526 1.497 1.378 1.215 2.56-.445 1.883-1.389 3.451-2.831 4.715-.96.38-1.952.466-2.96.271a49.268 49.268 0 0 1-3.504-.808c-1.382-.689-1.697-1.72-.943-3.098l2.83-3.369a10.71 10.71 0 0 0 1.345-.673v-.005ZM96.865 327.458a36.51 36.51 0 0 1 6.328 1.616c.244 1.064.065 2.056-.537 2.962a34.406 34.406 0 0 0-2.152 3.505c-1.101 1.025-2.403 1.34-3.905.944a8.284 8.284 0 0 1-3.367-1.752 1.153 1.153 0 0 1 0-1.08 53.524 53.524 0 0 1 3.638-6.201l-.005.006ZM107.91 328.802c1.258-.043 2.516 0 3.769.136 1.274.646 1.676 1.676 1.215 3.098-.19 2.229-1.313 3.71-3.368 4.448-1.73.234-3.432.147-5.119-.271-.292-.553-.336-1.139-.135-1.752.819-2.187 2.033-4.075 3.638-5.659ZM118.956 329.611c1.822.141 3.616.456 5.39.944 1.241.293 1.648 1.053 1.214 2.29a57.853 57.853 0 0 0-2.695 4.584c-.97 1.139-2.18 1.541-3.638 1.215a11.733 11.733 0 0 1-3.639-1.752 3.265 3.265 0 0 1 .271-2.154l3.097-5.121v-.006Z" fill="#EEE"/><path fill-rule="evenodd" clip-rule="evenodd" d="M76.736 337.51c1.437-.043 2.874 0 4.31.136 1.448.45 2.12 1.394 2.023 2.832a43.718 43.718 0 0 1-1.616 3.505c-1.632 1.671-3.562 2.077-5.791 1.215a6.727 6.727 0 0 1-3.368-1.481 2.24 2.24 0 0 1 .272-1.888 19.419 19.419 0 0 0 1.887-2.425 7.479 7.479 0 0 1 2.288-1.888l-.005-.006Z" fill="#EDEDED"/><path fill-rule="evenodd" clip-rule="evenodd" d="M87.976 337.965c2.294.179 4.496.722 6.6 1.617.244 1.063.065 2.056-.537 2.962a26.382 26.382 0 0 0-1.887 2.962c-1.02 1.492-2.408 1.991-4.176 1.481a8.284 8.284 0 0 1-3.367-1.752 1.752 1.752 0 0 1 0-1.345 98.654 98.654 0 0 0 3.367-5.93v.005Z" fill="#EEE"/><path fill-rule="evenodd" clip-rule="evenodd" d="M99.83 340.662c4.447-.722 5.841.987 4.176 5.121a5.469 5.469 0 0 1-1.752 2.289c-1.952.418-3.931.51-5.927.272-.51-.489-.645-1.069-.406-1.753.715-1.437 1.437-2.875 2.152-4.313a14.326 14.326 0 0 1 1.752-1.616h.005Z" fill="#EFEFEF"/><path fill-rule="evenodd" clip-rule="evenodd" d="M109.798 342.279c1.887.271 3.774.586 5.655.944 1.02.553 1.334 1.405.944 2.56a44.405 44.405 0 0 0-2.424 4.042c-.943 1.438-2.245 1.932-3.904 1.481a9.769 9.769 0 0 1-3.639-1.752 2.834 2.834 0 0 1 .271-1.888 78.011 78.011 0 0 0 3.097-5.393v.006Z" fill="#EEE"/><path fill-rule="evenodd" clip-rule="evenodd" d="M67.848 347.481c7.298-.298 8.464 2.263 3.503 7.682a6.872 6.872 0 0 1-3.503.272c-1.258-.358-2.516-.722-3.77-1.08-1.03-.879-1.073-1.823-.135-2.832a19.345 19.345 0 0 0 1.887-2.425 5.74 5.74 0 0 1 2.023-1.617h-.005Z" fill="#EDEDED"/><path fill-rule="evenodd" clip-rule="evenodd" d="M79.355 348.48a35.92 35.92 0 0 1 5.119.944c1.345.217 1.838.982 1.48 2.289a35.692 35.692 0 0 1-3.638 5.523c-2.288.619-4.398.212-6.328-1.215a3.388 3.388 0 0 1 0-1.888c1.128-1.893 2.25-3.781 3.367-5.658v.005Z" fill="#EEE"/><path fill-rule="evenodd" clip-rule="evenodd" d="M92.825 350.633c4.842-.591 6.143 1.297 3.904 5.659-.624 1.166-1.567 1.925-2.83 2.289-1.54.168-3.064.081-4.583-.271-.526-.581-.656-1.254-.407-2.024.776-2.278 2.077-4.166 3.905-5.658l.01.005Z" fill="#EDEDED"/><path fill-rule="evenodd" clip-rule="evenodd" d="M101.176 354.138c1.545.092 3.069.32 4.582.672 2.272.434 2.765 1.65 1.48 3.641a34.391 34.391 0 0 0-2.152 3.504c-.895 1.058-2.018 1.46-3.368 1.216a10.74 10.74 0 0 1-3.904-1.753 2.5 2.5 0 0 1 0-1.616l3.367-5.659-.005-.005Z" fill="#EEE"/><path opacity=".05" fill-rule="evenodd" clip-rule="evenodd" d="M123.267 291.885c.412.19.77.461 1.079.808.396.255.667.613.808 1.08-7.499.222-15.037.358-22.628.407a159.688 159.688 0 0 0-24.781 2.962 17 17 0 0 0-6.464 2.696 298.952 298.952 0 0 0-18.046 18.863 366.111 366.111 0 0 0-42.426 42.718c-5.157 6.456-7.717 13.823-7.679 22.102-2.614 7.042-3.107 14.225-1.48 21.559.97 3.576 37.996 19.699 40.886 21.961 5.254 2.995 10.91 4.699 16.972 5.122 12.792.374 25.54.689 38.251.944H68.13a98.376 98.376 0 0 1-15.085-.944.964.964 0 0 1-.271-.407 40.618 40.618 0 0 0-4.04-.673 88.317 88.317 0 0 0-5.656-2.425c-1.36-.998-37.757-15.326-38.999-16.574-.14-.808-.542-1.437-1.215-1.888a60.243 60.243 0 0 1-2.559-6.738 63.124 63.124 0 0 1 0-12.396c.46-1.91.906-3.792 1.345-5.659l.537-.537c.282-2.685.46-5.381.536-8.083 2.088-8.745 6.491-16.205 13.199-22.368.092-.271.179-.537.271-.808a56.047 56.047 0 0 0 5.119-5.659c.271-.228.586-.314.944-.271-.038-.282 0-.553.135-.808a57.971 57.971 0 0 1 5.791-5.393.83.83 0 0 1 .271-.808 149.963 149.963 0 0 0 7.543-7.547.835.835 0 0 1 .808-.271.83.83 0 0 1 .271-.808c1.708-1.704 3.411-3.413 5.12-5.122a4.187 4.187 0 0 1 2.152-1.345 254.23 254.23 0 0 1 9.967-9.7 1.85 1.85 0 0 1 1.079-.272c.038-.9.488-1.529 1.345-1.887a2.75 2.75 0 0 0 .406-1.08 690.197 690.197 0 0 0 11.182-11.317.833.833 0 0 1 .808-.271 7.451 7.451 0 0 1 1.887-2.29 12.612 12.612 0 0 1 5.118-1.752v-.808a33.101 33.101 0 0 0 5.656-.537.975.975 0 0 1 .271-.407 256.86 256.86 0 0 1 28.556-1.888l.536-.537a97.662 97.662 0 0 1 10.238 0c1.199 1.014 1.828.7 1.887-.944h-.016Z" fill="#D9FAFC"/><path fill-rule="evenodd" clip-rule="evenodd" d="M60.306 357.187a11.364 11.364 0 0 1 5.118.944c.7.624.922 1.389.673 2.29a43.537 43.537 0 0 1-1.616 3.504 4.908 4.908 0 0 1-1.48 1.216c-2.316.276-4.56.005-6.735-.809-.83-.461-1.144-1.134-.944-2.023 1.182-2.214 2.842-3.923 4.984-5.122ZM70.543 359.341c1.724.065 3.432.293 5.119.673 1.87.363 2.364 1.394 1.48 3.097-.987 1.53-1.974 3.055-2.96 4.585-1.215.911-2.517 1.047-3.905.406a8.604 8.604 0 0 1-2.83-1.481 2.5 2.5 0 0 1 0-1.616 43.036 43.036 0 0 0 3.096-5.659v-.005Z" fill="#EEE"/><path fill-rule="evenodd" clip-rule="evenodd" d="M84.475 360.605c4.826-.787 6.22 1.009 4.175 5.392-.428 1.242-1.285 2.002-2.56 2.289a14.891 14.891 0 0 1-5.118-.271c-.293-.553-.336-1.139-.136-1.752.819-2.186 2.034-4.074 3.639-5.658Z" fill="#EFEFEF"/><path fill-rule="evenodd" clip-rule="evenodd" d="M249.065 362.764c-21.549-.146-43.098-.238-64.653-.271 1.291-.304 8.34-.396 21.148-.271 16.843-.054 31.342.119 43.505.537v.005Z" fill="#7AC3C8"/><path fill-rule="evenodd" clip-rule="evenodd" d="M184.411 362.493c21.55.033 43.099.12 64.654.271v.272c-24.467.086-48.896 0-73.27-.272 2.923.087 5.797 0 8.622-.271h-.006Z" fill="#253839"/><path fill-rule="evenodd" clip-rule="evenodd" d="M175.936 364.521c24.38.272 48.803.359 73.27.272 6.024.016 12.038.2 18.046.537 17.152.358 34.298.358 51.449 0 1.584.651 2.164 1.817 1.752 3.504a22.326 22.326 0 0 1-3.232 4.851 12.423 12.423 0 0 0-1.345 3.233 211.91 211.91 0 0 0 13.063 4.313c.353.195.711.423 1.079.673a85.203 85.203 0 0 0 22.629.808 7.302 7.302 0 0 0 2.424-.944 80.512 80.512 0 0 0 10.503-3.64 551.792 551.792 0 0 1 21.012-9.7c8.574-3.315 17.374-4.031 26.397-2.154a55.46 55.46 0 0 0 15.086 1.752 22.61 22.61 0 0 0 10.639-2.425c1.307.315 1.844 1.123 1.616 2.425-1.535 1.242-3.286 2.089-5.254 2.561-1.6.445-3.216.759-4.848.944-2.695.043-5.39 0-8.08-.136-4.858-.776-9.706-1.584-14.549-2.425a97.643 97.643 0 0 0-10.237 0 62.111 62.111 0 0 0-12.391 3.771 586.406 586.406 0 0 1-21.549 9.971c-8.074 3.13-16.425 4.297-25.052 3.505a98.534 98.534 0 0 1-24.516-6.332c-2.483 3.218-5.623 5.507-9.43 6.874-6.274.64-12.564.776-18.854.407a68.439 68.439 0 0 0-10.503-.136c-7.18.255-14.365.478-21.55.673-1.54 0-2.971.179-4.311.537-20.117.293-40.23.293-60.342 0a4508.295 4508.295 0 0 0-38.793-1.481c-.9-.087-1.795-.179-2.695-.271-.51-.054-.916-.277-1.215-.673-2.76.526-5.585.711-8.486.537-2.749-.727-3.958-2.522-3.638-5.392 1.431-4.747 3.763-8.974 7.006-12.668a15.885 15.885 0 0 1 4.175-3.098 866.293 866.293 0 0 1 30.708-.673h.016Z" fill="#323233"/><path fill-rule="evenodd" clip-rule="evenodd" d="M318.566 363.572c-17.151.358-34.297.358-51.449 0 17.195-.162 34.347-.162 51.449 0Z" fill="#203638"/><path fill-rule="evenodd" clip-rule="evenodd" d="M146.704 366.806c2.278.255 2.728 1.285 1.345 3.097-1.703.179-2.38-.585-2.023-2.289a3.1 3.1 0 0 1 .673-.808h.005Z" fill="#191A19"/><path fill-rule="evenodd" clip-rule="evenodd" d="M275.197 377.585c.146-.016.238-.103.271-.271a117.739 117.739 0 0 0-15.894 0 38.368 38.368 0 0 0-5.254 6.738c-1.513.673-2.142.223-1.887-1.345a60.665 60.665 0 0 1 4.175-5.523 285.51 285.51 0 0 0-17.509 0 91.702 91.702 0 0 0-5.255 6.602c-.645 1.129-1.453 1.308-2.423.537a1.151 1.151 0 0 1 0-1.079 62.702 62.702 0 0 1 4.712-6.201c-4.946-.25-9.88-.385-14.815-.407a76.552 76.552 0 0 0-5.791 7.682c-.797.749-1.518.656-2.153-.271-.179-.271-.179-.537 0-.809a132.247 132.247 0 0 1 4.712-6.466 85.192 85.192 0 0 0-12.119-.407 55.462 55.462 0 0 0-5.927 7.682c-1.399.922-2.071.564-2.022-1.08a60.907 60.907 0 0 1 4.983-6.738 75.839 75.839 0 0 0-11.046-.136 93.893 93.893 0 0 0-5.52 6.332c-1.54 1.616-2.348 1.345-2.424-.809a58.047 58.047 0 0 1 4.983-5.658 78.19 78.19 0 0 0-11.045-.407c-2.153 2.338-4.311 4.671-6.464 7.009-1.345.358-1.93-.135-1.752-1.481 1.66-1.839 3.325-3.683 4.984-5.523a90.703 90.703 0 0 0-11.312-.271 69.71 69.71 0 0 0-4.175 6.065c-.727.939-1.535 1.026-2.424.272-.179-.272-.179-.537 0-.809a67.854 67.854 0 0 1 3.904-5.794 111.947 111.947 0 0 0-9.429-.271 49.276 49.276 0 0 0-4.984 7.14c-.716.721-1.437.721-2.153 0a1.153 1.153 0 0 1 0-1.08 76.78 76.78 0 0 1 4.447-6.331c-1.529-.087-3.053-.179-4.582-.271-1.269-1.661-.824-2.425 1.345-2.29 1.702.233 3.41.277 5.119.136a31.05 31.05 0 0 1 4.847-4.85c1.345-.358 1.931.135 1.752 1.481a64.926 64.926 0 0 1-3.639 3.504c3.048.315 6.101.358 9.159.136 1.122-1.481 2.245-2.962 3.367-4.449.716-.721 1.437-.721 2.153 0 .179.358.179.722 0 1.08a87.078 87.078 0 0 0-2.83 3.64c3.947.326 7.895.418 11.853.272a29.108 29.108 0 0 1 4.712-4.715c.987.271 1.345.901 1.08 1.888a45.257 45.257 0 0 0-2.831 2.962c3.769.337 7.537.467 11.311.407a46.899 46.899 0 0 1 5.39-4.986c.982.266 1.296.896.944 1.888l-3.096 3.098c3.584.407 7.174.494 10.774.271a41.267 41.267 0 0 1 8.487-7.41c.818.271 1.176.813 1.079 1.616a199.7 199.7 0 0 1-6.6 5.93 91.3 91.3 0 0 0 12.12.136 49.992 49.992 0 0 1 7.272-6.603c.943.271 1.258.895.943 1.888a68.994 68.994 0 0 0-5.254 4.986 146.49 146.49 0 0 0 15.356-.136 88.856 88.856 0 0 0 4.311-4.177 10.64 10.64 0 0 1 3.368-2.29c.894.169 1.252.711 1.079 1.617a241.589 241.589 0 0 0-5.792 5.257c5.748.179 11.496.179 17.239 0a46.606 46.606 0 0 1 7.271-6.065c.982.266 1.296.895.944 1.888a38.033 38.033 0 0 0-4.983 4.313c5.205.314 10.416.358 15.622.135a142.524 142.524 0 0 1 6.198-5.392 15.325 15.325 0 0 1 2.831-1.753c1.008.109 1.366.646 1.079 1.617-2.202 1.839-4.398 3.684-6.6 5.523 5.927.179 11.854.179 17.781 0a100.097 100.097 0 0 1 8.08-7.14c.981.266 1.296.896.943 1.888l-5.791 5.257c2.153.087 4.311.179 6.464.272.78.851.694 1.567-.272 2.153-2.96.087-5.926.179-8.887.272l-5.119 5.121c-1.345.179-1.838-.407-1.48-1.752l3.367-3.369a294.447 294.447 0 0 0-17.781 0 46.355 46.355 0 0 0-5.926 6.602c-1.719.385-2.213-.244-1.481-1.888 1.302-1.535 2.603-3.06 3.904-4.584l.006-.006Z" fill="#7F7F7F"/><path fill-rule="evenodd" clip-rule="evenodd" d="M174.18 367.072c2.055-.174 2.906.727 2.559 2.696-.645 1.275-1.675 1.677-3.096 1.215-1.182-1.497-1.003-2.799.537-3.906v-.005Z" fill="#191919"/><path fill-rule="evenodd" clip-rule="evenodd" d="M188.186 367.071c1.931.353 2.473 1.384 1.616 3.098-1.768 1.177-2.841.727-3.232-1.345.038-1.075.581-1.655 1.616-1.753ZM160.711 366.806c2.125.168 2.754 1.205 1.887 3.098-2.251 1.047-3.194.374-2.831-2.024.185-.499.499-.857.944-1.079v.005Z" fill="#1A1A1A"/><path fill-rule="evenodd" clip-rule="evenodd" d="M218.086 367.343c2.386-.489 3.286.412 2.695 2.696-.841.499-1.735.635-2.695.407-1.052-1.047-1.052-2.083 0-3.098v-.005ZM297.011 367.885c1.952-.081 2.717.814 2.288 2.696-.58.977-1.437 1.291-2.559.944-1.513-1.367-1.421-2.582.271-3.64Z" fill="#191919"/><path fill-rule="evenodd" clip-rule="evenodd" d="M202.464 367.615c1.513-.326 2.321.26 2.424 1.752-.407 1.519-1.264 1.834-2.56.944-.575-.949-.526-1.85.136-2.696ZM235.595 368.959c2.174.136 2.717 1.172 1.616 3.098-2.202.401-2.966-.45-2.288-2.561.265-.152.493-.331.672-.537Z" fill="#1A1A1A"/><path fill-rule="evenodd" clip-rule="evenodd" d="M272.773 369.23c1.984.049 2.608.993 1.887 2.832-2.072.89-3.015.217-2.831-2.023.309-.309.624-.575.944-.809Z" fill="#191919"/><path fill-rule="evenodd" clip-rule="evenodd" d="M80.164 374.081c4.311.266 8.622.266 12.933 0a25.451 25.451 0 0 1-5.927.537 40.3 40.3 0 0 1-7.006-.537Z" fill="#3C595C"/><path fill-rule="evenodd" clip-rule="evenodd" d="M153.439 376.506c2.933-.174 3.655.949 2.153 3.369-1.6.786-2.587.293-2.961-1.481.114-.711.385-1.34.808-1.888Z" fill="#191919"/><path fill-rule="evenodd" clip-rule="evenodd" d="M140.777 376.506c2.239.13 2.689 1.074 1.344 2.832-2.266-.038-2.711-.982-1.344-2.832Z" fill="#1A1A1A"/><path fill-rule="evenodd" clip-rule="evenodd" d="M259.568 377.314a117.739 117.739 0 0 1 15.894 0c-.033.163-.125.255-.271.272-5.163-.272-10.368-.358-15.623-.272Z" fill="#4B4B4B"/><path fill-rule="evenodd" clip-rule="evenodd" d="M165.557 378.394c1.703-.222 2.468.494 2.289 2.154-1.025 1.41-2.012 1.41-2.961 0-.266-.895-.038-1.611.672-2.154Z" fill="#1A1A1A"/><path fill-rule="evenodd" clip-rule="evenodd" d="M180.643 378.666c1.974.059 2.825 1.047 2.559 2.962-1.393 1.508-2.646 1.416-3.769-.271-.385-1.27.022-2.171 1.215-2.697l-.005.006Z" fill="#191919"/><path fill-rule="evenodd" clip-rule="evenodd" d="M286.778 378.394c2.988-.081 3.796 1.172 2.424 3.771-2.586.96-3.714.059-3.367-2.697.374-.325.683-.683.943-1.079v.005Z" fill="#1A1A1A"/><path fill-rule="evenodd" clip-rule="evenodd" d="M209.465 378.931c.992-.081 1.621.364 1.887 1.346.07 1.367-.559 2.175-1.887 2.425-1.318-.304-1.811-1.112-1.481-2.425.467-.51.96-.961 1.481-1.346ZM249.602 378.931c1.952-.146 2.717.755 2.288 2.697-1.312 1.188-2.391 1.009-3.232-.537-.054-.879.261-1.601.944-2.154v-.006ZM193.305 379.473c1.323-.195 2.131.348 2.424 1.617-.369 1.237-1.177 1.639-2.424 1.215-1.058-.944-1.058-1.888 0-2.832Z" fill="#191919"/><path fill-rule="evenodd" clip-rule="evenodd" d="M328.799 379.474c8.681 1.909 17.39 2.088 26.131.537a7.285 7.285 0 0 1-2.424.944 85.196 85.196 0 0 1-22.628-.809 14.614 14.614 0 0 0-1.079-.672Z" fill="#263E3E"/><path fill-rule="evenodd" clip-rule="evenodd" d="M85.613 372.773a1242.333 1242.333 0 0 1-72.164-2.658 48.375 48.375 0 0 0 11.962-.76c.418.559.987.874 1.708.95 1.264.125 2.533.255 3.796.38a6575.47 6575.47 0 0 1 54.692 2.088h.006Z" fill="#23383A"/><path fill-rule="evenodd" clip-rule="evenodd" d="M221.963 371.255c-17.097.423-34.189.933-51.275 1.519 1.881-.505 3.909-.754 6.078-.76 10.13-.271 20.259-.591 30.383-.949a96.976 96.976 0 0 1 14.814.19Z" fill="#203839"/><path fill-rule="evenodd" clip-rule="evenodd" d="M440.329 368.026c3.872-.71 13.974 7.818 41.835 15.961l1.019-1.405c-13.209-4.709-39.953-20.474-44.47-16.981" fill="#323233"/><path fill-rule="evenodd" clip-rule="evenodd" d="M440.33 368.026c7.537-1.139 18.274 7.314 41.835 15.961l-41.835-15.961Z" fill="#323233"/><path d="M554.5 529h-4.151c-15.485-31.645-16.849-35-40.849-87.5C485.5 389 481 384 481 384l1.5-1s27.5 49.5 33.5 67.5 38.5 78.5 38.5 78.5Z" fill="#58585A" stroke="#000"/></svg>