<svg width="65" height="65" fill="none" xmlns="http://www.w3.org/2000/svg"><path d="M10.7295 50.8992c.5158.4066 1.2567 1.4759 1.4543 2.1109-.7189-.0947-1.4324.6906-1.9757 1.1584-1.0262.3119-1.7451 1.5094-2.6506 2.0051-.7135.3898-1.4489.4567-2.1294.685.5324.2618.5543.4512 0 .6851-.4445-.3676-.6475-.6572-.9329-1.1585.494-.2952.7738.1448 1.3006.1058.9824-.0724 2.766-1.5483 3.4794-2.2668-1.6629.7742-2.9141 2.0719-4.8843 1.9494-.1152-.234-.225-.3621-.3128-.635 2.733.7742 4.747-2.1442 6.7556-3.5311.033-.0222.5324.0836.5214-.2116-.0439-.8967-2.5025 1.9772-2.9086 1.5316.269-.3063.2909-.4567.2085-.841.1537-.1337 2.08-2.1053 1.0921-1.6876-.0713.0279-.0384.3955-.2085.4233-.214.0334-.033-.3286-.5708-.1058.1702-.2506.044-.2228-.1536-.3175-1.4159-.6572-2.1019.5848-3.375.3175.1316-.1225.4829-.6127.5213-.6349.0384-.0223.7902-.3064.8287-.3175 1.2841-.323 2.8811-.0891 3.9458.7408l-.0055-.0056Z" fill="#E1A081"/><path d="M8.6503 52.4806c-1.3994 1.2198-2.9031 1.6319-4.6757 2.0051v-.2117c.4006-.7463.889-1.2865 1.4543-1.8992.8506.2172 2.2885.1392 2.7-.7408.4446-.1448.6476-.4511.8287-.5291.5379-.2227.3567.1393.5708.1059.1701-.0223.1372-.3899.2085-.4233.9878-.4177-.9384 1.5539-1.092 1.6876l.0054.0055Z" fill="#E1A081"/><path d="M10.2093 54.1689c-.3842.3342-.7793.8967-1.1964 1.2643-.1317.117-1.7287.9636-1.4049 1.2643 1.2238.2897 2.4202-1.643 3.5342-1.1584C9.7977 56.653 8.541 57.1932 6.933 57.856l.8287.3175-.1537.3174c-1.0152-.1169-1.3884-.2952-2.1842-.9468.5543-.2339.5324-.4233 0-.685.6805-.2284 1.416-.2952 2.1293-.6851.9055-.4901 1.6245-1.6876 2.6507-2.0051h.0055Z" fill="#C26F4D"/><path d="M8.9635 51.1108c-.1811.0724-.3842.3843-.8287.5291-1.1524.3732-1.7342-.1448-2.2336 0-.2799.0835-.4116.6795-.4664.7408-.5653.607-1.0537 1.1529-1.4543 1.8992.0768-1.6263.2414-2.0496 1.4543-3.1635 1.2732.2673 1.9592-.9747 3.375-.3175.1976.0947.3293.0668.1537.3175v-.0056Z" fill="#ECB9A0"/><path d="M4.0789 55.539c-.044-.1281-.0769-.2841-.1043-.4233 1.169-.3453 3.6385-.8466 4.4672-1.7934.406.4511 2.8647-2.4228 2.9086-1.5316.0164.2952-.4885.1893-.5214.2116-2.003 1.3868-4.0171 4.3053-6.7556 3.5311l.0055.0056Z" fill="#D08266"/><path d="M8.4419 53.327c-.8287.9413-3.3037 1.4481-4.4672 1.7934-.0713-.3675.011-.4567 0-.6349 1.7726-.3731 3.2763-.7853 4.6757-2.005.0878.3843.0604.5346-.2085.841v.0055Z" fill="#ECB9A0"/><path d="M4.4969 56.3856c-.055-.1002-.066-.1392-.1043-.2116 1.9701.1225 3.2214-1.1752 4.8842-1.9494-.7134.7185-2.5025 2.1944-3.4793 2.2668-.5269.039-.8067-.401-1.3007-.1058Z" fill="#D08266"/><path d="M12.185 53.0101c.0164.0557-.0165.1504 0 .2116-.0275.1504-.3019.3955-.3128.4233l-4.2587 3.0577c-.3237-.3007 1.2732-1.1473 1.405-1.2643.4115-.3676.8067-.9301 1.1963-1.2643.5433-.4678 1.2567-1.2531 1.9757-1.1584l-.0055-.0056Z" fill="#C26F4D"/><path d="M8.1297 51.6396c-.4116.88-1.8494.9579-2.7.7407.0549-.0612.1866-.6572.4665-.7407.4994-.1448 1.081.3731 2.2335 0Z" fill="#E1A081"/><path d="M11.3502 55.433c-.1427.1281-.1976.1003-.2086.1059-1.114-.4846-2.3104 1.4481-3.5342 1.1584l4.2586-3.0577c-.2195.5403-.3402 1.2365-.5213 1.7934h.0055Z" fill="#C26F4D"/><path d="M12.3925 54.4863c-.011.2674-.1372.6684-.2086.9469-.1262.5068-.3237.9468-.6256 1.3701-.9329 1.3144-2.4037 1.8658-3.9458 1.6876l.1537-.3175-.8287-.3175c1.608-.6628 2.8647-1.2086 4.2092-2.3169.011-.0056.0659.0223.2086-.1058.3512-.3119.664-.674 1.0372-.9469Z" fill="#A44A29"/><path d="M11.9215 55.5391c-.5433 1.4369-2.0854 2.2501-3.5836 2.4784l3.5836-2.4784Z" fill="#7C210E"/><path d="M12.3927 54.4857c-.3732.2729-.686.6349-1.0372.9468.1811-.5569.3018-1.2531.5213-1.7934.011-.0223.2854-.2673.3128-.4233.0988.3899.225.8689.2086 1.2643l-.0055.0056Z" fill="#E1A081"/><path d="m63.5074 24.644-.9329.3675.2085 4.2162c-.0164-.2896-.4006-.245-.417-.2617-.1921-.2284-.1811-1.0805-.8287-.6851-.2634.1559-1.7287 3.3807-1.4543 3.9544-.4226.9858-.6531 1.5372-.7299 2.6344-.0329.4901-.1262.6405 0 1.1585.0494.2005.2689.039.3128.1559.1811.4901-.3073 1.4425.933 1.0025-.0659.1449.1097.2507.1042.2618-1.0591 2.5787-1.4817 5.5028-2.9086 7.9589-.1042-.1058-.0988-.1671-.2085-.2116-1.0427-.4456-2.9525 1.8157-3.6385 2.5843l1.7122-1.5317 1.1415-.3174c.9769 1.2141-3.375 4.8678-3.9458 4.8511-.0274 0-.0768-.2284-.2085-.3175-.011-.0056-.2031.2339-.258.0501-.0219-.0724.6531-1.0025.7299-1.1584.0494-.1003.225-.557-.1042-.2117-.5488.9691-2.6617 4.0825 0 2.9018-4.8294 5.525-8.7478 8.3321-16.2058 9.4905-.7025-.8354.5542-1.086 1.1963-1.5817.7519-.5793.4885-1.1529 1.7671-1.0527l-.417-.4233c.8451-.0334 1.4652-.6739 2.1841-1.0526.0549-.3063-.3567-.0947-.3622-.3676 0-.323 3.666-3.7929 4.3629-4.322h-.8286c.4774-.4734 1.114-.7463 1.5585-1.2643.1208-.1448 2.1019-3.1579 1.9208-3.2136-.0549-.0167-.3951.5959-.4665.2617l.5214-.7908c.1481.0334.6805-.1838.7299-.4233 1.6683-3.3808 4.769-5.5251 5.3013-9.5407.5543-.3342 2.4915-2.4395 2.4915-2.9519 0-.1448-.3951-.6127-.4171-.841-.0768-.8187-.0549-1.7043-.1043-2.5286l-.3128.5291c-.0713-.8076.2744-2.4395-.7299-2.7959 1.0866-3.0577 1.7781-6.1321 1.9757-9.3847.1536-2.5955-.1427-4.7063-.2086-7.2238 0-.2005-.0439-.3954.2086-.4734 3.1226 3.8096 5.1422 7.7027 6.3385 12.5483h-.011Z" fill="#62317C"/><path d="M56.0278 19.1636c-3.0019-.4957-4.8513 5.4582-6.13 7.5412-1.0317 1.682-2.4037 3.1691-3.6385 4.6896-1.4872-.1615-1.7945.1782-3.0128.5291-2.5025.7185-4.4727 2.4451-4.9885 5.2187-.1317.7241-.3128 2.7904-.1043 3.4253-.1756.4289-.7354.8689-1.0921 1.1585-8.0288 6.6556-16.0521 11.2784-26.6987 7.0622-4.7854-1.8937-4.939-3.7149-7.738-7.3296-.0438-.0557-.7353-.9579-.7298-.4734-.3348-1.1974-.6037-2.1276-.8287-3.3751l.417-.0502-.1042-4.2718c.1592.8521.6311 2.3225.933 3.1635 1.081 2.9964 3.15 6.7726 5.5592 8.8556.1756.1504.6311.6294.8836.4233.1426.3787.911.9747 1.35.9468 1.7232 1.036 4.5714 1.3757 6.5965 1.3701 4.3793-.0111 7.2385-1.2531 10.855-3.4809 5.938-3.6537 10.7838-8.6106 13.2972-15.2885 2.5848 0 5.4989-1.7879 4.5715-4.7954-.3842-1.2476-1.0647-.6461-1.6629-.7909l3.43-3.7985c.1207.0613 1.2896.4122 1.4049.4233 1.3939.1393 2.25-.5792 3.2708-1.1083.0713-1.8825-.3951-3.4643-1.5586-4.9012l2.7001-4.322s.0878-.0167.1042 0c1.0812 1.0192 2.0086 2.2278 3.0129 3.3194-.022 1.9494-.0439 3.9099-.1043 5.8537l.0055.0055Z" fill="url(#a)"/><path d="M57.7946 45.419c.5762.5736.3457 1.0025.4171 1.6875.0988.9803-.225 2.8739.5213 3.3752-11.2282 15.89-32.2085 18.6637-47.1685 6.327.3018-.4232.4994-.8632.6256-1.3701.2414-.1726.2469-.1114.4664 0 .6696.3342 1.7726 1.4314 2.4916 1.8993 2.0963 1.3645 4.8677 2.7012 7.2714 3.3751.2525.0724.5324.1838.7793 0 .3787.4066.8506.4957 1.35.635-.6091.1336.1372.6015.3622.7407 1.0098.6127 2.8263 1.0527 3.4794-.2116 0-.0112.203-.0947.2085-.1059 2.6891.4679 5.5099.2061 8.2099-.2116 7.4581-1.1585 11.382-3.9655 16.2058-9.4906 1.8275-2.0941 3.9513-3.9321 4.5715-6.8561.1042.0445.1042.1058.2085.2116v-.0055Z" fill="url(#b)"/><path d="m29.6371.5-.1042.635c-.6366.078-1.619.3842-2.283.529-1.833.3843-8.9124 2.562-10.0264 3.7985-.0988.1114-.1701.4511-.1537.5291.022.0891-.0494.2785.0494.3175.7134-.284 1.2403.167 1.3007.841-.7245-.5458-1.7562-.0836-2.4916.3174-1.5421.841-3.2543 3.8208-.3128 2.6344-.2414.4512-1.2018.5514-1.5091.7408-.1263.078-.8671 1.281-1.3007.7408.0494-.2228-.3622-1.8826-.4665-1.8993-2.6945 2.1555-5.23 4.4334-7.1178 7.3797-.3841.6015-.7683 1.2309-1.0372 1.8992-.033-.0111-.0713.0112-.1042 0-.1702-.0557-.291-.1615-.5214-.1058C8.4538 8.4143 18.1948 1.3967 29.637.5Z" fill="#FDE6D5"/><path d="M64.3409 28.9714c.7519 7.9088-1.103 15.127-5.6086 21.5097-.7409-.4957-.4226-2.3949-.5214-3.3752.8781-.2339.9494-1.2141 1.3501-1.8435.0713-.117.3402-.0167.3622-.0501.0987-.1615.642-1.1919.675-1.32.0384-.1393-.258-.2395-.2086-.635.0494-.362.483-.6182.5214-.7407.3402-1.1251.7244-3.7985 1.1415-4.6395.2414-.4845.7134-.44.9329-1.1584.1537-.4957.1098-1.3534.2086-1.8993 0 .4957-.8891-.0445-.933-.1559.1976-.5235.4555-2.2668.5214-2.3726.0329-.0613 1.0646-.5124 1.2457-.5292.1592-.323-.7024-2.4116.3128-2.7959v.0056Z" fill="#7D73CD"/><path d="M38.3681.9229c1.1251.1893 2.2556.3063 3.3257.7407-.5213-.0167-1.7616.4679-2.1842.5291-.675.0947-1.3829.284-2.0799.3175-3.5287.167-5.4056-.0502-9.0386.7407-.1866.039-.4061.0557-.6256.1059l-.5214-1.6876c.6696-.1393 1.6519-.4456 2.283-.5291 2.9854-.3732 6.0038-.1504 8.9892.1058l-.1537-.3175.0055-.0055Z" fill="#F9C198"/><path d="M57.1692 12.0962c-.2524.078-.214.2729-.2085.4734.0658 2.5175.3622 4.6228.2085 7.2238-.4335-.1281-.6585-.5514-1.1415-.635.0604-1.9437.0824-3.9042.1043-5.8536-1.0043-1.0916-1.9317-2.3002-3.0129-3.3194.2086-.479.8068-.88.7299-1.3702 1.3116 1.192 2.1952 2.0998 3.3257 3.481h-.0055Z" fill="#9A367C"/><path d="M46.7805 3.6634c1.6134.2897 5.7348 3.7428 7.0629 4.957.0823.49-.5158.891-.7299 1.37-.0164-.0166-.0878.0168-.1042 0-2.4312-2.2834-5.2959-4.3999-8.21-6.0095 0-.0223-.203-.2005-.1042-.4233.5103.0947 1.136.245 1.6079.3175.0714.0111-.011-.245.2086-.2117.0878.0112-.0439.1727.2085.2117.0823.0111.0439-.2117.0494-.2117h.011Z" fill="#BB4A7C"/><path d="M64.3412 28.9717c-1.0153.3843-.1537 2.4729-.3128 2.7959-.1811.0112-1.2129.4679-1.2458.5291-.0659.1059-.3238 1.8491-.5214 2.3727-.0603-.1448.4062-2.5175.4171-3.0577 0-.3565-.0494-1.3089-.1042-1.6319-.011-.078-.3129-.2506-.3129-.6851 0-.1002.1537-.1503.1043-.3174.0165.0167.4006-.0279.4171.2617l-.2085-4.2161.9329-.3676c.3457 1.3979.697 2.8906.8287 4.322l.0055-.0056Z" fill="#715DB7"/><path d="M4.0791 18.9516c-1.2347 2.718-2.0799 5.564-2.4915 8.5382-.1975 1.4147-.3292 2.8906-.3128 4.322-.6915.0612-.3787-.9413-.7299-1.2643.225-4.2774 1.2074-7.8587 3.0129-11.7017.2305-.0557.3457.0501.5213.1058Z" fill="#F8A69C"/><path d="M46.781 3.6637s.0274.2228-.0494.2116c-.2525-.039-.1208-.195-.2086-.2116-.2195-.0334-.1372.2228-.2085.2116-.4775-.0668-1.1031-.2228-1.608-.3175-1.4927-.2784-3.3421-.7017-4.8293-1.0526-.0933-.0223-.4391-.1337-.3622-.3175.4225-.0612 1.6628-.5458 2.1841-.529 1.2952.0445 3.869 1.4257 5.0928 2.005h-.0109Z" fill="#E88582"/><path d="M6.7783 50.1638c-.044.0111-.7903.2952-.8287.3175-1.2128-1.8937-2.1019-3.9099-2.9086-6.0096l3.7428 5.6921h-.0055Z" fill="#79205D"/><path d="M1.2745 31.818c.011.7408-.033.7241.1042 1.4759l.1043 4.2719-.417.0501c-.4775-2.6177-.6586-4.3832-.5214-7.0622.3512.323.0384 1.3311.7299 1.2643Z" fill="#EB717E"/><path d="M58.212 47.1065c-.0713-.6851.1646-1.1139-.4171-1.6876 1.4269-2.4617 1.8494-5.3802 2.9086-7.9589 0-.0111-.1701-.117-.1043-.2618.0879-.1893.3019-.2952.3129-.3174.6475.7184 1.4049-1.5094 1.2457-2.0051.0384-.0891.0988-.2005.1043-.2116.0494.1114.9384.6572.9329.1559-.0988.5458-.0549 1.398-.2085 1.8992-.2195.7185-.6915.674-.933 1.1585-.4225.841-.8012 3.5144-1.1414 4.6395-.033.1169-.472.3787-.5214.7407-.0494.3955.247.4901.2085.635-.0329.1281-.5762 1.1584-.675 1.3199-.0219.0335-.2908-.0612-.3622.0502-.4006.6293-.4719 1.6096-1.35 1.8435Z" fill="#715DB7"/><path d="M57.5853 45.2071c-.6202 2.924-2.744 4.7564-4.5715 6.8561-2.6616 1.1808-.5488-1.9271 0-2.9017.3293-.3509.1537.1114.1043.2116-.0768.156-.7518 1.0861-.7299 1.1585.0604.1782.247-.0613.2579-.0501.1317.0891.1811.3174.2086.3174.5762.0167 4.9226-3.6369 3.9458-4.8511l-1.1415.3175-1.7122 1.5316c.686-.7686 2.5957-3.0243 3.6385-2.5843v-.0055Z" fill="#947EBD"/><path d="M5.018 32.1348c.0275.2116.4116.8465.4171.8967 0 .1169-.3183.7686-.3128.9468.0384 1.0192.878 1.9939 1.7671 2.3726.1646.0669.5708.0335.5214.3175-.236.6795-.4446 1.6542.2579 2.1109 1.575 1.0136 1.9153-1.5929.4665-2.2167.236-.3342.8945-.557 1.1415-.841l5.5043 2.5286c-2.239 2.9853.5214 6.8227 4.0501 6.6445 2.5409-.1281 3.3037-1.4147 3.0129-3.8987 1.2293.0111 3.2104.3898 4.3135-.2117.225-.1225.45-.323.3622-.6349.0274.0334.192.2061.2085.2116l-.3128 1.6319 1.1415 2.5843c-3.6165 2.2278-6.4757 3.4698-10.8551 3.481-2.025 0-4.8733-.3342-6.5965-1.3701.0659 0 .4336-.2729.5214-.3175.214-.117.5927.0167.7299-.4734.3732-1.3367-1.3885-2.7625-1.9757-1.7377-.8232-.1671-.8341 1.0192-.6256 1.5817-.2524.2061-.708-.2729-.8836-.4232-2.4091-2.0886-4.478-5.8648-5.5592-8.8557.247-.1281.3018-.0501.3128-.3676.033-1.2253-.0878-2.3837 0-3.6369l2.3872-.3175.0055-.0055Z" fill="#DC485C"/><path d="m53.0151 9.9903-2.7001 4.322c-.3402-.4233-.6091-.6349-1.0372-.9468-2.486-1.8213-5.5537-.9246-4.9885 2.5286.0384.5904.4281 1.1919.7299 1.6876.3348.5569.6695.9357 1.1415 1.3701.2469.2283.7848.8243 1.0372.9468l-3.4299 3.7985c-.033-.0056-.0714.0055-.1043 0-.8726-.195-1.6574-1.0527-2.8043-1.2643 1.2402-3.6203 2.8866-8.1316.6256-11.7017 1.0592-.3342 3.3037-1.0972 2.9086-2.5286.2415-.3676.0549-.997.1043-1.3701.1152-.8967.3018-1.955.3128-2.846 2.914 1.6095 5.7732 3.726 8.2099 6.0095l-.0055-.0056Z" fill="url(#c)"/><path d="M56.027 19.1634c-.0219.7853-.3073 1.6486-.3128 2.4227-.3018.078-.2908.1504-.6256.1059-.1317-.0167-.2195-.2117-.2579-.2117-1.7617.0334-1.9098 3.2694-.0494 3.1635.1536-.0111.3567.0223.5213 0-.5158 1.5094-1.4433 5.3301-2.1842 6.483-.2085.3231-.3018.039-.3128.0501l-.3622-.6349c-.0823.1393-.0164.1727-.1536.3175-.4226-1.3423-2.0964-.479-.933.841.1427.1615.3567.284.5214.4233.0164.0167.3567.0612.4171.1559-2.3873 5.3412-2.7275-.5347-6.0258-.8967 1.2293-1.526 2.6068-3.0131 3.6385-4.6896 1.2787-2.083 3.1281-8.0369 6.13-7.5412l-.011.0112Z" fill="#AF2457"/><path d="M3.2505 27.5961c-.3513 1.5929-.505 3.2247-.6257 4.8511-.0878 1.2587.033 2.4116 0 3.6369-.011.3175-.0658.2395-.3128.3676-.3018-.841-.7792-2.3114-.933-3.1635-.1371-.7519-.0932-.7352-.1042-1.476-.0164-1.4314.1153-2.9073.3128-4.322l1.6629.1059Z" fill="#E88582"/><path d="m43.2463 31.9238.5214.4233c-3.3806.078-6.0971 4.3554-4.5715 7.4855.4391.9023 1.3171 1.6765 2.283 1.8993.0165.5346-1.6025.3119-1.9208.2116-.3567-.1114-1.3006-1.0582-1.4049-1.3701-.2085-.6405-.0274-2.7068.1043-3.4253.5159-2.7792 2.486-4.5002 4.9885-5.2187v-.0056Z" fill="#A41F36"/><path d="M9.3794 44.154c-.5158.9022.2086 2.1888 1.2458 2.2166-.0823.0446-.45.3119-.5214.3175-.439.0223-1.2073-.5737-1.35-.9468-.214-.5625-.203-1.7489.6256-1.5818v-.0055Z" fill="#D97795"/><path d="M35.7669 51.3227c-.4555-.8132-1.6519-.6071-1.2458.4233-1.2238.245-6.8873 2.3503-7.6885 1.8435-.0823-.0557-.7354-1.6152-.8287-1.8435 7.7983-1.0137 15.9149-4.8121 21.5071-10.4374.0055.1448.4171.4066.4171.4734 0 .3175-3.7921 4.1326-4.3135 4.5893-1.0592.9302-2.5354 2.0162-3.7427 2.7403-1.3171.7909-2.9525 1.2921-4.105 2.2167v-.0056Z" fill="#7D1548"/><path d="M55.7138 21.5859c0 .3286.4391.8522.3128 1.7377-.0933.6628-.6146.9803-.7299 1.32-.1646.0223-.3622-.0111-.5213 0 .439-1.0582.6915-1.7878.3128-2.9518.3293.0445.3183-.0279.6256-.1059Z" fill="#AF2457"/><path d="M52.8059 31.1828c-.3238.3787-.5433.6238-.933.9468-.1646-.1392-.3787-.2618-.5213-.4233.4335-.2116.6256-.5291.9329-.841.1372-.1392.0768-.1782.1537-.3174l.3622.6349h.0055Z" fill="#9F4C6C"/><path d="M28.3901 61.866c-.6531 1.2643-2.4696.8187-3.4794.2117-.225-.1393-.9713-.6071-.3622-.7408 1.1854.323 2.6178.3676 3.8416.5291Z" fill="#3F3B7D"/><path d="m27.2488 1.6589.5214 1.6876c-3.0074.7129-5.2739 1.6597-8.0014 3.0577-.0658.0334-.2799-.0335-.4171.1058-.1097-.8076-1.6957-.6572-2.2829-.5291-.0165-.0724.0549-.4177.1536-.5291 1.1141-1.231 8.1935-3.4142 10.0264-3.7985v.0056ZM12.805 11.5727s-.1427.401-.1537.4232c-.0878.1281-2.036 1.5484-2.4421 1.8993-.0878.0724-1.2183.7797-1.1415.8967.6421.1392 1.4269.2506 1.4543 1.1083-.4884-.2785-.5982-.8688-1.5091-.841-.0988 0-1.7836.5848-1.8714.6349-.708.3899-1.3007 1.7934-1.9208 1.3702 1.8878-2.9463 4.4178-5.2243 7.1178-7.3797.1098.0167.5159 1.6764.4665 1.8992v-.0111Z" fill="#FCDABE"/><path d="M4.9136 19.375c-.8122.6684-1.0208 2.6177.2085 2.9519-.7848 1.6486-1.4708 3.4643-1.8714 5.2744l-1.6628-.1058c.417-2.9742 1.2567-5.8258 2.4915-8.5382.033.0112.0713-.0111.1043 0 .2634.1003.4994.2618.7299.4233v-.0056Z" fill="#F8A69C"/><path d="M18.4189 7.1447c.0329.4233-.0604.5068-.2086.841-.3347.7574-1.4323 1.4982-2.1842 1.7934.5982-.6517 0-.841 0-.8967-.0384-.4512.1592-1.0638-.1042-1.4258.7354-.401 1.7726-.8633 2.4915-.3175l.0055.0056Z" fill="#B35969"/><path d="M16.0258 9.7789c-.0604.0668-.3677.2951-.4171.3174-2.9415 1.1863-1.2293-1.7934.3128-2.6344.2634.3565.0659.9747.1043 1.4258 0 .0557.5981.245 0 .8967V9.779Z" fill="#C589B6"/><path d="M19.3519 6.5097c.0549.4122-.5213 1.3702-.9329 1.5818l-.2086-.1058c.1482-.3398.2415-.4233.2086-.841-.0549-.674-.5872-1.125-1.3007-.841-.0987-.039-.0329-.2284-.0493-.3175.5927-.1337 2.1732-.2785 2.2829.5291v-.0056Z" fill="#FDE6D5"/><path d="M44.6997 3.5576c-.0988.2228.1043.401.1043.4233-.011.8967-.1976 1.9494-.3128 2.846-.1098-.0222-.2635-.2339-.3129-.3174-.9878-1.7934-3.1775-3.6982-5.3507-3.3752-.4939.0724-.9603.635-1.1963.7408-.3732.1615-.9879.2896-1.0372.3174-.033-.724.2963-1.2698.8286-1.6875.697-.0334 1.3994-.2172 2.08-.3175-.0714.1782.2689.2952.3622.3175 1.4927.3564 3.3421.7741 4.8293 1.0526h.0055Z" fill="#E88582"/><path d="M35.766 51.3222c-.0768.0613-.1756.4623-.3622.5291-.2963.1003-.7463-.1336-.8835-.1058-.4061-1.0248.7902-1.2364 1.2457-.4233Z" fill="#AF2457"/><path d="M48.9644 47.3182c-.1043-1.1807-1.6903.2173-.7299.4233l-.5214.7909c.0714.3342.4116-.284.4665-.2618.1756.0613-1.8 3.0744-1.9208 3.2137-.4445.518-1.0811.7909-1.5585 1.2643h.8286c-.6969.5291-4.3683 4.0045-4.3629 4.322 0 .2784.4226.0612.3622.3676-.7134.3787-1.339 1.0192-2.1841 1.0526l.417.4233c-1.2786-.0947-1.0152.4734-1.7671 1.0526-.6366.4957-1.8988.7464-1.1963 1.5818-2.6946.4177-5.5154.6795-8.2099.2117.6805-2.5788-4.2696-4.5894-6.13-3.4253.0823.7351.214 1.8268.7299 2.3726-.247.1838-.5269.0724-.7793 0-2.4037-.6739-5.1751-2.0106-7.2715-3.3752-.7189-.4678-1.822-1.565-2.4915-1.8992-.2195-.1114-.2305-.1726-.4665 0 .0713-.284.1976-.6795.2085-.9468.0165-.3955-.1097-.88-.2085-1.2643-.0165-.0613.0165-.156 0-.2117-.1976-.6293-.9384-1.7042-1.4543-2.1108.9275.1838 6.805 1.565 7.2221 1.2643.1811-.1337-.1646-.5013.4665-.7408-.4391.3955-.1482 1.2532.3622 1.3701 1.2018.2785 1.7726-1.604-.1537-1.4759-.2305-.3453.8397-.2284.8836-.2116.3786.1392.5707.9245.6256.9468.3402.1782 5.1202-.2172 5.872-.3175.0988.2284.7464 1.7934.8287 1.8435.8013.5069 6.4648-1.5984 7.6886-1.8435.1372-.0278.5872.2061.8835.1058.1866-.0612.2854-.4622.3622-.5291 1.147-.9245 2.7879-1.4258 4.105-2.2167 1.2073-.724 2.6781-1.8101 3.7427-2.7402.5159-.4567 4.3135-4.2719 4.3135-4.5893 0-.0669-.4115-.3286-.417-.4734 3.2708-3.2917 6.13-7.7306 7.6885-12.125 1.0043.3564.6586 1.9883.7299 2.7959l.3128-.5291c.0494.8243.0275 1.7099.1043 2.5286.0219.2339.4171.6962.4171.841 0 .5124-1.9427 2.6177-2.4915 2.9519-.5269 4.0156-3.6275 6.1599-5.3014 9.5407l-.0054.0222Z" fill="#602D64"/><path d="M48.9639 47.3182c-.0439.2339-.5762.4512-.7299.4233-.9604-.2061.6202-1.604.7299-.4233Z" fill="#BB4A7C"/><path d="M18.3629 57.0147c1.0921-.3676 2.4257 1.2142 1.5586 1.7934-1.3555.9023-2.5574-1.4536-1.5586-1.7934Z" fill="#3F1549"/><path d="M29.587 56.8091c.6202-.2227.911.6628.5214.841-.6201.2897-1.0702-.646-.5214-.841Z" fill="#79618F"/><path d="M62.6792 31.6064c-.0055.5403-.4775 2.9129-.4171 3.0577 0 .0112-.0658.1226-.1043.2117-.3731.8688-.8725 1.32-1.2457 2.005-.011.0223-.225.1281-.3128.3175-1.2403.44-.7519-.5068-.933-1.0025-.0439-.117-.2634.039-.3128-.156v-1.1584c.0768-1.1028.3073-1.6486.7299-2.6345.0933-.2116.2085-.4232.3128-.6349-.0878.5625-1.0646 3.9488-.4665 3.8987.5269-.6238 1.2348-1.0638 1.7123-1.7377.4774-.6739.6476-1.4871 1.0372-2.161v-.0056Z" fill="#947EBD"/><path d="M62.3654 28.9719c.0549.1671-.1043.2116-.1043.3174-.9659.3565-1.4214 1.4314-1.8714 2.317-.1042.2061-.2195.4177-.3128.6349-.2744-.5736 1.1964-3.7929 1.4543-3.9544.6531-.3954.6421.4567.8287.6851h.0055Z" fill="#783E8B"/><path d="M59.3532 36.0344c-.1262-.5235-.0329-.6683 0-1.1584v1.1584Z" fill="#E5A9C6"/><path d="M62.2615 29.2842c0 .4344.3018.6071.3128.685.0549.3231.1097 1.281.1043 1.6319-.3897.6739-.5818 1.5094-1.0373 2.161-.4555.6517-1.1854 1.1139-1.7122 1.7377-.5982.0502.3787-3.3417.4665-3.8987.4445-.8855.9055-1.9605 1.8714-2.3169h-.0055Z" fill="#62317C"/><path d="M60.9121 36.8752c.3732-.6851.8726-1.1362 1.2458-2.0051.1591.4957-.5982 2.7235-1.2458 2.0051Z" fill="#614496"/><path d="M10.6258 46.3659c-1.0427-.0223-1.7616-1.3144-1.2457-2.2167.5872-1.0192 2.3488.4066 1.9756 1.7377-.1372.4901-.5158.362-.7299.4734v.0056Z" fill="#5F0D35"/><path d="M39.1954 28.8656c-.3018.3843 1.4489.4233 1.6629.4233-2.5135 6.6779-7.3593 11.6349-13.2972 15.2885l-1.1415-2.5843.3128-1.6319c.5104.2117 1.6134.1838 1.4543-.5792-.2854.4289-2.4696-.5458-1.6628.3676.0823.3063-.1372.5124-.3622.6349-1.1031.6015-3.0842.2228-4.3135.2117-.1372-1.1864-.461-2.0608-1.2458-2.9519-.0165-.0223.0165-.0891 0-.1058 2.3543-2.0552 5.1038-2.9129 8.0014-3.8987 1.1854 1.1751 2.8647 1.3979 4.1543.3174.7903-.6627 1.2952-1.9048 1.2458-2.9518 1.0866-.3509 2.2555-1.2643 3.0128-2.1109.2854-.3119.4885-.6015.7299-.9468.247.1726 1.1251.4789 1.4543.5291l-.0055-.0112Z" fill="#E75642"/><path d="M26.7265 40.3556s-.1811-.1782-.2086-.2116c-.8067-.9134 1.372.0557 1.6629-.3676.1591.763-.9439.7909-1.4543.5792Z" fill="#EA7050"/><path d="M26.8861 37.2977c.7519-.1225 1.6409.6739 1.7123 1.4258-.1592.5069-2.1787.5681-2.4421.4734-.4446-.1559.0109-1.7822.7298-1.8992Z" fill="#B42714"/><path d="M37.6378 3.8747c.439-.0278-.0988.2618.0494.3175.2799.1002 1.2018-.3286 1.7671-.3175.0933 0 1.2293.206 1.0921.5291-.6476-.2506-.7409-.2116-1.35-.2116-1.3995 0-1.6903.4233-.933 1.6876.3128.518.6915.8855 1.1415 1.2642 1.2183 1.0304 2.6397 1.6765 4.2586 1.476.0933-.0167.6805-.3509.7299-.4233.3951 1.4314-1.8494 2.1944-2.9086 2.5286-.9494-1.4982-6.0531-4.3777-6.0257-5.642.011-.4344.7793-.7185 1.1415-.8967.0494-.0278.664-.156 1.0372-.3175v.0056Z" fill="#EA7050"/><path d="M55.0944 21.6921c.3787 1.1641.1263 1.8937-.3128 2.9519-1.8549.1058-1.7067-3.1301.0494-3.1635.0384 0 .1262.1949.258.2116h.0054Z" fill="#7D1B21"/><path d="M52.2839 30.8652c-.3128.3175-.4994.6294-.9329.841-1.1635-1.3255.5158-2.1888.9329-.841Z" fill="#5F0D35"/><path d="M50.3145 14.3133c1.1634 1.437 1.6299 3.0187 1.5586 4.9013-1.0208.5291-1.8824 1.2475-3.2708 1.1083-.1153-.0111-1.2842-.362-1.4049-.4233-.2525-.1225-.7903-.724-1.0372-.9468.1372-.0279.2085.0501.3128.1058.7792.3899 1.3061.518 2.1842.3175 1.2347-.2841 1.5915-1.2476 1.4543-2.4228-.0549-.4623-.2086-.9468-.4171-1.3701-.236-.4734-.5324-.8243-.933-1.1585-.4719-.8911.6202-.4957.5214-1.0526.4335.3174.6969.5291 1.0372.9468l-.0055-.0056Z" fill="#FB94A1"/><path d="M48.2351 14.1016c.1811.1058.3292.1559.5213.3174.4006.3398.7025.6851.933 1.1585l-3.2214 3.481c-.1043-.0557-.1756-.1337-.3128-.1058-.472-.4345-.8068-.8132-1.1415-1.3702.8561-1.3923 1.5146-3.0465 3.2214-3.4809Z" fill="#9A367C"/><path d="M48.2344 14.1017c-1.7067.4288-2.3652 2.083-3.2214 3.481-.2963-.4957-.6914-1.0972-.7298-1.6876-.1592-2.484 2.1622-2.8405 3.9458-1.7934h.0054Z" fill="#5F0D35"/><path d="M49.2714 13.3661c.1043.5569-.9933.1615-.5213 1.0526-.1921-.1615-.3348-.2116-.5214-.3174-1.789-1.0471-4.1104-.6907-3.9458 1.7934-.5652-3.4587 2.5025-4.3499 4.9885-2.5286Z" fill="#E88582"/><path d="M50.1049 16.9473c-.4226.4121-.4335 1.0526-.7299 1.5316-.1975.3175-.8122.479-.7299.8967-.878.2005-1.3994.0724-2.1842-.3175l3.2214-3.481c.2086.4233.3622.9079.4171 1.3702h.0055Z" fill="#9F4C6C"/><path d="M48.6511 19.3756c-.0878-.4177.5268-.5792.7299-.8967.2963-.4734.3073-1.1195.7299-1.5316.1372 1.1751-.2195 2.1443-1.4543 2.4227l-.0055.0056Z" fill="#943361"/><path d="M48.1316 35.3993c.4226 3.3807-3.2544 7.1068-6.6514 6.327-.9713-.2227-1.8439-.9969-2.2829-1.8992l.6256-.5291c1.4872 1.8157 4.5659.2506 5.7129-1.2643.3293-.4344.4281-.5012.6256-1.0526.2799-.7909.4006-1.1418.2086-2.0051-.033-.1448-.0933-.2729-.1043-.4233.428.8299.5104 1.2532.4665 2.2167l1.4049-1.3701h-.0055Z" fill="#E5A9C6"/><path d="M43.7679 32.3415c1.9647-.0446 4.083.8243 4.3629 3.0577l-1.4049 1.3701c.0384-.958-.0439-1.3868-.4665-2.2167-1.5092-2.924-5.005-1.8435-6.3385.6349-.4939.919-.7793 1.8937-.6257 2.9519.0275.1671.4116 1.0248.5214 1.1585l-.6256.5291c-1.5257-3.1301 1.1909-7.4076 4.5714-7.4855h.0055Z" fill="#D6607F"/><path d="M44.5962 36.5635c-.8067.0112.9604 1.1752.933 1.476-1.147 1.5149-4.2257 3.0855-5.7129 1.2643-.1098-.1337-.4939-.9914-.5214-1.1585.1976-.1448 1.2458-.1727 1.3007-.2116.1207-.0892.0109-.4456.0493-.4735.5214-.3397 2.0251-.3174 2.755-.4734.3402-.0724.1481-.4288 1.1963-.4233Z" fill="#79205D"/><path d="M46.3641 34.9812c.192.8577.0713 1.2142-.2086 2.005-.1317-.401-1.1634-.4177-1.5585-.4232-1.0482-.0112-.8507.3508-1.1964.4232-.7299.156-2.2336.1337-2.7549.4735-.0384.0278.0658.3898-.0494.4734-.0549.039-1.0976.0668-1.3007.2116-.1591-1.0582.1318-2.0329.6257-2.9519.3896.0446.4445-.6516.7792-.6349.1921.0112 1.8165 1.1975 2.283 1.1585.1372-.0112 1.372-.8187 1.5586-.841.4884-.0613 1.0372.4567 1.8165.1058h.0055Z" fill="#5F0D35"/><path d="M46.2588 34.5581c.011.1504.0714.2729.1043.4233-.7793.3509-1.3281-.1671-1.8165-.1058-.1866.0222-1.4214.8298-1.5586.841-.4719.039-2.0909-1.1474-2.2829-1.1585-.3348-.0167-.3897.6739-.7793.6349 1.3335-2.4784 4.8293-3.5589 6.3385-.6349h-.0055Z" fill="#3F0524"/><path d="M44.596 36.5635c.3951 0 1.4268.0223 1.5585.4233-.192.5569-.2963.6182-.6256 1.0526.0275-.3007-1.7451-1.4648-.9329-1.4759Z" fill="#79205D"/><path d="M57.1685 19.7989c-.1976 3.2526-.889 6.327-1.9756 9.3847-1.5586 4.3944-4.4178 8.8334-7.6886 12.125-5.5922 5.6253-13.7088 9.4237-21.5071 10.4374-.7519.1002-5.5318.4957-5.8721.3174-.0494-.0278-.2414-.8075-.6256-.9468-.0439-.0167-1.114-.1337-.8836.2117-.0768 0-.1097.0668-.2085.1058-.6311.2395-.2854.6071-.4665.7407-.4116.2952-6.2946-1.086-7.2221-1.2643-1.0646-.8298-2.6616-1.0582-3.9458-.7407l-3.7427-5.6921c-.45-1.1808-.8013-2.2613-1.1415-3.481-.011-.4846.6805.4177.7299.4734 2.8043 3.6147 2.958 5.4359 7.7379 7.3296 10.6466 4.2161 18.6754-.4066 26.6987-7.0623.3512-.2951.9165-.7296 1.0921-1.1584.1043.3119 1.0427 1.2587 1.4049 1.3701.3183.1002 1.9373.323 1.9208-.2117 3.397.7798 7.0739-2.9463 6.6513-6.327-.2798-2.2334-2.3982-3.1022-4.3629-3.0577l-.5213-.4233c1.2183-.3509 1.5256-.6906 3.0129-.5291 3.2982.362 3.6384 6.2379 6.0257.8967-.0604-.0947-.3952-.1448-.4171-.1559.3896-.3231.6092-.5737.9329-.9469.011-.0111.1043.2729.3129-.0501.7408-1.1529 1.6628-4.9736 2.1841-6.483.1153-.3341.6312-.6572.7299-1.32.1263-.8911-.3128-1.4146-.3128-1.7377.0055-.7741.2854-1.643.3128-2.4227.483.0779.7135.5068 1.1415.6349l.0055-.0167Z" fill="url(#d)"/><path d="M33.428 46.1541c1.9811-.4622 2.2994 2.278.4171 2.2167-1.4269-.0501-1.5641-1.9438-.4171-2.2167Z" fill="#C07C9C"/><path d="M33.7402 46.2602c.8945-.0501 1.0043 1.2365.2085 1.4759-.5872.1783-1.4543-.2784-.9878-1.0025.0329-.0557.7079-.4678.7793-.4734Z" fill="#5F0D35"/><path d="M18.4198 51.4285c.0988-.039.1262-.1003.2086-.1058 1.9262-.1281 1.361 1.7544.1536 1.4759-.5103-.117-.8012-.9747-.3622-1.3701Z" fill="#AE82B4"/><path d="M18.7822 51.5344c.3951-.1058 1.0372.2562.7793.5792-.2744.3398-1.8165-.2952-.7793-.5792Z" fill="#60174D"/><path d="M28.5987 61.7597s-.203.0947-.2085.1058c-1.2238-.1615-2.6616-.2005-3.8415-.5291-.5049-.1393-.9714-.2284-1.3501-.6349-.5103-.5459-.6475-1.6375-.7299-2.3727 1.8605-1.1585 6.8105.8522 6.13 3.4253v.0056Z" fill="#938BAB"/><path d="M24.2856 58.3904c.8067-.167 1.8439.1783 2.4915.635.686.479 1.5091 1.3144.2085 1.5817-1.8.3676-4.8733-1.7599-2.7-2.2167Z" fill="#0B0928"/><path d="M22.4685 17.8991c.3896.4846.7903.9858 1.35 1.2643l-.3622 1.0527c-.2579-.1894-.5927-.156-.8835-.2117-3.194-.6071-4.5276-3.0298-1.2458-4.8511-.0219 1.036.5268 1.9772 1.1415 2.7403v.0055Z" fill="#F9C198"/><path d="M10.2097 13.8896c.7738.7185.7683 1.1028.7299 2.1109-.2141.0501-.269-.0223-.4171-.1058-.0275-.8577-.8122-.9635-1.4543-1.1084-.0768-.1169 1.0591-.8242 1.1415-.8967Z" fill="#ECB9A0"/><path d="M28.3902 3.2403c-1.3061 1.671-.7573 3.1469-.9329 5.007-.0714.7576-.3238 1.5651-.4171 2.317-.0439.3676.2469.1783.2085.4734-2.6616-.4065-5.8611.9747-5.9214 4.1104-3.2818 1.8157-1.9483 4.2384 1.2457 4.8511-.3622 1.8547-.8177 3.3919-2.9086 3.6369.6311-.8243 1.3994-1.6263 1.608-2.6901-.1482.8689-3.3916 3.1468-3.2708 3.637.0329.1281.5158.2283.4171.4232-.2744-.0501-.5543-.0779-.8287-.0501l.3622-.2116c-1.9208-.8912-3.9513.0223-4.8294 1.8992-.0329-.0111-.0713.0111-.1042 0-2.283-.8744-3.677-3.2805-5.0928-5.1686.0384-.0222.2963-.323.417-.4233 1.5531-1.242 2.5135-3.0632 2.5958-5.0627.0439-1.0081.0439-1.3924-.7298-2.1109.4006-.3453 2.3543-1.7711 2.4421-1.8992.0109-.0167.1481-.401.1536-.4233.4281.5458 1.1744-.6628 1.3007-.7407.3073-.1894 1.2677-.2897 1.5091-.7408.0494-.0167.3513-.2506.4171-.3174.7519-.2952 1.844-1.036 2.1842-1.7935l.2086.1059-2.2336 2.2167c1.4488-.7464 3.5726-2.0942 3.5836-3.8987 2.7275-1.4036 4.994-2.3448 8.0014-3.0577.214-.0502.439-.0669.6256-.1059l-.011.0167Z" fill="#F9C198"/><path d="M18.0016 21.1692c-.6476.2172-1.619-.3175-1.7671-.9468-.2744-1.2031.9384-2.8294 2.2335-2.0051.8671.557.4994 2.6289-.4664 2.9519Z" fill="#EA7050"/><path d="M16.8052 13.5771c.2141-.0167.7848.1949.933.3175 1.7397 1.3645-2.2062 3.5032-1.4543.4233l-.4665.7908c-.1975-.5959.3677-1.4703.9878-1.5316Z" fill="#F8A69C"/><path d="M19.7692 6.404c-.0165 1.8046-2.1348 3.1524-3.5837 3.8987l2.2336-2.2167c.4171-.2116.9933-1.1696.933-1.5817.1372-.1393.3512-.0724.4171-.1059v.0056Z" fill="#ECB9A0"/><path d="M16.2336 20.2166c.1427.6294 1.1196 1.1641 1.7671.9468-.0713.5849-1.0152.4623-1.4049.3175-.5433-.2005-1.4817-1.7098-.3622-1.2643Z" fill="#FDE6D5"/><path d="M10.5218 15.8941c.1481.0835.203.1559.417.1058-.0823 1.9995-1.0481 3.8207-2.5957 5.0627l-.2086-.5291c.5323-.4233.5763-.646.933-1.1584.3731-.5347.6366-.7909.8286-1.476.3897-1.3979.4116-2.3392-1.35-1.6876-.439.1616-.439.2897-.7299.5291-.1756.1449-.2689.2507-.417.4233-.8123.9469-2.1843 3.4476-.3129 3.8987-.0384.0112-.011.401-.675.1059-.5158-.2284-.3347-.6517-.3622-.6851-.0878-.1114-.1591.1114-.2085.0501-.3074-.3564-.1537-.6126-.933-1.1584-.2305-.1616-.4665-.3231-.7299-.4233.269-.6684.6531-1.2977 1.0373-1.8993.62.4233 1.2183-.9802 1.9207-1.3701.0878-.0501 1.7726-.6293 1.8714-.6349.9055-.0223 1.0207.5625 1.5092.841l.0055.0056Z" fill="#F8A69C"/><path d="M7.0922 21.063c.472-.1504.5598-.2507.933-.5291.022-.0167.0823.0167.1042 0l.2086.5291c-.1207.0947-.3787.3954-.4171.4233-.0549.0389-1.0811.4622-1.2457.5291-1.0153-.234-1.6574-.3732-.8287-1.476.0494.0557.1207-.1615.2085-.0501.0274.0334-.1536.4567.3622.6851.664.2951.6366-.0947.675-.1059v-.0055Z" fill="#F8A69C"/><path d="M5.8458 20.5335c-.8287 1.1027-.181 1.242.8287 1.4759-.6311.2506-.8012.5235-1.5586.3175-1.2293-.3342-1.0207-2.2836-.2085-2.9519.7793.5514.6311.802.933 1.1585h.0054Z" fill="#FECFC8"/><path d="M8.031 20.5337c-.3732.2729-.461.3787-.933.5291-1.8714-.4567-.4994-2.9575.3128-3.8987.8177.6349.8452 2.4116.6256 3.3751l-.0054-.0055Z" fill="#C46D9D"/><path d="M8.5467 16.2119c.7408.3843 1.4543.7185 1.35 1.6876-.192.6851-.4555.9413-.8287 1.4759-.472-.3731-.1427-1.3367-.3128-1.7377-.0274-.0612-.8616-.6182-.933-.8967.2854-.2395.291-.3676.73-.5291h-.0055Z" fill="#AF2457"/><path d="M9.0671 19.3753c-.3567.5124-.4006.7352-.933 1.1585-.0219.0167-.0822-.0167-.1042 0 .2195-.9635.1976-2.7402-.6256-3.3752.1482-.1726.236-.2729.417-.4232.0714.2784.911.8354.933.8967.1701.401-.1646 1.3645.3128 1.7377v.0055Z" fill="#BB4A7C"/><path d="M9.8969 17.8995c.1043-.9636-.6092-1.3033-1.35-1.6876 1.7671-.6517 1.7451.2896 1.35 1.6876Z" fill="#7E1F32"/><path d="M26.0033 19.6926c1.9098.039 3.7043-.841 4.6757-2.5285.1591 1.125.6311 1.7822-.3128 2.9017-1.0592 1.2532-2.5025.6851-3.7922.156-.1811-.0724-.6695-.2395-.5707-.5292Z" fill="#F6986D"/><path d="M37.4293 2.5049c-.5323.4121-.8616.9635-.8287 1.6876-.3676.1782-1.136.4622-1.1414.8967-.0275 1.2643 5.0763 4.1437 6.0257 5.6419 2.261 3.5757.6146 8.0871-.6256 11.7017-1.4214-.2617-2.9196-.1225-4.105.7408-.9274.6739-1.1305 2.083-2.6507 1.1083-.1262.2284.8068 1.3813.933 1.6876.5543 1.3144.439 2.5342 1.9756 3.3195-.7573.8465-1.9262 1.7544-3.0128 2.1108-.0714-1.5761-1.4543-3.0187-2.9635-3.2693-1.1579-.1894-2.4641.6405-3.0622 1.6319-.5982.9914-.3183 3.0465.5213 4.0602.022.0223.0878.1949.1043.2117-2.8922.9858-5.6471 1.8491-8.0014 3.8987-1.5476-1.5874-4.4672-1.4871-5.8172.3174l-5.5043-2.5286c1.317-1.5205 1.575-5.4025-.2086-6.6445-.9055-.6349-1.9372-.6238-2.8592 0-1.0866.7352-1.3445 1.8324-1.1964 3.0577l-2.3872.3175c.1153-1.6263.269-3.2582.6256-4.8511.4006-1.8045 1.0866-3.6258 1.8714-5.2744.7573.2061.9275-.0668 1.5586-.3175.1646-.0668 1.1908-.4901 1.2457-.5291 1.4104 1.8881 2.8043 4.2886 5.0928 5.1686-.8671 1.5316-.7134 3.3863 1.0372 4.1103.9165 1.8436 2.936 2.3727 4.6208 1.1585.7903-.5681 1.8934-2.484 1.1964-3.2693-.0329-.9636-.1537-1.0415-.6256-1.7934-.3019-.4846-.1921-.7352-.933-.9469.1427-.5402-1.3719-.4232-1.35-.9468.1976-.0278.4226.0167.6256 0 .2799-.0223.5598 0 .8287.0501.1043-.1949-.3842-.2951-.4171-.4232-.1152-.4902 3.1281-2.7681 3.2708-3.637-.2085 1.0638-.9768 1.8658-1.6079 2.6901 2.0909-.245 2.5463-1.7822 2.9086-3.6369.2908.0557.6256.0223.8835.2116l.3622-1.0526c.5433.2673 1.4708.4957 2.0799.5291h.1043c-.0988.2896.3896.4511.5707.5291 1.2897.5235 2.733 1.0972 3.7922-.1559.9439-1.1195.4665-1.7712.3128-2.9018v-.1058c1.4488-2.8349-.5433-5.5696-3.4299-6.0096.0384-.2952-.2525-.1058-.2086-.4734.0933-.7575.3457-1.5595.4171-2.317.1756-1.8602-.3732-3.3361.9329-5.007 3.633-.7909 5.5099-.5737 9.0386-.7407v-.0056Z" fill="#F6986D"/><path d="M36.0297 10.308c.9988-.0724 1.789.4846 1.8165 1.5317l-1.4049-1.32c-.2141.4344.5652.44.5707.685.0055.2897-2.4037 1.9438-2.6506 2.3727-1.0592-.1114-1.0702-1.4091-.5708-2.161.2744-.4066 1.7891-1.075 2.2336-1.1084h.0055ZM24.5981 25.7019c1.2129-.0724 1.1964.8187.9879 1.8435-.708.5458-1.4598-.1782-2.2336.0501-.2415-.9245.2689-1.8435 1.2457-1.8992v.0056Z" fill="#EA7050"/><path d="M36.5461 18.9521c1.6244-.3175 2.2116 1.5706 1.5586 1.3701-.0933-.0278-.8122-1.2197-1.5586-1.0526-.1482.3564.5378.2617.5707.4734.0165.1114-1.361 1.4815-1.5091 1.7377-1.1415-.6795.0713-2.3615.9329-2.5286h.0055Z" fill="#E75642"/><path d="M40.8579 29.2841c-.2141 0-1.9647-.0334-1.6629-.4232 1.5531.2394 2.3489-.674 2.8044-2.0552.0823-.2451-.0769-.8522 0-1.1084.1372-.4344 1.4049-1.4982 1.6628-2.005.0329.0056.0713-.0056.1043 0 .5981.1448 1.2786-.4567 1.6628.7909.9275 3.0075-1.9866 4.8009-4.5714 4.7954v.0055Z" fill="#D83A36"/><path d="M40.8582 22.4333c1.1469.2117 1.9317 1.0694 2.8043 1.2643-.2579.5069-1.5257 1.5707-1.6629 2.0051-.6859-3.3975-6.0915-3.2304-5.5043.685.0713.4735.8506 1.6709 1.2457 1.9494-.2359.3453-.4445.6349-.7299.9468-1.5311-.7853-1.4158-2.005-1.9756-3.3194-.1317-.3064-1.0647-1.4593-.933-1.6876 1.5202.9746 1.7232-.4345 2.6507-1.1084 1.1854-.8633 2.6836-.9969 4.105-.7407v.0055Z" fill="#EA7050"/><path d="M41.9993 25.7031c-.0768.2506.0823.8632 0 1.1083-.4555 1.3813-1.2512 2.2947-2.8043 2.0552-.3293-.0502-1.2074-.3509-1.4543-.5291-.3952-.2785-1.1744-1.476-1.2458-1.9494-.5817-3.9154 4.8184-4.0825 5.5044-.685Z" fill="#F8A69C"/><path d="M40.6501 25.3855c.2909.841.1317 2.1554-.7793 2.6344-1.4158.7463-3.0567-.4456-3.0622-2.0051l3.8415-.6349v.0056Z" fill="#CA3646"/><path d="m40.6502 25.3853-3.8416.6349c-.011-2.7346 3.1226-2.7179 3.8416-.6349Z" fill="#A41F36"/><path d="M32.7528 34.3462c-1.2897 1.0805-2.969.8577-4.1544-.3175-.0165-.0167-.0823-.1838-.1043-.2116.2086-.6739 1.136.2562 1.4049.3175 1.2129.2784 1.5257.0612 2.5958 0 .236-.0112.1153-.0724.258.2116Z" fill="#F8A69C"/><path d="M33.999 31.3941c.0494 1.0471-.4555 2.2891-1.2457 2.9519-.1427-.2841-.022-.2228-.258-.2117-1.0701.0613-1.3829.2785-2.5957 0-.2689-.0612-1.1964-.9858-1.4049-.3174-.8397-1.0137-1.136-3.0466-.5214-4.0603.6146-1.0136 1.9043-1.8268 3.0623-1.6318 1.5091.245 2.8921 1.6875 2.9634 3.2693Z" fill="#F8A69C"/><path d="m28.2852 30.7589 4.9885-.3175c1.4213 4.361-5.219 4.2997-4.9885.3175Z" fill="#A41F36"/><path d="m33.2737 30.4477-4.9885.3175c.1536-2.562 4.1214-2.9797 4.9885-.3175Z" fill="#7D1B21"/><path d="M14.1557 26.6497c-.5652 1.3924-.8012 2.7124-.1042 4.1103-1.7562-.724-1.9043-2.5787-1.0372-4.1103.0329.0111.0713-.0111.1042 0 .5543.1949.4994.323 1.0372 0Z" fill="#F1816C"/><path d="M17.5863 24.962c-.2031.0167-.4281-.0279-.6256 0-.3677.0501-.7738.2506-.933.3174-1.2183.4734-1.1579.9413-1.8713 1.3701-.5379.3231-.483.195-1.0373 0 .8781-1.8713 2.9086-2.7903 4.8294-1.8992l-.3622.2117Z" fill="#F3967C"/><path d="M16.0267 26.2264c-.3841.2451-.878.8355-1.0372 1.2643-.0274.0669-.0933.2562-.1043.3175-.3841 1.8547 1.0921 3.7093 3.0129 3.481 1.0427-.1225 1.811-.8243 1.9757-1.8992.0329-.2005.0054-.518 0-.7408.6969.7853-.4007 2.7013-1.1964 3.2694-1.6903 1.2141-3.7098.685-4.6208-1.1585-.697-1.398-.461-2.718.1042-4.1104.7135-.4288.6531-.8967 1.8714-1.3701l.2086-.0501-.2086 1.0025-.0055-.0056Z" fill="#F7B7C1"/><path d="M19.2483 26.8617c.4664.7519.5872.8243.6256 1.7934.0055.2172.0329.5402 0 .7407-.2415.0112-1.0537-.3731-1.1964-.3174-.1097.0445-1.2951 1.8658-.7793 2.2167-1.9207.2283-3.397-1.6264-3.0128-3.481.9384-.2729 2.7714 1.5539 3.3256.0501.022-.0557-.3183-.8187.2086-1.1083.2744.0334.5598.0389.8287.1058Z" fill="#9F4C6C"/><path d="M18.3159 25.9139c.7409.2172.6311.4623.933.9468-.2744-.0668-.5543-.0724-.8287-.1058-.5433-.0668-2.2281-.2395-2.6507-.1058-.3512.1114-.3896.9468-.7793.841.1647-.4289.6531-1.0193 1.0372-1.2643.7409-.4734 1.4104-.5681 2.283-.3175l.0055.0056Z" fill="#7E1F32"/><path d="M18.3162 25.9143c-.8726-.2506-1.5421-.1559-2.283.3175l.2085-1.0025-.2085.0501c.1646-.0613.5707-.2618.9329-.3175-.0219.5236 1.4928.4066 1.3501.9468v.0056Z" fill="#E88582"/><path d="M18.419 26.7551c-.5269.2896-.1866 1.0471-.2086 1.1084-.5542 1.5038-2.3872-.3286-3.3256-.0502.0109-.0612.0768-.2506.1042-.3174.3897.1058.4281-.7296.7793-.841.4226-.1337 2.1074.039 2.6507.1058v-.0056Z" fill="#AF2457"/><path d="M19.8746 29.3894c-.1646 1.0749-.9329 1.7767-1.9756 1.8992-.5159-.3509.6695-2.1721.7792-2.2167.1427-.0557.9494.3286 1.1964.3175Z" fill="#C46D9D"/><path d="M27.2483 11.0433c-.0439.3509-.1866 1.0917-.5708 1.1585l.258.3175c-2.4202-.3064-4.5934 1.1139-4.2587 3.7984.0165.117.0714.4344.1043.5291-.461.2005-.4335.6294-.3128 1.0527-.6147-.7686-1.1634-1.7043-1.1415-2.7403.0604-3.1356 3.2598-4.5169 5.9215-4.1103v-.0056Z" fill="#FDF2EA"/><path d="M30.6781 17.0525c-.1372-.8688-.1647-1.3979-.5214-2.2167-.1043-.2394-.3457-1.0582-.7299-.841-.1921-.2673-.3238-.3843-.6256-.5291-.3458-.4901-1.3006-.8744-1.8714-.9468l-.2579-.3175c.3896-.0668.5268-.8075.5707-1.1584 2.8812.44 4.8788 3.1746 3.43 6.0095h.0055Z" fill="#FDE6D5"/><path d="M30.1563 14.8421c.225 3.2749-.9384 4.0992-3.8964 4.5337-.2689.0389-.4116-.117-.3622.3174-.6092-.0334-1.5366-.2562-2.0799-.5291-.5433-.2729-.9604-.7797-1.3501-1.2643-.1207-.4288-.1536-.8521.3128-1.0526.3622 1.1473 2.0525 2.2445 3.2214 2.3169 1.6409.1003 3.4245-.8187 3.8416-2.5286.1591-.6516-.1098-.5402-.1043-.5792.011-.0891.2086.0334.2086-.2117 0-.0779-.2031-.0222-.2086-.1058 0-.0278.2854 0 .2086-.5291-.033-.2395-.3732-1.0081-.5214-1.2142.3787-.2116.6256.6071.7299.8411v.0055Z" fill="#FECFC8"/><path d="M30.6783 17.0526v.1059c-.9713 1.6931-2.7659 2.5731-4.6757 2.5285h-.1043c-.0493-.4344.0933-.2784.3622-.3174 2.958-.4345 4.1215-1.2588 3.8965-4.5337.3512.8132.3841 1.3479.5213 2.2167Z" fill="#FECFC8"/><path d="M28.8061 13.4714c.3019.1393.4336.2618.6257.5291.1481.2061.4829.9747.5213 1.2142.0769.5236-.2085.5013-.2085.5291 0 .078.2085.0279.2085.1058 0 .2451-.1975.1226-.2085.2117 0 .039.2634-.0724.1043.5792-1.8165.1058-3.7044.2896-3.8416 2.5286-1.1689-.0724-2.8592-1.1752-3.2214-2.3169-.0329-.0947-.0878-.4066-.1043-.5291 1.8495-1.1529 3.1775-2.2557 5.3508-2.7403.2853-.0612 0-.4734.7792-.1058l-.0055-.0056Z" fill="#B35969"/><path d="M26.9354 12.5192c.5708.0724 1.5257.4623 1.8714.9468-.7793-.3676-.4939.0446-.7793.1058-2.1732.4846-3.5013 1.5874-5.3507 2.7403-.3348-2.679 1.8384-4.1048 4.2586-3.7985v.0056Z" fill="#A41F36"/><path d="M29.8435 16.6348c-.4171 1.7098-2.2061 2.6344-3.8415 2.5286.1372-2.2446 2.025-2.4284 3.8415-2.5286Z" fill="#D6607F"/><path d="M44.4959 6.8275c-.0494.3788.1372 1.0025-.1042 1.3701-.0494.0724-.6311.4066-.7299.4233-.0823.0112-1.0208-.1838-1.2458-.156l1.7671-1.9493c.0494.0836.2031.2896.3128.3175v-.0056Z" fill="#F8A69C"/><path d="M44.1838 6.5097 42.4167 8.459c.225-.0278 1.1634.1727 1.2457.156-1.6189.2005-3.0403-.4456-4.2586-1.476.3073.1504.6202.2841.933.4233 2.9909 1.3256 3.2598-1.0749 1.0372-2.6344-.2909-.206-.4665-.3843-.8287-.529.1427-.3231-.9988-.5236-1.0921-.5292-.5652-.0111-1.4872.4177-1.7671.3175-.1482-.0557.3897-.3453-.0494-.3175.236-.1002.697-.6628 1.1964-.7407 2.1732-.3287 4.3629 1.5817 5.3507 3.3751v.0056Z" fill="#F8A69C"/><path d="M40.5463 4.3984c.3677.1448.5378.323.8286.5291-.7792-.0167-.4829 1.2699-.6256 1.7377-.0494.1727-.7408.5124-.4171.8967-.3128-.1392-.6256-.2729-.9329-.4233-.45-.3787-.8342-.7463-1.1415-1.2643l.933-1.6875c.6091 0 .7024-.039 1.35.2116h.0055Z" fill="#8E2B48"/><path d="M39.1955 4.1924 38.2626 5.88c-.7519-1.2588-.4665-1.682.9329-1.6876Z" fill="#621019"/><path d="M41.3791 4.928c2.2171 1.5595 1.9536 3.96-1.0373 2.6344-.3237-.3843.3677-.724.4171-.8967.1372-.4734-.1536-1.76.6256-1.7377h-.0054Z" fill="#BB4A7C"/><path d="M20.5967 37.9335s-.0165.0835 0 .1058l-.5214.5291c-2.6122-1.9215-5.5812.1058-4.7799 3.481.2689 1.1362.8341 2.0329 1.9756 2.4228.5543.1893.9165.3007 1.5586.2116v.2116c-3.5342.1783-6.2892-3.6592-4.0501-6.6445 1.35-1.8045 4.2696-1.9048 5.8172-.3174Z" fill="#DC485C"/><path d="M20.5972 38.0398c.7848.8911 1.1085 1.7655 1.2457 2.9518.2909 2.4896-.4719 3.7706-3.0128 3.8987v-.2116c1.9866-.2729 2.6232-2.3448 2.3872-4.1104-.0988-.7351-.5488-1.565-1.1415-2.005l.5214-.5291v.0056Z" fill="#CA3646"/><path d="M20.0811 38.563c.5927.44 1.0427 1.2699 1.1415 2.0051l-.3128.1058c-.5543-2.8238-4.3904-2.9742-4.78-.3175-.0274.1782-.022.5514 0 .7408l-.8287.9468c-.8012-3.3752 2.1677-5.3969 4.78-3.481Z" fill="#EB717E"/><path d="M16.1295 41.0967c.0713.6516.2634.7463.5213 1.2643.1756.3564.214.6182.6256.7909h-.6256c.7519.9579 2.0799 1.0359 3.2214.7407-.5213.8856-1.7342.6349-2.5958.5792-1.136-.3898-1.7067-1.2865-1.9756-2.4227l.8287-.9468v-.0056Z" fill="#FB94A1"/><path d="M21.2218 40.5681c.236 1.7711-.4006 3.8374-2.3872 4.1103-.6421.0891-1.0043-.0223-1.5586-.2116.8616.0557 2.0744.3063 2.5958-.5793-1.1415.2952-2.4696.2172-3.2214-.7407h.6256c-.4061-.1727-.45-.4344-.6256-.7909 1.1799 1.4147 4.0995 1.4537 4.3629-.7408.0439-.3675-.0384-.6126-.1043-.9468l.3128-.1058v.0056Z" fill="#EB89A0"/><path d="M21.0141 41.6207c-.2689 2.1889-3.1884 2.1499-4.3628.7408-.2525-.518-.4446-.6127-.5214-1.2643-.0219-.1894-.0274-.557 0-.7408.2634.4902.7025-.0835.9878-.1058.4116-.0334 3.3202.2674 3.5342.4233.3677.2673-.0987.8744.3622.9468Z" fill="#7D1548"/><path d="M20.9089 40.6739c.0658.3342.1481.5848.1042.9469-.4609-.0724 0-.6851-.3622-.9469-.214-.1559-3.1226-.4567-3.5342-.4233-.2853.0223-.7244.5904-.9878.1059.3896-2.6623 4.2257-2.5064 4.78.3174Z" fill="#5F0D35"/><path d="M9.0685 29.0719c.2853.5848-.686 1.5595-.73 2.0051-.406 0-.609-.1782-1.0371-.2117-.7245-.0557-.8726-.1671-1.1415.635-1.3116.6182-.1592 3.3083 1.1415 3.3751l-.4171 1.476c-.889-.3788-1.7287-1.3534-1.7671-2.3727-.0055-.1838.3183-.8298.3128-.9468 0-.0501-.3897-.6851-.4171-.8967-.1482-1.2253.1098-2.3225 1.1964-3.0577.922-.6238 1.9482-.6349 2.8592 0v-.0056Z" fill="#EC585E"/><path d="M9.2769 35.7165c-.2525.2896-.9055.5068-1.1415.841-.0933-.039-.1317-.1003-.2086-.1058l-.417-1.5818c.5488-.0835.5268-.0947.6256-.6349.0603-.3453 0-.9747 0-1.3701.0549-.2562.3951-.8132.417-1.0026.0385-.3843-.214-.5514-.2085-.5792.011-.0668-.0055-.1448 0-.2116.044-.4456 1.0153-1.4147.73-2.0051 1.7835 1.242 1.5256 5.124.2085 6.6445l-.0055.0056Z" fill="#EC585E"/><path d="M7.9266 36.4576c.0713 0 .1152.0668.2085.1058 1.4488.6182 1.1086 3.2304-.4665 2.2167-.7024-.4567-.4939-1.4258-.258-2.1109.1702-.0612.3239-.2228.5214-.2116h-.0054Z" fill="#D83A36"/><path d="m7.5104 34.875.417 1.5818c-.192-.0112-.3512.1503-.5213.2116.0494-.284-.3567-.2451-.5213-.3175l.417-1.4759c.0659 0 .1427.0111.2086 0Z" fill="#EC585E"/><path d="M6.1604 31.5c-.0603.1782-.0768.2116-.1042.4233-.0384.2952.0603.4734.1043.7407.0274.1727-.1208.2897.1042.6851.225.3954.8287.8967 1.2458.8967h.6256c-.0988.5403-.0714.5514-.6256.6349-.0659.0112-.1427 0-.2086 0-1.3006-.0612-2.453-2.7569-1.1414-3.3751V31.5Z" fill="#E88582"/><path d="m7.3004 30.8651.6257.7407c-.889.5737-.8452.1727-1.8714.3175.0274-.2061.0439-.2395.1043-.4233.2689-.7964.417-.6906 1.1414-.6349Z" fill="#AF2457"/><path d="M8.3376 31.0769c-.0055.0668.011.1448 0 .2116-.1152.0446-.1701.2117-.2085.3175-.0659.0111-.1811-.0167-.2086 0l-.6256-.7408c.428.0335.6366.2117 1.0372.2117h.0055Z" fill="#A41F36"/><path d="M8.1296 31.6058c-.192.5402 0 .7797 0 1.2643 0 .3954.0604 1.0248 0 1.3701H7.504c.203-.7018-.7683-1.4537-1.35-1.5818-.044-.2617-.1427-.4455-.1043-.7407 1.0263-.1448.9823.2562 1.8714-.3175.0274-.0167.1427.0112.2085 0v.0056Z" fill="#D6607F"/><path d="M8.1303 32.8708c0-.4845-.192-.724 0-1.2643.0384-.1002.0933-.2729.2085-.3174-.0055.0278.247.1949.2086.5792-.0165.1894-.3567.7463-.4171 1.0025Z" fill="#E88582"/><path d="M7.509 34.2409c-.417 0-1.0317-.5179-1.2458-.8967-.214-.3787-.0768-.5124-.1042-.685.5817.1281 1.553.88 1.35 1.5817Z" fill="#AF2457"/><defs><linearGradient id="a" x1="58.0583" y1="21.3079" x2="11.6713" y2="41.0215" gradientUnits="userSpaceOnUse"><stop stop-color="#B53F7B"/><stop offset=".37" stop-color="#D94239"/><stop offset="1" stop-color="#9D2459"/></linearGradient><linearGradient id="b" x1="36.8527" y1="52.8265" x2="47.5027" y2="61.0892" gradientUnits="userSpaceOnUse"><stop stop-color="#2F2C76"/><stop offset="1" stop-color="#5E54AB"/></linearGradient><linearGradient id="c" x1="51.6706" y1="11.3994" x2="40.0807" y2="15.1139" gradientUnits="userSpaceOnUse"><stop stop-color="#CD5377"/><stop offset="1" stop-color="#EF6E4A"/></linearGradient><linearGradient id="d" x1="26.4417" y1="29.256" x2="41.8777" y2="44.7621" gradientUnits="userSpaceOnUse"><stop stop-color="#821C54"/><stop offset="1" stop-color="#9B1C4B"/></linearGradient></defs></svg>