<svg width="101" height="65" fill="none" xmlns="http://www.w3.org/2000/svg"><path d="m80.8555 46.7973.5374-1.87c-3.6492 4.9393-8.5673 8.8582-13.8533 11.9153-6.0254 3.484-11.9135 5.5491-18.6502 7.1874-.1859.0448-.3637-.0122-.3435.2968-3.9766-.3984-7.9774-1.5895-11.5498-3.3498l3.8189-.5894c4.5788-.683 9.0039-2.0002 13.3159-3.6425 7.6419-2.9108 15.0414-7.2322 21.1436-12.704 2.0085-1.801 3.8028-3.6141 5.3829-5.8093 1.1558-1.6058 2.1257-3.2075 2.938-5.0207.1495-.3333.7638-1.1586.784-1.2317.1293-.5082-.1738-1.3944.097-1.9189.0121 6.4191-.683 11.0251-3.6209 16.7409v-.0041Z" fill="url(#a)"/><path d="M79.5824 37.5403c-1.6366 1.8741-3.2249 3.7522-5.0919 5.4149-5.6375 5.0288-13.9786 10.0738-21.0467 12.704-4.0978 1.5245-8.5916 2.6506-12.9238 3.2482-2.0166.2805-4.0412.4269-6.0699.5895-.7274-.4431-1.2609-.7806-1.956-1.2806 8.7493-2.183 17.4985-4.9393 25.4032-9.3542 2.9056-1.622 5.6496-3.9271 8.5673-5.3174.3718-.0569.392-.1098.687-.2968.0566-.0243.2223-.0203.392-.0975 4.6636-2.1465 9.2059-3.9108 13.2148-7.2891-.4283.4919-.7274 1.1627-1.176 1.6749v.0041Z" fill="url(#b)"/><path d="m74.2968 35.5685-8.3209 7.9273c-.0242.2277.3718.0651.489.0488-2.9177 1.3903-5.6617 3.6953-8.5674 5.3174-7.9046 4.4149-16.6538 7.1711-25.4031 9.3542-.9012-.6423-1.5195-1.1464-2.3479-1.87 1.762-.4309 3.4148-1.2074 5.0919-1.8701 1.9802-.7846 3.9119-1.6464 5.8719-2.4635 3.7947-1.5814 7.6177-3.1059 11.3558-4.8255a201.7115 201.7115 0 0 0 16.0558-8.2729c1.762-1.0122 4.1867-2.1789 5.7749-3.3497v.004Z" fill="url(#c)"/><path d="M84.4765 30.0559c-.2707.5244.0324 1.4107-.097 1.9188-.0161.0691-.6344.8944-.784 1.2318-.8729.7887-2.0852 1.7887-2.8409 2.6587-4.013 3.3782-8.5513 5.1426-13.2148 7.289-.0768-.2479-.3193.0529-.392.0976-.2223.1016-.4526.1829-.687.2968-.1172.0162-.5133.1788-.489-.0488l8.3208-7.9273c.2789-.2073.5254-.3456.784-.5895l9.2989-5.9068c0 .2927.097.6179.097.9838l.004-.0041Z" fill="url(#d)"/><path d="M80.8547 46.7968c-1.2083 2.3497-2.849 5.0979-4.7969 6.8947-1.5397 1.4188-4.0048 3.0408-5.7749 4.236l-.2465-.8862c-.7395.5651-1.5922.935-2.3964 1.3781l-.097-1.5773c5.2818-3.0571 10.204-6.976 13.8533-11.9153l-.5375 1.87h-.0041Z" fill="#6159B0"/><path d="m67.5402 56.8418.097 1.5773c-1.8953 1.0407-3.7704 2.1221-5.7264 3.0531-.986.4715-4.8777 1.8578-5.3829 2.2643-.0768.0651-.2425.2195-.097.2968l1.5155-.0976c-3.229.5732-6.1265.7196-9.3999.3943-.0202-.3089.1576-.252.3435-.2967 6.7327-1.6383 12.6207-3.7035 18.6502-7.1874v-.0041Z" fill="#633F84"/><path d="M70.284 57.9235c-1.6609 1.118-5.5607 3.0246-6.7043 4.0368-.5294.4675.5334.0163.6344.0976-2.1822.8862-3.928 1.4554-6.2639 1.87l-1.5154.0976c-.1455-.0773.0202-.2317.097-.2968.5051-.4065 4.3968-1.7968 5.3829-2.2643 1.9559-.931 3.8311-2.0124 5.7264-3.0531.8082-.4431 1.6609-.813 2.3964-1.3781l.2465.8862v.0041Z" fill="#574497"/><path d="M40.5211 58.9072c.0364.4675-.0162 1.1871.295 1.4757l-3.819.5895c-.9012-.4431-1.6932-.9554-2.5459-1.4757 2.0287-.1667 4.0533-.313 6.0699-.5895ZM75.274 44.0364c-6.1062 5.4678-13.5017 9.7933-21.1436 12.704l-.687-1.0813c7.0681-2.6303 15.4091-7.6753 21.0466-12.704l.784 1.0813Z" fill="#711C4B"/><path d="m53.4434 55.6592.687 1.0813c-4.312 1.6424-8.7372 2.9636-13.3159 3.6425-.3111-.2886-.2546-1.0122-.295-1.4757 4.3322-.6016 8.8261-1.7236 12.9239-3.2481Z" fill="#711C4B"/><path d="M80.6571 38.2271c-1.5841 2.1993-3.3744 4.0083-5.3829 5.8093l-.784-1.0814c1.863-1.6627 3.4553-3.5409 5.092-5.415l1.0749.6911v-.004Z" fill="#502367"/><path d="M83.595 33.2072c-.8123 1.8131-1.7782 3.4148-2.938 5.0206l-1.075-.6911c.4446-.5122.7477-1.183 1.176-1.6749.7557-.874 1.9641-1.87 2.841-2.6587l-.004.0041Z" fill="#41357F"/><path d="M67.1479 43.252c-.295.187-.3111.2398-.687.2967.2344-.1097.4607-.191.687-.2967ZM67.5404 43.1506c-.1697.0773-.3354.0732-.392.0976.0728-.0447.3153-.3455.392-.0976Z" fill="#64235A"/><path d="M19.5712 37.1445c.0283.2074.0646.496.097.6911-5.0677 3.6425-10.4143 7.6184-13.9018 12.8992l-.194-.0488c.0323-.2155 1.0224-1.5001.7355-1.6261-1.2245 1.3253-2.752 2.9717-2.5945 4.923.1819 2.2563 2.6147 2.7929 4.502 2.9555-.3193 1.3212 1.1598.622 2.0084.7887l-.2465-.7887c8.2966-.0325 20.3233-4.1629 28.1956-7.0899.1455.3903.2061.2846.0485.6911l2.057-.7886-.2465-.6911c.8729-.3374 1.7781-.6383 2.6429-.9838l.3435.5894c3.6533-1.5773 7.3227-3.1221 10.9154-4.8254.3677.8293 1.7013-1.1139 2.057-.1952-5.4072 2.6425-10.9315 5.2076-16.5448 7.3866-3.3542 1.3009-6.8539 2.549-10.2809 3.6425-6.4013 2.0489-20.0121 5.9597-26.284 3.8417-.6507-.2195-1.2084-.687-1.8105-.9838-1.6973-2.6953.7637-5.5003 2.546-7.5329 4.3685-4.9881 10.5111-9.1429 15.9587-12.8504l-.004-.0041Z" fill="#E8E8F2"/><path d="m78.5042 30.1533-.194-.5895c5.3829-3.5246 13.7563-9.1591 17.4258-14.3789 1.8064-2.5652 2.7076-4.8052-1.075-6.0085-3.0228-1.2033-8.826-.0894-12.0428.4919-1.6529.3008-4.5464 1.2806-5.9245 1.3781-.2303.0163-.3677-.1301-.5375-.1951 2.546-.7805 5.1284-1.5042 7.7349-2.0692.0687.2358.2546.2073.4405.1951 2.3197-.1341 5.0273-1.061 7.5369-1.183 17.4985-.8252-.2748 13.0089-5.0919 16.6433-2.6632 2.0082-5.4799 3.8905-8.2724 5.7117v.0041Z" fill="#A5ABD1"/><path d="M100.436 10.3592c-.7796 3.6506-3.8671 6.5898-6.5101 9.0615-4.9222 4.606-10.9275 8.6875-16.5933 12.3097l-.1939-.6911a160.424 160.424 0 0 0 1.3699-.8862c2.7925-1.8213 5.6093-3.7035 8.2724-5.7118 4.8172-3.6303 22.586-17.4685 5.092-16.6432-2.5137.1179-5.2213 1.0448-7.5369 1.183-.1859.0122-.3718.0406-.4405-.1952 3.6371-.7846 12.0509-2.4595 15.2233-.4919.7395.4594 1.1601 1.2156 1.3211 2.0693l-.004-.0041Z" fill="#ADC1DD"/><path d="M29.1649 54.675c.0525.0528.0202.5691 0 .5894-.0081.0122.0161.1139-.097.0976-5.197 1.5204-10.5234 3.3945-15.9063 4.1344-3.3663.4634-10.0141 1.3293-12.0913-1.9676.6062.2968 1.1598.7643 1.8105.9838 6.272 2.118 19.8828-1.7928 26.2841-3.8417v.0041Z" fill="#54A8C9"/><path d="M89.8599 23.7506c.1576-.2074.4971-.6749-.0485-.5895-.3799.0569-5.2415 4.1344-6.0699 4.7279-2.2348 1.5977-4.5828 3.1547-6.9024 4.6304-2.845 1.809-5.9689 3.6628-8.9069 5.3174-1.2406.6992-2.5661 1.2968-3.8189 1.9676v-.2968a206.3471 206.3471 0 0 0 13.2148-7.7809c5.6658-3.6222 11.671-7.7038 16.5932-12.3097 2.6389-2.4717 5.7305-5.4068 6.5107-9.0615.598 3.1506-2.9463 6.602-5.0437 8.6672-1.7216 1.6952-3.6452 3.2197-5.5324 4.7279h.004Z" fill="#4797BD"/><path d="M89.8608 23.7505c-.974 1.3009-4.1342 2.8701-5.4314 4.0368-.1657.2439-.0485.9391-.0485 1.2806l-9.2989 5.9068c.6385-.6138 1.2771-1.7033 1.762-2.4635 2.3197-1.4717 4.6676-3.0287 6.9024-4.6304.8285-.5935 5.69-4.6669 6.0699-4.7279.5456-.0854.2061.3821.0485.5894l-.004.0082Z" fill="#37749A"/><path d="M34.1603 53.5889c.2586.6382.3718 1.061 1.075.8862-1.6731.6667-3.33 1.4391-5.092 1.87-.3637-.3171-.8203-.5447-1.0749-.9838.1131.0163.0889-.0853.0969-.0975 1.5115-.4025 2.9461-1.0367 4.405-1.5774.1212-.0447.4688-.0528.586-.0975h.004Z" fill="#8881A7"/><path d="m82.6189 9.669.194.5894c-1.665.2927-3.9523.6748-5.5324 1.183-.1738.0569-.4809.1423-.4405.3943-.0485-.0487-.2465-.1504-.295-.1951-.19-.1951-.4729-.6708-.586-.7887.0606.0082.1535-.0162.194 0 .1697.0651.3071.2155.5374.1952 1.3781-.0976 4.2676-1.0773 5.9245-1.3781h.004Z" fill="#A091C7"/><path d="m67.9327 37.832.586 1.0814a201.7104 201.7104 0 0 1-16.0558 8.2728l-.5859-1.183c4.1584-1.9147 8.2036-4.0408 12.2368-6.2036 1.2527-.6748 2.5783-1.2724 3.8189-1.9676Z" fill="#75517D"/><path d="m51.8774 46.0078.5859 1.183c-3.7381 1.7196-7.5611 3.2441-11.3558 4.8255l-.295-1.2806c3.7098-1.4838 7.4318-3.0571 11.0608-4.7279h.0041Z" fill="#9E5080"/><path d="M76.8424 32.5156c-.4849.7562-1.1235 1.8497-1.762 2.4636-.2586.248-.5051.3862-.784.5895-1.5882 1.1667-4.0129 2.3375-5.7749 3.3497l-.586-1.0813c2.938-1.6546 6.0619-3.5084 8.9069-5.3174v-.0041Z" fill="#426085"/><path d="m40.8159 50.7354.295 1.2805c-1.96.8171-3.8957 1.6749-5.8719 2.4636-.7072.1748-.8163-.248-1.0749-.8863.9416-.3536 2.3358-.8211 3.0349-1.4757.7557-.2886 1.4993-.5894 2.251-.8862.4486-.1748.9214-.313 1.37-.4919l-.0041-.004Z" fill="#75517D"/><path d="M19.867 38.2275c.0283.1383.0687.2561.097.3944-.1738.0284-2.7036 1.6627-2.7399 1.8212-.0283.1179.4889.6911.392.935-2.1378 1.5408-4.2837 3.1425-5.8719 5.2686.198.1464.2667 0 .392-.0975.594-.4757 3.7381-3.8417 4.2594-3.7929l.4405.2967c-1.8711 1.7806-6.6034 6.3907-3.2289 8.6184-.0445-.7033.0485-1.3944.392-2.0204.7435 3.1302 9.0765 1.3984 11.3073 1.183.1778-.0163.4405.0935.2465-.1952.4122.0082 1.0386-.2073 1.467-.2967 2.6268-.5488 5.4516-1.3822 8.0258-2.1668l-6.5104 2.2643c-.1576.2521.1496.2114.295.1952 3.7543-.3456 11.7479-3.7157 15.5183-5.2198l.586 1.2805c-.5213.2155-1.0467.4797-1.568.6911-7.9087 3.1994-17.2964 6.5329-25.6496 8.1753-.0202-.0772-.2061-.4838-.2465-.4919-.4365-.1057-2.9137.4472-3.621.4919-1.6407.1057-4.4655.2886-6.0214 0-1.7498-.3252-2.8005-1.3985-2.6914-3.2482-.5173 1.1586-.1698 1.7888.2465 2.8051.0444.1138.2222.4431 0 .5407-.889-.4919-1.0507-.9269-1.665-1.6749-.1576-1.9514 1.37-3.5978 2.5945-4.9231.291.126-.7032 1.4107-.7355 1.6261l.194.0488c.0727.2317.202.0325.295-.0488.5293-.4878 1.281-1.7358 1.859-2.3619 2.8571-3.0815 6.1345-5.8499 9.4483-8.4192.7799-.6057 1.6488-1.1749 2.4975-1.6749l-.0041-.0041Z" fill="#DECFE3"/><path d="M78.5052 30.1539c-.4526.2968-.9133.5936-1.3699.8863-7.3833 4.7197-15.2839 9.0493-23.2007 12.8015-3.5926 1.7034-7.2621 3.2482-10.9153 4.8255l-.3435-.5894c.295-.1179.6668-.3659.978-.4919 12.0428-4.9272 23.7623-10.8869 34.6534-18.0214l.194.5894h.004Z" fill="#D1A9CE"/><path d="M77.3323 31.7263a210.2339 210.2339 0 0 1-13.2148 7.7809c-2.6753 1.4432-5.391 2.801-8.1269 4.1344-.3557-.9147-1.6893 1.0285-2.057.1951 7.9167-3.7522 15.8173-8.0818 23.2006-12.8015l.194.6911h.0041Z" fill="#CACBE4"/><path d="m43.3612 47.3849.295.1952c-.3152.13-.683.374-.978.4919-.8648.3496-1.7701.6504-2.643.9838-.6223.2398-1.2406.5569-1.8589.7886-7.8723 2.927-19.899 7.0574-28.1956 7.0899-.5617 0-1.2164.0447-1.762 0-1.8872-.1586-4.324-.6993-4.5019-2.9555.6143.748.7719 1.1789 1.665 1.6749 3.1036 1.7237 8.9351.5691 12.3338-.0976 8.3491-1.6423 17.7409-4.9759 25.6496-8.1752l-.004.004Z" fill="#CBBADA"/><path d="M64.1129 39.8044c-4.0331 2.1668-8.0784 4.2889-12.2368 6.2036-3.629 1.6709-7.351 3.2441-11.0608 4.728-.4486.1788-.9214.3171-1.37.4919v-.1952c5.6133-2.179 11.1376-4.7442 16.5448-7.3866 2.7318-1.3334 5.4475-2.6912 8.1269-4.1344v.2968l-.0041-.0041Z" fill="#8D93BC"/><path d="M19.8654 38.2264c-.8486.5-1.7175 1.0691-2.4974 1.6749-3.3098 2.5692-6.5913 5.3417-9.4484 8.4192-.582.626-1.3296 1.8781-1.859 2.3619-.0889.0813-.2222.2805-.295.0488 3.4836-5.2808 8.8341-9.2567 13.9018-12.8992.0202.1139.1738.2765.194.3944h.004Z" fill="#CBBADA"/><path d="M39.4467 51.0283v.1952c-.7516.2967-1.4952.5975-2.2509.8862-.9174.3496-1.8832.626-2.7885.9838-.1899.0732-.8284.3333-.8325.5895-1.4588.5406-2.8935 1.1748-4.4049 1.5773.0202-.0244.0526-.5366 0-.5895 3.427-1.0976 6.9267-2.3416 10.2809-3.6425h-.0041Z" fill="#6475A0"/><path d="m9.9782 56.9395.2465.7886c-.8486-.1667-2.3277.5326-2.0084-.7886.5455.0447 1.2002 0 1.762 0ZM38.1738 49.8492c.6183-.2317 1.2366-.5488 1.859-.7887l.2465.6911-2.057.7887c.1576-.4025.097-.3008-.0485-.6911Z" fill="#DECFE3"/><path d="M94.6567 9.1761c2.9218 1.1668 2.3883 3.7401 1.0749 6.0085-3.6694 5.2199-12.0428 10.8543-17.4257 14.3789-10.8911 7.1346-22.6106 13.0943-34.6535 18.0214l-.295-.1951c.5173-.2114 1.0427-.4716 1.568-.6911 2.6955-1.118 5.3829-2.3091 8.0259-3.5449 7.2944-3.4027 14.3342-7.2403 21.1436-11.521 2.4288-1.5286 4.8091-3.0571 7.1449-4.728 3.2249-2.3009 13.9503-10.1835 14.3908-14.0333.3435-3.0083-3.726-2.9352-5.6294-3.1018-.0364 0-.093-.2887-.194-.2968-2.1176-.1585-4.8858.4147-6.9994.7887l-.194-.5895c3.2128-.5813 9.02-1.6993 12.0429-.4919v-.004Z" fill="#8375B2"/><path d="M95.7351 15.1852c1.3094-2.2684 1.8469-4.8417-1.0749-6.0084 3.7825 1.2033 2.8813 3.4392 1.0749 6.0084Z" fill="#655C99"/><path d="M34.1602 53.59c-.1212.0447-.4647.0528-.586.0975 0-.2602.6426-.5163.8325-.5894.9052-.3578 1.8711-.6342 2.7885-.9838-.6992.6545-2.0934 1.126-3.035 1.4757Z" fill="#5A5E86"/><path d="m81.2484 26.9006-.586-1.2806c1.4306-1.061 2.8329-2.1668 4.211-3.301l-.586-.7399c.3031-.3049.5941-.6626.881-.9838 1.7498-1.5854 5.981-5.9475 3.0834-8.0736-1.8428-1.3538-4.3079-.8984-6.4134-.6911-1.1194.1097-2.3883.2439-3.4754.4919-.2102.0488-.7436.1626-.8325.3943-.2708-.2276-.4931-.687-.687-.8862-.0404-.2521.2667-.3374.4405-.3943 1.5801-.5082 3.8674-.8863 5.5324-1.183 2.1136-.374 4.8818-.9473 6.9994-.7887.101.0081.1616.2927.194.2968 1.8993.1666 5.9729.0935 5.6294 3.1018-.4405 3.8498-11.1659 11.7324-14.3908 14.0333v.0041Z" fill="#8881A7"/><path d="M20.3544 40.2958c.0404.1789-.0121.5488.194.6911-.0121.0081-.004.2195-.097.2968-.8082.6504-1.6569 1.3415-2.3964 2.0692-1.2084 1.1871-4.4696 4.5897-4.0615 6.3012-.3435.626-.4364 1.3171-.392 2.0204-3.3744-2.2237 1.3619-6.8378 3.229-8.6184 1.0669-1.0163 2.2833-1.9269 3.4269-2.8579.0283.1342.097.0935.097.0976Z" fill="#75517D"/><path d="M60.003 38.2273c-2.3925 1.2399-4.797 2.5204-7.246 3.6425-2.7561 1.2683-5.6011 2.4229-8.4178 3.5449-3.7664 1.5041-11.764 4.8702-15.5183 5.2198-.1414.0122-.4526.0569-.295-.1951l6.5104-2.2644c4.4292-1.3497 8.7816-2.9717 13.0208-4.8255 3.3219-1.3496 6.5751-2.8335 9.7878-4.4311.6507-.3253 1.3094-.6505 1.956-.9838l.194.2967.0081-.004Z" fill="#F2E2E8"/><path d="M52.7577 41.874c.3071.1586.2465.9188.194 1.2806-2.647 1.2358-5.3304 2.427-8.0259 3.5449l-.586-1.2805c2.8168-1.1221 5.6658-2.2766 8.4179-3.545Z" fill="#D1A9CE"/><path d="M7.824 55.5607c-.1414.0366-.1535.1097-.0484.1951.6546.065.0808-.2033.0485-.1951 1.5558.2886 4.3806.1057 6.0214 0 .7072-.0448 3.1885-.5976 3.6209-.4919.0404.0081.2263.4146.2465.4919-3.3986.6667-9.2301 1.8212-12.3338.0975.2223-.0975.0445-.4309 0-.5407-.4162-1.0163-.7638-1.6505-.2465-2.805-.1091 1.8538.9416 2.927 2.6915 3.2482Z" fill="#E8E8F2"/><path d="M20.1621 39.7061c.0364.1666.0607.3333.097.4919-1.1436.9268-2.36 1.8415-3.4269 2.8578l-.4405-.2967c-.5173-.0488-3.6654 3.3173-4.2595 3.7929-.1252.1016-.1939.2439-.392.0976 1.5882-2.1262 3.7341-3.7279 5.8719-5.2687.8204-.5894 1.6569-1.1951 2.546-1.6748h.004Z" fill="#D1A9CE"/><path d="M19.9639 38.6211c.0767.3537.1172.7317.1939 1.0814-.889.4797-1.7256 1.0854-2.5459 1.6749.097-.244-.4203-.8212-.392-.9351.0404-.1626 2.5661-1.7927 2.7399-1.8212h.0041Z" fill="#D1A9CE"/><path d="m73.5134 30.547.586 1.0814c-6.8135 4.2848-13.8533 8.1184-21.1437 11.521.0525-.3618.1091-1.1179-.194-1.2806 2.445-1.126 4.8535-2.4066 7.2459-3.6424 4.5909-2.3782 9.1534-4.8946 13.5098-7.6834l-.004.004Z" fill="#D097BF"/><path d="M81.2484 26.9015c-2.3398 1.6708-4.7161 3.1994-7.1448 4.7279l-.586-1.0813c.6627-.4228 1.3013-.9432 1.9559-1.3782.5496-.3659 1.1194-.7114 1.665-1.0813 1.1841-.809 2.3722-1.6099 3.524-2.4636l.5859 1.2806v-.0041Z" fill="#B084C1"/><path d="M85.1637 20.5999c6.8781-7.716-.683-8.3298-7.1449-7.1875-.0485-.0731-.1617-.1057-.097-.2967.2384.0528 3.73-.2724 3.819-.4431.0767-.1423-.1051-.6261.0969-.8375 2.1015-.2073 4.5666-.6626 6.4135.6911 2.8975 2.1261-1.3336 6.4882-3.0835 8.0737h-.004Z" fill="#35325F"/><path d="M75.4703 29.1687c-.6587.4349-1.2973.9553-1.956 1.3781-4.3564 2.7847-8.9189 5.3052-13.5098 7.6834l-.194-.2968c4.6677-2.4066 9.2423-5.0572 13.6068-7.9761.6264-.4187 1.2447-.8496 1.859-1.2805l.194.4919Z" fill="#D1A9CE"/><path d="M80.6574 25.6198c-1.1518.8537-2.3399 1.6546-3.524 2.4636l-.1939-.4919c.1374-.0976.4485-.4878.5859-.5895 1.3943-1.0366 2.7804-2.0245 4.11-3.1506.4566-.3862.8163-.8577 1.1759-1.183.0445-.0406.1415.1057.1455.0976.4203-.3821.9416-.7968 1.3215-1.183l.586.7399c-1.3781 1.1342-2.7763 2.24-4.211 3.301l.0041-.0041Z" fill="#B59CC9"/><path d="M81.8333 11.835c-.2061.2114-.0242.6951-.097.8374-.0889.1708-3.5764.496-3.8189.4431-.194-.0406-.2667-.2886-.392-.3943.0849-.2317.6223-.3456.8325-.3943 1.0871-.248 2.356-.3822 3.4754-.4919Z" fill="#404973"/><path d="m76.9404 27.5918.194.4919c-.5456.374-1.1154.7196-1.665 1.0814l-.194-.4919c.5253-.3659 1.1719-.7277 1.665-1.0814ZM7.8238 55.5617c.0324-.0081.6062.2602-.0485.1951-.105-.0894-.0889-.1626.0485-.1951Z" fill="#DECFE3"/><path d="m48.0624.8058.0485.5895c.1657-.1504.5294-.1179.7355-.0976.4284.0447.8487.061 1.273.0976-.0323 4.6832-4.4292 8.4273-8.1269 10.6348-4.409 2.6343-10.786 4.6872-15.8577 3.2481 3.5724-5.602 8.9472-10.09 15.1263-12.5048.59-.2317 2.3883-.5773 2.7399-.7886.2788-.1667.0404-.2887.0485-.492 1.3215-.3252 2.6632-.5162 4.0129-.691v.004Z" fill="url(#e)"/><path d="M75.9621 10.8513c.1172.1178.4001.5935.586.7886-.5375 3.549-1.3012 7.1834-3.2289 10.2405-.2789-1.5977-.784-3.3173-1.37-4.8255.9537-1.0895 1.7095-2.5815 2.251-3.9393.392-.9757.6183-1.9716.9779-2.9554.2425.2357.5456.4512.784.6911Z" fill="url(#f)"/><path d="M42.2825 12.7212c-4.312 2.6302-9.3393 4.8011-14.4878 4.8255-.9335.0041-1.9196-.1382-2.841-.2968-.2343-.0406-.1859-.0975-.1939-.0975.6506-.1261 1.0305-1.3294 1.273-1.8701.0282.0082.0687-.0081.0969 0 5.0718 1.4351 11.4488-.6138 15.8578-3.2481l.295.6911v-.0041Z" fill="#FEECD4"/><path d="M26.1296 15.2824c-.0283-.0081-.0687.0082-.097 0-.2425-.0731-1.3983-.2764-1.37-.6382 4.5989-6.659 11.57-11.2242 19.3817-13.1471-.0081.2032.2304.3252-.0485.4919-.3516.2114-2.1499.557-2.7399.7886-6.1791 2.4189-11.5539 6.9029-15.1263 12.5048Z" fill="#FDE2B8"/><path d="m72.4378 7.7008-2.348 5.6141c-.7436-1.2236-1.673-2.3944-2.6429-3.4473.0121-.0285-.0122-.0732 0-.0976.6385-1.4107 1.3618-3.0896 1.2729-4.6303 1.3215.7967 2.5096 1.5976 3.722 2.561h-.004Z" fill="#711C4B"/><path d="M65.778 3.5612c-.2223 1.2318-.5658 2.3335-.978 3.4961-.0041.0122.1536.0976.097.248-.6466-.557-1.2609-.992-1.956-1.4757-.8123-.561-1.3942-.9025-2.2509-1.3781-.0081-.004-.0889-.191-.097-.1951.2546-.8863.0485-1.7888-.097-2.6587 1.9681.5244 3.4512 1.122 5.2859 1.9675l-.004-.004ZM74.1999 9.2744c-.3637 1.0855-.687 2.2115-1.176 3.2482-.489 1.0366-1.1599 2.0001-1.762 2.9555-.3273-.6871-.784-1.3213-1.176-1.9676-.0202-.0326.0202-.1627 0-.1952l2.348-5.6141c.6506.5163 1.1598 1.0244 1.7619 1.5773l.0041-.004Z" fill="#94316C"/><path d="M23.0953 21.6844c-.1455.626-.6951 1.4513-.5375 2.0692.19.0935 3.3098.1626 3.4755.0976.101.7642-.1576 1.5163-.194 2.2643-1.2891.0569-2.6308.0366-3.9159-.0975.1253-.748.3233-1.4757.489-2.2156l-1.762-.4431c.2263-.7562.5173-1.3538.784-2.0693.5658.061 1.1073.3009 1.665.3944h-.0041Z" fill="#FDD8B7"/><path d="M68.7163 5.14c.0889 1.5367-.6345 3.2156-1.273 4.6303l-2.057-1.9676c.0121-.0284-.0121-.0731 0-.0975.5496-1.1627 1.0022-2.3945 1.762-3.4474.6021.3171.986.5366 1.568.8862V5.14Z" fill="#94316C"/><path d="M21.4337 33.8926c.1172 1.6627.4041 3.1954.687 4.8255-.6668.1383-1.5438-.1951-2.154-.0975-.0283-.1382-.0727-.2561-.097-.3944-.0242-.1138-.1778-.2805-.194-.3943-.0323-.1911-.0687-.4838-.097-.6911-.1535-1.0773-.1576-2.2562-.1939-3.3498.687.0488 1.3659.0854 2.0569.0976l-.008.004Z" fill="#FCA377"/><path d="M21.5323 28.1807v.0976c-.0404.3821-.2748 3.0611-.1454 3.1506l4.5504.0975s.0808-.0365.097.0976c.004.0325-.0041.0651 0 .0976-1.5236-.0325-3.0835.065-4.603-.0976-.7072-.0772-1.4387-.3171-2.154-.3943.0364-1.1058.1415-2.2522.2951-3.3498l1.9559.2967.004.0041Z" fill="#FDC381"/><path d="M60.4926 1.5943c.1455.87.3556 1.7724.097 2.6586-.8648-.4675-2.3197-1.1504-3.2289-1.4756l-.097-1.87c1.1153.1666 2.1459.4024 3.2289.691v-.004Z" fill="#C15F91"/><path d="M24.7596 17.1523s-.0404.0569.194.0976c-.3799.8943-.8042 1.7602-1.176 2.6587l-1.762-.2968c.4324-.9757.7881-1.9798 1.4185-2.8579.4405.1829.8567.3008 1.3215.3943l.004.0041ZM21.4345 31.6287c-.2142.744-.0526 1.5204 0 2.2644-.6911-.0122-1.37-.0488-2.057-.0976-.0283-.8578-.1253-1.6912-.097-2.5611.7113.0772 1.4468.3171 2.154.3943Z" fill="#FDD8B7"/><path d="M21.9234 26.0142c-.6264-.0651-1.2366-.2236-1.8589-.2968.1778-.8212.3475-1.557.5859-2.3619l1.762.4431c-.1657.7399-.3637 1.4676-.489 2.2156Z" fill="#FEECD4"/><path d="M21.9241 26.0145c-.1131.6911-.3152 1.492-.392 2.1668l-1.9559-.2967c.105-.748.3314-1.4391.489-2.1668.6263.0731 1.2325.2276 1.8589.2967Z" fill="#FDC381"/><path d="M75.1794 10.1605c-.3597.9838-.5901 1.9757-.978 2.9554l-1.176-.5894c.4849-1.0407.8123-2.1627 1.176-3.2482.3314.305.6506.5692.978.8863v-.0041Z" fill="#64235A"/><path d="M67.1488 4.2536c-.7597 1.053-1.2124 2.2806-1.762 3.4474-.1697-.118-.3354-.2602-.489-.3944.0566-.1504-.101-.2317-.0969-.248.4162-1.1626.7557-2.2643.9779-3.4961.489.2277.8972.439 1.37.6911Z" fill="#7F2C70"/><path d="M56.1849.7078c.0525.5732-.0283 1.1099-.097 1.675l-2.348-.492v-.0975c-.0161-.4228-.1657-.8416-.097-1.2806.8366.0366 1.7135.1016 2.546.1951h-.004Z" fill="#E4797B"/><path d="M23.7815 19.9081c-.0121.0285.0122.0691 0 .0976-.2182.5366-.6102 1.0529-.5859 1.6749-.0324-.0041-.0647.004-.097 0-.5577-.0935-1.0992-.3334-1.665-.3944.2101-.565.3354-1.1098.586-1.6749l1.7619.2968Z" fill="#FEECD4"/><path d="m57.2631.9033.097 1.87c-.0283-.0122-.0687.0082-.097 0-.3678-.126-.784-.248-1.176-.2967.004-.0326-.004-.065 0-.0976.0727-.565.1495-1.1017.097-1.6749.3435.0407.7315.1464 1.075.1951l.004.0041Z" fill="#B12D53"/><path d="M53.6383.509c-.0687.439.0849.8578.097 1.2806-.3031.0406-.586-.057-.881-.0976-.0485-.2764-.6062-.374-.784-.3943V.509c.5173 0 1.0467-.0203 1.568 0Z" fill="#E04D49"/><path d="M52.0746.5088v.7886c-.5618-.065-1.4306-.061-2.057-.0975V.6104c.6951-.0406 1.3538-.1016 2.057-.0975V.5088Z" fill="#F4967A"/><path d="M50.0186.6113v.5895c-.3597-.0203-.978-.122-1.176.0976-.2061-.0204-.5698-.0529-.7355.0975l-.0485-.5894c.691-.0895 1.2528-.1545 1.9559-.1952h.0041Z" fill="#F17957"/><path d="M51.978 1.5937c-.6991 5.1751-5.5809 8.6184-9.6908 11.1267l-.295-.6911c3.6937-2.2074 8.0946-5.9516 8.1269-10.6348a70.245 70.245 0 0 1 1.8589.1952v.004Z" fill="#FCC69D"/><path d="M50.0177 1.2002c.6223.0366 1.4912.0325 2.0569.0976.1779.0203.7355.1179.784.3943-.2909-.0407-.59-.065-.881-.0976-.6183-.0732-1.2406-.1423-1.8589-.1951-.4243-.0366-.8446-.0529-1.273-.0976.198-.2195.8163-.1179 1.176-.0976l-.004-.004Z" fill="#E3654E"/><path d="M76.8429 11.8349c.194.1992.4163.6586.687.8863.1253.1057.1981.3537.392.3943-.0646.1911.0485.2195.097.2968 1.2528 1.9838 2.2995 3.4433 3.33 5.6141l-3.819 7.9761c-.1374.1016-.4526.4919-.5859.5895-.489.3577-1.1397.7195-1.665 1.0813-.6183.431-1.2326.8619-1.859 1.2806.4324-2.6993.3354-5.0979-.097-7.7809-.0161-.0935.0162-.2033 0-.2968 1.9317-3.0571 2.6915-6.6955 3.229-10.2405.0444.0488.2465.1505.295.1952l-.0041.004Z" fill="url(#g)"/><path d="M71.9454 17.055c.5859 1.5082 1.0911 3.2278 1.3699 4.8254.0162.0935-.0161.2033 0 .2968-.6829 1.0854-1.3416 2.1831-2.0569 3.2482-2.1985-.4309-1.176-3.049-2.251-4.48l-1.0265 1.0326-.8325-1.2805c1.5034-1.5855 2.7844-3.3864 4.11-5.1223.2222.4756.497.9919.687 1.4757v.0041Z" fill="#B12D53"/><path d="M74.2012 13.1158c-.5415 1.3578-1.2972 2.8498-2.2509 3.9393-.19-.4838-.4607-1.0001-.687-1.4757-.0122-.0285.0121-.0732 0-.0976.6061-.9553 1.281-1.9269 1.7619-2.9554l1.176.5894Z" fill="#711C4B"/><path d="M52.8594 1.6915c.295.0406.5779.1382.881.0975v.0976c.0404 4.4108-3.5684 8.5818-6.854 11.1267-5.007 3.8823-13.53 7.1874-19.8747 7.1874l.784-2.6587c5.1526-.0244 10.1758-2.1952 14.4878-4.8255 4.312-2.6302 8.9957-5.9516 9.6908-11.1267.291.0326.5901.057.881.0976l.0041.004Z" fill="url(#h)"/><path d="m27.7957 17.5466-.784 2.6587c-1.083 0-2.158-.0366-3.2289-.1951.0121-.0285-.0121-.0691 0-.0976.3677-.8984.7961-1.7643 1.176-2.6587.9214.1586 1.9034.3008 2.841.2968l-.0041-.0041Z" fill="#FDD8B7"/><path d="M67.4446 9.7656c-.0121.0285.0121.0732 0 .0976-2.9339 6.3337-10.4304 12.0617-16.3467 15.4602-7.2823 4.1832-16.1649 7.6346-24.5706 8.3705-.3395-.5407-.4042-1.3457-.489-1.9676-.0041-.0326.004-.0651 0-.0976 4.417-.2439 8.9674-1.431 13.1178-2.9555 10.1798-3.74 21.4548-10.8217 26.2356-20.8793l2.057 1.9676-.0041.0041Z" fill="url(#i)"/><path d="M70.0869 13.3108c.0202.0325-.0202.1626 0 .1951-2.8289 4.6345-6.2761 8.3461-10.5719 11.6186-.4526.3456-.9133.7562-1.3699 1.0814-.1617.1138-.4729.248-.6871.3943-2.2145 1.5326-4.4857 2.8579-6.8539 4.1344-.3031-1.8334 1.0952-3.5327.489-5.415 5.9164-3.3985 13.4169-9.1265 16.3468-15.4602.9699 1.0529 1.8993 2.2237 2.6429 3.4473l.0041.0041Z" fill="#E04D49"/><path d="M62.9425 5.8265c-1.7095 4.6995-4.9828 8.5615-8.7614 11.7202-7.7995 6.5167-18.1087 10.9844-28.3411 11.0292-.008-.805-.0444-1.6587 0-2.4636 8.717-.3821 18.8523-5.5898 25.6982-10.834 3.6653-2.8091 7.5692-6.3825 9.1533-10.834.8568.4757 1.4387.8172 2.251 1.3782v.004Z" fill="url(#j)"/><path d="M64.8982 7.306c-3.0632 8.0167-14.4029 15.8464-21.8791 19.3995-1.0427.4959-2.5783.9309-3.524 1.4757-.202.1179-.4041.187-.3435.4919-4.1503 1.5244-8.7007 2.7115-13.1178 2.9554-.0161-.1341-.097-.0935-.097-.0975-.097-.8538-.0848-1.9798-.097-2.8579v-.0976c10.2324-.0447 20.5416-4.5125 28.3411-11.0291 3.7786-3.1587 7.052-7.0208 8.7614-11.7202.6991.4837 1.3134.9187 1.9559 1.4757v.004Z" fill="url(#k)"/><path d="M60.5904 4.2531s.0889.1911.097.1952c-1.5841 4.4515-5.488 8.0248-9.1533 10.834-6.8459 5.2442-16.9813 10.4518-25.6982 10.8339.0404-.748.295-1.5001.194-2.2643.1293-.0488.0768-.0732.097-.0976 8.6886-.2399 18.04-4.9393 24.5221-10.6348 2.8976-2.5489 6.3932-6.3256 6.6074-10.342.0283.008.0687-.0122.097 0 .9133.3252 2.3641 1.0122 3.229 1.4756h.008Z" fill="url(#l)"/><path d="M71.2635 15.4772c.0121.0285-.0122.0732 0 .0976-1.3256 1.7318-2.6066 3.5368-4.11 5.1222-1.2285 1.2928-2.7359 2.5977-4.1099 3.7442-.9173.7642-1.8751 1.4594-2.841 2.1667l-.687-1.4757c4.2958-3.2725 7.743-6.9882 10.5719-11.6185.3879.6504.8486 1.2805 1.176 1.9676v-.0041Z" fill="#E4797B"/><path d="M25.8392 26.1171c-.0445.8009-.0081 1.6546 0 2.4636v.0975l-4.308-.3943v-.0976c.0728-.6748.2789-1.4757.392-2.1668 1.2852.1342 2.6268.1545 3.916.0976Z" fill="#F9B177"/><path d="M26.4249 21.9776c-.0768.3049-.1738 1.6099-.295 1.7725-.0202.0244.0283.0488-.097.0976-.1657.065-3.2855-.0082-3.4755-.0976-.1576-.6139.392-1.4391.5375-2.0692.0323.004.0647-.0041.097 0 .9739.1504 2.255.3008 3.2289.2967h.0041Z" fill="#FDC381"/><path d="M65.3864 7.6998c-.0121.0285.0121.0732 0 .0976-4.7808 10.0534-16.0558 17.1392-26.2356 20.8793-.0647-.3049.1414-.374.3435-.4919.9497-.5448 2.4813-.9797 3.5239-1.4757 7.4763-3.5571 18.82-11.3828 21.8792-19.3995.1536.1341.3192.2764.489.3943v-.004Z" fill="#E04D49"/><path d="m26.3276 33.6982 1.762 4.8255c-1.9963.2033-3.9765.1626-5.9729.2968-.004-.0325.004-.065 0-.0976-.2788-1.6301-.5658-3.1628-.687-4.8255 1.6488.0326 3.2572-.0609 4.8939-.1951l.004-.0041Z" fill="#F17957"/><path d="M22.1167 38.7181c.0041.0326-.004.0651 0 .0976.0404.2317.3557 1.5042.2465 1.5773l-2.0084-.0975s-.0687.0366-.097-.0976c-.0364-.1585-.0607-.3293-.097-.4919-.0768-.3496-.1213-.7277-.194-1.0814.6102-.0975 1.4872.2358 2.154.0976l-.0041-.0041Z" fill="#FCC69D"/><path d="M25.8396 28.6735c.0121.8781 0 2.0001.097 2.8579l-4.5504-.0976c-.1293-.0894.105-2.7685.1455-3.1506l4.3079.3943v-.004Z" fill="#FDC381"/><path d="M26.0331 31.7266c.0848.622.1495 1.431.4889 1.9676-.0646.0041-.1333-.004-.1939 0-1.6367.1342-3.2451.2277-4.894.1952-.0525-.744-.2141-1.5205 0-2.2644 1.5195.1626 3.0754.0691 4.603.0976l-.004.004Z" fill="#F9B177"/><path d="M56.0886 2.3825c-.0041.0326.004.065 0 .0976-.6789 4.6466-5.1687 8.6712-8.7129 11.3259.0243-.3415-.2101-.6302-.489-.7887 3.2855-2.5489 6.8943-6.7158 6.8539-11.1267l2.348.492Z" fill="#FCC69D"/><path d="M46.8857 13.0176c.2788.1585.5132.4472.489.7886-5.7385 4.297-13.6472 8.1387-20.9497 8.1753-.9739.0041-2.259-.1463-3.2289-.2967-.0202-.618.3718-1.1383.5859-1.6749 1.071.1585 2.1459.1992 3.229.1951 6.3407 0 14.8676-3.3051 19.8747-7.1874Z" fill="#FEECD4"/><path d="M57.2643 2.7733c-.2142 4.0165-3.7099 7.7932-6.6074 10.3421-6.4821 5.6995-15.8335 10.3949-24.5221 10.6348.1212-.1626.2182-1.4676.295-1.7725 7.3025-.0325 15.2111-3.8783 20.9497-8.1753 3.5441-2.6546 8.0339-6.6752 8.7128-11.3258.392.0488.8083.1666 1.176.2967h-.004Z" fill="#F9B177"/><path d="M48.0629 43.3496c-4.2392 1.8538-8.5916 3.4758-13.0208 4.8255-2.5742.7846-5.399 1.618-8.0258 2.1668-.9416-1.5895-1.8671-3.1425-2.643-4.8255-.0646-.2114.6426-.2886.7355-.2968 2.4167-.191 4.2352-.439 6.6074-.8862.2142-.0406.4486-.0528.687-.0976l4.5504 3.0531c3.7018-1.1017 7.4925-2.4677 11.1093-3.9393Z" fill="#D33B40"/><path d="M24.3681 45.5163c.78 1.6831 1.7014 3.236 2.643 4.8255-.4324.0895-1.0548.3009-1.467.2968-.0767 0-.0969.0528-.1454.0976-1.273-1.6546-2.3965-3.5043-3.2815-5.415l2.057-.0976c.0485.1139.1778.2521.1939.2968v-.0041Z" fill="#E4797B"/><path d="M73.4163 29.9538c-4.3646 2.9189-8.9392 5.5694-13.6068 7.9761-.6466.3333-1.3053.6586-1.956.9838 1.4629-1.3375 3.0915-2.4636 4.603-3.7441 3.528-2.988 6.2275-5.8947 8.8098-9.7486.7153-1.0651 1.37-2.1668 2.057-3.2481.4324 2.683.5294 5.0816.097 7.7809h-.004Z" fill="#BE2F2E"/><path d="m82.4213 21.5836-.784 2.2644c-1.3296 1.126-2.7157 2.1139-4.11 3.1505l3.819-7.976c.4405.9268.7274 1.5895 1.075 2.5611Z" fill="#94316C"/><path d="M71.2624 25.4255c-2.5823 3.8539-5.2819 6.7606-8.8099 9.7486-.4324-1.1058.2627-2.2847.392-3.3986.0566-.4757-.0161-1.0733 0-1.5774 0-.0162-.198-.2764-.1939-.2967.0242-.2399 3.3986-2.8904 3.4269-3.3498.0121-.2277-1.1234-1.6383-1.3215-1.6261-.5577.0325-.6142 1.7562-1.7134-.4919 1.374-1.1424 2.8854-2.4473 4.1099-3.7441l.8325 1.2805 1.0264-1.0326c1.075 1.431.0526 4.0491 2.251 4.48v.0081Z" fill="#E04D49"/><path d="M51.0968 25.3281c.6061 1.8823-.7921 3.5815-.489 5.415-6.6882 3.614-14.9 7.0126-22.5177 7.7809l-1.762-4.8255c.0647-.004.1334.0041.194 0 8.4098-.7398 17.2924-4.1872 24.5706-8.3704h.0041Z" fill="#FC8D32"/><path d="M58.1449 28.0836a64.9474 64.9474 0 0 1-1.665 1.0814c-.5577.3496-1.1113.7561-1.6649 1.0813-3.0552 1.8091-6.3973 3.484-9.6424 4.9231-7.0681 3.1302-14.6656 5.6345-22.5177 5.2198-.3233.1301.0243.4634.0485.5895.0041.0325-.0081.0691 0 .0975-.6264-.3049-1.6326-.4837-2.154-.0975-.2061-.1382-.1535-.5123-.1939-.6911l2.0085.0975c.1131-.0731-.2061-1.3456-.2466-1.5773 1.9964-.1341 3.9766-.0935 5.973-.2968 7.6177-.7683 15.8294-4.1669 22.5176-7.7809 2.3642-1.2765 4.6353-2.6059 6.854-4.1344l.687 1.4757-.0041.0122ZM60.1976 26.6075c-.5213.3822-1.0345.7196-1.568 1.0814l-.489-1.4757c.4567-.3252.9174-.7358 1.37-1.0814l.687 1.4757Z" fill="#F9B177"/><path d="m58.144 26.2139.489 1.4757c-.1333.0935-.3111.2764-.489.3943l-.687-1.4757c.2102-.1464.5254-.2805.687-.3943Z" fill="#E4797B"/><path d="M62.4529 35.1746c-1.5115 1.2805-3.1401 2.4066-4.603 3.7441-3.2128 1.5977-6.4659 3.0815-9.7878 4.4312-3.6169 1.4716-7.4116 2.8375-11.1093 3.9392l-4.5505-3.053c8.3775-1.6871 18.9574-5.8134 25.8436-10.9316.2223-.1666 1.2286-.7602 1.273-.935.1253-.5122-.5496-2.2196-1.2245-2.3131-.5374-.0732-.7193.4431-1.2729.0975-.3153-.1992-.4365-.6504-.5375-.9838a64.8498 64.8498 0 0 0 1.665-1.0813c.1778-.1179.3556-.3008.4889-.3944.5294-.3658 1.0427-.6992 1.568-1.0813.9619-.7074 1.9196-1.4025 2.841-2.1668 1.0992 2.2481 1.1558.5244 1.7135.4919.198-.0122 1.3336 1.3984 1.3215 1.6261-.0283.4594-3.4027 3.1099-3.427 3.3498 0 .0163.198.2764.194.2968-.0162.5.0566 1.0976 0 1.5773-.1293 1.1139-.8244 2.2887-.392 3.3986l-.004-.0122Z" fill="#E3654E"/><path d="M22.7081 41.0837c.291 1.3212.9133 2.8985 1.467 4.1344l-2.057.0976c-.6102-1.3213-.9699-2.7604-1.665-4.0369.093-.0731.0849-.2845.097-.2967.5213-.3862 1.5276-.2074 2.154.0975l.004.0041Z" fill="#F4967A"/><path d="m54.8145 30.2511.6345 1.4757c.1091.0285 1.8468-1.2074 1.9559-1.183.5496.1301.8042 2.2278.8325 2.7563-6.8903 5.1182-17.4702 9.2445-25.8436 10.9315-.2344.0488-.4688.057-.687.0976-.8002-1.4025-2.5985-1.9188-3.1804-3.5449l-5.8234.1951c-.0243-.126-.3718-.4594-.0485-.5894 7.8521.4146 15.4496-2.0855 22.5177-5.2199 3.2491-1.4391 6.5871-3.114 9.6423-4.923v.004Z" fill="#FA7E3A"/><path d="M31.7118 44.3329c-2.3722.4471-4.1908.6951-6.6074.8862-.093.0081-.7962.0854-.7355.2968-.0202-.0407-.1455-.183-.194-.2968-.5537-1.2399-1.18-2.8132-1.467-4.1344-.0081-.0325.0041-.0651 0-.0976l5.8234-.1951c.582 1.6261 2.3843 2.1424 3.1805 3.5449v-.004Z" fill="#E3654E"/><path d="M82.8127 22.6693c-.3597.3252-.7193.7968-1.176 1.183l.784-2.2644c.1293.3577.3395.6952.392 1.0814Z" fill="#773585"/><path d="M58.2413 33.3042c-.0243-.5285-.2829-2.6303-.8325-2.7563-.1132-.0244-1.8469 1.2074-1.956 1.183l-.6344-1.4757c.5536-.3252 1.1153-.7358 1.6649-1.0814.1051.3334.2223.7846.5375.9838.5537.3456.7355-.1748 1.273-.0975.6749.0935 1.3498 1.8049 1.2245 2.3131-.0445.1748-1.0507.7683-1.273.935l-.004-.004Z" fill="#EB6724"/><defs><linearGradient id="a" x1="76.305" y1="31.6338" x2="48.2808" y2="67.0922" gradientUnits="userSpaceOnUse"><stop stop-color="#5A58AB"/><stop offset=".39" stop-color="#742C71"/><stop offset=".55" stop-color="#802A67"/><stop offset=".8" stop-color="#5E224D"/><stop offset=".85" stop-color="#572351"/><stop offset="1" stop-color="#83346A"/></linearGradient><linearGradient id="b" x1="59.0086" y1="37.2801" x2="52.8009" y2="62.4149" gradientUnits="userSpaceOnUse"><stop stop-color="#8A3077"/><stop offset=".41" stop-color="#C8386E"/><stop offset=".87" stop-color="#74264D"/><stop offset="1" stop-color="#A73062"/></linearGradient><linearGradient id="c" x1="63.8503" y1="37.093" x2="35.5077" y2="60.2505" gradientUnits="userSpaceOnUse"><stop stop-color="#461A3C"/><stop offset=".47" stop-color="#931B2C"/><stop offset=".89" stop-color="#781A47"/><stop offset="1" stop-color="#9B204D"/></linearGradient><linearGradient id="d" x1="83.8138" y1="32.2959" x2="70.6447" y2="38.8354" gradientUnits="userSpaceOnUse"><stop stop-color="#2A5881"/><stop offset="1" stop-color="#462652"/></linearGradient><linearGradient id="e" x1="47.9089" y1="1.0335" x2="29.6637" y2="16.6996" gradientUnits="userSpaceOnUse"><stop stop-color="#FB8C4B"/><stop offset="1" stop-color="#FDD19E"/></linearGradient><linearGradient id="f" x1="75.7924" y1="13.7783" x2="72.7005" y2="18.2126" gradientUnits="userSpaceOnUse"><stop stop-color="#7C2D5E"/><stop offset="1" stop-color="#90223B"/></linearGradient><linearGradient id="g" x1="79.5586" y1="18.2865" x2="71.7136" y2="22.5363" gradientUnits="userSpaceOnUse"><stop stop-color="#732C63"/><stop offset="1" stop-color="#951C2D"/></linearGradient><linearGradient id="h" x1="51.744" y1="7.3016" x2="27.0999" y2="16.067" gradientUnits="userSpaceOnUse"><stop stop-color="#FA8548"/><stop offset="1" stop-color="#FDE4B9"/></linearGradient><linearGradient id="i" x1="62.9185" y1="6.6841" x2="30.8165" y2="36.4511" gradientUnits="userSpaceOnUse"><stop stop-color="#D66492"/><stop offset=".31" stop-color="#FBAA7A"/><stop offset=".39" stop-color="#FDB880"/><stop offset=".95" stop-color="#FED9B1"/></linearGradient><linearGradient id="j" x1="62.8495" y1="12.5017" x2="25.2161" y2="21.0032" gradientUnits="userSpaceOnUse"><stop stop-color="#D54D59"/><stop offset=".24" stop-color="#FA8041"/><stop offset=".31" stop-color="#FB8F42"/><stop offset=".5" stop-color="#FBAC60"/><stop offset=".93" stop-color="#FDCC8E"/></linearGradient><linearGradient id="k" x1="64.8942" y1="11.2045" x2="25.7585" y2="28.0927" gradientUnits="userSpaceOnUse"><stop stop-color="#DA556A"/><stop offset=".91" stop-color="#FDD58A"/></linearGradient><linearGradient id="l" x1="56.9816" y1="2.5254" x2="29.7423" y2="28.0159" gradientUnits="userSpaceOnUse"><stop stop-color="#F0988E"/><stop offset=".3" stop-color="#FCC39B"/><stop offset="1" stop-color="#FEEBD4"/></linearGradient></defs></svg>