<svg id="visual" viewBox="0 0 2400 800" width="2400" height="800" xmlns="http://www.w3.org/2000/svg" xmlns:xlink="http://www.w3.org/1999/xlink" version="1.1"><g fill="#FFFFFF"><path d="M0 -23.6L5.3 -7.3L22.4 -7.3L8.6 2.8L13.9 19.1L0 9L-13.9 19.1L-8.6 2.8L-22.4 -7.3L-5.3 -7.3Z" transform="translate(187 339)"></path><path d="M0 -10.4L2.3 -3.2L9.9 -3.2L3.8 1.2L6.1 8.4L0 4L-6.1 8.4L-3.8 1.2L-9.9 -3.2L-2.3 -3.2Z" transform="translate(979 27)"></path><path d="M0 -21.7L4.9 -6.7L20.6 -6.7L7.9 2.6L12.8 17.6L0 8.3L-12.8 17.6L-7.9 2.6L-20.6 -6.7L-4.9 -6.7Z" transform="translate(1324 456)"></path><path d="M0 -15.1L3.4 -4.7L14.4 -4.7L5.5 1.8L8.9 12.2L0 5.8L-8.9 12.2L-5.5 1.8L-14.4 -4.7L-3.4 -4.7Z" transform="translate(1119 96)"></path><path d="M0 -17L3.8 -5.2L16.2 -5.2L6.2 2L10 13.7L0 6.5L-10 13.7L-6.2 2L-16.2 -5.2L-3.8 -5.2Z" transform="translate(1884 766)"></path><path d="M0 -14.2L3.2 -4.4L13.5 -4.4L5.1 1.7L8.3 11.5L0 5.4L-8.3 11.5L-5.1 1.7L-13.5 -4.4L-3.2 -4.4Z" transform="translate(37 83)"></path><path d="M0 -14.2L3.2 -4.4L13.5 -4.4L5.1 1.7L8.3 11.5L0 5.4L-8.3 11.5L-5.1 1.7L-13.5 -4.4L-3.2 -4.4Z" transform="translate(895 430)"></path><path d="M0 -11.3L2.5 -3.5L10.8 -3.5L4.1 1.3L6.7 9.2L0 4.3L-6.7 9.2L-4.1 1.3L-10.8 -3.5L-2.5 -3.5Z" transform="translate(1503 341)"></path><path d="M0 -19.8L4.4 -6.1L18.9 -6.1L7.2 2.3L11.7 16L0 7.6L-11.7 16L-7.2 2.3L-18.9 -6.1L-4.4 -6.1Z" transform="translate(941 583)"></path><path d="M0 -19.8L4.4 -6.1L18.9 -6.1L7.2 2.3L11.7 16L0 7.6L-11.7 16L-7.2 2.3L-18.9 -6.1L-4.4 -6.1Z" transform="translate(639 183)"></path><path d="M0 -11.3L2.5 -3.5L10.8 -3.5L4.1 1.3L6.7 9.2L0 4.3L-6.7 9.2L-4.1 1.3L-10.8 -3.5L-2.5 -3.5Z" transform="translate(483 607)"></path><path d="M0 -13.2L3 -4.1L12.6 -4.1L4.8 1.6L7.8 10.7L0 5L-7.8 10.7L-4.8 1.6L-12.6 -4.1L-3 -4.1Z" transform="translate(1710 736)"></path><path d="M0 -12.3L2.8 -3.8L11.7 -3.8L4.5 1.4L7.2 9.9L0 4.7L-7.2 9.9L-4.5 1.4L-11.7 -3.8L-2.8 -3.8Z" transform="translate(995 396)"></path><path d="M0 -13.2L3 -4.1L12.6 -4.1L4.8 1.6L7.8 10.7L0 5L-7.8 10.7L-4.8 1.6L-12.6 -4.1L-3 -4.1Z" transform="translate(326 258)"></path></g></svg>