<?xml version="1.0" standalone="no"?>
<!DOCTYPE svg PUBLIC "-//W3C//DTD SVG 20010904//EN"
 "http://www.w3.org/TR/2001/REC-SVG-20010904/DTD/svg10.dtd">
<svg version="1.0" xmlns="http://www.w3.org/2000/svg"
 width="64.000000pt" height="64.000000pt" viewBox="0 0 64.000000 64.000000"
 preserveAspectRatio="xMidYMid meet">

<g transform="translate(0.000000,64.000000) scale(0.100000,-0.100000)"
fill="#000000" stroke="none">
<path d="M5 630 c-12 -20 7 -30 55 -30 58 0 53 13 70 -195 7 -93 7 -131 0
-133 -24 -8 -50 -47 -50 -74 0 -31 39 -78 64 -78 11 0 13 -8 9 -34 -9 -58 53
-102 112 -80 23 9 48 62 41 90 -6 24 -6 24 79 24 85 0 85 0 79 -24 -6 -26 10
-64 35 -83 27 -20 70 -15 97 12 21 21 24 32 21 77 l-3 53 -238 5 c-213 4 -240
7 -250 22 -8 13 -8 23 0 35 10 16 37 19 250 23 l239 5 7 53 c3 30 8 99 10 155
l3 102 -117 3 -117 3 -3 27 c-4 36 -32 36 -36 0 l-3 -28 -104 0 -104 0 -3 38
-3 37 -67 3 c-38 2 -69 -1 -73 -8z m355 -167 c0 -56 0 -56 -20 -38 -16 14 -23
16 -32 7 -10 -10 -3 -22 30 -55 l42 -42 42 42 c33 33 40 45 30 55 -9 9 -16 7
-32 -7 -20 -18 -20 -18 -20 38 l0 57 101 0 100 0 -6 -97 c-10 -161 17 -143
-215 -143 -230 0 -205 -16 -215 138 l-7 102 101 0 101 0 0 -57z m-100 -358
c26 -32 -13 -81 -47 -59 -10 6 -19 19 -21 28 -8 38 43 61 68 31z m310 0 c26
-32 -13 -81 -47 -59 -23 14 -28 41 -13 59 16 19 44 19 60 0z"/>
</g>
</svg>
