<?xml version="1.0" standalone="no"?>
<!DOCTYPE svg PUBLIC "-//W3C//DTD SVG 20010904//EN"
 "http://www.w3.org/TR/2001/REC-SVG-20010904/DTD/svg10.dtd">
<svg version="1.0" xmlns="http://www.w3.org/2000/svg"
 width="64.000000pt" height="64.000000pt" viewBox="0 0 64.000000 64.000000"
 preserveAspectRatio="xMidYMid meet">

<g transform="translate(0.000000,64.000000) scale(0.100000,-0.100000)"
fill="#000000" stroke="none">
<path d="M105 580 c-4 -12 -15 -20 -29 -20 -40 0 -46 -17 -46 -137 0 -94 -3
-113 -15 -113 -13 0 -15 -22 -15 -135 l0 -135 320 0 320 0 0 135 c0 113 -2
135 -15 135 -12 0 -15 19 -15 113 0 120 -6 137 -46 137 -14 0 -25 8 -29 20 -6
18 -15 20 -91 20 -54 0 -83 -4 -79 -10 3 -5 37 -10 74 -10 63 0 69 -2 79 -25
7 -15 12 -74 12 -135 l0 -110 -30 0 c-23 0 -31 -5 -36 -25 -5 -21 -12 -25 -44
-25 -23 0 -43 7 -53 18 -20 22 -23 78 -4 85 10 4 10 7 0 18 -7 7 -13 21 -13
31 0 11 -7 18 -20 18 -13 0 -20 7 -20 18 0 39 -46 56 -71 26 -16 -19 -1 -47
27 -53 37 -6 54 -32 54 -81 0 -62 -20 -80 -87 -80 -46 0 -51 2 -57 25 -5 20
-13 25 -36 25 l-30 0 0 110 c0 61 5 120 12 135 10 23 16 25 80 25 39 0 68 4
68 10 0 6 -33 10 -79 10 -71 0 -80 -2 -86 -20z m-25 -160 c0 -67 -4 -110 -10
-110 -6 0 -10 43 -10 110 0 67 4 110 10 110 6 0 10 -43 10 -110z m500 0 c0
-67 -4 -110 -10 -110 -6 0 -10 43 -10 110 0 67 4 110 10 110 6 0 10 -43 10
-110z m-304 23 c-10 -10 -19 5 -10 18 6 11 8 11 12 0 2 -7 1 -15 -2 -18z
m-126 -268 l0 -115 -60 0 -60 0 0 115 0 115 60 0 60 0 0 -115z m460 0 l0 -115
-60 0 -60 0 0 115 0 115 60 0 60 0 0 -115z m-150 45 c0 -6 -53 -10 -140 -10
-87 0 -140 4 -140 10 0 6 53 10 140 10 87 0 140 -4 140 -10z m-198 -62 l-22
-22 -22 22 -22 22 44 0 44 0 -22 -22z m160 0 l-22 -22 -22 22 -22 22 44 0 44
0 -22 -22z m-202 -39 c0 -5 -9 -13 -20 -19 -18 -10 -20 -8 -20 26 0 36 0 37
20 19 11 -10 20 -22 20 -26z m90 -1 l0 -41 -25 23 -26 24 23 18 c13 10 24 18
26 18 1 0 2 -19 2 -42z m64 13 c3 -4 -6 -19 -19 -31 l-25 -23 0 42 c0 38 2 41
19 31 11 -5 22 -14 25 -19z m84 -21 c-3 -19 -5 -20 -23 -6 -20 14 -20 14 0 36
17 19 21 20 23 6 2 -9 2 -25 0 -36z m-193 -30 c18 -20 17 -20 -25 -20 -42 0
-43 0 -25 20 10 11 21 20 25 20 4 0 15 -9 25 -20z m160 0 c18 -20 17 -20 -25
-20 -42 0 -43 0 -25 20 10 11 21 20 25 20 4 0 15 -9 25 -20z"/>
<path d="M61 246 c-21 -25 -4 -58 27 -54 23 2 27 8 27 33 0 23 -5 31 -21 33
-11 2 -26 -4 -33 -12z m39 -26 c0 -5 -4 -10 -10 -10 -5 0 -10 5 -10 10 0 6 5
10 10 10 6 0 10 -4 10 -10z"/>
<path d="M61 146 c-21 -25 -4 -58 27 -54 23 2 27 8 27 33 0 23 -5 31 -21 33
-11 2 -26 -4 -33 -12z m39 -26 c0 -5 -4 -10 -10 -10 -5 0 -10 5 -10 10 0 6 5
10 10 10 6 0 10 -4 10 -10z"/>
<path d="M524 246 c-11 -28 1 -51 28 -54 31 -4 48 29 28 53 -16 19 -49 19 -56
1z m36 -26 c0 -5 -4 -10 -10 -10 -5 0 -10 5 -10 10 0 6 5 10 10 10 6 0 10 -4
10 -10z"/>
<path d="M524 146 c-11 -28 1 -51 28 -54 31 -4 48 29 28 53 -16 19 -49 19 -56
1z m36 -26 c0 -5 -4 -10 -10 -10 -5 0 -10 5 -10 10 0 6 5 10 10 10 6 0 10 -4
10 -10z"/>
<path d="M310 590 c0 -5 5 -10 10 -10 6 0 10 5 10 10 0 6 -4 10 -10 10 -5 0
-10 -4 -10 -10z"/>
</g>
</svg>
