<?xml version="1.0" standalone="no"?>
<!DOCTYPE svg PUBLIC "-//W3C//DTD SVG 20010904//EN"
 "http://www.w3.org/TR/2001/REC-SVG-20010904/DTD/svg10.dtd">
<svg version="1.0" xmlns="http://www.w3.org/2000/svg"
 width="64.000000pt" height="64.000000pt" viewBox="0 0 64.000000 64.000000"
 preserveAspectRatio="xMidYMid meet">

<g transform="translate(0.000000,64.000000) scale(0.100000,-0.100000)"
fill="#000000" stroke="none">
<path d="M97 628 c-40 -15 -24 -27 21 -15 51 14 88 3 130 -39 34 -34 35 -36
29 -101 -3 -36 -1 -78 3 -94 9 -31 5 -34 -34 -20 -15 6 -37 6 -57 1 -108 -31
-206 90 -154 189 20 40 13 52 -10 17 -26 -39 -29 -105 -8 -146 30 -58 75 -81
158 -80 38 0 84 -1 100 -3 25 -2 29 1 27 18 -2 11 -3 56 -3 100 1 95 -17 133
-78 165 -43 22 -80 24 -124 8z"/>
<path d="M425 626 c-77 -34 -111 -117 -79 -194 29 -70 69 -92 163 -92 42 0 87
-1 101 -2 21 -3 25 1 22 22 -3 33 -4 65 -2 121 1 26 -5 60 -14 77 -34 65 -126
98 -191 68z m126 -29 c50 -33 74 -87 61 -138 -6 -25 -7 -52 -1 -72 11 -38 7
-42 -30 -29 -20 7 -42 7 -63 2 -81 -24 -168 45 -168 133 0 37 34 89 71 109 45
24 89 23 130 -5z"/>
<path d="M395 537 c-4 -13 -5 -43 -3 -68 l3 -44 90 0 90 0 0 65 0 65 -87 3
c-85 3 -88 2 -93 -21z m165 -47 l0 -50 -75 0 -75 0 0 50 0 50 75 0 75 0 0 -50z"/>
<path d="M466 523 c-10 -10 -7 -61 4 -68 14 -8 50 17 50 36 0 16 -44 42 -54
32z m34 -33 c0 -5 -7 -10 -15 -10 -8 0 -15 5 -15 10 0 6 7 10 15 10 8 0 15 -4
15 -10z"/>
<path d="M62 488 c3 -46 6 -53 26 -56 13 -2 25 3 28 12 8 22 70 22 78 0 3 -9
15 -14 28 -12 20 3 23 10 26 56 l3 52 -30 0 c-17 0 -31 -4 -31 -10 0 -5 -16
-10 -35 -10 -19 0 -35 5 -35 10 0 6 -14 10 -31 10 l-30 0 3 -52z m38 -3 c0
-19 -4 -35 -10 -35 -5 0 -10 16 -10 35 0 19 5 35 10 35 6 0 10 -16 10 -35z
m130 0 c0 -19 -4 -35 -10 -35 -5 0 -10 16 -10 35 0 19 5 35 10 35 6 0 10 -16
10 -35z m-40 5 c0 -5 -16 -10 -35 -10 -19 0 -35 5 -35 10 0 6 16 10 35 10 19
0 35 -4 35 -10z"/>
<path d="M80 291 c-42 -22 -80 -83 -80 -129 0 -43 32 -104 67 -128 21 -14 49
-20 108 -21 44 -2 91 -4 105 -5 20 -2 24 1 22 17 -2 11 -3 56 -3 101 1 68 -2
86 -22 115 -43 65 -129 87 -197 50z m168 -46 c34 -36 34 -39 29 -102 -3 -36
-1 -79 3 -95 8 -27 7 -28 -13 -22 -12 5 -50 7 -85 6 -74 -3 -114 14 -142 61
-57 93 14 203 124 194 42 -4 55 -10 84 -42z"/>
<path d="M127 224 c-4 -4 -7 -18 -7 -31 0 -16 -8 -27 -25 -33 -14 -5 -28 -17
-32 -26 -8 -23 20 -48 46 -39 18 5 21 14 21 61 l0 54 40 0 c36 0 40 -3 40 -24
0 -18 -6 -25 -22 -28 -32 -4 -38 -53 -8 -63 36 -11 51 12 48 74 l-3 56 -45 3
c-25 2 -49 0 -53 -4z m-17 -100 c0 -17 -22 -14 -28 4 -2 7 3 12 12 12 9 0 16
-7 16 -16z m100 7 c0 -14 -18 -23 -30 -16 -6 4 -8 11 -5 16 8 12 35 12 35 0z"/>
<path d="M407 288 c-39 -23 -77 -86 -77 -128 0 -34 39 -110 56 -110 11 0 10 6
-6 28 -66 89 -6 212 103 212 53 0 94 -27 118 -78 18 -36 20 -49 11 -83 -6 -25
-7 -52 -1 -72 11 -37 8 -40 -22 -28 -30 11 -176 2 -157 -10 7 -5 47 -8 88 -8
41 0 84 -1 95 -3 16 -2 19 2 17 22 -1 14 -2 45 -1 70 2 87 -1 102 -18 132 -43
73 -135 98 -206 56z"/>
<path d="M440 211 c8 -17 6 -20 -13 -23 -36 -5 -35 -51 2 -88 32 -32 55 -37
95 -19 48 22 61 101 18 107 -19 3 -21 6 -11 18 6 8 8 18 4 22 -4 4 -14 -3 -22
-15 -19 -28 -34 -29 -51 -3 -16 27 -37 27 -22 1z m110 -61 c0 -28 -35 -60 -65
-60 -30 0 -65 32 -65 60 0 18 7 20 65 20 58 0 65 -2 65 -20z"/>
</g>
</svg>
