<?xml version="1.0" standalone="no"?>
<!DOCTYPE svg PUBLIC "-//W3C//DTD SVG 20010904//EN"
 "http://www.w3.org/TR/2001/REC-SVG-20010904/DTD/svg10.dtd">
<svg version="1.0" xmlns="http://www.w3.org/2000/svg"
 width="64.000000pt" height="64.000000pt" viewBox="0 0 64.000000 64.000000"
 preserveAspectRatio="xMidYMid meet">

<g transform="translate(0.000000,64.000000) scale(0.100000,-0.100000)"
fill="#000000" stroke="none">
<path d="M303 618 c-6 -7 -27 -49 -48 -94 l-36 -81 -87 -12 c-118 -17 -132
-21 -132 -36 0 -7 34 -44 75 -82 l74 -69 -16 -96 c-9 -53 -13 -104 -10 -112 6
-15 11 -15 46 4 50 25 49 25 53 -3 3 -21 7 -22 98 -22 91 0 95 1 98 22 4 28 3
28 53 3 35 -19 40 -19 46 -4 3 8 -1 59 -10 112 l-16 96 74 69 c41 38 75 75 75
82 0 15 -14 19 -131 36 l-87 12 -43 91 c-45 92 -58 107 -76 84z m57 -129 c19
-39 42 -74 50 -79 8 -4 44 -11 80 -15 36 -4 69 -9 73 -12 5 -3 -19 -34 -53
-68 -47 -50 -60 -69 -56 -87 13 -56 26 -142 22 -145 -11 -11 -56 23 -61 48 -4
15 -12 33 -19 39 -11 8 -10 17 5 47 11 22 16 47 13 62 -9 38 -59 81 -94 81
-35 0 -85 -43 -94 -81 -3 -15 2 -40 13 -62 15 -30 16 -39 5 -47 -7 -6 -15 -24
-19 -39 -5 -25 -50 -59 -61 -48 -4 3 9 89 22 145 4 18 -9 37 -56 87 -34 34
-58 65 -53 68 4 3 37 8 73 12 36 4 72 11 80 15 8 5 31 40 50 79 18 39 37 71
40 71 3 0 22 -32 40 -71z m4 -191 c20 -29 20 -47 -1 -70 -30 -34 -103 -12
-103 31 0 31 30 61 60 61 18 0 34 -8 44 -22z m4 -156 c6 -9 12 -35 12 -59 l0
-43 -60 0 -60 0 0 43 c0 44 13 71 40 80 21 7 53 -2 68 -21z"/>
</g>
</svg>
