<?xml version="1.0" standalone="no"?>
<!DOCTYPE svg PUBLIC "-//W3C//DTD SVG 20010904//EN"
 "http://www.w3.org/TR/2001/REC-SVG-20010904/DTD/svg10.dtd">
<svg version="1.0" xmlns="http://www.w3.org/2000/svg"
 width="64.000000pt" height="64.000000pt" viewBox="0 0 64.000000 64.000000"
 preserveAspectRatio="xMidYMid meet">

<g transform="translate(0.000000,64.000000) scale(0.100000,-0.100000)"
fill="#000000" stroke="none">
<path d="M130 523 c-44 -40 -50 -95 -17 -145 l25 -36 -30 -13 c-34 -14 -78
-73 -78 -106 0 -27 35 -53 72 -53 38 0 35 18 -4 28 -40 10 -44 27 -19 69 14
22 35 37 70 50 28 10 51 21 51 25 0 4 -13 14 -30 23 -80 41 -59 155 30 155 21
0 43 -6 50 -15 14 -17 40 -20 40 -6 0 5 -12 19 -26 30 -39 31 -96 28 -134 -6z"/>
<path d="M376 529 c-14 -11 -26 -25 -26 -30 0 -14 26 -11 40 6 7 8 28 15 47
15 44 0 83 -37 83 -80 0 -33 -38 -80 -65 -80 -32 0 -14 -29 24 -40 43 -11 104
-72 99 -98 -2 -9 -18 -21 -36 -26 -37 -10 -38 -33 -1 -28 38 6 69 30 69 55 0
32 -44 92 -78 106 l-30 13 25 36 c20 29 24 45 20 77 -11 82 -108 124 -171 74z"/>
<path d="M264 461 c-56 -35 -67 -131 -19 -171 12 -10 10 -16 -17 -34 -38 -25
-65 -62 -73 -98 -11 -44 29 -62 149 -66 130 -5 180 10 184 53 3 40 -30 91 -72
112 l-35 16 24 29 c78 92 -39 224 -141 159z m110 -32 c19 -15 26 -29 26 -57 0
-76 -83 -110 -137 -56 -21 21 -24 32 -19 62 10 67 76 93 130 51z m45 -207 c14
-10 31 -33 38 -50 13 -31 12 -33 -13 -42 -41 -16 -227 -13 -250 4 -17 14 -18
17 -4 42 43 78 156 101 229 46z"/>
</g>
</svg>
