<?xml version="1.0" standalone="no"?>
<!DOCTYPE svg PUBLIC "-//W3C//DTD SVG 20010904//EN"
 "http://www.w3.org/TR/2001/REC-SVG-20010904/DTD/svg10.dtd">
<svg version="1.0" xmlns="http://www.w3.org/2000/svg"
 width="64.000000pt" height="64.000000pt" viewBox="0 0 64.000000 64.000000"
 preserveAspectRatio="xMidYMid meet">

<g transform="translate(0.000000,64.000000) scale(0.100000,-0.100000)"
fill="#000000" stroke="none">
<path d="M455 585 c-43 -42 -30 -112 38 -203 l26 -34 31 44 c66 89 77 149 34
192 -36 35 -95 36 -129 1z m93 -66 c5 -40 -48 -51 -62 -13 -10 26 5 45 33 42
20 -2 27 -9 29 -29z"/>
<path d="M455 376 c-11 -25 5 -49 42 -60 55 -15 117 34 84 67 -8 8 -11 4 -11
-16 0 -20 -6 -28 -25 -33 -42 -11 -73 3 -77 34 -4 24 -5 25 -13 8z"/>
<path d="M84 320 c-31 -12 -54 -49 -54 -85 0 -32 67 -156 88 -163 20 -6 85
108 90 158 3 38 0 49 -20 67 -28 26 -74 36 -104 23z m67 -66 c9 -11 10 -20 2
-32 -15 -24 -44 -27 -59 -7 -28 38 27 75 57 39z"/>
<path d="M510 280 c0 -5 5 -10 10 -10 6 0 10 5 10 10 0 6 -4 10 -10 10 -5 0
-10 -4 -10 -10z"/>
<path d="M510 240 c0 -5 5 -10 10 -10 6 0 10 5 10 10 0 6 -4 10 -10 10 -5 0
-10 -4 -10 -10z"/>
<path d="M500 200 c0 -5 5 -10 10 -10 6 0 10 5 10 10 0 6 -4 10 -10 10 -5 0
-10 -4 -10 -10z"/>
<path d="M470 180 c0 -5 5 -10 10 -10 6 0 10 5 10 10 0 6 -4 10 -10 10 -5 0
-10 -4 -10 -10z"/>
<path d="M390 160 c0 -5 5 -10 10 -10 6 0 10 5 10 10 0 6 -4 10 -10 10 -5 0
-10 -4 -10 -10z"/>
<path d="M370 129 c0 -5 5 -7 10 -4 6 3 10 8 10 11 0 2 -4 4 -10 4 -5 0 -10
-5 -10 -11z"/>
<path d="M55 87 c-5 -12 -1 -25 10 -37 23 -26 110 -29 119 -4 9 25 7 54 -4 54
-6 0 -10 -8 -8 -17 2 -10 -7 -22 -20 -29 -33 -17 -75 -3 -83 27 -5 21 -7 22
-14 6z"/>
</g>
</svg>
